<svg width="330" height="223" viewBox="0 0 330 223" fill="none" xmlns="http://www.w3.org/2000/svg">
<rect width="330" height="223" fill="#FAFAFA"/>
<path fill-rule="evenodd" clip-rule="evenodd" d="M166.47 53L136.22 115.91L165.03 133.507L150.109 173H87.7198C83.6888 173 81 169.629 81 166.259V59.7415C81 55.6969 84.3599 53 87.7198 53H166.47ZM173.445 53L158.382 107.111L187.192 133.507L165.877 173H242.285C245.644 173 249.004 170.304 249.004 166.259V59.7415C249.004 56.371 246.32 53 242.285 53H173.445Z" fill="#E5E5E5"/>
<path fill-rule="evenodd" clip-rule="evenodd" d="M156.551 155.953L128.137 123.596L93.7437 161.825H154.332L156.551 155.953Z" fill="white"/>
<path d="M210.691 102.691C216.629 102.691 221.441 97.8623 221.441 91.9055C221.441 85.9482 216.629 81.1191 210.691 81.1191C204.753 81.1191 199.936 85.9482 199.936 91.9055C199.936 97.8623 204.753 102.691 210.691 102.691Z" fill="white"/>
<path fill-rule="evenodd" clip-rule="evenodd" d="M162.21 140.974L144.715 161.825H154.332L162.21 140.974ZM171.908 161.825H238.164L191.045 106.605L176.609 123.811L187.192 133.507L171.908 161.825Z" fill="white"/>
</svg>
