<svg width="133" height="25" viewBox="0 0 133 25" fill="none" xmlns="http://www.w3.org/2000/svg">
<path d="M14.8117 4.22237L9.81604 6.74445L0 1.8401L6.24303 0L14.8117 4.22237Z" fill="#00FFB2"/>
<path d="M9.76715 11.7721V6.67165L0 1.8125V21.6561L4.9782 24.0862V9.80481L9.76715 11.7721Z" fill="#167962"/>
<path d="M9.76746 11.6762V21.6503L4.99121 24.0891V9.69336L9.76746 11.6762Z" fill="#0CC399"/>
<path d="M14.7578 4.19403L19.5765 6.74445L29.0329 1.83569L23.0335 0L14.7578 4.19403Z" fill="#4EA1FE"/>
<path d="M19.5352 11.749V6.71586L29.034 1.8125V21.656L24.1924 24.0862V9.75177L19.5352 11.749Z" fill="#115EE8"/>
<path d="M19.5352 11.736V21.6613L24.2577 24.0881V9.69238L19.5352 11.736Z" fill="#4EA1FE"/>
<path fill-rule="evenodd" clip-rule="evenodd" d="M9.71289 11.7832L14.7651 9.29639L19.5337 11.6718L14.6653 14.1705L9.71289 11.7832Z" fill="#00FFB2"/>
<path d="M9.76758 11.7881V16.6564L14.6512 19.156V14.1557L9.76758 11.7881Z" fill="#167962"/>
<path d="M14.6514 14.13L19.5349 11.6763V16.6041L14.6514 19.1575V14.13Z" fill="#115EE8"/>
<path d="M9.76758 6.64608V11.7884L14.7585 9.36449V4.19385L9.76758 6.64608Z" fill="#0CC399"/>
<path d="M19.5341 6.69782V11.7884L14.7578 9.3793V4.19385L19.5341 6.69782Z" fill="#3494FF"/>
<path d="M110.135 9.6445C109.509 9.24411 108.813 9.01493 108.051 8.95423L112.219 3.93755V1.57324H100.511V5.18765H106.704L103.265 9.45427V11.8186C103.505 11.728 103.796 11.6646 104.139 11.6283C104.5 11.574 104.843 11.5468 105.169 11.5468C105.872 11.5468 106.472 11.6646 106.97 11.9001C107.485 12.1356 107.871 12.4708 108.128 12.9056C108.402 13.3223 108.54 13.8296 108.54 14.4275C108.54 15.0253 108.402 15.5417 108.128 15.9765C107.871 16.4113 107.51 16.7465 107.047 16.982C106.584 17.2175 106.035 17.3353 105.4 17.3353C104.697 17.3353 104.028 17.1813 103.393 16.8733C102.776 16.5472 102.304 16.1305 101.978 15.6232L99.3789 18.368C100.099 19.2376 100.983 19.908 102.029 20.379C103.076 20.8319 104.225 21.0584 105.478 21.0584C106.901 21.0584 108.137 20.7866 109.183 20.2431C110.247 19.6996 111.07 18.9387 111.653 17.9603C112.254 16.982 112.554 15.8587 112.554 14.5905C112.554 13.431 112.331 12.4346 111.885 11.6012C111.456 10.7497 110.873 10.0974 110.135 9.6445Z" fill="#232833"/>
<path d="M88.8257 8.65231C88.486 8.30899 88.0923 8.02364 87.642 7.79808C86.9729 7.45385 86.2181 7.28174 85.3775 7.28174C84.2281 7.28174 83.1988 7.58067 82.2896 8.17855C81.3975 8.77642 80.6856 9.5917 80.1538 10.6244C79.6392 11.6571 79.3818 12.8347 79.3818 14.1573C79.3818 15.4798 79.6392 16.6574 80.1538 17.6901C80.6856 18.7228 81.3975 19.5381 82.2896 20.136C83.1988 20.7338 84.2281 21.0328 85.3775 21.0328C86.2181 21.0328 86.9815 20.8607 87.6677 20.5164C88.1111 20.2936 88.4971 20.0173 88.8257 19.6885V20.761H92.6855V7.5535H88.8257V8.65231ZM86.1752 17.2825C85.6434 17.2825 85.1631 17.1466 84.7342 16.8749C84.3053 16.6031 83.9708 16.2317 83.7306 15.7606C83.4905 15.2896 83.3704 14.7551 83.3704 14.1573C83.3704 13.5413 83.4905 12.9977 83.7306 12.5267C83.988 12.0556 84.3225 11.6933 84.7342 11.4397C85.1631 11.1679 85.652 11.032 86.2009 11.032C86.7499 11.032 87.2302 11.1679 87.642 11.4397C88.0708 11.6933 88.3968 12.0556 88.6198 12.5267C88.86 12.9977 88.98 13.5413 88.98 14.1573C88.98 15.0631 88.7227 15.815 88.2081 16.4129C87.6934 16.9926 87.0158 17.2825 86.1752 17.2825Z" fill="#232833"/>
<path d="M49.1489 6.93956L42.4144 1.9164L39.3906 1.65527V21.0881H43.6021V8.73261L49.1292 12.4841L54.6717 8.74741V21.0881H58.9106V1.65527L55.8594 1.9164L49.1489 6.93956Z" fill="#232833"/>
<path d="M131.478 7.38728C131.001 6.17613 130.313 5.13167 129.413 4.2557C128.531 3.36071 127.489 2.6804 126.289 2.21479C125.107 1.73015 123.81 1.48828 122.398 1.48828H119.062H117.58H114.906V21.2271H117.713H119.063H122.452C123.846 21.2271 125.135 20.9852 126.317 20.5006C127.517 20.0159 128.558 19.3356 129.441 18.4597C130.323 17.5837 131.003 16.5401 131.479 15.3281C131.973 14.117 132.22 12.7935 132.22 11.3577C132.22 9.90377 131.972 8.5803 131.478 7.38728ZM127.269 14.5726C126.81 15.4857 126.157 16.185 125.31 16.6697C124.462 17.1353 123.474 17.369 122.345 17.369H119.062C119.062 17.369 119.062 21.9757 119.062 17.3545C119.062 12.7333 119.062 11.7119 119.062 5.37173V5.31828H122.345C123.474 5.31828 124.454 5.56015 125.283 6.04478C126.131 6.52942 126.784 7.21879 127.242 8.11378C127.719 9.00878 127.957 10.0804 127.957 11.3287C127.957 12.577 127.728 13.6595 127.269 14.5726Z" fill="#232833"/>
<path d="M74.7633 7.60434V2.14844H70.8496V7.60434H74.7591H74.7633Z" fill="#232833"/>
<path d="M66.8433 6.09868V2.17725H62.9219V6.09868H66.839H66.8433Z" fill="#232833"/>
<path d="M66.8433 21.0869V6.96973H62.9219V21.0869H66.839H66.8433Z" fill="#232833"/>
<path d="M78.677 7.60352H70.8496V11.0755H78.677V7.60352Z" fill="#232833"/>
<path d="M74.8062 11.0859H74.8019H70.8691V21.022H70.87V21.051H77.6368V17.2889H74.8062V11.0859Z" fill="#232833"/>
</svg>
