<svg width="24" height="24" viewBox="0 0 24 24" fill="none" xmlns="http://www.w3.org/2000/svg">
<path d="M18.2785 12.1896V10.8845C18.2785 9.08396 18.2785 8.18366 17.7191 7.62429C17.1598 7.06492 16.2595 7.06492 14.4589 7.06492H13.1763C12.3957 7.06492 12.0054 7.06492 11.6544 6.91954C11.3034 6.77417 11.0274 6.49817 10.4754 5.94617L9.84819 5.31894C9.29619 4.76694 9.0202 4.49095 8.66923 4.34557C8.31826 4.2002 7.92794 4.2002 7.1473 4.2002H6.81963C5.01904 4.2002 4.11874 4.2002 3.55937 4.75957C3 5.31894 3 6.21923 3 8.01982V13.7493C3 15.5499 3 16.4502 3.55937 17.0095C4.11874 17.5689 5.01904 17.5689 6.81963 17.5689H12.8992" stroke="#115EE8" stroke-width="1.20955" stroke-linecap="round"/>
<path d="M15.5571 17.5682H18.2786M18.2786 17.5682H21.0001M18.2786 17.5682V20.2897M18.2786 17.5682V14.8467" stroke="#115EE8" stroke-width="1.2" stroke-linecap="round"/>
</svg>
