<svg width="24" height="23" viewBox="0 0 24 23" fill="none" xmlns="http://www.w3.org/2000/svg">
<g id="Group 48095665">
<path id="Rectangle 4017" d="M19.8481 11.2367V9.60544C19.8481 7.3547 19.8481 6.22933 19.1489 5.53012C18.4497 4.8309 17.3243 4.8309 15.0736 4.8309H13.4704C12.4946 4.8309 12.0067 4.8309 11.568 4.64918C11.1293 4.46746 10.7843 4.12247 10.0943 3.43247L9.31023 2.64843C8.62024 1.95844 8.27524 1.61344 7.83653 1.43172C7.39782 1.25 6.90992 1.25 5.93413 1.25H5.52454C3.2738 1.25 2.14843 1.25 1.44921 1.94921C0.75 2.64843 0.75 3.7738 0.75 6.02454V13.1863C0.75 15.4371 0.75 16.5624 1.44921 17.2617C2.14843 17.9609 3.2738 17.9609 5.52454 17.9609H13.124" stroke="currentColor" stroke-width="1.51194" stroke-linecap="round"/>
<path id="Vector" d="M16.4463 17.9609H19.8481M19.8481 17.9609H23.25M19.8481 17.9609V21.3628M19.8481 17.9609V14.5591" stroke="currentColor" stroke-width="1.5" stroke-linecap="round"/>
</g>
</svg>
