<svg width="40" height="40" viewBox="0 0 40 40" fill="none" xmlns="http://www.w3.org/2000/svg">
<rect x="0.5" y="0.5" width="39" height="39" rx="19.5" stroke="black"/>
<path d="M20 40C31.0457 40 40 31.0457 40 20C40 8.95431 31.0457 0 20 0C8.95431 0 0 8.95431 0 20C0 31.0457 8.95431 40 20 40Z" fill="#F4E6E1"/>
<mask id="mask0_2479_10751" style="mask-type:luminance" maskUnits="userSpaceOnUse" x="0" y="0" width="40" height="40">
<path d="M40 20C40 8.9543 31.0457 2.45765e-06 20 2.94047e-06C8.9543 3.42329e-06 -1.35705e-06 8.95431 -8.74228e-07 20C-3.91405e-07 31.0457 8.9543 40 20 40C31.0457 40 40 31.0457 40 20Z" fill="white"/>
</mask>
<g mask="url(#mask0_2479_10751)">
<path d="M12.4747 17.1512C8.329 11.8531 11.8437 6.18734 15.0351 4.40131C19.7126 1.78355 27.5633 2.584 28.5854 4.57861C29.4745 6.3151 27.9309 7.86907 27.9309 7.86907C27.9309 7.86907 30.2802 8.49222 30.1915 10.6094C30.1029 12.7265 27.4512 13.7721 27.4512 13.7721C27.4512 13.7721 30.1837 15.4512 25.188 18.6634C20.1924 21.8809 13.3638 18.288 12.4747 17.1512Z" fill="#D88D48"/>
<path d="M37.4199 40.4159H2.57812C2.57812 40.4159 3.6341 34.5728 6.03024 31.2094C8.42377 27.8433 17.3122 26.6152 17.3122 26.6152L20.0003 27.0298L22.6885 26.6152C22.6885 26.6152 31.5795 27.8433 33.973 31.2094C36.3666 34.5702 37.4199 40.4159 37.4199 40.4159Z" fill="#9FC9C1"/>
<path d="M28.5507 28.029C28.1466 31.004 25.6905 32.5032 23.4925 33.507C21.3076 34.5056 18.8071 34.5056 16.6196 33.507C14.4216 32.5032 11.8768 31.0014 11.4727 28.029L13.0579 27.458C13.4073 30.0236 15.6731 31.5046 17.5321 32.2998C19.1461 32.9908 20.966 32.9908 22.5799 32.2998C24.4416 31.5046 26.7047 30.0236 27.0541 27.458L28.5507 28.029Z" fill="#95C1B8"/>
<path d="M27.0535 27.4576C26.691 30.1328 24.2454 31.6294 22.3446 32.3985C20.8741 32.993 19.2341 32.993 17.7635 32.3985C15.8654 31.6294 13.4197 30.1328 13.0547 27.4602C15.7663 26.5659 19.5104 26.18 19.5756 26.1748C19.8833 26.154 20.0528 26.1514 20.0528 26.1514C20.0528 26.1514 20.2222 26.154 20.5299 26.1748C20.5977 26.1774 24.3418 26.5633 27.0535 27.4576Z" fill="#F1B69A"/>
<path d="M19.9397 29.5822C18.636 29.5822 17.5801 28.5263 17.5801 27.2226V22.7119H22.2994V27.22C22.302 28.5237 21.2434 29.5822 19.9397 29.5822Z" fill="#F1B69A"/>
<path d="M22.3013 22.1904V24.9594C22.3013 24.9594 21.5087 26.3387 19.9417 26.3387C18.6823 26.3387 17.582 25.1445 17.582 25.1445V22.1904H22.3013Z" fill="#E6AC90"/>
<path d="M13.338 17.3467C12.063 15.4068 10.582 16.6531 10.582 18.0194C10.582 19.9957 12.7253 21.6983 13.9507 20.2799C15.1735 18.8589 13.338 17.3467 13.338 17.3467Z" fill="#F1B69A"/>
<path d="M13.0599 18.241C12.2647 16.7574 11.167 18.1419 11.5868 18.6921" stroke="#E07E61" stroke-width="0.260733" stroke-miterlimit="10" stroke-linecap="round"/>
<path d="M26.0887 17.3467C27.3636 15.4068 28.8446 16.6531 28.8446 18.0194C28.8446 19.9957 26.7014 21.6983 25.4759 20.2799C24.2505 18.8589 26.0887 17.3467 26.0887 17.3467Z" fill="#F1B69A"/>
<path d="M26.3672 18.241C27.1624 16.7574 28.2601 18.1419 27.8403 18.6921" stroke="#E07E61" stroke-width="0.260733" stroke-miterlimit="10" stroke-linecap="round"/>
<path d="M19.7051 24.9599C14.6625 24.9573 11.6797 19.4454 12.8582 13.7875C13.8307 9.12554 25.5924 9.12554 26.5623 13.7875C27.7435 19.4454 24.7529 24.9625 19.7051 24.9599Z" fill="#F1B69A"/>
<path opacity="0.5" d="M19.0352 19.2937C19.554 19.5414 20.7247 18.9912 20.7482 19.2937C20.7716 19.5961 20.1276 19.8621 19.893 19.8621C19.6557 19.8621 19.0352 19.2937 19.0352 19.2937Z" fill="#F1B69A"/>
<path opacity="0.5" d="M19.2573 21.5367C19.9639 21.5393 20.9755 21.1716 21.1319 21.5367C21.2884 21.9017 20.4254 22.6317 19.8909 22.5796C19.359 22.5301 18.4516 21.534 19.2573 21.5367Z" fill="#F1B69A"/>
<path d="M16.2691 8.68477C16.1465 11.9126 23.5071 13.6465 25.4599 13.3493C27.4128 13.0521 27.9995 10.5099 24.9359 8.42403C21.8723 6.34077 16.3238 7.25073 16.2691 8.68477Z" fill="#D88D48"/>
</g>
</svg>
