<svg width="22" height="22" viewBox="0 0 22 22" fill="none" xmlns="http://www.w3.org/2000/svg">
<path d="M5.29376 19.5937C5.29376 19.9767 5.44587 20.3439 5.71663 20.6146C5.98738 20.8854 6.35461 21.0375 6.73751 21.0375C7.12042 21.0375 7.48764 20.8854 7.7584 20.6146C8.02915 20.3439 8.18126 19.9767 8.18126 19.5937C8.18126 19.2108 8.02915 18.8436 7.7584 18.5729C7.48764 18.3021 7.12042 18.15 6.73751 18.15C6.35461 18.15 5.98738 18.3021 5.71663 18.5729C5.44587 18.8436 5.29376 19.2108 5.29376 19.5937Z" fill="#E54850"/>
<path d="M15.4 19.5937C15.4 19.9767 15.5521 20.3439 15.8229 20.6146C16.0936 20.8854 16.4609 21.0375 16.8438 21.0375C17.2267 21.0375 17.5939 20.8854 17.8647 20.6146C18.1354 20.3439 18.2875 19.9767 18.2875 19.5937C18.2875 19.2108 18.1354 18.8436 17.8647 18.5729C17.5939 18.3021 17.2267 18.15 16.8438 18.15C16.4609 18.15 16.0936 18.3021 15.8229 18.5729C15.5521 18.8436 15.4 19.2108 15.4 19.5937Z" fill="#E54850"/>
<path d="M19.4563 16.4312H7.90627C7.28752 16.4312 6.66877 15.8813 6.53127 15.2625L4.46877 3.09375C4.26252 1.925 3.16252 1.03125 1.99377 1.03125H1.51252C1.23752 1.03125 0.962524 1.30625 0.962524 1.58125C0.962524 1.85625 1.23752 2.13125 1.51252 2.13125H1.99377C2.61252 2.13125 3.23127 2.68125 3.36877 3.3L5.43127 15.4688C5.63752 16.6375 6.73752 17.5312 7.90627 17.5312H19.4563C19.7313 17.5312 20.0063 17.2563 20.0063 16.9813C20.0063 16.7063 19.8 16.4312 19.4563 16.4312Z" fill="#E54850"/>
<path d="M18.9062 3.85001H6.59999C6.32499 3.85001 6.04999 4.12501 6.04999 4.40001C6.04999 4.67501 6.32499 4.95001 6.59999 4.95001H18.9062C19.4562 4.95001 19.7312 5.29376 19.5937 5.84376L18.0812 11.8938C17.9437 12.5813 17.1875 13.1313 16.5 13.2L7.97499 13.8188C7.69999 13.8188 7.42499 14.0938 7.49374 14.4375C7.49374 14.7125 7.76874 14.9875 8.11249 14.9188L16.6375 14.3C17.8062 14.2313 18.9062 13.2688 19.1812 12.1688L20.6937 6.11876C20.9687 4.95001 20.1437 3.85001 18.9062 3.85001Z" fill="#E54850"/>
<path d="M11.4617 12C11.2842 12 11.1075 11.9348 10.9721 11.805L8.20251 9.13821C7.9325 8.87793 7.9325 8.45555 8.20251 8.19527C8.47323 7.93499 8.91157 7.93499 9.18159 8.19527L11.4617 10.3905L15.8184 6.19572C16.0884 5.93476 16.5268 5.93476 16.7975 6.19572C17.0675 6.456 17.0675 6.8777 16.7975 7.13799L11.9512 11.805C11.8158 11.9348 11.6384 12 11.4617 12Z" fill="#E54850"/>
</svg>
