<svg width="24" height="24" viewBox="0 0 24 24" fill="none" xmlns="http://www.w3.org/2000/svg">
<path d="M5.77502 21.375C5.77502 21.7928 5.94096 22.1934 6.23633 22.4887C6.5317 22.7841 6.93231 22.95 7.35002 22.95C7.76774 22.95 8.16835 22.7841 8.46372 22.4887C8.75909 22.1934 8.92502 21.7928 8.92502 21.375C8.92502 20.9573 8.75909 20.5567 8.46372 20.2614C8.16835 19.966 7.76774 19.8 7.35002 19.8C6.93231 19.8 6.5317 19.966 6.23633 20.2614C5.94096 20.5567 5.77502 20.9573 5.77502 21.375Z" fill="#232833"/>
<path d="M16.8 21.375C16.8 21.7928 16.966 22.1934 17.2614 22.4887C17.5567 22.7841 17.9573 22.95 18.375 22.95C18.7928 22.95 19.1934 22.7841 19.4887 22.4887C19.7841 22.1934 19.95 21.7928 19.95 21.375C19.95 20.9573 19.7841 20.5567 19.4887 20.2614C19.1934 19.966 18.7928 19.8 18.375 19.8C17.9573 19.8 17.5567 19.966 17.2614 20.2614C16.966 20.5567 16.8 20.9573 16.8 21.375Z" fill="#232833"/>
<path d="M21.225 17.925H8.62505C7.95005 17.925 7.27505 17.325 7.12505 16.65L4.87505 3.375C4.65005 2.1 3.45005 1.125 2.17505 1.125H1.65005C1.35005 1.125 1.05005 1.425 1.05005 1.725C1.05005 2.025 1.35005 2.325 1.65005 2.325H2.17505C2.85005 2.325 3.52505 2.925 3.67505 3.6L5.92505 16.875C6.15005 18.15 7.35005 19.125 8.62505 19.125H21.225C21.525 19.125 21.825 18.825 21.825 18.525C21.825 18.225 21.6 17.925 21.225 17.925Z" fill="#232833"/>
<path d="M20.625 4.19995H7.19998C6.89998 4.19995 6.59998 4.49995 6.59998 4.79995C6.59998 5.09995 6.89998 5.39995 7.19998 5.39995H20.625C21.225 5.39995 21.525 5.77495 21.375 6.37495L19.725 12.975C19.575 13.725 18.75 14.325 18 14.4L8.69998 15.075C8.39998 15.075 8.09998 15.375 8.17498 15.75C8.17498 16.05 8.47498 16.35 8.84998 16.275L18.15 15.6C19.425 15.525 20.625 14.475 20.925 13.275L22.575 6.67495C22.875 5.39995 21.975 4.19995 20.625 4.19995Z" fill="#232833"/>
</svg>
