<svg width="262" height="36" viewBox="0 0 262 36" fill="none" xmlns="http://www.w3.org/2000/svg">
<path d="M35.24 35.432C34.472 35.432 33.896 35.144 33.512 34.424L31.736 31.256C31.352 30.536 30.776 30.536 30.392 31.256L28.712 34.424C28.328 35.096 27.752 35.432 26.984 35.432H14.6C13.88 35.432 13.352 35.24 12.824 34.76L11.912 33.944C11.432 33.512 11.048 33.56 10.568 33.992L9.704 34.76C9.176 35.24 8.648 35.432 7.928 35.432H3.56C2.216 35.432 1.88 34.52 2.936 33.656L5.864 31.304C6.392 30.872 6.392 30.392 5.864 29.96L3.416 27.992C2.84 27.512 2.6 26.984 2.6 26.264L2.552 23.72C2.552 23.096 2.456 22.76 2.216 22.76C1.304 22.76 0.776 22.232 0.776 21.32V19.64C0.776 18.728 1.112 18.2 1.688 18.2C2.216 18.2 2.552 18.152 2.552 18.152V18.104C2.6 17.144 3.128 16.664 4.04 16.664H7.544C8.456 16.664 8.984 16.904 8.984 17.432C8.936 17.96 9.32 18.2 9.944 18.2H12.536C13.16 18.2 13.496 18.152 13.496 18.152V18.104C13.544 17.144 14.072 16.664 14.984 16.664H18.488C19.4 16.664 19.928 16.904 19.928 17.432C19.88 17.96 20.024 18.2 20.312 18.2C21.224 18.2 21.752 18.728 21.752 19.64V21.32C21.752 22.232 21.416 22.76 20.84 22.76C20.216 22.76 19.88 23.096 19.88 23.72L19.928 26.216C19.928 26.936 19.64 27.512 19.064 27.992L16.664 29.96C16.184 30.392 16.184 30.872 16.664 31.304L20.264 34.28C20.744 34.712 21.32 34.616 21.608 34.04L26.744 24.584C26.984 24.152 26.984 23.72 26.696 23.24L22.856 17.192C22.232 16.232 22.664 15.464 23.816 15.464H27.944C28.712 15.464 29.24 15.8 29.672 16.424L29.816 16.664C30.2 17.288 30.824 17.288 31.16 16.616L31.496 16.04C31.688 15.656 31.784 15.416 31.784 15.416L31.736 10.04C31.736 9.416 31.4 9.08 30.872 9.08C30.296 9.08 29.912 9.368 29.816 9.944L29.336 12.344C29.144 13.16 28.616 13.64 27.752 13.64H23.384C22.376 13.64 21.896 13.016 22.088 12.056L23.816 3.944C23.912 3.512 23.864 3.128 23.672 2.696L23.624 2.6C23.096 1.64 23.528 0.871999 24.632 0.871999H30.152C31.16 0.871999 31.64 1.496 31.448 2.456L31.256 3.464C31.112 4.088 31.4 4.52 32.072 4.52H38.984C39.896 4.52 40.424 5.048 40.424 5.96V7.64C40.424 8.552 40.184 9.08 39.752 9.08C39.32 9.08 39.032 9.416 39.032 10.04L39.08 14.456C39.08 15.176 38.936 15.656 38.6 16.232L34.808 23.24C34.568 23.672 34.568 24.152 34.808 24.584L40.328 33.704C40.904 34.712 40.52 35.432 39.368 35.432H35.24ZM2.696 16.376C1.592 16.376 1.16 15.704 1.64 14.696L2.936 12.056C3.272 11.384 2.984 10.904 2.264 10.904H2.216C1.304 10.904 0.776 10.376 0.776 9.464V7.784C0.776 6.872 1.304 6.344 2.216 6.344H7.16C7.784 6.344 8.12 6.008 8.12 5.384V4.616C8.12 4.184 8.024 3.896 7.784 3.464L7.304 2.6C6.728 1.64 7.16 0.871999 8.312 0.871999H13.016C13.928 0.871999 14.456 1.4 14.456 2.312V5.384C14.456 6.008 14.792 6.344 15.416 6.344H20.312C21.224 6.344 21.752 6.872 21.752 7.784V9.464C21.752 10.376 21.224 10.904 20.312 10.904H20.072C19.352 10.904 19.064 11.432 19.4 12.056L20.84 14.648C21.368 15.608 20.888 16.376 19.784 16.376H17.528C16.712 16.376 16.136 16.04 15.848 15.224L15.56 14.408C15.224 13.496 14.456 13.688 14.456 14.6V14.936C14.456 15.848 13.928 16.376 13.016 16.376H9.56C8.648 16.376 8.12 15.848 8.12 14.936V14.552C8.12 13.64 7.352 13.4 7.016 14.312L6.68 15.224C6.392 16.04 5.864 16.376 5.048 16.376H2.696ZM17 5.432C15.992 5.432 15.512 4.808 15.752 3.848L15.944 3.032C16.136 2.216 16.712 1.784 17.576 1.784H20.12C21.128 1.784 21.608 2.408 21.368 3.368L21.176 4.184C20.984 5 20.408 5.432 19.544 5.432H17ZM4.952 1.784C5.816 1.784 6.344 2.168 6.536 3.032L6.728 3.848C6.968 4.808 6.488 5.432 5.48 5.432H2.984C2.12 5.432 1.592 5.048 1.4 4.184L1.208 3.368C0.968 2.408 1.448 1.784 2.456 1.784H4.952ZM10.616 26.408C11.048 26.792 11.528 26.744 11.96 26.36L12.968 25.544C13.352 25.208 13.544 24.824 13.544 24.344V23.72C13.544 23.144 13.112 22.76 12.536 22.76H9.896C9.272 22.76 8.936 23.096 8.936 23.72V24.344C8.936 24.872 9.128 25.208 9.512 25.496L10.616 26.408ZM45.1723 22.952C45.1723 22.04 45.7003 21.512 46.6123 21.512H59.7163C60.3403 21.512 60.6763 21.272 60.6763 20.888C60.6763 20.072 61.0603 19.544 61.8763 19.256L67.4923 17.432C68.3083 17.144 68.2123 16.376 67.3483 16.376H51.1723C50.2603 16.376 49.7323 15.848 49.7323 14.936V13.16C49.7323 12.248 50.2603 11.72 51.1723 11.72H80.2123C81.1243 11.72 81.6523 12.248 81.6523 13.16V16.04C81.6523 16.856 81.2683 17.432 80.5003 17.72L72.8683 20.408C72.0043 20.744 72.1483 21.512 73.0603 21.512H83.8603C84.7723 21.512 85.3003 22.04 85.3003 22.952V24.728C85.3003 25.64 84.7723 26.168 83.8603 26.168H70.7083C70.0843 26.168 69.7483 26.504 69.7483 27.128L69.7963 32.168C69.7963 34.04 68.4043 35.432 66.5323 35.432H59.3323C58.1323 35.432 57.7003 34.616 58.4683 33.656L60.2443 31.448C60.5323 31.064 60.6763 30.728 60.6763 30.248V27.128C60.6763 26.504 60.3403 26.168 59.7163 26.168H46.6123C45.7003 26.168 45.1723 25.64 45.1723 24.728V22.952ZM75.7963 10.76C74.8843 10.76 74.3563 10.28 74.3563 9.464V9.128C74.3563 8.504 74.0203 8.168 73.3963 8.168H57.0763C56.4523 8.168 56.1163 8.504 56.1163 9.128V9.32C56.1163 10.232 55.5883 10.76 54.6763 10.76H47.5243C46.6123 10.76 46.0843 10.232 46.0843 9.32V5.048C46.0843 4.136 46.6123 3.608 47.5243 3.608H59.7163C60.3403 3.608 60.6763 3.512 60.6763 3.368C60.6763 3.224 60.5803 2.984 60.2923 2.648C59.5243 1.688 59.9563 0.871999 61.1563 0.871999H69.0763C69.9883 0.871999 70.5163 1.352 70.5163 2.216V2.648C70.5163 3.272 70.8523 3.608 71.4763 3.608H82.9483C83.8603 3.608 84.3883 4.136 84.3883 5.048V9.32C84.3883 10.232 83.8603 10.76 82.9483 10.76H75.7963ZM89.1845 21.512C89.1845 20.6 89.7125 20.072 90.6245 20.072H94.5125C95.0885 20.072 95.4245 19.784 95.4725 19.16C95.5205 18.632 95.1365 18.296 94.5125 18.296H91.5365C90.6245 18.296 90.0965 17.768 90.0965 16.856V11C90.0965 10.088 90.6245 9.56 91.5365 9.56H93.6005C94.5125 9.56 95.0405 10.088 95.0405 11V13.88C95.0405 14.504 95.2325 14.84 95.4245 14.84C95.6165 14.84 95.8085 14.504 95.8565 13.928L96.0485 11.24C96.0965 10.328 96.6245 9.848 97.5365 9.848H115.249C115.777 9.848 115.873 9.56 116.209 9.032C116.401 8.696 116.833 8.504 117.409 8.504H120.625C121.489 8.504 122.017 8.696 122.113 9.176C122.161 9.656 122.401 9.848 122.737 9.848C123.025 9.848 122.881 9.608 123.025 9.08C123.121 8.648 123.553 8.36 124.321 8.36H126.241C127.009 8.36 127.585 8.6 127.873 9.08L128.017 9.368C128.209 9.704 128.497 9.896 128.545 10.328C128.593 10.568 128.593 10.904 128.593 11.288V12.2C128.593 13.112 128.065 13.64 127.153 13.64H123.937C123.313 13.64 122.977 14.024 123.073 14.696L123.793 18.584C123.937 19.352 124.513 19.544 125.041 18.92L126.673 17.096C127.537 16.136 128.449 16.472 128.449 17.768V20.696C128.449 21.416 128.257 21.896 127.777 22.472L125.473 25.016C125.137 25.4 125.041 25.736 125.137 26.264L125.761 30.008C125.857 30.632 126.001 30.872 126.097 30.872C126.193 30.872 126.337 30.776 126.721 30.392L127.825 29.288C128.737 28.376 129.601 28.712 129.601 30.008V33.848C129.601 34.76 129.073 35.288 128.161 35.288H122.449C121.585 35.288 121.105 34.856 120.913 33.992L120.529 32.12C120.385 31.304 119.953 31.064 119.569 31.448C118.705 32.408 117.793 32.072 117.793 30.776L117.841 27.848C117.841 27.128 118.081 26.6 118.513 26.072L118.657 25.88C118.993 25.496 119.089 25.16 118.993 24.632L117.025 14.504C116.929 13.928 116.545 13.64 115.969 13.64H103.345C102.769 13.64 102.433 13.976 102.385 14.552L100.993 33.944C100.945 34.856 100.417 35.336 99.5045 35.336H95.8085C94.8485 35.336 94.3685 34.808 94.4165 33.848L95.0405 24.92C95.0885 24.248 94.9445 23.912 94.6565 23.912C94.3685 23.912 94.1285 24.248 94.0805 24.824L93.3605 33.944C93.3125 34.856 92.7845 35.336 91.8725 35.336H90.8645C89.9045 35.336 89.4245 34.808 89.4725 33.848L90.1925 24.68C90.2405 24.104 89.9045 24.008 89.5205 23.624C89.3285 23.384 89.1845 23 89.1845 22.472V21.512ZM116.929 17C116.929 17.912 116.449 18.44 115.633 18.44H115.249C114.625 18.44 114.289 18.68 114.289 19.16C114.289 19.64 114.625 19.928 115.249 19.928H115.489C116.401 19.928 116.929 20.456 116.929 21.368V27.8C116.929 28.712 116.449 29.24 115.633 29.24H115.249C114.625 29.24 114.289 29.528 114.289 30.008C114.289 30.488 114.625 30.776 115.249 30.776H115.489C116.401 30.776 116.929 31.304 116.929 32.216V33.032C116.929 33.944 116.401 34.472 115.489 34.472H104.257C103.345 34.472 102.817 33.944 102.817 33.032V16.136C102.817 15.224 103.345 14.696 104.257 14.696H115.489C116.401 14.696 116.929 15.224 116.929 16.136V17ZM99.0245 7.592C98.1125 7.592 97.5845 7.352 97.5845 6.968C97.5845 6.584 97.2485 6.344 96.6245 6.344H91.8245C90.9125 6.344 90.3845 5.816 90.3845 4.904V3.992C90.3845 3.08 90.9125 2.552 91.8245 2.552H96.4325C97.1045 2.552 97.6325 2.552 97.5845 2.504H97.5365C96.6245 1.64 96.9605 0.727998 98.2565 0.727998H104.449C105.361 0.727998 105.889 1.064 105.889 1.64C105.889 2.216 106.225 2.552 106.849 2.552H111.984C112.656 2.552 113.137 2.504 113.137 2.504H113.089C112.177 1.64 112.513 0.727998 113.809 0.727998H119.953C120.865 0.727998 121.393 1.064 121.393 1.64C121.393 2.216 121.729 2.552 122.353 2.552H127.249C128.161 2.552 128.689 3.08 128.689 3.992V4.904C128.689 5.816 128.161 6.344 127.249 6.344H122.209C121.681 6.344 121.489 6.632 121.153 7.112C120.913 7.4 120.529 7.592 119.953 7.592H114.577C113.665 7.592 113.137 7.352 113.137 6.968C113.137 6.584 112.801 6.344 112.177 6.344H106.705C106.177 6.344 105.985 6.632 105.649 7.112C105.409 7.4 105.025 7.592 104.449 7.592H99.0245ZM112.321 24.152C112.321 23.528 111.984 23.192 111.361 23.192H108.865C108.241 23.192 107.905 23.528 107.905 24.152V25.112C107.905 25.736 108.241 26.072 108.865 26.072H111.361C111.984 26.072 112.321 25.736 112.321 25.112V24.152ZM108.865 29.24C108.241 29.24 107.905 29.528 107.905 30.008C107.905 30.488 108.241 30.776 108.865 30.776H109.345C109.969 30.776 110.305 30.488 110.305 30.008C110.305 29.528 109.969 29.24 109.345 29.24H108.865ZM108.865 18.44C108.241 18.44 107.905 18.68 107.905 19.16C107.905 19.64 108.241 19.928 108.865 19.928H109.345C109.969 19.928 110.305 19.64 110.305 19.16C110.305 18.728 109.969 18.44 109.345 18.44H108.865ZM140.397 16.376C139.485 16.376 138.957 15.848 138.957 14.936V5.288C138.957 4.856 138.861 4.568 138.621 4.136L138.237 3.512C137.613 2.552 138.045 1.784 139.197 1.784H166.701C167.613 1.784 168.141 2.312 168.141 3.224V14.936C168.141 15.848 167.613 16.376 166.701 16.376H140.397ZM148.077 10.856C148.077 11.48 148.413 11.816 149.037 11.816H158.061C158.685 11.816 159.021 11.48 159.021 10.856V7.304C159.021 6.68 158.685 6.344 158.061 6.344H149.037C148.413 6.344 148.077 6.68 148.077 7.304V10.856ZM154.461 19.64C154.461 18.728 154.989 18.2 155.901 18.2H171.261C172.173 18.2 172.701 18.728 172.701 19.64V33.176C172.701 34.088 172.173 34.616 171.261 34.616H155.901C154.989 34.616 154.461 34.088 154.461 33.176V19.64ZM165.405 23.72C165.405 23.096 165.069 22.76 164.445 22.76H162.717C162.093 22.76 161.757 23.096 161.757 23.72V29.096C161.757 29.72 162.093 30.056 162.717 30.056H164.445C165.069 30.056 165.405 29.72 165.405 29.096V23.72ZM134.397 19.64C134.397 18.728 134.925 18.2 135.837 18.2H151.197C152.109 18.2 152.637 18.728 152.637 19.64V33.176C152.637 34.088 152.109 34.616 151.197 34.616H135.837C134.925 34.616 134.397 34.088 134.397 33.176V19.64ZM145.341 23.72C145.341 23.096 145.005 22.76 144.381 22.76H142.653C142.029 22.76 141.693 23.096 141.693 23.72V29.096C141.693 29.72 142.029 30.056 142.653 30.056H144.381C145.005 30.056 145.341 29.72 145.341 29.096V23.72ZM191.129 31.256C191.129 30.344 191.465 29.816 192.041 29.816C192.569 29.816 192.905 29.48 192.905 28.856V13.16C192.905 12.248 193.433 11.72 194.345 11.72H198.953C199.865 11.72 200.393 12.248 200.393 13.16V28.856C200.393 29.48 200.729 29.816 201.353 29.816H202.121C202.745 29.816 203.081 29.48 203.081 28.856V7.448C203.081 6.824 202.745 6.488 202.121 6.488H193.385C192.473 6.488 191.945 5.96 191.945 5.048V3.32C191.945 2.408 192.473 1.88 193.385 1.88H216.233C217.145 1.88 217.673 2.408 217.673 3.32V5.048C217.673 5.96 217.145 6.488 216.233 6.488H212.057C211.433 6.488 211.097 6.824 211.097 7.448V13.736C211.097 14.36 211.433 14.696 212.057 14.696H214.937C215.849 14.696 216.377 15.224 216.377 16.136V17.72C216.377 18.632 215.849 19.16 214.937 19.16H212.057C211.433 19.16 211.097 19.496 211.097 20.12V28.856C211.097 29.48 211.433 29.816 212.057 29.816H216.329C217.241 29.816 217.769 30.344 217.769 31.256V33.176C217.769 34.088 217.241 34.616 216.329 34.616H192.569C191.657 34.616 191.129 34.088 191.129 33.176V31.256ZM190.409 30.488C190.409 31.304 190.025 31.832 189.209 32.072L182.105 34.088C181.145 34.376 180.473 33.896 180.473 32.888V15.512C180.473 14.888 180.137 14.552 179.513 14.552H179.129C178.217 14.552 177.689 14.024 177.689 13.112V11.432C177.689 10.52 178.217 9.992 179.129 9.992H186.809C187.721 9.992 188.249 10.52 188.249 11.432V26.6C188.249 27.32 188.441 27.704 188.729 27.608C189.737 27.224 190.409 27.704 190.409 28.76V30.488ZM179.513 3.416C179.177 2.456 179.609 1.784 180.665 1.784H184.793C185.609 1.784 186.137 2.168 186.425 2.936L187.673 6.536C188.009 7.544 187.577 8.168 186.521 8.168H182.393C181.577 8.168 181.049 7.784 180.761 7.016L179.513 3.416ZM249.301 2.456C248.917 1.496 249.397 0.871999 250.453 0.871999H257.125C257.941 0.871999 258.469 1.256 258.805 1.976L260.677 6.488C261.109 7.496 260.629 8.168 259.573 8.168H257.797C257.173 8.168 256.837 8.504 256.837 9.128L256.885 15.368C256.885 15.992 257.221 16.328 257.845 16.328H259.045C259.957 16.328 260.485 16.856 260.485 17.768V30.44C260.485 32.312 259.141 33.704 257.269 33.704H250.021C248.821 33.704 248.389 32.888 249.157 31.928L250.933 29.672C251.221 29.288 251.365 28.952 251.365 28.472V21.896C251.365 21.272 251.029 20.936 250.405 20.936H242.293C241.669 20.936 241.333 21.272 241.333 21.896V33.992C241.333 34.904 240.805 35.432 239.893 35.432H233.653C232.741 35.432 232.213 34.952 232.213 33.992L232.165 21.896C232.165 21.272 231.829 20.936 231.205 20.936H222.709C221.797 20.936 221.269 20.408 221.269 19.496V17.768C221.269 16.856 221.797 16.328 222.709 16.328H231.253C231.877 16.328 232.213 15.992 232.213 15.368L232.165 9.608C232.165 8.984 231.829 8.648 231.205 8.648H224.533C223.621 8.648 223.093 8.12 223.093 7.208V5.528C223.093 4.616 223.621 4.088 224.533 4.088H231.253C231.877 4.088 232.213 3.8 232.213 3.416C232.213 2.984 232.165 2.744 232.069 2.648C231.205 1.736 231.589 0.871999 232.837 0.871999H239.893C240.805 0.871999 241.333 1.4 241.333 2.312V3.128C241.333 3.752 241.669 4.088 242.293 4.088H248.773C249.493 4.088 249.781 3.656 249.493 2.984L249.301 2.456ZM247.717 9.608C247.717 8.984 247.381 8.648 246.757 8.648H242.293C241.669 8.648 241.333 8.984 241.333 9.608V15.368C241.333 15.992 241.669 16.328 242.293 16.328H246.805C247.429 16.328 247.765 15.992 247.765 15.368L247.717 9.608Z" fill="black"/>
</svg>
