<svg width="54" height="26" viewBox="0 0 54 26" fill="none" xmlns="http://www.w3.org/2000/svg">
<rect x="8.84961" y="3.57129" width="44.3369" height="17.0527" rx="2.13158" fill="url(#paint0_linear_3211_17767)"/>
<rect x="9.06277" y="3.78445" width="43.9106" height="16.6263" rx="1.91842" stroke="#FEB869" stroke-width="0.426317"/>
<path d="M29.8202 12.7304H24.4657V15.2457C24.4657 15.6208 24.6618 15.8169 25.054 15.8169H29.3342C29.5389 15.8169 29.7094 15.7658 29.8373 15.6635C30.0078 15.51 30.1186 14.9643 30.1698 14.0264L30.7666 14.214C30.6814 15.2712 30.5364 15.9022 30.3318 16.1239C30.1442 16.3029 29.8629 16.3967 29.5048 16.4138H24.8835C24.1928 16.4138 23.8518 16.0557 23.8518 15.3565V10.8802H24.4657V12.1421H29.1978V9.91671H23.5107V9.31987H29.8202V12.7304ZM36.5731 8.9106H37.204C37.204 9.62682 37.1784 10.3004 37.1273 10.9143C37.5792 13.097 38.3636 14.8364 39.4806 16.1154L39.0372 16.6269C38.1249 15.4674 37.4342 14.0349 36.9568 12.3467C36.9141 12.5855 36.8715 12.8071 36.8289 13.0288C36.5049 14.4954 35.7801 15.7061 34.6461 16.644L34.2283 16.1409C35.2174 15.3054 35.8824 14.2566 36.2064 12.9862C36.4452 11.9204 36.5731 10.5647 36.5731 8.9106ZM32.6083 8.95323C33.1881 9.38808 33.6741 9.82292 34.0663 10.2663L33.6485 10.6926C33.2904 10.2748 32.7959 9.83145 32.182 9.37103L32.6083 8.95323ZM31.6108 11.477H33.4524V15.203C33.7594 14.9472 34.0919 14.6574 34.4415 14.3248L34.595 14.9558C34.0663 15.4588 33.5036 15.9107 32.9068 16.3029L32.668 15.7572C32.7959 15.6549 32.8641 15.527 32.8641 15.3906V12.0653H31.6108V11.477ZM45.4149 9.87408H43.019V9.26871H47.8023V9.87408H46.0373V12.27H47.6829V12.8412H46.0373V15.7914H47.9728V16.3967H42.7547V15.7914H43.6244V11.2809H44.2212V15.7914H45.4149V9.87408ZM41.1688 8.95323C41.723 9.3966 42.1919 9.83145 42.5756 10.2663L42.1578 10.6926C41.8082 10.2663 41.3393 9.82292 40.7425 9.35397L41.1688 8.95323ZM40.1286 11.477H41.9532V15.1604C42.226 14.9217 42.5159 14.6488 42.8314 14.3419L42.9934 14.9984C42.4989 15.4759 41.9788 15.9107 41.4246 16.2944L41.1858 15.7402C41.3052 15.6379 41.3649 15.5185 41.3649 15.3821V12.0653H40.1286V11.477Z" fill="#A06F39"/>
<path d="M0.531577 21.7138L2.90166 17.0983L7.59361 19.6019L5.06146 24.1137C4.85561 24.4805 4.31645 24.4447 4.16089 24.0539L3.65701 22.7881C3.5157 22.4332 3.15553 22.2155 2.77558 22.2555L1.0287 22.4394C0.633511 22.481 0.350054 22.0673 0.531577 21.7138Z" fill="url(#paint1_linear_3211_17767)"/>
<path d="M0.531577 21.7138L2.90166 17.0983L7.59361 19.6019L5.06146 24.1137C4.85561 24.4805 4.31645 24.4447 4.16089 24.0539L3.65701 22.7881C3.5157 22.4332 3.15553 22.2155 2.77558 22.2555L1.0287 22.4394C0.633511 22.481 0.350054 22.0673 0.531577 21.7138Z" stroke="url(#paint2_linear_3211_17767)" stroke-width="0.4" stroke-linecap="round" stroke-linejoin="round"/>
<path d="M17.7262 21.7138L15.3561 17.0983L10.6642 19.6019L13.1964 24.1137C13.4022 24.4805 13.9414 24.4447 14.0969 24.0539L14.6008 22.7881C14.7421 22.4332 15.1023 22.2155 15.4822 22.2555L17.2291 22.4394C17.6243 22.481 17.9078 22.0673 17.7262 21.7138Z" fill="url(#paint3_linear_3211_17767)"/>
<path d="M17.7262 21.7138L15.3561 17.0983L10.6642 19.6019L13.1964 24.1137C13.4022 24.4805 13.9414 24.4447 14.0969 24.0539L14.6008 22.7881C14.7421 22.4332 15.1023 22.2155 15.4822 22.2555L17.2291 22.4394C17.6243 22.481 17.9078 22.0673 17.7262 21.7138Z" stroke="url(#paint4_linear_3211_17767)" stroke-width="0.4" stroke-linecap="round" stroke-linejoin="round"/>
<g filter="url(#filter0_d_3211_17767)">
<path d="M9.22737 2.36485C9.52231 2.19894 9.88245 2.19894 10.1774 2.36485L16.9597 6.1799C17.2648 6.35151 17.4536 6.67433 17.4536 7.02437V14.6112C17.4536 14.9612 17.2648 15.284 16.9597 15.4556L10.1774 19.2707C9.88245 19.4366 9.52231 19.4366 9.22737 19.2707L2.44506 15.4556C2.13997 15.284 1.95117 14.9612 1.95117 14.6112V7.02437C1.95117 6.67433 2.13997 6.35151 2.44506 6.1799L9.22737 2.36485Z" fill="url(#paint5_linear_3211_17767)"/>
</g>
<path d="M9.4351 10.8184L1.95117 15.3105L9.96967 19.5385L17.4536 15.3105L9.4351 10.8184Z" fill="#FFB35E"/>
<path d="M9.4351 10.8184L1.95117 6.59895L9.96967 2.09825L17.4536 6.59895L9.4351 10.8184Z" fill="#FFEBD5"/>
<g filter="url(#filter1_f_3211_17767)">
<path d="M9.28674 2.47041C9.54482 2.32524 9.85994 2.32524 10.118 2.47041L16.9003 6.28546C17.1673 6.43562 17.3325 6.71809 17.3325 7.02437V14.6112C17.3325 14.9174 17.1673 15.1999 16.9003 15.3501L10.118 19.1651C9.85994 19.3103 9.54482 19.3103 9.28674 19.1651L2.50443 15.3501C2.23749 15.1999 2.07228 14.9174 2.07228 14.6112V7.02437C2.07228 6.71809 2.23749 6.43562 2.50444 6.28546L9.28674 2.47041Z" stroke="#FF8804" stroke-width="0.242225"/>
</g>
<path d="M9.70269 1.26594L18.4228 6.062L18.4228 15.5741L9.70269 20.3702L0.982573 15.5741L0.982573 6.062L9.70269 1.26594Z" stroke="url(#paint6_linear_3211_17767)" stroke-width="1.9378"/>
<g filter="url(#filter2_d_3211_17767)">
<path d="M4.85742 10.4387L8.73303 13.7245L14.5464 7.91113" stroke="url(#paint7_linear_3211_17767)" stroke-width="1.9378" stroke-linecap="round" stroke-linejoin="round"/>
</g>
<defs>
<filter id="filter0_d_3211_17767" x="1.95117" y="1.80423" width="18.8447" height="19.9651" filterUnits="userSpaceOnUse" color-interpolation-filters="sRGB">
<feFlood flood-opacity="0" result="BackgroundImageFix"/>
<feColorMatrix in="SourceAlpha" type="matrix" values="0 0 0 0 0 0 0 0 0 0 0 0 0 0 0 0 0 0 127 0" result="hardAlpha"/>
<feOffset dx="1.9378" dy="0.968901"/>
<feGaussianBlur stdDeviation="0.702453"/>
<feComposite in2="hardAlpha" operator="out"/>
<feColorMatrix type="matrix" values="0 0 0 0 0.989421 0 0 0 0 0.660906 0 0 0 0 0.284781 0 0 0 0.58 0"/>
<feBlend mode="multiply" in2="BackgroundImageFix" result="effect1_dropShadow_3211_17767"/>
<feBlend mode="normal" in="SourceGraphic" in2="effect1_dropShadow_3211_17767" result="shape"/>
</filter>
<filter id="filter1_f_3211_17767" x="1.56361" y="1.85267" width="16.2771" height="17.9304" filterUnits="userSpaceOnUse" color-interpolation-filters="sRGB">
<feFlood flood-opacity="0" result="BackgroundImageFix"/>
<feBlend mode="normal" in="SourceGraphic" in2="BackgroundImageFix" result="shape"/>
<feGaussianBlur stdDeviation="0.19378" result="effect1_foregroundBlur_3211_17767"/>
</filter>
<filter id="filter2_d_3211_17767" x="3.88867" y="6.94238" width="11.627" height="7.85098" filterUnits="userSpaceOnUse" color-interpolation-filters="sRGB">
<feFlood flood-opacity="0" result="BackgroundImageFix"/>
<feColorMatrix in="SourceAlpha" type="matrix" values="0 0 0 0 0 0 0 0 0 0 0 0 0 0 0 0 0 0 127 0" result="hardAlpha"/>
<feOffset dy="0.1"/>
<feComposite in2="hardAlpha" operator="out"/>
<feColorMatrix type="matrix" values="0 0 0 0 0.442074 0 0 0 0 0.231767 0 0 0 0 0 0 0 0 1 0"/>
<feBlend mode="multiply" in2="BackgroundImageFix" result="effect1_dropShadow_3211_17767"/>
<feBlend mode="normal" in="SourceGraphic" in2="effect1_dropShadow_3211_17767" result="shape"/>
</filter>
<linearGradient id="paint0_linear_3211_17767" x1="54.4655" y1="1.86602" x2="13.4516" y2="19.4267" gradientUnits="userSpaceOnUse">
<stop stop-color="#FFE5C6"/>
<stop offset="0.45" stop-color="#FFF5EB"/>
<stop offset="1" stop-color="#FFD494"/>
</linearGradient>
<linearGradient id="paint1_linear_3211_17767" x1="5.65684" y1="17.7366" x2="2.90065" y2="22.4164" gradientUnits="userSpaceOnUse">
<stop stop-color="#EC7F00"/>
<stop offset="0.54" stop-color="#FFEDD8"/>
<stop offset="1" stop-color="#FFD8AB"/>
</linearGradient>
<linearGradient id="paint2_linear_3211_17767" x1="4.8626" y1="18.4583" x2="2.61175" y2="23.1623" gradientUnits="userSpaceOnUse">
<stop stop-color="#D98A30"/>
<stop offset="0.485" stop-color="#FFE1BF"/>
<stop offset="1" stop-color="#FFC37F"/>
</linearGradient>
<linearGradient id="paint3_linear_3211_17767" x1="12.601" y1="17.7366" x2="15.3572" y2="22.4164" gradientUnits="userSpaceOnUse">
<stop stop-color="#EC7F00"/>
<stop offset="0.54" stop-color="#FFEDD8"/>
<stop offset="1" stop-color="#FFD8AB"/>
</linearGradient>
<linearGradient id="paint4_linear_3211_17767" x1="13.3952" y1="18.4583" x2="15.6461" y2="23.1623" gradientUnits="userSpaceOnUse">
<stop stop-color="#D98A30"/>
<stop offset="0.485" stop-color="#FFE1BF"/>
<stop offset="1" stop-color="#FFC37F"/>
</linearGradient>
<linearGradient id="paint5_linear_3211_17767" x1="9.70238" y1="2.09766" x2="9.70238" y2="19.5379" gradientUnits="userSpaceOnUse">
<stop stop-color="#FDD8AD"/>
<stop offset="1" stop-color="#FDBB71"/>
</linearGradient>
<linearGradient id="paint6_linear_3211_17767" x1="9.70268" y1="7.5" x2="9.70268" y2="21.476" gradientUnits="userSpaceOnUse">
<stop stop-color="#FFEEDC"/>
<stop offset="1" stop-color="#FFC380"/>
</linearGradient>
<linearGradient id="paint7_linear_3211_17767" x1="13.4699" y1="7.91113" x2="8.79514" y2="14.9232" gradientUnits="userSpaceOnUse">
<stop stop-color="#BA854C"/>
<stop offset="1" stop-color="#9C6A36"/>
</linearGradient>
</defs>
</svg>
