<svg width="16" height="16" viewBox="0 0 16 16" fill="none" xmlns="http://www.w3.org/2000/svg">
<g opacity="0.7">
<path d="M11.9375 3.35993L7.99996 7.29743L4.06246 3.35993C3.95812 3.26627 3.84096 3.21943 3.71096 3.21943C3.58096 3.21943 3.46629 3.26893 3.36696 3.36793C3.26762 3.46693 3.21812 3.5816 3.21846 3.71193C3.21879 3.84227 3.26562 3.95943 3.35896 4.06343L7.29646 8.00093L3.35896 11.9384C3.22362 12.0738 3.17929 12.2353 3.22596 12.4229C3.27262 12.6106 3.38729 12.7278 3.56996 12.7744C3.75262 12.8211 3.91662 12.7768 4.06196 12.6414L7.99946 8.70393L11.937 12.6414C12.0413 12.7351 12.1585 12.7819 12.2885 12.7819C12.4185 12.7819 12.5331 12.7324 12.6325 12.6334C12.7318 12.5344 12.7813 12.4198 12.781 12.2894C12.7806 12.1591 12.7338 12.0419 12.6405 11.9379L8.70296 8.00043L12.6405 4.06293C12.7758 3.9276 12.8201 3.7661 12.7735 3.57843C12.7268 3.39077 12.6096 3.2736 12.422 3.22693C12.2343 3.18027 12.0728 3.2246 11.9375 3.35993Z" fill="white"/>
</g>
</svg>
