<svg width="16" height="16" viewBox="0 0 16 16" fill="none" xmlns="http://www.w3.org/2000/svg">
  <path
    d="M6.924 4.76089C7.37997 3.58696 7.60795 3 8 3C8.39205 3 8.62003 3.58696 9.076 4.76089L9.09724 4.81555C9.35484 5.47876 9.48364 5.81037 9.74614 6.01192C10.0086 6.21348 10.3532 6.24535 11.0424 6.30909L11.167 6.32061C12.2949 6.42493 12.8589 6.47709 12.9796 6.84764C13.1003 7.21818 12.6814 7.61169 11.8438 8.39871L11.5642 8.66138C11.1402 9.05978 10.9282 9.25898 10.8294 9.52007C10.8109 9.56877 10.7956 9.61866 10.7835 9.66943C10.7185 9.94161 10.7806 10.2306 10.9048 10.8086L10.9434 10.9885C11.1716 12.0506 11.2857 12.5817 11.0865 12.8108C11.0121 12.8964 10.9153 12.958 10.8078 12.9883C10.5202 13.0694 10.1118 12.7257 9.2951 12.0384C8.75881 11.5871 8.49066 11.3615 8.1828 11.3107C8.0617 11.2908 7.9383 11.2908 7.8172 11.3107C7.50934 11.3615 7.24119 11.5871 6.7049 12.0384C5.88817 12.7257 5.4798 13.0694 5.19217 12.9883C5.08469 12.958 4.98794 12.8964 4.91349 12.8108C4.71427 12.5817 4.82837 12.0506 5.05657 10.9885L5.09522 10.8086C5.21939 10.2306 5.28148 9.94161 5.21652 9.66943C5.20441 9.61866 5.18908 9.56877 5.17065 9.52007C5.07183 9.25898 4.85981 9.05978 4.43578 8.66138L4.15622 8.39871C3.31857 7.61169 2.89974 7.21818 3.02042 6.84764C3.14109 6.47709 3.70506 6.42493 4.83299 6.32061L4.95758 6.30909C5.64676 6.24535 5.99135 6.21348 6.25386 6.01192C6.51636 5.81037 6.64516 5.47876 6.90276 4.81555L6.924 4.76089Z"
    stroke="currentColor" stroke-opacity="1" />
</svg>