<svg width="22" height="22" viewBox="0 0 22 22" fill="none" xmlns="http://www.w3.org/2000/svg">
<path d="M3.63086 2.64008C5.1427 1.2653 10.9925 -0.212621 16.1749 2.59471C16.2222 2.62036 16.2435 2.67754 16.2241 2.72781L14.6051 6.93551C14.5823 6.99481 14.6144 7.06047 14.6751 7.07905C16.5269 7.64514 19.7039 9.75574 18.4209 14.0001" stroke="#232833" stroke-width="1.33" stroke-linecap="round"/>
<path d="M16.0234 2.53224C13.8141 1.33555 8.29041 -0.230172 3.5376 2.59371C3.49271 2.62038 3.4733 2.67594 3.49205 2.72468L5.1124 6.93589C5.13522 6.9952 5.10318 7.06086 5.04241 7.07944C3.19066 7.64553 0.0135994 9.75612 1.29668 14.0005L3.26606 18.8338C3.3939 19.1476 3.45965 19.4831 3.45965 19.822V19.822C3.45965 20.3595 3.83416 20.8191 4.36988 20.8631C6.13562 21.0084 9.22388 20.9401 11.2379 20.9108" stroke="#232833" stroke-width="1.33" stroke-linecap="round"/>
<path d="M4.22754 4.39043C6.12623 3.5092 11.0881 2.27548 15.7463 4.39043" stroke="#232833" stroke-width="1.33"/>
<rect x="12.6455" y="17.0918" width="7.21503" height="3.90805" rx="0.344827" stroke="#232833"/>
<path d="M19.4179 19.3905H20.6554C20.8458 19.3905 21.0002 19.2361 21.0002 19.0456V15.8272C21.0002 15.6368 20.8458 15.4824 20.6554 15.4824H14.13C13.9395 15.4824 13.7852 15.6368 13.7852 15.8272V17.0341" stroke="#232833"/>
<path d="M13.1523 18.7012H19.4813" stroke="#232833" stroke-linecap="round"/>
</svg>
