<svg width="22" height="22" viewBox="0 0 22 22" fill="none" xmlns="http://www.w3.org/2000/svg">
<path d="M8.84799 4.46611C9.75993 2.11826 10.2159 0.944336 11 0.944336C11.7841 0.944336 12.2401 2.11826 13.152 4.46611L13.1945 4.57544C13.7097 5.90186 13.9673 6.56507 14.4923 6.96818C15.0173 7.37129 15.7065 7.43503 17.0848 7.56251L17.334 7.58556C19.5899 7.7942 20.7178 7.89852 20.9592 8.63961C21.2005 9.3807 20.3629 10.1677 18.6876 11.7418L18.1284 12.2671C17.2804 13.0639 16.8563 13.4623 16.6587 13.9845C16.6218 14.0819 16.5912 14.1817 16.567 14.2832C16.437 14.8276 16.5612 15.4055 16.8096 16.5614L16.8869 16.9213C17.3433 19.0456 17.5715 20.1078 17.173 20.566C17.0241 20.7372 16.8306 20.8604 16.6157 20.921C16.0404 21.0831 15.2237 20.3958 13.5902 19.0212C12.5176 18.1186 11.9813 17.6673 11.3656 17.5658C11.1234 17.5259 10.8766 17.5259 10.6344 17.5658C10.0187 17.6673 9.48238 18.1186 8.40979 19.0212C6.77633 20.3958 5.95961 21.0831 5.38434 20.921C5.16938 20.8604 4.97587 20.7372 4.82698 20.566C4.42854 20.1078 4.65674 19.0456 5.11315 16.9213L5.19045 16.5614C5.43879 15.4055 5.56296 14.8276 5.43305 14.2832C5.40881 14.1817 5.37817 14.0819 5.3413 13.9845C5.14366 13.4623 4.71963 13.0639 3.87156 12.2671L3.31243 11.7418C1.63713 10.1677 0.799483 9.3807 1.04083 8.63961C1.28218 7.89852 2.41011 7.7942 4.66598 7.58556L4.91517 7.56251C6.29353 7.43503 6.98271 7.37129 7.50771 6.96818C8.03272 6.56507 8.29032 5.90186 8.80553 4.57544L8.84799 4.46611Z" stroke="#232833" stroke-width="1.33333"/>
<path d="M13.6663 10.9443C13.6663 12.4171 12.4724 13.611 10.9997 13.611C9.52692 13.611 8.33301 12.4171 8.33301 10.9443" stroke="#232833" stroke-width="1.33333" stroke-linecap="round"/>
</svg>
