<svg width="21" height="20" viewBox="0 0 21 20" fill="none" xmlns="http://www.w3.org/2000/svg">
<mask id="path-1-inside-1_1955_4417" fill="white">
<path fill-rule="evenodd" clip-rule="evenodd" d="M10.668 15.5C14.8101 15.5 18.168 12.8137 18.168 9.5C18.168 6.18629 14.8101 3.5 10.668 3.5C6.52583 3.5 3.16797 6.18629 3.16797 9.5C3.16797 11.1273 3.97775 12.6033 5.29252 13.6841C5.48432 13.8418 5.54948 14.1115 5.4343 14.3315L4.69689 15.7398C4.49784 16.12 4.87643 16.5608 5.30392 16.4467L9.14928 15.42C9.21598 15.4022 9.28562 15.3986 9.35398 15.4082C9.78061 15.4685 10.2197 15.5 10.668 15.5Z"/>
</mask>
<path d="M4.69689 15.7398L5.58279 16.2037V16.2037L4.69689 15.7398ZM5.30392 16.4467L5.04595 15.4806H5.04595L5.30392 16.4467ZM9.14928 15.42L8.89131 14.4538L9.14928 15.42ZM9.35398 15.4082L9.49395 14.4181L9.35398 15.4082ZM5.29252 13.6841L5.92756 12.9116L5.29252 13.6841ZM5.4343 14.3315L4.54839 13.8676L5.4343 14.3315ZM17.168 9.5C17.168 12.0647 14.4776 14.5 10.668 14.5V16.5C15.1426 16.5 19.168 13.5627 19.168 9.5H17.168ZM10.668 4.5C14.4776 4.5 17.168 6.93527 17.168 9.5H19.168C19.168 5.43731 15.1426 2.5 10.668 2.5V4.5ZM4.16797 9.5C4.16797 6.93527 6.85835 4.5 10.668 4.5V2.5C6.19331 2.5 2.16797 5.43731 2.16797 9.5H4.16797ZM5.92756 12.9116C4.80017 11.9848 4.16797 10.7759 4.16797 9.5H2.16797C2.16797 11.4787 3.15532 13.2217 4.65747 14.4566L5.92756 12.9116ZM5.58279 16.2037L6.32021 14.7953L4.54839 13.8676L3.81098 15.276L5.58279 16.2037ZM5.04595 15.4806C5.24117 15.4284 5.42353 15.51 5.5241 15.6271C5.62701 15.747 5.70061 15.9787 5.58279 16.2037L3.81098 15.276C3.1548 16.5292 4.40571 17.7216 5.56189 17.4129L5.04595 15.4806ZM8.89131 14.4538L5.04595 15.4806L5.56189 17.4129L9.40724 16.3861L8.89131 14.4538ZM10.668 14.5C10.2665 14.5 9.87417 14.4718 9.49395 14.4181L9.214 16.3984C9.68706 16.4653 10.1729 16.5 10.668 16.5V14.5ZM9.40724 16.3861C9.33873 16.4044 9.27277 16.4067 9.214 16.3984L9.49395 14.4181C9.29846 14.3904 9.09323 14.3999 8.89131 14.4538L9.40724 16.3861ZM4.65747 14.4566C4.51272 14.3376 4.4268 14.0998 4.54839 13.8676L6.32021 14.7953C6.67215 14.1232 6.45592 13.346 5.92756 12.9116L4.65747 14.4566Z" fill="#707070" mask="url(#path-1-inside-1_1955_4417)"/>
<circle cx="7.41797" cy="9.75" r="0.75" fill="#707070"/>
<circle cx="10.418" cy="9.75" r="0.75" fill="#707070"/>
<circle cx="13.418" cy="9.75" r="0.75" fill="#707070"/>
</svg>
