<svg width="24" height="24" viewBox="0 0 24 24" fill="none" xmlns="http://www.w3.org/2000/svg">
<g id="&#233;&#152;&#133;&#232;&#175;&#187;">
<g id="Union">
<mask id="path-1-inside-1_1052_2008" fill="white">
<path fill-rule="evenodd" clip-rule="evenodd" d="M12 18.6002C16.9706 18.6002 21 15.3766 21 11.4002C21 7.42374 16.9706 4.2002 12 4.2002C7.02944 4.2002 3 7.42374 3 11.4002C3 13.3529 3.97173 15.1241 5.54946 16.4211C5.77962 16.6104 5.85781 16.934 5.7196 17.198L4.8347 18.888C4.59584 19.3442 5.05015 19.8732 5.56314 19.7362L10.1776 18.5042C10.2576 18.4828 10.3412 18.4785 10.4232 18.4901C10.9352 18.5624 11.4621 18.6002 12 18.6002Z"/>
</mask>
<path d="M4.8347 18.888L3.77161 18.3314H3.77161L4.8347 18.888ZM5.56314 19.7362L5.25358 18.5769H5.25358L5.56314 19.7362ZM10.1776 18.5042L10.4871 19.6636L10.1776 18.5042ZM10.4232 18.4901L10.5912 17.3019L10.4232 18.4901ZM5.54946 16.4211L6.31151 15.4942L5.54946 16.4211ZM19.8 11.4002C19.8 14.4779 16.5715 17.4002 12 17.4002V19.8002C17.3696 19.8002 22.2 16.2754 22.2 11.4002H19.8ZM12 5.4002C16.5715 5.4002 19.8 8.32253 19.8 11.4002H22.2C22.2 6.52496 17.3696 3.0002 12 3.0002V5.4002ZM4.2 11.4002C4.2 8.32253 7.42846 5.4002 12 5.4002V3.0002C6.63041 3.0002 1.8 6.52496 1.8 11.4002H4.2ZM6.31151 15.4942C4.95864 14.382 4.2 12.9313 4.2 11.4002H1.8C1.8 13.7746 2.98482 15.8662 4.78741 17.3481L6.31151 15.4942ZM5.89779 19.4446L6.78269 17.7546L4.65651 16.6413L3.77161 18.3314L5.89779 19.4446ZM5.25358 18.5769C5.48784 18.5143 5.70668 18.6122 5.82736 18.7528C5.95085 18.8966 6.03916 19.1746 5.89779 19.4446L3.77161 18.3314C2.9842 19.8352 4.48528 21.2661 5.8727 20.8956L5.25358 18.5769ZM9.86801 17.3448L5.25358 18.5769L5.8727 20.8956L10.4871 19.6636L9.86801 17.3448ZM12 17.4002C11.5182 17.4002 11.0474 17.3664 10.5912 17.3019L10.2552 19.6782C10.8229 19.7585 11.4059 19.8002 12 19.8002V17.4002ZM10.4871 19.6636C10.4049 19.6855 10.3258 19.6882 10.2552 19.6782L10.5912 17.3019C10.3566 17.2687 10.1103 17.2801 9.86801 17.3448L10.4871 19.6636ZM4.78741 17.3481C4.6137 17.2053 4.5106 16.92 4.65651 16.6413L6.78269 17.7546C7.20502 16.948 6.94554 16.0154 6.31151 15.4942L4.78741 17.3481Z" fill="#707070" mask="url(#path-1-inside-1_1052_2008)"/>
</g>
<g id="Group 48095718">
<circle id="Ellipse 2844" cx="8.10019" cy="11.6998" r="0.9" fill="#707070"/>
<circle id="Ellipse 2845" cx="11.7003" cy="11.6998" r="0.9" fill="#707070"/>
<circle id="Ellipse 2846" cx="15.3004" cy="11.6998" r="0.9" fill="#707070"/>
</g>
</g>
</svg>
