<svg width="20" height="22" viewBox="0 0 20 22" fill="none" xmlns="http://www.w3.org/2000/svg">
<rect x="3.125" y="3.57422" width="15.9002" height="17.3346" rx="2.22753" stroke="#232833" stroke-width="1.33652"/>
<path fill-rule="evenodd" clip-rule="evenodd" d="M2.89579 0.944336C1.29649 0.944336 0 2.24082 0 3.84012V17.6473C0 19.2466 1.29649 20.5431 2.89579 20.5431H3.26762V19.2066H2.89579C2.03463 19.2066 1.33652 18.5085 1.33652 17.6473V3.84012C1.33652 2.97896 2.03462 2.28085 2.89579 2.28085H14.174C14.8826 2.28085 15.4809 2.75352 15.6706 3.40077H17.0367C16.825 2.00997 15.624 0.944336 14.174 0.944336H2.89579Z" fill="#232833"/>
<path d="M8.65616 8.85059L11.0757 11.1116M11.0757 11.1116L13.4953 8.85059M11.0757 11.1116V16.3874M7.96484 11.1116H14.1867M8.65616 14.1263H13.4953" stroke="#232833" stroke-width="1.33652" stroke-linecap="round"/>
</svg>
