<svg width="24" height="24" viewBox="0 0 24 24" fill="none" xmlns="http://www.w3.org/2000/svg">
<path d="M14.888 5.55775L4.92699 15.5188L4.92698 15.5188C4.65747 15.7883 4.52271 15.923 4.42998 16.0868C4.33725 16.2506 4.29103 16.4355 4.19858 16.8053L3.27985 20.4802C3.15488 20.9801 3.09239 21.23 3.23098 21.3686C3.36956 21.5072 3.61951 21.4447 4.1194 21.3198L7.79433 20.401C8.1641 20.3086 8.34899 20.2624 8.51278 20.1696C8.67656 20.0769 8.81132 19.9421 9.08083 19.6726L19.0419 9.7116C19.9649 8.78852 20.4265 8.32698 20.4265 7.75346C20.4265 7.17993 19.9649 6.71839 19.0419 5.79531L18.8043 5.55775C17.8812 4.63467 17.4197 4.17314 16.8462 4.17314C16.2726 4.17314 15.8111 4.63467 14.888 5.55775Z" stroke="white" stroke-width="1.2"/>
<path d="M13.8 6L18.3 10.8" stroke="white" stroke-width="1.2"/>
</svg>
