<svg width="13" height="14" viewBox="0 0 13 14" fill="none" xmlns="http://www.w3.org/2000/svg">
<path d="M5.47232 1.61035H1.40439C0.955069 1.61035 0.59082 1.9746 0.59082 2.42392V12.1866C0.59082 12.6359 0.955069 13.0002 1.40439 13.0002H11.1674C11.6167 13.0002 11.981 12.6359 11.981 12.1866V8.11883" stroke="#A6A6A6" stroke-width="1.00002" stroke-linecap="round"/>
<path d="M2.82715 10.4492H8.11544" stroke="#A6A6A6" stroke-width="1.00002" stroke-linecap="round"/>
<path d="M9.62428 1.88501L5.12196 6.38719C5.00014 6.50901 4.93923 6.56992 4.89732 6.64394C4.8554 6.71797 4.83451 6.80154 4.79272 6.96867L4.37747 8.62965C4.32098 8.85559 4.29274 8.96856 4.35537 9.0312C4.41801 9.09384 4.53098 9.06559 4.75693 9.00911L6.41798 8.59386C6.58511 8.55208 6.66867 8.53119 6.7427 8.48927C6.81673 8.44736 6.87764 8.38645 6.99946 8.26464L11.5017 3.76251C11.919 3.34529 12.1276 3.13667 12.1276 2.87744C12.1276 2.61821 11.919 2.4096 11.5017 1.99238L11.3943 1.88501C10.9771 1.46781 10.7685 1.25921 10.5093 1.25921C10.2501 1.25921 10.0415 1.46781 9.62428 1.88501Z" stroke="#A6A6A6" stroke-width="1.00002"/>
<path d="M9.09082 2.5L10.8409 4.25" stroke="#A6A6A6" stroke-width="1.00002" stroke-linecap="round"/>
</svg>
