<svg width="22" height="22" viewBox="0 0 22 22" fill="none" xmlns="http://www.w3.org/2000/svg">
<path d="M1 18C1 16.3431 2.34315 15 4 15H21V20.6276C21 20.8333 20.8333 21 20.6276 21H4C2.34315 21 1 19.6569 1 18V18Z" stroke="#232833" stroke-width="1.33"/>
<path d="M21 14.5V3C21 1.89543 20.1046 1 19 1H3.22C1.99393 1 1 1.99393 1 3.22V18" stroke="#232833" stroke-width="1.33"/>
<path d="M4 6.04035V1H9V6.04035C9 6.74908 8.07201 7.01522 7.69639 6.41422C7.14381 5.53009 5.85619 5.53009 5.30361 6.41422C4.92799 7.01522 4 6.74908 4 6.04035Z" stroke="#232833" stroke-width="1.33"/>
</svg>
