<svg width="20" height="20" viewBox="0 0 20 20" fill="none" xmlns="http://www.w3.org/2000/svg">
<path fill-rule="evenodd" clip-rule="evenodd" d="M10 11.7998C10.9941 11.7998 11.8 10.9939 11.8 9.99976C11.8 9.00564 10.9941 8.19976 10 8.19976C9.00589 8.19976 8.2 9.00564 8.2 9.99976C8.2 10.9939 9.00589 11.7998 10 11.7998ZM10 12.9998C11.6569 12.9998 13 11.6566 13 9.99976C13 8.3429 11.6569 6.99976 10 6.99976C8.34315 6.99976 7 8.3429 7 9.99976C7 11.6566 8.34315 12.9998 10 12.9998Z" fill="#999999"/>
<path d="M18.188 8.93429C18.5762 9.40556 18.7703 9.64119 18.7703 10C18.7703 10.3588 18.5762 10.5944 18.188 11.0657C16.7679 12.7899 13.6357 16 10 16C6.36427 16 3.23206 12.7899 1.81197 11.0657C1.42381 10.5944 1.22973 10.3588 1.22973 10C1.22973 9.64119 1.42381 9.40556 1.81197 8.93429C3.23206 7.21014 6.36427 4 10 4C13.6357 4 16.7679 7.21014 18.188 8.93429Z" stroke="#999999" stroke-width="1.2"/>
</svg>
