<svg width="16" height="16" viewBox="0 0 16 16" fill="none" xmlns="http://www.w3.org/2000/svg">
  <path fill-rule="evenodd" clip-rule="evenodd"
    d="M8.00001 9.86665C9.03094 9.86665 9.86668 9.03091 9.86668 7.99998C9.86668 6.96905 9.03094 6.13331 8.00001 6.13331C6.96908 6.13331 6.13334 6.96905 6.13334 7.99998C6.13334 9.03091 6.96908 9.86665 8.00001 9.86665ZM8.00001 10.6666C9.47277 10.6666 10.6667 9.47274 10.6667 7.99998C10.6667 6.52722 9.47277 5.33331 8.00001 5.33331C6.52725 5.33331 5.33334 6.52722 5.33334 7.99998C5.33334 9.47274 6.52725 10.6666 8.00001 10.6666Z"
    fill="currentColor" fill-opacity="1" />
  <path
    d="M13.4587 7.28952C13.7175 7.60371 13.8469 7.7608 13.8469 8C13.8469 8.2392 13.7175 8.39629 13.4587 8.71048C12.512 9.85991 10.4238 12 8 12C5.57618 12 3.48804 9.85991 2.54131 8.71048C2.28254 8.39629 2.15315 8.2392 2.15315 8C2.15315 7.7608 2.28254 7.60371 2.54131 7.28952C3.48804 6.14009 5.57618 4 8 4C10.4238 4 12.512 6.14009 13.4587 7.28952Z"
    stroke="currentColor" stroke-opacity="1" stroke-width="0.8" />
</svg>