<svg width="15" height="15" viewBox="0 0 15 15" fill="none" xmlns="http://www.w3.org/2000/svg">
<g id="&#231;&#178;&#137;&#228;&#184;&#157;">
<rect id="Rectangle 3266" width="15" height="15" rx="7.5" fill="#0CC399" fill-opacity="0.45"/>
<g id="Group 48095649">
<path id="Subtract" d="M9.06299 6.24994C9.06299 5.75523 9.72097 5.6241 9.89554 6.08699C10.3178 7.20669 10.6255 8.20834 10.6255 8.74989C10.6255 10.4758 9.22638 11.8749 7.50049 11.8749C5.7746 11.8749 4.37549 10.4758 4.37549 8.74989C4.37549 8.16807 4.73063 7.05517 5.20146 5.83537C5.81138 4.25525 6.11634 3.46519 6.49278 3.42263C6.61324 3.40902 6.74465 3.4335 6.85212 3.48958C7.18799 3.66483 7.18799 4.52654 7.18799 6.24994C7.18799 6.7677 7.60772 7.18744 8.12549 7.18744C8.64326 7.18744 9.06299 6.7677 9.06299 6.24994Z" stroke="white"/>
<path id="Vector 124" d="M6.87598 11.875L6.48726 10.9032C6.41552 10.7238 6.37964 10.6342 6.36699 10.5444C6.34681 10.4013 6.36844 10.2553 6.42927 10.1242C6.4674 10.042 6.52774 9.96655 6.64842 9.81569V9.81569C6.89103 9.51243 7.01234 9.3608 7.14954 9.28802C7.36933 9.17144 7.63263 9.17144 7.85242 9.28802C7.98961 9.3608 8.11092 9.51243 8.35353 9.81569V9.81569C8.47422 9.96655 8.53456 10.042 8.57268 10.1242C8.63352 10.2553 8.65514 10.4013 8.63496 10.5444C8.62231 10.6342 8.58644 10.7238 8.51469 10.9032L8.12598 11.875" stroke="white"/>
</g>
</g>
</svg>
