<svg width="30" height="30" viewBox="0 0 30 30" fill="none" xmlns="http://www.w3.org/2000/svg">
<circle cx="15" cy="15" r="15" fill="#232833" fill-opacity="0.5"/>
<path d="M21.2439 12.5825L17.8525 11.695C17.7894 11.6781 17.7352 11.6385 17.7009 11.5801L15.8474 8.48802C15.7679 8.35424 15.6596 8.24118 15.5315 8.15828C15.3673 8.05088 15.1832 8 15.0027 8C14.6706 8 14.3457 8.17335 14.1562 8.48991L12.299 11.5801C12.2647 11.6366 12.2106 11.6781 12.1474 11.695L8.7561 12.5825C8.6099 12.6202 8.47274 12.6937 8.35723 12.7935C7.93489 13.1629 7.87894 13.8205 8.23269 14.2614L10.4761 17.0595C10.5176 17.1104 10.5375 17.1782 10.5339 17.2441L10.2938 20.8845C10.283 21.0409 10.3083 21.1992 10.3642 21.3462C10.5212 21.7532 10.8948 22 11.2901 22C11.4146 22 11.541 21.9755 11.6619 21.9246L14.907 20.5623C14.9377 20.5491 14.9684 20.5435 15.0009 20.5435C15.0334 20.5435 15.064 20.5491 15.0947 20.5623L18.3362 21.9246C18.4554 21.9736 18.5817 22 18.7098 22C18.7333 22 18.755 22 18.7784 21.9981C19.3289 21.9585 19.744 21.4611 19.7061 20.8864L19.4661 17.246C19.4625 17.1782 19.4823 17.1122 19.5238 17.0614L21.7673 14.2614C21.8647 14.1408 21.9333 13.9976 21.9694 13.845C22.1048 13.2872 21.7781 12.7219 21.2439 12.5825ZM21.2222 13.6509C21.2132 13.6848 21.1987 13.7187 21.1753 13.7451L18.9318 16.5432C18.7622 16.7561 18.6774 17.0237 18.6954 17.3007L18.9355 20.941C18.9445 21.0711 18.8488 21.186 18.7243 21.1935H18.708C18.6792 21.1935 18.6503 21.1879 18.6232 21.1766L15.3799 19.8124C15.259 19.7615 15.129 19.7351 14.9991 19.7351C14.8673 19.7351 14.7392 19.7615 14.6183 19.8124L11.3749 21.1766C11.3479 21.1879 11.319 21.1935 11.2901 21.1935C11.2197 21.1935 11.1205 21.154 11.0789 21.0447C11.0663 21.0108 11.0609 20.975 11.0627 20.9392L11.3027 17.2988C11.3208 17.0218 11.2378 16.7542 11.0663 16.5413L8.82468 13.7451C8.74346 13.6452 8.7561 13.4945 8.85356 13.4097C8.88063 13.3871 8.91131 13.3701 8.9438 13.3607L12.3351 12.4732C12.5914 12.4054 12.8116 12.2396 12.9524 12.0059L14.8078 8.91386C14.8493 8.84415 14.9215 8.80269 15.0009 8.80269C15.0442 8.80269 15.0839 8.814 15.12 8.83849C15.1489 8.85734 15.1741 8.88371 15.1922 8.91386L17.0476 12.0059C17.1884 12.2396 17.4067 12.4073 17.6648 12.4732L21.0562 13.3607C21.1789 13.3946 21.2529 13.5246 21.2222 13.6509Z" fill="#FFFDFD"/>
</svg>
