<svg width="30" height="30" viewBox="0 0 30 30" fill="none" xmlns="http://www.w3.org/2000/svg">
<circle cx="15" cy="15" r="15" fill="#232833" fill-opacity="0.5"/>
<path d="M21.2439 12.5825L17.8525 11.695C17.7894 11.6781 17.7352 11.6385 17.7009 11.5801L15.8474 8.48802C15.7679 8.35424 15.6596 8.24118 15.5315 8.15828C15.3673 8.05088 15.1832 8 15.0027 8C14.6706 8 14.3457 8.17335 14.1562 8.48991L12.299 11.5801C12.2647 11.6366 12.2106 11.6781 12.1474 11.695L8.7561 12.5825C8.6099 12.6202 8.47274 12.6937 8.35723 12.7935C7.93489 13.1629 7.87894 13.8205 8.23269 14.2614L10.4761 17.0595C10.5176 17.1104 10.5375 17.1782 10.5339 17.2441L10.2938 20.8845C10.283 21.0409 10.3083 21.1992 10.3642 21.3462C10.5212 21.7532 10.8948 22 11.2901 22C11.4146 22 11.541 21.9755 11.6619 21.9246L14.907 20.5623C14.9377 20.5491 14.9684 20.5435 15.0009 20.5435C15.0334 20.5435 15.064 20.5491 15.0947 20.5623L18.3362 21.9246C18.4554 21.9736 18.5817 22 18.7098 22C18.7333 22 18.755 22 18.7784 21.9981C19.3289 21.9585 19.744 21.4611 19.7061 20.8864L19.4661 17.246C19.4625 17.1782 19.4823 17.1122 19.5238 17.0614L21.7673 14.2614C21.8647 14.1408 21.9333 13.9976 21.9694 13.845C22.1048 13.2872 21.7781 12.7219 21.2439 12.5825Z" fill="#FFFDFD"/>
</svg>
