<svg width="25" height="26" viewBox="0 0 25 26" fill="none" xmlns="http://www.w3.org/2000/svg">
<path d="M10.9717 16.8274C10.9717 20.3354 13.7999 23.1793 17.2886 23.1793C20.7773 23.1793 23.6055 20.3354 23.6055 16.8274C23.6055 14.104 21.901 11.7809 19.5062 10.8779" stroke="currentColor" stroke-width="1.99481" stroke-linecap="round"/>
<path d="M16.5489 14.6246C19.488 12.7017 20.3117 8.76028 18.3888 5.82122C16.4659 2.88216 12.5245 2.05841 9.58544 3.98132C7.30378 5.47412 6.29697 8.18343 6.8604 10.6959" stroke="currentColor" stroke-width="1.99481" stroke-linecap="round"/>
<path d="M12.6999 11.7428C9.88396 9.64377 5.89955 10.2249 3.80048 13.0409C1.70141 15.8568 2.28255 19.8412 5.0985 21.9403C7.28459 23.5699 10.1749 23.5841 12.3406 22.1914" stroke="currentColor" stroke-width="1.99481" stroke-linecap="round"/>
</svg>
