<svg width="16" height="16" viewBox="0 0 16 16" fill="none" xmlns="http://www.w3.org/2000/svg">
<g id="ic_&#232;&#161;&#140;&#228;&#184;&#154;&#233;&#162;&#134;&#229;&#159;&#159;_&#229;&#176;&#143;">
<path id="Vector" d="M14 7H2V10C2 10.2652 2.10536 10.5196 2.29289 10.7071C2.48043 10.8946 2.73478 11 3 11H6V14H10V11H13C13.2652 11 13.5196 10.8946 13.7071 10.7071C13.8946 10.5196 14 10.2652 14 10V7ZM1.957 6C1.957 5.257 2.039 4.59 2.2 4C2.43 3.156 2.864 2.322 3.5 1.5H10.02L9.78 2.599L11.5 1.5H14.8C14.412 2.17 14.145 3.004 14 4C13.9036 4.66201 13.8714 5.3318 13.904 6H15V10C15 10.5304 14.7893 11.0391 14.4142 11.4142C14.0391 11.7893 13.5304 12 13 12H11V14.5C11 14.6326 10.9473 14.7598 10.8536 14.8536C10.7598 14.9473 10.6326 15 10.5 15H5.5C5.36739 15 5.24021 14.9473 5.14645 14.8536C5.05268 14.7598 5 14.6326 5 14.5V12H3C2.46957 12 1.96086 11.7893 1.58579 11.4142C1.21071 11.0391 1 10.5304 1 10V6H1.957ZM2.957 6H12.903C12.871 5.284 12.907 4.569 13.01 3.856C13.08 3.374 13.177 2.922 13.302 2.5H11.792L8.337 4.707L8.78 2.5H4.008C3.604 3.092 3.324 3.679 3.165 4.263C3.028 4.764 2.958 5.343 2.957 6Z" fill="currentColor"/>
</g>
</svg>
