<svg width="16" height="12" viewBox="0 0 16 12" fill="none" xmlns="http://www.w3.org/2000/svg">
<path fill-rule="evenodd" clip-rule="evenodd" d="M8.00033 8.33366C9.28899 8.33366 10.3337 7.28899 10.3337 6.00033C10.3337 4.71166 9.28899 3.66699 8.00033 3.66699C6.71166 3.66699 5.66699 4.71166 5.66699 6.00033C5.66699 7.28899 6.71166 8.33366 8.00033 8.33366ZM8.00033 9.33366C9.84127 9.33366 11.3337 7.84127 11.3337 6.00033C11.3337 4.15938 9.84127 2.66699 8.00033 2.66699C6.15938 2.66699 4.66699 4.15938 4.66699 6.00033C4.66699 7.84127 6.15938 9.33366 8.00033 9.33366Z" fill="#707070"/>
<path d="M14.8234 5.11191C15.1468 5.50463 15.3086 5.701 15.3086 6C15.3086 6.299 15.1468 6.49537 14.8234 6.88809C13.6399 8.32488 11.0298 11 8 11C4.97022 11 2.36005 8.32488 1.17664 6.88809C0.853172 6.49537 0.691438 6.299 0.691438 6C0.691438 5.701 0.853172 5.50463 1.17664 5.11191C2.36005 3.67512 4.97022 1 8 1C11.0298 1 13.64 3.67512 14.8234 5.11191Z" stroke="#707070"/>
</svg>
