
<svg width="22" height="27" viewBox="0 0 22 27" fill="none" xmlns="http://www.w3.org/2000/svg">
<mask id="path-1-inside-1_536_2452" fill="white">
<path fill-rule="evenodd" clip-rule="evenodd" d="M17.9659 20.6088C17.9659 19.9571 18.2587 19.3466 18.7094 18.876C20.5781 16.9249 21.7262 14.2781 21.7262 11.3631C21.7262 5.36358 16.8626 0.5 10.8631 0.5C4.86358 0.5 0 5.36358 0 11.3631C0 14.4967 1.32682 17.3204 3.44931 19.3031C3.89172 19.7164 4.17812 20.2801 4.17812 20.8855C4.17812 21.9721 5.05896 22.8529 6.14553 22.8529H15.7218C16.9612 22.8529 17.9659 21.8482 17.9659 20.6088Z"/>
</mask>
<path d="M3.44931 19.3031L2.17809 20.664L3.44931 19.3031ZM18.7094 18.876L20.0543 20.1641L18.7094 18.876ZM19.864 11.3631C19.864 13.7791 18.9145 15.9695 17.3645 17.5879L20.0543 20.1641C22.2417 17.8802 23.5885 14.777 23.5885 11.3631H19.864ZM10.8631 2.36225C15.8341 2.36225 19.864 6.39207 19.864 11.3631H23.5885C23.5885 4.33509 17.8911 -1.36225 10.8631 -1.36225V2.36225ZM1.86225 11.3631C1.86225 6.39207 5.89207 2.36225 10.8631 2.36225V-1.36225C3.83509 -1.36225 -1.86225 4.33509 -1.86225 11.3631H1.86225ZM4.72053 17.9422C2.95928 16.297 1.86225 13.9596 1.86225 11.3631H-1.86225C-1.86225 15.0338 -0.305635 18.3439 2.17809 20.664L4.72053 17.9422ZM15.7218 20.9907H6.14553V24.7152H15.7218V20.9907ZM2.31587 20.8855C2.31587 23.0006 4.03047 24.7152 6.14553 24.7152V20.9907C6.08745 20.9907 6.04037 20.9436 6.04037 20.8855H2.31587ZM2.17809 20.664C2.30938 20.7866 2.31587 20.8797 2.31587 20.8855H6.04037C6.04037 19.6805 5.47407 18.6461 4.72053 17.9422L2.17809 20.664ZM15.7218 24.7152C17.9897 24.7152 19.8282 22.8767 19.8282 20.6088H16.1037C16.1037 20.8197 15.9327 20.9907 15.7218 20.9907V24.7152ZM17.3645 17.5879C16.6482 18.3357 16.1037 19.389 16.1037 20.6088H19.8282C19.8282 20.5253 19.8691 20.3574 20.0543 20.1641L17.3645 17.5879Z" fill="currentColor" mask="url(#path-1-inside-1_536_2452)"/>
<path d="M5.58691 25.5H16.7604" stroke="currentColor" stroke-width="1.86225" stroke-linecap="round" stroke-linejoin="round"/>
<path d="M5.58691 14.6369L8.61691 9.6709L10.9155 11.3982L13.1097 9.6709L16.1396 14.6369" stroke="currentColor" stroke-width="1.86225" stroke-linecap="round" stroke-linejoin="round"/>
</svg>
