<svg width="24" height="24" viewBox="0 0 24 24" fill="none" xmlns="http://www.w3.org/2000/svg">
  <path
    d="M8.78893 18.2996H5.94165C5.58016 18.2996 5.28711 18.0066 5.28711 17.6451V11.7542C5.28711 11.3927 5.58016 11.0996 5.94166 11.0996H8.78893C8.84315 11.0996 8.88711 11.1436 8.88711 11.1978V18.2014C8.88711 18.2557 8.84315 18.2996 8.78893 18.2996Z"
    stroke="currentColor" stroke-width="1.2" stroke-linecap="round" />
  <path
    d="M8.88672 11.0988L10.5768 8.56372C10.6485 8.4562 10.6867 8.32987 10.6867 8.20065V5.45337C10.6867 5.09188 10.9798 4.79883 11.3413 4.79883H12.9776C13.7006 4.79883 14.2867 5.38493 14.2867 6.10792V11.0988"
    stroke="currentColor" stroke-width="1.2" stroke-linecap="round" />
  <path
    d="M12.4867 11.0996H17.3241C18.1044 11.0996 18.7114 11.7778 18.6252 12.5533L18.0161 18.0351C17.9424 18.698 17.3821 19.1996 16.715 19.1996H12.7578C12.5842 19.1996 12.4178 19.1306 12.295 19.0079L11.7784 18.4913C11.6557 18.3686 11.4892 18.2996 11.3156 18.2996H8.88672"
    stroke="currentColor" stroke-width="1.2" stroke-linecap="round" />
</svg>