<svg width="20" height="24" viewBox="0 0 20 24" fill="none" xmlns="http://www.w3.org/2000/svg">
<g id="Group 48095683">
<path id="Vector" d="M19 11.4406C18.8141 8.97039 17.052 7.83512 15.0025 6.89748C15.311 6.01739 15.8374 4.66657 16.6714 2.94112C16.7739 2.72895 16.8236 2.47959 16.6908 2.28393C15.9891 1.24968 12.9795 0.75 10.355 0.75C10.2407 0.75 10.125 0.751072 10.0081 0.753221C9.89123 0.751072 9.77549 0.75 9.6612 0.75C7.0367 0.75 4.02713 1.24968 3.32535 2.28393C3.19258 2.47959 3.24225 2.72895 3.3448 2.94112C4.17882 4.66657 4.70522 6.01739 5.01366 6.89748C2.42518 8.08173 0.295023 9.58125 1.22008 13.6875C1.84734 16.4719 3.85697 18.7649 6.20343 20.2683C6.20343 20.2683 5.33832 20.55 5.5107 21.45C5.68309 22.35 7.93791 23.25 10.0203 23.25M4.14657 4.69256C4.80229 3.93403 7.24292 3.37159 9.69515 3.37159C9.80195 3.37159 9.91008 3.37238 10.0193 3.37395C10.1285 3.37238 10.2366 3.37159 10.3434 3.37159C12.7956 3.37159 15.2139 3.93403 15.8696 4.69256" stroke="currentColor" stroke-width="1.5" stroke-linecap="round" stroke-linejoin="round"/>
<path id="Vector_2" d="M12.6849 18.2163H15.9012M15.9012 18.2163H19.1175M15.9012 18.2163V21.4326M15.9012 18.2163V15" stroke="currentColor" stroke-width="1.5" stroke-linecap="round"/>
</g>
</svg>
