<svg width="16" height="20" viewBox="0 0 16 20" fill="none" xmlns="http://www.w3.org/2000/svg">
<g id="Group 48095664">
<path id="Vector 496" d="M8.28238 10L14.6478 14.4068C14.9715 14.631 15.1647 14.9997 15.1647 15.3935V18.7C15.1647 18.8657 15.0304 19 14.8647 19H1.70002C1.53434 19 1.40002 18.8657 1.40002 18.7V15.3935C1.40002 14.9997 1.59322 14.631 1.91697 14.4068L8.28238 10ZM8.28238 10L14.6478 5.59318C14.9715 5.36904 15.1647 5.00032 15.1647 4.60655V1.3C15.1647 1.13431 15.0304 1 14.8647 1H1.70002C1.53434 1 1.40002 1.13431 1.40002 1.3V4.60655C1.40002 5.00032 1.59321 5.36904 1.91697 5.59318L8.28238 10Z" stroke="white" stroke-width="1.2" stroke-linecap="round" stroke-linejoin="round"/>
<path id="Vector 497" d="M5.63531 19L8.10087 16.6002C8.21691 16.4872 8.28237 16.3322 8.28237 16.1702V10" stroke="white" stroke-width="1.2" stroke-linecap="round" stroke-linejoin="round"/>
<path id="Vector 498" d="M10.9294 19L8.46383 16.6002C8.34778 16.4872 8.28232 16.3322 8.28232 16.1702V10" stroke="white" stroke-width="1.2" stroke-linecap="round" stroke-linejoin="round"/>
<path id="Vector 499" d="M13.5765 6.29395H2.98828" stroke="white" stroke-width="1.2" stroke-linejoin="round"/>
</g>
</svg>
