<svg width="97" height="100" viewBox="0 0 97 100" fill="none" xmlns="http://www.w3.org/2000/svg">
<g clip-path="url(#clip0_1314_1310)">
<path d="M50.7638 17.3533C55.5558 17.3533 59.4405 13.4686 59.4405 8.67666C59.4405 3.88467 55.5558 0 50.7638 0C45.9718 0 42.0872 3.88467 42.0872 8.67666C42.0872 13.4686 45.9718 17.3533 50.7638 17.3533Z" fill="#232833"/>
<path d="M28.9708 22.4368C33.3463 22.4368 36.8933 18.8897 36.8933 14.5143C36.8933 10.1388 33.3463 6.5918 28.9708 6.5918C24.5954 6.5918 21.0483 10.1388 21.0483 14.5143C21.0483 18.8897 24.5954 22.4368 28.9708 22.4368Z" fill="#282828"/>
<path d="M13.0161 37.6374C16.975 37.6374 20.1844 34.428 20.1844 30.4691C20.1844 26.5101 16.975 23.3008 13.0161 23.3008C9.05714 23.3008 5.84778 26.5101 5.84778 30.4691C5.84778 34.428 9.05714 37.6374 13.0161 37.6374Z" fill="#494949"/>
<path d="M7.17793 58.6759C10.7204 58.6759 13.5921 55.8042 13.5921 52.2618C13.5921 48.7194 10.7204 45.8477 7.17793 45.8477C3.6355 45.8477 0.763794 48.7194 0.763794 52.2618C0.763794 55.8042 3.6355 58.6759 7.17793 58.6759Z" fill="#686868"/>
<path d="M13.0161 79.7154C16.1407 79.7154 18.6736 77.1825 18.6736 74.0579C18.6736 70.9333 16.1407 68.4004 13.0161 68.4004C9.89154 68.4004 7.35858 70.9333 7.35858 74.0579C7.35858 77.1825 9.89154 79.7154 13.0161 79.7154Z" fill="#828282"/>
<path d="M28.9709 94.9141C31.6789 94.9141 33.8742 92.7188 33.8742 90.0108C33.8742 87.3027 31.6789 85.1074 28.9709 85.1074C26.2628 85.1074 24.0675 87.3027 24.0675 90.0108C24.0675 92.7188 26.2628 94.9141 28.9709 94.9141Z" fill="#A0A0A0"/>
<path d="M50.7638 99.9995C53.0553 99.9995 54.913 98.1419 54.913 95.8503C54.913 93.5588 53.0553 91.7012 50.7638 91.7012C48.4723 91.7012 46.6146 93.5588 46.6146 95.8503C46.6146 98.1419 48.4723 99.9995 50.7638 99.9995Z" fill="#B7B7B7"/>
<path d="M72.5568 93.4052C74.4318 93.4052 75.9518 91.8852 75.9518 90.0102C75.9518 88.1352 74.4318 86.6152 72.5568 86.6152C70.6818 86.6152 69.1618 88.1352 69.1618 90.0102C69.1618 91.8852 70.6818 93.4052 72.5568 93.4052Z" fill="#C6C6C6"/>
<path d="M88.5115 76.6996C89.97 76.6996 91.1524 75.5173 91.1524 74.0588C91.1524 72.6003 89.97 71.418 88.5115 71.418C87.0531 71.418 85.8707 72.6003 85.8707 74.0588C85.8707 75.5173 87.0531 76.6996 88.5115 76.6996Z" fill="#D8D8D8"/>
<path d="M94.3521 54.1483C95.3941 54.1483 96.2388 53.3036 96.2388 52.2617C96.2388 51.2197 95.3941 50.375 94.3521 50.375C93.3101 50.375 92.4655 51.2197 92.4655 52.2617C92.4655 53.3036 93.3101 54.1483 94.3521 54.1483Z" fill="#DEDFE0"/>
<path d="M88.5115 31.6029C89.137 31.6029 89.644 31.0958 89.644 30.4704C89.644 29.8449 89.137 29.3379 88.5115 29.3379C87.8861 29.3379 87.379 29.8449 87.379 30.4704C87.379 31.0958 87.8861 31.6029 88.5115 31.6029Z" fill="#EFEFEF"/>
</g>
<defs>
<clipPath id="clip0_1314_1310">
<rect width="95.4725" height="100" fill="white" transform="translate(0.763733)"/>
</clipPath>
</defs>
</svg>
