<svg width="160" height="128" viewBox="0 0 160 128" fill="none" xmlns="http://www.w3.org/2000/svg">
<path fill-rule="evenodd" clip-rule="evenodd" d="M81.1754 16.0001L56.9757 66.327L80.024 80.405L68.087 112H18.1759C14.9511 112 12.8 109.304 12.8 106.607V21.3933C12.8 18.1576 15.488 16.0001 18.1759 16.0001H81.1754ZM86.756 16.0001L74.7052 59.2879L97.7535 80.405L80.7006 112H141.828C144.516 112 147.204 109.843 147.204 106.607V21.3933C147.204 18.6969 145.056 16.0001 141.828 16.0001H86.756Z" fill="#E5E5E5"/>
<path fill-rule="evenodd" clip-rule="evenodd" d="M73.2406 98.3637L50.5097 72.478L22.9954 103.061H71.4658L73.2406 98.3637Z" fill="white"/>
<path d="M116.553 55.7546C121.303 55.7546 125.154 51.8913 125.154 47.1257C125.154 42.3598 121.303 38.4965 116.553 38.4965C111.802 38.4965 107.949 42.3598 107.949 47.1257C107.949 51.8913 111.802 55.7546 116.553 55.7546Z" fill="white"/>
<path fill-rule="evenodd" clip-rule="evenodd" d="M77.7675 86.3805L63.7727 103.061H71.4655L77.7675 86.3805ZM85.5266 103.061H138.532L100.837 58.8848L89.2886 72.6487L97.7545 80.4052L85.5266 103.061Z" fill="white"/>
</svg>
