<svg width="28" height="22" viewBox="0 0 28 22" fill="none" xmlns="http://www.w3.org/2000/svg">
<g id="logo&#228;&#191;&#161;&#230;&#129;&#175;">
<g id="Group 48095565">
<path id="Vector" d="M14.0182 3.94727L9.29019 6.11371L0 1.90093L5.90859 0.320312L14.0182 3.94727Z" fill="#00FFB2"/>
<path id="Vector_2" d="M9.24392 10.4331V6.05187L0 1.87793V18.9233L4.71152 21.0108V8.74322L9.24392 10.4331Z" fill="#167962"/>
<path id="Vector_3" d="M9.24303 10.3488V18.9164L4.72266 21.0113V8.64551L9.24303 10.3488Z" fill="#0CC399"/>
<path id="Vector_4" d="M13.9688 3.92293L18.5293 6.11371L27.4791 1.89715L21.8011 0.320312L13.9688 3.92293Z" fill="#4EA1FE"/>
<path id="Vector_5" d="M18.4883 10.4133V6.08985L27.4782 1.87793V18.9233L22.8961 21.0108V8.69766L18.4883 10.4133Z" fill="#115EE8"/>
<path id="Vector_6" d="M18.4883 10.401V18.9266L22.9579 21.0113V8.64551L18.4883 10.401Z" fill="#4EA1FE"/>
<path id="Vector_7" fill-rule="evenodd" clip-rule="evenodd" d="M9.19531 10.4408L13.9769 8.30469L18.49 10.3451L13.8824 12.4915L9.19531 10.4408Z" fill="#00FFB2"/>
<path id="Vector_8" d="M9.24609 10.4463V14.6281L13.8681 16.7752V12.48L9.24609 10.4463Z" fill="#167962"/>
<path id="Vector_9" d="M13.8672 12.4573L18.4891 10.3496V14.5826L13.8672 16.7759V12.4573Z" fill="#115EE8"/>
<path id="Vector_10" d="M9.24609 6.02929V10.4465L13.9696 8.36437V3.92285L9.24609 6.02929Z" fill="#0CC399"/>
<path id="Vector_11" d="M18.4891 6.07373V10.4465L13.9688 8.37709V3.92285L18.4891 6.07373Z" fill="#3494FF"/>
</g>
</g>
</svg>
