<svg width="24" height="24" viewBox="0 0 24 24" fill="none" xmlns="http://www.w3.org/2000/svg">
<path d="M18.2649 9.5C18.2649 7.5 17.5 6.5 16.5 5C15.3748 3.87478 13.3562 3 11.7649 3C10.1736 3 8.12522 3.87478 7 5C5.87478 6.12522 5.26489 7.9087 5.26489 9.5V18.167H18.2649V9.5ZM19.7649 18.167L20.1649 18.7C20.2206 18.7743 20.2545 18.8626 20.2629 18.9551C20.2712 19.0476 20.2536 19.1406 20.2121 19.2236C20.1706 19.3067 20.1067 19.3765 20.0278 19.4253C19.9488 19.4741 19.8577 19.5 19.7649 19.5H3.76489C3.67203 19.5 3.58101 19.4741 3.50202 19.4253C3.42303 19.3765 3.3592 19.3067 3.31767 19.2236C3.27615 19.1406 3.25857 19.0476 3.26691 18.9551C3.27525 18.8626 3.30917 18.7743 3.36489 18.7L3.76489 18.167V9.5C3.76489 7.37827 4.60774 5.34344 6.10803 3.84315C7.60832 2.34285 9.64315 1.5 11.7649 1.5C13.8866 1.5 15.9214 2.34285 17.4217 3.84315C18.922 5.34344 19.7649 7.37827 19.7649 9.5V18.167ZM9.26489 20.5H14.2649C14.2649 21.163 14.0015 21.7989 13.5327 22.2678C13.0638 22.7366 12.4279 23 11.7649 23C11.1018 23 10.466 22.7366 9.99712 22.2678C9.52828 21.7989 9.26489 21.163 9.26489 20.5Z" fill="black"/>
</svg>
