<svg width="16" height="16" viewBox="0 0 16 16" fill="none" xmlns="http://www.w3.org/2000/svg">
<path d="M5.1405 2.1255C5.04683 2.22983 5 2.3445 5 2.4695C5 2.5945 5.04683 2.70383 5.1405 2.7975L10.0155 7.7975L5.1405 12.7975C5.04683 12.8912 5 13.0005 5 13.1255C5 13.2505 5.04683 13.3598 5.1405 13.4535C5.23417 13.5472 5.3435 13.594 5.4685 13.594C5.5935 13.594 5.70283 13.5523 5.7965 13.469L10.9685 8.141C11.0622 8.04733 11.109 7.93267 11.109 7.797C11.109 7.66133 11.0622 7.54667 10.9685 7.453L5.7965 2.125C5.70283 2.04167 5.5935 2 5.4685 2C5.3435 2 5.23417 2.04167 5.1405 2.125V2.1255Z" fill="#666666"/>
</svg>
