<svg width="18" height="20" viewBox="0 0 18 20" fill="none" xmlns="http://www.w3.org/2000/svg">
<path d="M4.66797 6H12.668" stroke="#232833" stroke-width="1.33333" stroke-linecap="round"/>
<path d="M4.66797 9.66797H12.668" stroke="#232833" stroke-width="1.33333" stroke-linecap="round"/>
<path d="M4.66797 13.668H12.668" stroke="#232833" stroke-width="1.33333" stroke-linecap="round"/>
<path fill-rule="evenodd" clip-rule="evenodd" d="M4.02363 0.00195312C4.00806 0.110821 4 0.222113 4 0.335286C4 0.693152 4.08056 1.0322 4.22454 1.33529H2.88889C2.02978 1.33529 1.33333 2.03173 1.33333 2.89084V17.1131C1.33333 17.9722 2.02978 18.6686 2.88889 18.6686H14.4444C15.3036 18.6686 16 17.9722 16 17.1131V2.89084C16 2.03173 15.3036 1.33529 14.4444 1.33529H13.1088C13.2528 1.0322 13.3333 0.693152 13.3333 0.335286C13.3333 0.222113 13.3253 0.110821 13.3097 0.00195312H14.4444C16.0399 0.00195312 17.3333 1.29535 17.3333 2.89084V17.1131C17.3333 18.7086 16.0399 20.002 14.4444 20.002H2.88889C1.2934 20.002 0 18.7086 0 17.1131V2.89084C0 1.29535 1.2934 0.00195312 2.88889 0.00195312H4.02363ZM5.39023 0.00195312C5.35338 0.106213 5.33333 0.218408 5.33333 0.335286C5.33333 0.887571 5.78105 1.33529 6.33333 1.33529H11C11.5523 1.33529 12 0.887571 12 0.335286C12 0.218408 11.9799 0.106213 11.9431 0.00195312H5.39023Z" fill="#232833"/>
</svg>
