<svg width="214" height="146" viewBox="0 0 214 146" fill="none" xmlns="http://www.w3.org/2000/svg">
<path d="M137.5 70.7853H96C101.2 68.385 104.167 54.7998 103.5 49.4667C103.333 47.8001 104.5 44.0671 108.5 40.4668C114.611 34.9661 128.5 38.9667 128.5 49.4668C127.3 61.8668 134.667 68.952 137.5 70.7853Z" fill="#232833"/>
<path d="M112.353 61.9453H120.853V65.4453C120.853 66.5499 121.748 67.4453 122.853 67.4453H148.5C159 68.5 174.5 73.5 183.5 93.5L203.456 130.165C204.032 131.224 204.395 132.32 204.567 133.414L204.853 133.945L204.644 134.022C205.167 139.599 200.829 144.945 194.672 144.945H174.723L173.353 145.445L25.853 144.945C12.253 140.545 11.1863 128.445 12.353 122.945L29.853 78.4453L81.353 67.4453H110.353C111.458 67.4453 112.353 66.5499 112.353 65.4453V61.9453Z" fill="white"/>
<path d="M105 68C105.431 70.8512 108.654 78.6267 115 79C123.5 79.5 126.414 77.4089 129 68" stroke="#232833" stroke-linecap="round"/>
<path d="M173.352 144.945H194.208C201.786 144.945 206.61 136.844 203 130.181L181.5 90.5C171.811 73.0603 162.923 70.507 155.768 68.9213C151.918 68.0681 147.983 67.4453 144.04 67.4453H122.852C121.748 67.4453 120.852 66.5499 120.852 65.4453V61.9453H112.352V65.4453C112.352 66.5499 111.457 67.4453 110.352 67.4453H80.3524M173.352 144.945H96.256C93.8239 144.945 91.8524 142.974 91.8524 140.542V140.542C91.8524 138.233 93.6354 136.316 95.9381 136.15L97.9994 136M173.352 144.945H33.8971C28.5669 144.945 22.8962 144.559 18.8435 141.097C15.4612 138.208 13.5375 134.48 12.5518 130.901C10.7863 124.49 13.3492 117.932 16.0274 111.846L28.4994 83.5005" stroke="#232833"/>
<path d="M129.913 53.8205L129.964 53.4887C130.22 51.8092 128.689 50.4073 127.038 50.8089L125.5 57.9668L128.736 55.7127C129.371 55.2701 129.797 54.586 129.913 53.8205Z" fill="white" stroke="#232833"/>
<path d="M102.087 53.8205L102.036 53.4887C101.78 51.8092 103.311 50.4073 104.962 50.8089L106.5 57.9668L103.264 55.7127C102.629 55.2701 102.203 54.586 102.087 53.8205Z" fill="white" stroke="#232833"/>
<path d="M127 51.9668C127 58.3383 122.055 63.4668 116 63.4668C109.945 63.4668 105 58.3383 105 51.9668C105 45.5953 109.945 40.4668 116 40.4668C122.055 40.4668 127 45.5953 127 51.9668Z" fill="white" stroke="#232833"/>
<path d="M109 48.4668C108.6 50.8668 106.167 51.8001 105 51.9668L106 44.9668L113.5 39.9668L121.5 41.9668L128.5 49.9668C127 49.9668 127 56.4668 126.5 53.9668C125.814 50.5348 123 48.4668 118.5 49.9668C114.9 51.1668 112.333 49.4668 111.5 48.4668C110.833 47.4668 109.4 46.0668 109 48.4668Z" fill="#232833"/>
<circle cx="111.5" cy="54.9668" r="1" fill="#232833"/>
<circle cx="120.5" cy="54.9668" r="1" fill="#232833"/>
<path d="M116.1 50.9668L114.979 55.5976C114.718 56.6765 115.41 57.7549 116.5 57.9668V57.9668" stroke="#232833" stroke-linecap="round"/>
<path d="M80.3536 62.9451C83.1536 76.5451 69.5203 81.6117 62.3536 82.4451L30.3535 77.9448V52.945C29.7454 46.8639 25.2468 40.205 21.5133 35.8232C19.5249 33.4895 17.2079 31.127 16.8856 28.0781C16.6315 25.6742 17.6176 24.077 19.115 23.0526C22.9702 20.4154 28.1586 22.4101 30.9651 26.1439C32.9163 28.7399 34.7914 31.8907 36.089 34.2664C36.5534 35.1168 37.6914 34.9012 37.6477 33.9332C37.3623 27.6105 34.3619 17.3279 32.4219 11.2252C31.7443 9.09379 31.516 6.53604 33.2159 5.08265C34.9885 3.56718 37.3495 3.60992 39.2624 4.12639C40.7064 4.51629 41.975 5.40246 42.8718 6.59956C46.8539 11.9148 48.3643 22.3732 48.835 29.0858C48.9046 30.0784 50.0279 30.307 50.3293 29.3588C52.0356 23.9905 52.7274 15.3455 52.8525 9.49508C52.9021 7.17732 53.3707 4.7664 55.0152 3.13245C59.3349 -1.15927 63.6656 1.87255 65.6987 4.84019C66.1807 5.54373 66.4405 6.36835 66.5512 7.21394C67.5213 14.624 65.6286 23.5656 64.0703 28.7472C63.7189 29.9156 64.4347 31.1574 65.6201 31.4465C77.1899 34.2685 82.3383 39.7486 83.852 45.7664C84.5337 48.4765 84.2032 51.5944 82.1555 53.4962C79.6393 55.833 76.0152 55.8333 73.5296 55.0254C72.1027 54.5617 71.2201 53.2562 70.5399 51.9189C69.537 49.947 68.5321 48.5757 67.5477 47.6334C63.9083 44.1494 57.8371 46.7457 54.2308 50.2639C45.1933 59.0806 55.786 69 60.5005 69C66.8116 69 70.011 65.1621 71.817 61.6597C72.6794 59.9873 73.931 58.1386 75.7981 58.3731C78.4525 58.7066 79.972 61.8002 80.3536 62.9451Z" fill="white"/>
<path d="M68.0005 81.5C77.2005 79.1 80.5202 71.4448 80.8535 67.9448V65.4448V65.0401C80.8535 64.3198 80.6858 63.6094 80.3637 62.9652V62.9652C80.357 62.9518 80.3516 62.9391 80.3468 62.9249C79.9302 61.7073 77.9529 58.7035 74.9269 58.7935C73.2811 58.8425 72.215 60.3578 71.5721 61.8736C70.2267 65.0454 68.0719 68.1572 61.0005 69C52.2198 70.0466 46.457 56.6878 54.82 49.4714C57.2087 47.4102 60.3441 46.1394 63.499 46.106C65.8019 46.0816 68.1658 47.1231 70.046 51.3987C70.7731 53.052 71.7568 54.6843 73.5025 55.1474C76.0718 55.829 79.6457 55.7077 82.1228 53.4726C84.1975 51.6005 84.5238 48.4851 83.9312 45.7541C82.524 39.2694 77.4014 34.2422 65.6217 31.4401C64.4347 31.1578 63.7189 29.9156 64.0703 28.7472C65.6286 23.5656 67.5213 14.624 66.5512 7.21393C66.4405 6.36833 66.1804 5.54414 65.7015 4.83848C63.6884 1.87211 59.4507 -1.15697 55.1586 3.12927C53.5182 4.76743 53.0488 7.17807 52.9904 9.49563C52.8403 15.4609 52.0719 24.4375 50.3273 29.9141C50.0253 30.8621 48.9244 30.6336 48.8747 29.6399C48.5299 22.7387 47.4143 11.6245 43.4991 6.1712C42.6268 4.95613 41.346 4.0723 39.8847 3.75297C37.8122 3.30008 35.1485 3.40844 33.2263 5.08866C31.5424 6.56061 31.7439 9.09306 32.4126 11.2273C34.3547 17.4264 37.3693 28.0202 37.6487 34.433C37.6909 35.4011 36.5649 35.611 36.1107 34.755C34.7976 32.2796 32.884 28.9398 30.8976 26.2125C28.1477 22.4368 22.9702 20.4153 19.115 23.0526C17.6176 24.0769 16.6315 25.6741 16.8856 28.0781C17.2079 31.127 19.5249 33.4895 21.5133 35.8231C25.2468 40.205 29.7454 46.8639 30.3535 52.945V76.7066C30.3535 77.8927 30.1425 79.0694 29.7303 80.1817L28.5005 83.5" stroke="#232833" stroke-linecap="round"/>
<path d="M94.3535 126.945H93.8535C91.3682 126.945 89.3535 128.96 89.3535 131.445V131.445C89.3535 133.931 91.3682 135.945 93.8535 135.945H97.8535" stroke="#232833" stroke-linecap="round"/>
<path d="M68 82C66.1667 88.589 61 105.214 55 119" stroke="#232833" stroke-linecap="round"/>
<path d="M60 107.5L70.3528 114.945" stroke="#232833" stroke-linecap="round"/>
<path d="M71.3535 107.445L69.3535 144.445" stroke="#232833" stroke-linecap="round"/>
<path d="M103.354 113.945L91.8111 116.11C89.2265 116.594 87.3535 118.851 87.3535 121.481V121.481C87.3535 124.499 89.8001 126.945 92.8182 126.945H94.3535" stroke="#232833" stroke-linecap="round"/>
<path d="M102.854 113.945L97.2918 109.002C95.3829 107.305 95.1852 104.392 96.8473 102.453V102.453C98.5143 100.508 101.434 100.263 103.402 101.903L112.833 109.761C114.126 110.839 115.796 111.354 117.472 111.193L171.854 105.945" stroke="#232833" stroke-linecap="round"/>
<path d="M183.5 95C178.167 96.8333 172 99.4 164 105" stroke="#232833" stroke-linecap="round"/>
<path d="M162.345 95.8518C162.293 95.5805 162.031 95.4025 161.76 95.4541C161.489 95.5058 161.311 95.7676 161.362 96.0389L162.345 95.8518ZM161.362 96.0389L163.362 106.539L164.345 106.352L162.345 95.8518L161.362 96.0389Z" fill="#232833"/>
<path d="M6 145H214" stroke="#232833" stroke-width="2"/>
<circle cx="57" cy="56" r="17" fill="#115EE8"/>
<path d="M47.5 54L53.0951 59.2221C54.1877 60.2419 55.8644 60.3019 57.0271 59.3628L68 50.5" stroke="white" stroke-width="3" stroke-linecap="round"/>
<path d="M87.7761 14.3293C87.1134 14.5465 86.5181 14.8593 85.9852 15.2469C84.8072 16.1038 83.9617 17.3058 83.3565 18.5804C82.8896 19.5638 82.5584 20.6055 82.3266 21.5961C81.6082 18.7895 80.2112 16.9931 78.6921 15.8565C77.8656 15.238 77.014 14.8233 76.2358 14.5459C78.8793 13.6007 80.493 11.3133 81.4632 8.97372C81.9072 7.90284 82.2245 6.80523 82.4507 5.79076C82.6412 6.75878 82.9101 7.80098 83.2891 8.823C84.1117 11.0414 85.4899 13.2487 87.7761 14.3293Z" stroke="#115EE8"/>
<path d="M5.75925 44.5908C5.98615 44.0237 6.16653 43.4468 6.30978 42.8898C6.42974 43.4097 6.58056 43.9465 6.7701 44.4762C7.32242 46.0198 8.23915 47.5885 9.74502 48.4429C9.37287 48.597 9.03157 48.7956 8.71972 49.0307C7.86315 49.6764 7.25438 50.5772 6.82175 51.5215C6.57072 52.0694 6.37476 52.6412 6.2227 53.2026C5.67864 51.433 4.7606 50.2538 3.75999 49.4779C3.27115 49.0988 2.77025 48.822 2.29605 48.6201C4.03377 47.8457 5.10744 46.2198 5.75925 44.5908Z" stroke="#115EE8"/>
<path d="M17.2334 62.2195C17.1424 62.2713 17.0548 62.3277 16.9705 62.3883C16.4337 62.7737 16.0576 63.3074 15.794 63.8553C15.7283 63.9918 15.6688 64.1307 15.6151 64.2705C15.2809 63.5379 14.8162 63.011 14.3116 62.6383C14.154 62.5219 13.9944 62.422 13.8364 62.3364C14.6699 61.8316 15.2095 61.0064 15.5497 60.1965C15.593 60.0935 15.6334 59.99 15.6712 59.8866C15.6979 59.966 15.726 60.0454 15.7558 60.1246C16.0442 60.8922 16.5063 61.6904 17.2334 62.2195Z" stroke="#115EE8"/>
</svg>
