<svg xmlns="http://www.w3.org/2000/svg" width="30" height="30" viewBox="0 0 30 30" fill="none">
  <path d="M17.5 3.75H6.25C4.86929 3.75 3.75 4.86929 3.75 6.25V23.75C3.75 25.1307 4.86929 26.25 6.25 26.25H17.5"
    stroke="currentColor" stroke-width="1.5" stroke-linecap="round" />
  <path
    d="M20.3418 17.3729H12.9323C12.6974 17.3729 12.5449 17.274 12.5056 17.0964C12.5 17.0602 12.5 17.0224 12.5 16.9854V13.083C12.5 12.837 12.646 12.706 12.9154 12.706H20.3409V9.11294C20.3409 8.95459 20.4242 8.82678 20.5636 8.77855C20.7236 8.72229 20.8649 8.74801 20.9865 8.86617C21.0558 8.93369 21.1325 8.99558 21.2027 9.06149L23.8956 11.5437L27.3558 14.7292C27.5467 14.906 27.5485 15.0917 27.3586 15.2669L22.4079 19.8277C21.9381 20.261 21.4656 20.6902 20.9968 21.1227C20.8761 21.2344 20.7423 21.2834 20.5767 21.2255C20.4167 21.1693 20.3409 21.0535 20.3409 20.8703L20.3418 17.3729Z"
    fill="currentColor" stroke="currentColor" stroke-width="1.5" />
</svg>