<svg width="35" height="32" viewBox="0 0 35 32" fill="none" xmlns="http://www.w3.org/2000/svg">
<path d="M31.0026 14.3353C31.0026 21.6991 25.0331 27.6686 17.6693 27.6686C10.3055 27.6686 4.33594 21.6991 4.33594 14.3353C4.33594 6.97149 10.3055 1.00195 17.6693 1.00195C25.0331 1.00195 31.0026 6.97149 31.0026 14.3353Z" fill="#FFBB0D"/>
<path fill-rule="evenodd" clip-rule="evenodd" d="M31.9896 14.3347C31.9896 22.2439 25.5779 28.6556 17.6686 28.6556C9.75938 28.6556 3.34766 22.2439 3.34766 14.3347C3.34766 6.42539 9.75938 0.0136719 17.6686 0.0136719C25.5779 0.0136719 31.9896 6.42539 31.9896 14.3347ZM17.6686 27.668C25.0324 27.668 31.002 21.6985 31.002 14.3347C31.002 6.97086 25.0324 1.00133 17.6686 1.00133C10.3048 1.00133 4.33531 6.97086 4.33531 14.3347C4.33531 21.6985 10.3048 27.668 17.6686 27.668Z" fill="#E89B05"/>
<path fill-rule="evenodd" clip-rule="evenodd" d="M5.32261 14.8281C5.04987 14.8281 4.82878 14.607 4.82878 14.3343C4.82878 7.24323 10.5772 1.49479 17.6683 1.49479C17.941 1.49479 18.1621 1.71589 18.1621 1.98862C18.1621 2.26135 17.941 2.48245 17.6683 2.48245C11.1227 2.48245 5.81643 7.7887 5.81643 14.3343C5.81643 14.607 5.59534 14.8281 5.32261 14.8281Z" fill="#FFD15C"/>
<path fill-rule="evenodd" clip-rule="evenodd" d="M30.0153 13.8418C30.288 13.8418 30.5091 14.0629 30.5091 14.3356C30.5091 21.4267 24.7607 27.1751 17.6696 27.1751C17.3969 27.1751 17.1758 26.954 17.1758 26.6813C17.1758 26.4086 17.3969 26.1875 17.6696 26.1875C24.2152 26.1875 29.5215 20.8812 29.5215 14.3356C29.5215 14.0629 29.7426 13.8418 30.0153 13.8418Z" fill="#EEAD04"/>
<path d="M27.5461 14.3355C27.5461 19.7902 23.1242 24.2121 17.6695 24.2121C12.2148 24.2121 7.79297 19.7902 7.79297 14.3355C7.79297 8.88086 12.2148 4.45898 17.6695 4.45898C23.1242 4.45898 27.5461 8.88086 27.5461 14.3355Z" fill="#FFDD28"/>
<path fill-rule="evenodd" clip-rule="evenodd" d="M28.5331 14.3349C28.5331 20.335 23.669 25.1991 17.6689 25.1991C11.6688 25.1991 6.80469 20.335 6.80469 14.3349C6.80469 8.33477 11.6688 3.4707 17.6689 3.4707C23.669 3.4707 28.5331 8.33477 28.5331 14.3349ZM17.6689 24.2114C23.1235 24.2114 27.5454 19.7896 27.5454 14.3349C27.5454 8.88024 23.1235 4.45836 17.6689 4.45836C12.2142 4.45836 7.79234 8.88024 7.79234 14.3349C7.79234 19.7896 12.2142 24.2114 17.6689 24.2114Z" fill="#E89B05"/>
<path fill-rule="evenodd" clip-rule="evenodd" d="M17.6681 22.7291C22.3045 22.7291 26.0631 18.9705 26.0631 14.3341C26.0631 14.0613 26.2842 13.8403 26.557 13.8403C26.8297 13.8403 27.0508 14.0613 27.0508 14.3341C27.0508 19.516 22.85 23.7168 17.6681 23.7168C17.3953 23.7168 17.1742 23.4957 17.1742 23.223C17.1742 22.9502 17.3953 22.7291 17.6681 22.7291Z" fill="#ECC704"/>
<path fill-rule="evenodd" clip-rule="evenodd" d="M17.6698 5.94078C13.0334 5.94078 9.27476 9.69938 9.27476 14.3358C9.27476 14.6086 9.05367 14.8297 8.78094 14.8297C8.5082 14.8297 8.28711 14.6086 8.28711 14.3358C8.28711 9.15391 12.4879 4.95312 17.6698 4.95312C17.9426 4.95312 18.1636 5.17422 18.1636 5.44695C18.1636 5.71969 17.9426 5.94078 17.6698 5.94078Z" fill="#FFEF9C"/>
<path d="M2.57332 27.479L1.30133 24.935C1.16281 24.658 1.36426 24.332 1.674 24.332L7.24982 24.332C7.47994 24.332 7.66649 24.5186 7.66649 24.7487L7.66649 30.582C7.66649 30.8121 7.47994 30.9987 7.24982 30.9987L1.674 30.9987C1.36426 30.9987 1.16281 30.6727 1.30133 30.3957L2.57332 27.8517C2.63197 27.7344 2.63197 27.5963 2.57332 27.479Z" fill="#115EE8"/>
<path d="M32.7597 27.479L34.0316 24.935C34.1702 24.658 33.9687 24.332 33.659 24.332L28.0831 24.332C27.853 24.332 27.6665 24.5186 27.6665 24.7487L27.6665 30.582C27.6665 30.8121 27.853 30.9987 28.0831 30.9987L33.659 30.9987C33.9687 30.9987 34.1702 30.6727 34.0316 30.3957L32.7597 27.8517C32.701 27.7344 32.701 27.5963 32.7597 27.479Z" fill="#115EE8"/>
<path fill-rule="evenodd" clip-rule="evenodd" d="M1.73437 27.6667L0.555546 25.309C0.139988 24.4779 0.744347 23.5 1.67358 23.5L7.2494 23.5C7.93976 23.5 8.4994 24.0596 8.4994 24.75L8.4994 30.5833C8.4994 31.2737 7.93975 31.8333 7.2494 31.8333L1.67358 31.8333C0.744346 31.8333 0.139988 30.8554 0.555546 30.0243L1.73437 27.6667ZM1.8273 27.8525C1.82738 27.8527 1.82746 27.8529 1.82754 27.853L2.20023 27.6667L1.82754 27.853L1.8273 27.8525ZM33.5978 27.6667L34.7766 25.309C35.1921 24.4779 34.5878 23.5 33.6585 23.5L28.0827 23.5C27.3924 23.5 26.8327 24.0596 26.8327 24.75L26.8327 30.5833C26.8327 31.2737 27.3924 31.8333 28.0827 31.8333L33.6585 31.8333C34.5878 31.8333 35.1921 30.8554 34.7766 30.0243L33.5978 27.6667ZM34.0312 24.9363L32.7592 27.4803C32.7006 27.5976 32.7006 27.7357 32.7592 27.853L34.0312 30.397C34.1697 30.674 33.9683 31 33.6585 31L28.0827 31C27.8526 31 27.6661 30.8135 27.6661 30.5833L27.6661 24.75C27.6661 24.5199 27.8526 24.3333 28.0827 24.3333L33.6585 24.3333C33.9683 24.3333 34.1697 24.6593 34.0312 24.9363ZM1.3009 24.9363L2.57289 27.4803C2.63155 27.5976 2.63155 27.7357 2.57289 27.853L1.3009 30.397C1.16238 30.674 1.36384 31 1.67358 31L7.2494 31C7.47952 31 7.66606 30.8134 7.66606 30.5833L7.66607 24.75C7.66607 24.5199 7.47952 24.3333 7.2494 24.3333L1.67358 24.3333C1.36384 24.3333 1.16238 24.6593 1.3009 24.9363Z" fill="#0C4BBC"/>
<path fill-rule="evenodd" clip-rule="evenodd" d="M1.8962 24.7101C1.9725 24.5891 2.10559 24.5156 2.2487 24.5156H4.01953C4.24965 24.5156 4.4362 24.7022 4.4362 24.9323C4.4362 25.1624 4.24965 25.349 4.01953 25.349H2.90984L3.77042 27.1484C3.86971 27.3559 3.7819 27.6047 3.5743 27.704C3.36671 27.8033 3.11793 27.7155 3.01864 27.5079L1.87281 25.1121C1.81106 24.983 1.81989 24.8312 1.8962 24.7101Z" fill="#3A7FF9"/>
<path d="M29.332 28.916L29.332 23.0827C29.332 22.8526 29.1455 22.666 28.9154 22.666L6.41537 22.666C6.18526 22.666 5.99871 22.8526 5.99871 23.0827L5.99871 28.916C5.99871 29.1461 6.18525 29.3327 6.41537 29.3327L28.9154 29.3327C29.1455 29.3327 29.332 29.1461 29.332 28.916Z" fill="#115EE8"/>
<path fill-rule="evenodd" clip-rule="evenodd" d="M30.166 23.082L30.166 28.9154C30.166 29.6057 29.6064 30.1654 28.916 30.1654L6.41602 30.1654C5.72566 30.1654 5.16602 29.6057 5.16602 28.9154L5.16602 23.082C5.16602 22.3917 5.72566 21.832 6.41602 21.832L28.916 21.832C29.6064 21.832 30.166 22.3917 30.166 23.082ZM29.3327 23.082L29.3327 28.9154C29.3327 29.1455 29.1461 29.332 28.916 29.332L6.41602 29.332C6.1859 29.332 5.99935 29.1455 5.99935 28.9154L5.99935 23.082C5.99935 22.8519 6.1859 22.6654 6.41602 22.6654L28.916 22.6654C29.1461 22.6654 29.3327 22.8519 29.3327 23.082Z" fill="#0C4BBC"/>
<path fill-rule="evenodd" clip-rule="evenodd" d="M6.25977 23.2643C6.25977 23.0342 6.44631 22.8477 6.67643 22.8477H22.3014C22.5315 22.8477 22.7181 23.0342 22.7181 23.2643C22.7181 23.4944 22.5315 23.681 22.3014 23.681H7.0931V26.5977C7.0931 26.8278 6.90655 27.0143 6.67643 27.0143C6.44631 27.0143 6.25977 26.8278 6.25977 26.5977V23.2643Z" fill="#3A7FF9"/>
<path d="M28.1822 26.1578C27.9462 26.1578 27.755 25.9712 27.755 25.741C27.755 25.5108 27.9462 25.3242 28.1822 25.3242C28.4181 25.3242 28.6094 25.5108 28.6094 25.741C28.6094 25.9712 28.4181 26.1578 28.1822 26.1578Z" fill="#0C4BBC"/>
<path d="M26.5584 25.99C26.2649 25.99 26.027 25.7579 26.027 25.4716C26.027 25.1852 26.2649 24.9531 26.5584 24.9531C26.8519 24.9531 27.0898 25.1852 27.0898 25.4716C27.0898 25.7579 26.8519 25.99 26.5584 25.99Z" fill="#0C4BBC"/>
<path d="M27.2812 27.1767C27.1344 27.1767 27.0155 27.0606 27.0155 26.9174C27.0155 26.7743 27.1344 26.6582 27.2812 26.6582C27.4279 26.6582 27.5469 26.7743 27.5469 26.9174C27.5469 27.0606 27.4279 27.1767 27.2812 27.1767Z" fill="#0C4BBC"/>
<path d="M26.8241 24.4345C26.6774 24.4345 26.5584 24.3184 26.5584 24.1752C26.5584 24.0321 26.6774 23.916 26.8241 23.916C26.9709 23.916 27.0898 24.0321 27.0898 24.1752C27.0898 24.3184 26.9709 24.4345 26.8241 24.4345Z" fill="#0C4BBC"/>
<path d="M25.4277 26.9169C25.2809 26.9169 25.1619 26.8008 25.1619 26.6577C25.1619 26.5145 25.2809 26.3984 25.4277 26.3984C25.5744 26.3984 25.6934 26.5145 25.6934 26.6577C25.6934 26.8008 25.5744 26.9169 25.4277 26.9169Z" fill="#0C4BBC"/>
<path d="M25.162 25.5829C25.0153 25.5829 24.8963 25.4668 24.8963 25.3237C24.8963 25.1805 25.0153 25.0645 25.162 25.0645C25.3088 25.0645 25.4277 25.1805 25.4277 25.3237C25.4277 25.4668 25.3088 25.5829 25.162 25.5829Z" fill="#0C4BBC"/>
<path d="M23.3495 28.5907C23.2028 28.5907 23.0838 28.4747 23.0838 28.3315C23.0838 28.1883 23.2028 28.0723 23.3495 28.0723C23.4963 28.0723 23.6152 28.1883 23.6152 28.3315C23.6152 28.4747 23.4963 28.5907 23.3495 28.5907Z" fill="#0C4BBC"/>
<path d="M28.6366 27.6005C28.4899 27.6005 28.3709 27.4844 28.3709 27.3413C28.3709 27.1981 28.4899 27.082 28.6366 27.082C28.7834 27.082 28.9023 27.1981 28.9023 27.3413C28.9023 27.4844 28.7834 27.6005 28.6366 27.6005Z" fill="#0C4BBC"/>
<path d="M26.1262 28.168C25.8874 28.168 25.6937 27.9791 25.6938 27.7461C25.6938 27.5131 25.8874 27.3242 26.1262 27.3242C26.365 27.3242 26.5586 27.5131 26.5586 27.7461C26.5586 27.9791 26.365 28.168 26.1262 28.168Z" fill="#0C4BBC"/>
<path d="M27.9816 28.5898C27.7428 28.5898 27.5492 28.401 27.5492 28.168C27.5492 27.935 27.7428 27.7461 27.9816 27.7461C28.2205 27.7461 28.4141 27.935 28.4141 28.168C28.4141 28.401 28.2205 28.5898 27.9816 28.5898Z" fill="#0C4BBC"/>
<path d="M24.1965 27.7598C23.9577 27.7598 23.7641 27.5709 23.7641 27.3379C23.7641 27.1049 23.9577 26.916 24.1965 26.916C24.4353 26.916 24.6289 27.1049 24.6289 27.3379C24.6289 27.5709 24.4353 27.7598 24.1965 27.7598Z" fill="#0C4BBC"/>
<path d="M24.8964 28.7177C24.7497 28.7177 24.6307 28.6016 24.6307 28.4584C24.6307 28.3153 24.7497 28.1992 24.8964 28.1992C25.0431 28.1992 25.1621 28.3153 25.1621 28.4584C25.1621 28.6016 25.0431 28.7177 24.8964 28.7177Z" fill="#0C4BBC"/>
<path d="M18.7352 17.9121H17.2195V12.0697L15.4102 12.6309V11.3984L18.5726 10.2656H18.7352V17.9121Z" fill="#FFEF9C"/>
<path fill-rule="evenodd" clip-rule="evenodd" d="M19.6308 17.9126C19.6308 18.407 19.23 18.8077 18.7357 18.8077H17.22C16.7257 18.8077 16.325 18.407 16.325 17.9126V13.285L15.6758 13.4863C15.4042 13.5706 15.1087 13.5207 14.8797 13.352C14.6508 13.1833 14.5156 12.9158 14.5156 12.6314V11.399C14.5156 11.021 14.753 10.6838 15.1088 10.5563L18.2713 9.42352C18.3681 9.38883 18.4702 9.37109 18.5731 9.37109H18.7357C19.23 9.37109 19.6308 9.77183 19.6308 10.2662V17.9126ZM17.22 12.0703V17.9126H18.7357V10.2662H18.5731L15.4107 11.399V12.6314L17.22 12.0703Z" fill="#E89B05"/>
<path d="M31.0026 14.3333C31.0026 21.6971 25.0331 27.6667 17.6693 27.6667C10.3055 27.6667 4.33594 21.6971 4.33594 14.3333C4.33594 6.96954 10.3055 1 17.6693 1C25.0331 1 31.0026 6.96954 31.0026 14.3333Z" fill="#DCA16A"/>
<path fill-rule="evenodd" clip-rule="evenodd" d="M31.9896 14.3327C31.9896 22.242 25.5779 28.6537 17.6686 28.6537C9.75938 28.6537 3.34766 22.242 3.34766 14.3327C3.34766 6.42344 9.75938 0.0117188 17.6686 0.0117188C25.5779 0.0117188 31.9896 6.42344 31.9896 14.3327ZM17.6686 27.666C25.0324 27.666 31.002 21.6965 31.002 14.3327C31.002 6.96891 25.0324 0.999373 17.6686 0.999373C10.3048 0.999373 4.33531 6.96891 4.33531 14.3327C4.33531 21.6965 10.3048 27.666 17.6686 27.666Z" fill="#C38144"/>
<path fill-rule="evenodd" clip-rule="evenodd" d="M5.3226 14.8262C5.04987 14.8262 4.82878 14.6051 4.82878 14.3323C4.82878 7.24128 10.5772 1.49284 17.6683 1.49284C17.941 1.49284 18.1621 1.71393 18.1621 1.98667C18.1621 2.2594 17.941 2.48049 17.6683 2.48049C11.1227 2.48049 5.81643 7.78675 5.81643 14.3323C5.81643 14.6051 5.59534 14.8262 5.3226 14.8262Z" fill="#F0B57F"/>
<path fill-rule="evenodd" clip-rule="evenodd" d="M30.0133 13.8398C30.2861 13.8398 30.5072 14.0609 30.5072 14.3337C30.5072 21.4247 24.7587 27.1732 17.6677 27.1732C17.3949 27.1732 17.1738 26.9521 17.1738 26.6793C17.1738 26.4066 17.3949 26.1855 17.6677 26.1855C24.2133 26.1855 29.5195 20.8793 29.5195 14.3337C29.5195 14.0609 29.7406 13.8398 30.0133 13.8398Z" fill="#CF945D"/>
<path d="M27.5461 14.3336C27.5461 19.7882 23.1242 24.2101 17.6695 24.2101C12.2148 24.2101 7.79297 19.7882 7.79297 14.3336C7.79297 8.87891 12.2148 4.45703 17.6695 4.45703C23.1242 4.45703 27.5461 8.87891 27.5461 14.3336Z" fill="#F7BA82"/>
<path fill-rule="evenodd" clip-rule="evenodd" d="M28.5331 14.3329C28.5331 20.3331 23.669 25.1971 17.6689 25.1971C11.6688 25.1971 6.80469 20.3331 6.80469 14.3329C6.80469 8.33282 11.6688 3.46875 17.6689 3.46875C23.669 3.46875 28.5331 8.33282 28.5331 14.3329ZM17.6689 24.2095C23.1235 24.2095 27.5454 19.7876 27.5454 14.3329C27.5454 8.87828 23.1235 4.4564 17.6689 4.4564C12.2142 4.4564 7.79234 8.87828 7.79234 14.3329C7.79234 19.7876 12.2142 24.2095 17.6689 24.2095Z" fill="#C38144"/>
<path fill-rule="evenodd" clip-rule="evenodd" d="M17.6681 22.7272C22.3045 22.7272 26.0631 18.9686 26.0631 14.3321C26.0631 14.0594 26.2842 13.8383 26.557 13.8383C26.8297 13.8383 27.0508 14.0594 27.0508 14.3321C27.0508 19.5141 22.85 23.7148 17.6681 23.7148C17.3953 23.7148 17.1742 23.4937 17.1742 23.221C17.1742 22.9483 17.3953 22.7272 17.6681 22.7272Z" fill="#E6A66C"/>
<path fill-rule="evenodd" clip-rule="evenodd" d="M17.6679 5.93687C13.0314 5.93687 9.27281 9.69547 9.27281 14.3319C9.27281 14.6047 9.05172 14.8258 8.77898 14.8258C8.50625 14.8258 8.28516 14.6047 8.28516 14.3319C8.28516 9.15 12.4859 4.94922 17.6679 4.94922C17.9406 4.94922 18.1617 5.17031 18.1617 5.44305C18.1617 5.71578 17.9406 5.93687 17.6679 5.93687Z" fill="#FFD5AE"/>
<path d="M2.57331 27.479L1.30132 24.935C1.1628 24.658 1.36425 24.332 1.674 24.332L7.24982 24.332C7.47993 24.332 7.66648 24.5186 7.66648 24.7487L7.66648 30.582C7.66648 30.8121 7.47993 30.9987 7.24982 30.9987L1.674 30.9987C1.36425 30.9987 1.1628 30.6727 1.30132 30.3957L2.57331 27.8517C2.63197 27.7344 2.63197 27.5963 2.57331 27.479Z" fill="#0355B6"/>
<path d="M32.7597 27.479L34.0316 24.935C34.1702 24.658 33.9687 24.332 33.659 24.332L28.0831 24.332C27.853 24.332 27.6665 24.5186 27.6665 24.7487L27.6665 30.582C27.6665 30.8121 27.853 30.9987 28.0831 30.9987L33.659 30.9987C33.9687 30.9987 34.1702 30.6727 34.0316 30.3957L32.7597 27.8517C32.701 27.7344 32.701 27.5963 32.7597 27.479Z" fill="#0355B6"/>
<path fill-rule="evenodd" clip-rule="evenodd" d="M1.73436 27.6667L0.555542 25.309C0.13998 24.4779 0.744339 23.5 1.67357 23.5L7.24939 23.5C7.93975 23.5 8.49939 24.0596 8.49939 24.75L8.49939 30.5833C8.49939 31.2737 7.93975 31.8333 7.24939 31.8333L1.67357 31.8333C0.744339 31.8333 0.13998 30.8554 0.555542 30.0243L1.73436 27.6667ZM1.82729 27.8525C1.82738 27.8527 1.82746 27.8529 1.82754 27.853L2.20022 27.6667L1.82753 27.853L1.82729 27.8525ZM33.5978 27.6667L34.7766 25.309C35.1921 24.4779 34.5878 23.5 33.6585 23.5L28.0827 23.5C27.3924 23.5 26.8327 24.0596 26.8327 24.75L26.8327 30.5833C26.8327 31.2737 27.3924 31.8333 28.0827 31.8333L33.6585 31.8333C34.5878 31.8333 35.1921 30.8554 34.7766 30.0243L33.5978 27.6667ZM34.0312 24.9363L32.7592 27.4803C32.7006 27.5976 32.7006 27.7357 32.7592 27.853L34.0312 30.397C34.1697 30.674 33.9683 31 33.6585 31L28.0827 31C27.8526 31 27.6661 30.8135 27.6661 30.5833L27.6661 24.75C27.6661 24.5199 27.8526 24.3333 28.0827 24.3333L33.6585 24.3333C33.9683 24.3333 34.1697 24.6593 34.0312 24.9363ZM1.3009 24.9363L2.57289 27.4803C2.63154 27.5976 2.63154 27.7357 2.57289 27.853L1.3009 30.397C1.16238 30.674 1.36383 31 1.67357 31L7.24939 31C7.47951 31 7.66606 30.8135 7.66606 30.5833L7.66606 24.75C7.66606 24.5199 7.47951 24.3333 7.24939 24.3333L1.67357 24.3333C1.36383 24.3333 1.16238 24.6593 1.3009 24.9363Z" fill="#0C4BBC"/>
<path fill-rule="evenodd" clip-rule="evenodd" d="M1.8962 24.7101C1.9725 24.5891 2.10559 24.5156 2.2487 24.5156H4.01953C4.24965 24.5156 4.4362 24.7022 4.4362 24.9323C4.4362 25.1624 4.24965 25.349 4.01953 25.349H2.90984L3.77042 27.1484C3.86971 27.3559 3.7819 27.6047 3.57431 27.704C3.36671 27.8033 3.11793 27.7155 3.01864 27.5079L1.87281 25.1121C1.81106 24.983 1.81989 24.8312 1.8962 24.7101Z" fill="#1871DA"/>
<path d="M29.332 28.916L29.332 23.0827C29.332 22.8526 29.1455 22.666 28.9154 22.666L6.41537 22.666C6.18525 22.666 5.9987 22.8526 5.9987 23.0827L5.9987 28.916C5.9987 29.1461 6.18525 29.3327 6.41536 29.3327L28.9154 29.3327C29.1455 29.3327 29.332 29.1461 29.332 28.916Z" fill="#115EE8"/>
<path fill-rule="evenodd" clip-rule="evenodd" d="M30.168 23.082L30.168 28.9154C30.168 29.6057 29.6083 30.1654 28.918 30.1654L6.41797 30.1654C5.72761 30.1654 5.16797 29.6057 5.16797 28.9154L5.16797 23.082C5.16797 22.3917 5.72761 21.832 6.41797 21.832L28.918 21.832C29.6083 21.832 30.168 22.3917 30.168 23.082ZM29.3346 23.082L29.3346 28.9154C29.3346 29.1455 29.1481 29.332 28.918 29.332L6.41797 29.332C6.18785 29.332 6.0013 29.1455 6.0013 28.9154L6.0013 23.082C6.0013 22.8519 6.18785 22.6654 6.41797 22.6654L28.918 22.6654C29.1481 22.6654 29.3346 22.8519 29.3346 23.082Z" fill="#0C4BBC"/>
<path fill-rule="evenodd" clip-rule="evenodd" d="M6.26172 23.2643C6.26172 23.0342 6.44827 22.8477 6.67839 22.8477H22.3034C22.5335 22.8477 22.7201 23.0342 22.7201 23.2643C22.7201 23.4944 22.5335 23.681 22.3034 23.681H7.09505V26.5977C7.09505 26.8278 6.9085 27.0143 6.67839 27.0143C6.44827 27.0143 6.26172 26.8278 6.26172 26.5977V23.2643Z" fill="#3D96FF"/>
<path d="M28.1822 26.1578C27.9462 26.1578 27.755 25.9712 27.755 25.741C27.755 25.5108 27.9462 25.3242 28.1822 25.3242C28.4181 25.3242 28.6094 25.5108 28.6094 25.741C28.6094 25.9712 28.4181 26.1578 28.1822 26.1578Z" fill="#0C4BBC"/>
<path d="M26.5565 25.99C26.263 25.99 26.0251 25.7579 26.0251 25.4716C26.0251 25.1852 26.263 24.9531 26.5565 24.9531C26.85 24.9531 27.0879 25.1852 27.0879 25.4716C27.0879 25.7579 26.85 25.99 26.5565 25.99Z" fill="#0C4BBC"/>
<path d="M27.2792 27.1767C27.1325 27.1767 27.0135 27.0606 27.0135 26.9174C27.0135 26.7743 27.1325 26.6582 27.2792 26.6582C27.426 26.6582 27.5449 26.7743 27.5449 26.9174C27.5449 27.0606 27.426 27.1767 27.2792 27.1767Z" fill="#0C4BBC"/>
<path d="M26.8222 24.4345C26.6754 24.4345 26.5565 24.3184 26.5565 24.1752C26.5565 24.0321 26.6754 23.916 26.8222 23.916C26.9689 23.916 27.0879 24.0321 27.0879 24.1752C27.0879 24.3184 26.9689 24.4345 26.8222 24.4345Z" fill="#0C4BBC"/>
<path d="M25.4257 26.9169C25.279 26.9169 25.16 26.8008 25.16 26.6577C25.16 26.5145 25.279 26.3984 25.4257 26.3984C25.5724 26.3984 25.6914 26.5145 25.6914 26.6577C25.6914 26.8008 25.5724 26.9169 25.4257 26.9169Z" fill="#0C4BBC"/>
<path d="M25.1581 25.5829C25.0114 25.5829 24.8924 25.4668 24.8924 25.3237C24.8924 25.1805 25.0114 25.0645 25.1581 25.0645C25.3049 25.0645 25.4238 25.1805 25.4238 25.3237C25.4238 25.4668 25.3049 25.5829 25.1581 25.5829Z" fill="#0C4BBC"/>
<path d="M23.3476 28.5907C23.2008 28.5907 23.0819 28.4747 23.0819 28.3315C23.0819 28.1883 23.2008 28.0723 23.3476 28.0723C23.4943 28.0723 23.6133 28.1883 23.6133 28.3315C23.6133 28.4747 23.4943 28.5907 23.3476 28.5907Z" fill="#0C4BBC"/>
<path d="M28.6347 27.6005C28.4879 27.6005 28.369 27.4844 28.369 27.3413C28.369 27.1981 28.4879 27.082 28.6347 27.082C28.7814 27.082 28.9004 27.1981 28.9004 27.3413C28.9004 27.4844 28.7814 27.6005 28.6347 27.6005Z" fill="#0C4BBC"/>
<path d="M26.1223 28.168C25.8834 28.168 25.6898 27.9791 25.6898 27.7461C25.6898 27.5131 25.8834 27.3242 26.1223 27.3242C26.3611 27.3242 26.5547 27.5131 26.5547 27.7461C26.5547 27.9791 26.3611 28.168 26.1223 28.168Z" fill="#0C4BBC"/>
<path d="M27.9777 28.5898C27.7389 28.5898 27.5453 28.401 27.5453 28.168C27.5453 27.935 27.7389 27.7461 27.9777 27.7461C28.2166 27.7461 28.4102 27.935 28.4102 28.168C28.4102 28.401 28.2166 28.5898 27.9777 28.5898Z" fill="#0C4BBC"/>
<path d="M24.1965 27.7598C23.9577 27.7598 23.7641 27.5709 23.7641 27.3379C23.7641 27.1049 23.9577 26.916 24.1965 26.916C24.4353 26.916 24.6289 27.1049 24.6289 27.3379C24.6289 27.5709 24.4353 27.7598 24.1965 27.7598Z" fill="#0C4BBC"/>
<path d="M24.8945 28.7177C24.7477 28.7177 24.6287 28.6016 24.6287 28.4584C24.6287 28.3153 24.7477 28.1992 24.8945 28.1992C25.0412 28.1992 25.1602 28.3153 25.1602 28.4584C25.1602 28.6016 25.0412 28.7177 24.8945 28.7177Z" fill="#0C4BBC"/>
<path d="M16.5926 13.4235H17.4003C17.7849 13.4235 18.0698 13.3273 18.2551 13.135C18.4404 12.9427 18.5331 12.6875 18.5331 12.3693C18.5331 12.0616 18.4404 11.8221 18.2551 11.6508C18.0733 11.4795 17.8216 11.3938 17.4999 11.3938C17.2097 11.3938 16.9667 11.4743 16.7709 11.6351C16.5751 11.7924 16.4772 11.9987 16.4772 12.2539H14.9616C14.9616 11.8554 15.0682 11.4987 15.2815 11.1841C15.4983 10.8659 15.799 10.6177 16.1836 10.4393C16.5717 10.261 16.9982 10.1719 17.4632 10.1719C18.2709 10.1719 18.9037 10.3659 19.3617 10.754C19.8197 11.1386 20.0488 11.6701 20.0488 12.3483C20.0488 12.698 19.9421 13.0196 19.7288 13.3133C19.5156 13.607 19.2359 13.8325 18.8897 13.9899C19.3198 14.1437 19.6397 14.3745 19.8495 14.6821C20.0627 14.9898 20.1694 15.3534 20.1694 15.773C20.1694 16.4513 19.9211 16.995 19.4247 17.404C18.9317 17.8131 18.2779 18.0177 17.4632 18.0177C16.701 18.0177 16.0769 17.8166 15.5909 17.4145C15.1084 17.0125 14.8672 16.481 14.8672 15.8202H16.3828C16.3828 16.1069 16.4895 16.3412 16.7028 16.523C16.9195 16.7048 17.1853 16.7957 17.4999 16.7957C17.8601 16.7957 18.1415 16.7013 18.3443 16.5125C18.5506 16.3202 18.6537 16.0667 18.6537 15.752C18.6537 14.9898 18.2342 14.6087 17.395 14.6087H16.5926V13.4235Z" fill="#FFD5AE"/>
<path fill-rule="evenodd" clip-rule="evenodd" d="M15.741 13.1495H14.9621C14.4678 13.1495 14.0671 12.7488 14.0671 12.2545C14.0671 11.686 14.2224 11.1527 14.5411 10.6824L14.5423 10.6806C14.8592 10.2156 15.2916 9.86708 15.8076 9.62784L15.8104 9.62655C16.3258 9.38974 16.8813 9.27734 17.4637 9.27734C18.409 9.27734 19.2714 9.50519 19.9394 10.0704C20.6274 10.6489 20.9443 11.4466 20.9443 12.3489C20.9443 12.895 20.7734 13.3994 20.4536 13.8398C20.4329 13.8683 20.4118 13.8963 20.3902 13.9239C20.4606 14.0026 20.5266 14.0864 20.5875 14.1755C20.9156 14.6501 21.065 15.1957 21.065 15.7735C21.065 16.702 20.7102 17.505 19.9956 18.0943C19.3026 18.6689 18.4286 18.9132 17.4637 18.9132C16.5384 18.9132 15.699 18.6657 15.0209 18.1047L15.0185 18.1027C14.32 17.5206 13.9727 16.7313 13.9727 15.8207C13.9727 15.3264 14.3734 14.9257 14.8677 14.9257H15.7556C15.7184 14.8273 15.6981 14.7207 15.6981 14.6093V13.424C15.6981 13.3283 15.7131 13.236 15.741 13.1495ZM17.2209 15.5043C17.2581 15.6027 17.2784 15.7093 17.2784 15.8207C17.2784 15.8282 17.2788 15.8339 17.2791 15.8381C17.2799 15.8388 17.2807 15.8395 17.2815 15.8403C17.3188 15.8707 17.3745 15.9011 17.5005 15.9011C17.6037 15.9011 17.6652 15.8875 17.697 15.8768C17.7235 15.8679 17.7322 15.8604 17.7345 15.8583M17.2209 15.5043H17.3956C17.618 15.5043 17.7087 15.5426 17.7334 15.5558C17.734 15.5572 17.7346 15.5588 17.7353 15.5607C17.7437 15.5835 17.7592 15.6418 17.7592 15.7526C17.7592 15.8114 17.7498 15.8365 17.7478 15.8413C17.7466 15.8443 17.7457 15.8457 17.7449 15.8469C17.744 15.8482 17.741 15.8522 17.7345 15.8583M19.4252 17.4046C19.9217 16.9955 20.1699 16.4518 20.1699 15.7735C20.1699 15.354 20.0633 14.9904 19.85 14.6827C19.8155 14.632 19.7779 14.5835 19.7374 14.537C19.5319 14.3011 19.2495 14.1189 18.8903 13.9904C19.214 13.8432 19.4796 13.6364 19.6872 13.37C19.7015 13.3516 19.7156 13.3329 19.7294 13.3139C19.9426 13.0202 20.0493 12.6985 20.0493 12.3489C20.0493 11.6706 19.8203 11.1391 19.3623 10.7545C18.9042 10.3665 18.2714 10.1724 17.4637 10.1724C16.9987 10.1724 16.5722 10.2616 16.1841 10.4399C15.7995 10.6182 15.4988 10.8664 15.282 11.1846C15.2435 11.2415 15.2084 11.2998 15.1768 11.3594C15.0337 11.6296 14.9621 11.928 14.9621 12.2545H16.4778C16.4778 11.9992 16.5757 11.793 16.7715 11.6356C16.9673 11.4748 17.2103 11.3944 17.5005 11.3944C17.8221 11.3944 18.0739 11.48 18.2557 11.6514C18.441 11.8227 18.5336 12.0622 18.5336 12.3699C18.5336 12.688 18.441 12.9433 18.2557 13.1355C18.0704 13.3278 17.7854 13.424 17.4008 13.424H16.5932V14.6093H17.3956C18.2347 14.6093 18.6542 14.9904 18.6542 15.7526C18.6542 16.0672 18.5511 16.3207 18.3448 16.513C18.142 16.7018 17.8606 16.7962 17.5005 16.7962C17.1858 16.7962 16.9201 16.7053 16.7033 16.5235C16.49 16.3417 16.3834 16.1074 16.3834 15.8207H14.8677C14.8677 16.1515 14.9282 16.4499 15.0491 16.7158C15.1697 16.9812 15.3505 17.2142 15.5915 17.4151C16.0774 17.8171 16.7015 18.0182 17.4637 18.0182C18.2784 18.0182 18.9322 17.8136 19.4252 17.4046ZM17.33 12.5289C17.3526 12.4588 17.3667 12.3849 17.3712 12.3083C17.3949 12.2986 17.4341 12.2894 17.5005 12.2894C17.5718 12.2894 17.6138 12.2977 17.6341 12.3035C17.6364 12.3175 17.6386 12.3391 17.6386 12.3699C17.6386 12.4423 17.6281 12.48 17.6228 12.4945C17.6216 12.4979 17.6204 12.5007 17.6193 12.5029C17.6185 12.5032 17.6177 12.5035 17.6168 12.5038C17.5881 12.5135 17.5216 12.5289 17.4008 12.5289H17.33Z" fill="#C28044"/>
</svg>
