<svg width="35" height="32" viewBox="0 0 35 32" fill="none" xmlns="http://www.w3.org/2000/svg">
<path d="M31.0006 14.3353C31.0006 21.6991 25.0311 27.6686 17.6673 27.6686C10.3035 27.6686 4.33398 21.6991 4.33398 14.3353C4.33398 6.97149 10.3035 1.00195 17.6673 1.00195C25.0311 1.00195 31.0006 6.97149 31.0006 14.3353Z" fill="#FFBB0D"/>
<path fill-rule="evenodd" clip-rule="evenodd" d="M31.9877 14.3347C31.9877 22.2439 25.5759 28.6556 17.6667 28.6556C9.75743 28.6556 3.3457 22.2439 3.3457 14.3347C3.3457 6.42539 9.75743 0.0136719 17.6667 0.0136719C25.5759 0.0136719 31.9877 6.42539 31.9877 14.3347ZM17.6667 27.668C25.0305 27.668 31 21.6985 31 14.3347C31 6.97086 25.0305 1.00133 17.6667 1.00133C10.3029 1.00133 4.33336 6.97086 4.33336 14.3347C4.33336 21.6985 10.3029 27.668 17.6667 27.668Z" fill="#E89B05"/>
<path fill-rule="evenodd" clip-rule="evenodd" d="M5.32065 14.8281C5.04792 14.8281 4.82683 14.607 4.82683 14.3343C4.82683 7.24323 10.5753 1.49479 17.6663 1.49479C17.9391 1.49479 18.1602 1.71589 18.1602 1.98862C18.1602 2.26135 17.9391 2.48245 17.6663 2.48245C11.1207 2.48245 5.81448 7.7887 5.81448 14.3343C5.81448 14.607 5.59339 14.8281 5.32065 14.8281Z" fill="#FFD15C"/>
<path fill-rule="evenodd" clip-rule="evenodd" d="M30.0114 13.8418C30.2841 13.8418 30.5052 14.0629 30.5052 14.3356C30.5052 21.4267 24.7568 27.1751 17.6657 27.1751C17.393 27.1751 17.1719 26.954 17.1719 26.6813C17.1719 26.4086 17.393 26.1875 17.6657 26.1875C24.2113 26.1875 29.5176 20.8812 29.5176 14.3356C29.5176 14.0629 29.7386 13.8418 30.0114 13.8418Z" fill="#EEAD04"/>
<path d="M27.5421 14.3355C27.5421 19.7902 23.1203 24.2121 17.6656 24.2121C12.2109 24.2121 7.78906 19.7902 7.78906 14.3355C7.78906 8.88086 12.2109 4.45898 17.6656 4.45898C23.1203 4.45898 27.5421 8.88086 27.5421 14.3355Z" fill="#FFDD28"/>
<path fill-rule="evenodd" clip-rule="evenodd" d="M28.5311 14.3349C28.5311 20.335 23.6671 25.1991 17.6669 25.1991C11.6668 25.1991 6.80273 20.335 6.80273 14.3349C6.80273 8.33477 11.6668 3.4707 17.6669 3.4707C23.6671 3.4707 28.5311 8.33477 28.5311 14.3349ZM17.6669 24.2114C23.1216 24.2114 27.5435 19.7896 27.5435 14.3349C27.5435 8.88024 23.1216 4.45836 17.6669 4.45836C12.2123 4.45836 7.79039 8.88024 7.79039 14.3349C7.79039 19.7896 12.2123 24.2114 17.6669 24.2114Z" fill="#E89B05"/>
<path fill-rule="evenodd" clip-rule="evenodd" d="M17.6661 22.7291C22.3026 22.7291 26.0612 18.9705 26.0612 14.3341C26.0612 14.0613 26.2823 13.8403 26.555 13.8403C26.8277 13.8403 27.0488 14.0613 27.0488 14.3341C27.0488 19.516 22.848 23.7168 17.6661 23.7168C17.3934 23.7168 17.1723 23.4957 17.1723 23.223C17.1723 22.9502 17.3934 22.7291 17.6661 22.7291Z" fill="#ECC704"/>
<path fill-rule="evenodd" clip-rule="evenodd" d="M17.6659 5.94078C13.0295 5.94078 9.27086 9.69938 9.27086 14.3358C9.27086 14.6086 9.04976 14.8297 8.77703 14.8297C8.5043 14.8297 8.2832 14.6086 8.2832 14.3358C8.2832 9.15391 12.484 4.95312 17.6659 4.95312C17.9386 4.95312 18.1597 5.17422 18.1597 5.44695C18.1597 5.71969 17.9386 5.94078 17.6659 5.94078Z" fill="#FFEF9C"/>
<path d="M2.57332 27.479L1.30133 24.935C1.16281 24.658 1.36426 24.332 1.674 24.332L7.24982 24.332C7.47994 24.332 7.66649 24.5186 7.66649 24.7487L7.66649 30.582C7.66649 30.8121 7.47994 30.9987 7.24982 30.9987L1.674 30.9987C1.36426 30.9987 1.16281 30.6727 1.30133 30.3957L2.57332 27.8517C2.63197 27.7344 2.63197 27.5963 2.57332 27.479Z" fill="#115EE8"/>
<path d="M32.7597 27.479L34.0316 24.935C34.1702 24.658 33.9687 24.332 33.659 24.332L28.0831 24.332C27.853 24.332 27.6665 24.5186 27.6665 24.7487L27.6665 30.582C27.6665 30.8121 27.853 30.9987 28.0831 30.9987L33.659 30.9987C33.9687 30.9987 34.1702 30.6727 34.0316 30.3957L32.7597 27.8517C32.701 27.7344 32.701 27.5963 32.7597 27.479Z" fill="#115EE8"/>
<path fill-rule="evenodd" clip-rule="evenodd" d="M1.73437 27.6667L0.555546 25.309C0.139988 24.4779 0.744347 23.5 1.67358 23.5L7.2494 23.5C7.93976 23.5 8.4994 24.0596 8.4994 24.75L8.4994 30.5833C8.4994 31.2737 7.93975 31.8333 7.2494 31.8333L1.67358 31.8333C0.744346 31.8333 0.139988 30.8554 0.555546 30.0243L1.73437 27.6667ZM1.8273 27.8525C1.82738 27.8527 1.82746 27.8529 1.82754 27.853L2.20023 27.6667L1.82754 27.853L1.8273 27.8525ZM33.5978 27.6667L34.7766 25.309C35.1921 24.4779 34.5878 23.5 33.6585 23.5L28.0827 23.5C27.3924 23.5 26.8327 24.0596 26.8327 24.75L26.8327 30.5833C26.8327 31.2737 27.3924 31.8333 28.0827 31.8333L33.6585 31.8333C34.5878 31.8333 35.1921 30.8554 34.7766 30.0243L33.5978 27.6667ZM34.0312 24.9363L32.7592 27.4803C32.7006 27.5976 32.7006 27.7357 32.7592 27.853L34.0312 30.397C34.1697 30.674 33.9683 31 33.6585 31L28.0827 31C27.8526 31 27.6661 30.8135 27.6661 30.5833L27.6661 24.75C27.6661 24.5199 27.8526 24.3333 28.0827 24.3333L33.6585 24.3333C33.9683 24.3333 34.1697 24.6593 34.0312 24.9363ZM1.3009 24.9363L2.57289 27.4803C2.63155 27.5976 2.63155 27.7357 2.57289 27.853L1.3009 30.397C1.16238 30.674 1.36384 31 1.67358 31L7.2494 31C7.47952 31 7.66606 30.8134 7.66606 30.5833L7.66607 24.75C7.66607 24.5199 7.47952 24.3333 7.2494 24.3333L1.67358 24.3333C1.36384 24.3333 1.16238 24.6593 1.3009 24.9363Z" fill="#0C4BBC"/>
<path fill-rule="evenodd" clip-rule="evenodd" d="M1.8962 24.7101C1.9725 24.5891 2.10559 24.5156 2.2487 24.5156H4.01953C4.24965 24.5156 4.4362 24.7022 4.4362 24.9323C4.4362 25.1624 4.24965 25.349 4.01953 25.349H2.90984L3.77042 27.1484C3.86971 27.3559 3.7819 27.6047 3.5743 27.704C3.36671 27.8033 3.11793 27.7155 3.01864 27.5079L1.87281 25.1121C1.81106 24.983 1.81989 24.8312 1.8962 24.7101Z" fill="#3A7FF9"/>
<path d="M29.332 28.916L29.332 23.0827C29.332 22.8526 29.1455 22.666 28.9154 22.666L6.41537 22.666C6.18526 22.666 5.99871 22.8526 5.99871 23.0827L5.99871 28.916C5.99871 29.1461 6.18525 29.3327 6.41537 29.3327L28.9154 29.3327C29.1455 29.3327 29.332 29.1461 29.332 28.916Z" fill="#115EE8"/>
<path fill-rule="evenodd" clip-rule="evenodd" d="M30.166 23.082L30.166 28.9154C30.166 29.6057 29.6064 30.1654 28.916 30.1654L6.41602 30.1654C5.72566 30.1654 5.16602 29.6057 5.16602 28.9154L5.16602 23.082C5.16602 22.3917 5.72566 21.832 6.41602 21.832L28.916 21.832C29.6064 21.832 30.166 22.3917 30.166 23.082ZM29.3327 23.082L29.3327 28.9154C29.3327 29.1455 29.1461 29.332 28.916 29.332L6.41602 29.332C6.1859 29.332 5.99935 29.1455 5.99935 28.9154L5.99935 23.082C5.99935 22.8519 6.1859 22.6654 6.41602 22.6654L28.916 22.6654C29.1461 22.6654 29.3327 22.8519 29.3327 23.082Z" fill="#0C4BBC"/>
<path fill-rule="evenodd" clip-rule="evenodd" d="M6.25977 23.2643C6.25977 23.0342 6.44631 22.8477 6.67643 22.8477H22.3014C22.5315 22.8477 22.7181 23.0342 22.7181 23.2643C22.7181 23.4944 22.5315 23.681 22.3014 23.681H7.0931V26.5977C7.0931 26.8278 6.90655 27.0143 6.67643 27.0143C6.44631 27.0143 6.25977 26.8278 6.25977 26.5977V23.2643Z" fill="#3A7FF9"/>
<path d="M28.1822 26.1578C27.9462 26.1578 27.755 25.9712 27.755 25.741C27.755 25.5108 27.9462 25.3242 28.1822 25.3242C28.4181 25.3242 28.6094 25.5108 28.6094 25.741C28.6094 25.9712 28.4181 26.1578 28.1822 26.1578Z" fill="#0C4BBC"/>
<path d="M26.5584 25.99C26.2649 25.99 26.027 25.7579 26.027 25.4716C26.027 25.1852 26.2649 24.9531 26.5584 24.9531C26.8519 24.9531 27.0898 25.1852 27.0898 25.4716C27.0898 25.7579 26.8519 25.99 26.5584 25.99Z" fill="#0C4BBC"/>
<path d="M27.2812 27.1767C27.1344 27.1767 27.0155 27.0606 27.0155 26.9174C27.0155 26.7743 27.1344 26.6582 27.2812 26.6582C27.4279 26.6582 27.5469 26.7743 27.5469 26.9174C27.5469 27.0606 27.4279 27.1767 27.2812 27.1767Z" fill="#0C4BBC"/>
<path d="M26.8241 24.4345C26.6774 24.4345 26.5584 24.3184 26.5584 24.1752C26.5584 24.0321 26.6774 23.916 26.8241 23.916C26.9709 23.916 27.0898 24.0321 27.0898 24.1752C27.0898 24.3184 26.9709 24.4345 26.8241 24.4345Z" fill="#0C4BBC"/>
<path d="M25.4277 26.9169C25.2809 26.9169 25.1619 26.8008 25.1619 26.6577C25.1619 26.5145 25.2809 26.3984 25.4277 26.3984C25.5744 26.3984 25.6934 26.5145 25.6934 26.6577C25.6934 26.8008 25.5744 26.9169 25.4277 26.9169Z" fill="#0C4BBC"/>
<path d="M25.162 25.5829C25.0153 25.5829 24.8963 25.4668 24.8963 25.3237C24.8963 25.1805 25.0153 25.0645 25.162 25.0645C25.3088 25.0645 25.4277 25.1805 25.4277 25.3237C25.4277 25.4668 25.3088 25.5829 25.162 25.5829Z" fill="#0C4BBC"/>
<path d="M23.3495 28.5907C23.2028 28.5907 23.0838 28.4747 23.0838 28.3315C23.0838 28.1883 23.2028 28.0723 23.3495 28.0723C23.4963 28.0723 23.6152 28.1883 23.6152 28.3315C23.6152 28.4747 23.4963 28.5907 23.3495 28.5907Z" fill="#0C4BBC"/>
<path d="M28.6366 27.6005C28.4899 27.6005 28.3709 27.4844 28.3709 27.3413C28.3709 27.1981 28.4899 27.082 28.6366 27.082C28.7834 27.082 28.9023 27.1981 28.9023 27.3413C28.9023 27.4844 28.7834 27.6005 28.6366 27.6005Z" fill="#0C4BBC"/>
<path d="M26.1262 28.168C25.8874 28.168 25.6937 27.9791 25.6938 27.7461C25.6938 27.5131 25.8874 27.3242 26.1262 27.3242C26.365 27.3242 26.5586 27.5131 26.5586 27.7461C26.5586 27.9791 26.365 28.168 26.1262 28.168Z" fill="#0C4BBC"/>
<path d="M27.9816 28.5898C27.7428 28.5898 27.5492 28.401 27.5492 28.168C27.5492 27.935 27.7428 27.7461 27.9816 27.7461C28.2205 27.7461 28.4141 27.935 28.4141 28.168C28.4141 28.401 28.2205 28.5898 27.9816 28.5898Z" fill="#0C4BBC"/>
<path d="M24.1965 27.7598C23.9577 27.7598 23.7641 27.5709 23.7641 27.3379C23.7641 27.1049 23.9577 26.916 24.1965 26.916C24.4353 26.916 24.6289 27.1049 24.6289 27.3379C24.6289 27.5709 24.4353 27.7598 24.1965 27.7598Z" fill="#0C4BBC"/>
<path d="M24.8964 28.7177C24.7497 28.7177 24.6307 28.6016 24.6307 28.4584C24.6307 28.3153 24.7497 28.1992 24.8964 28.1992C25.0431 28.1992 25.1621 28.3153 25.1621 28.4584C25.1621 28.6016 25.0431 28.7177 24.8964 28.7177Z" fill="#0C4BBC"/>
<path d="M18.7352 17.9121H17.2195V12.0697L15.4102 12.6309V11.3984L18.5726 10.2656H18.7352V17.9121Z" fill="#FFEF9C"/>
<path fill-rule="evenodd" clip-rule="evenodd" d="M19.6308 17.9126C19.6308 18.407 19.23 18.8077 18.7357 18.8077H17.22C16.7257 18.8077 16.325 18.407 16.325 17.9126V13.285L15.6758 13.4863C15.4042 13.5706 15.1087 13.5207 14.8797 13.352C14.6508 13.1833 14.5156 12.9158 14.5156 12.6314V11.399C14.5156 11.021 14.753 10.6838 15.1088 10.5563L18.2713 9.42352C18.3681 9.38883 18.4702 9.37109 18.5731 9.37109H18.7357C19.23 9.37109 19.6308 9.77183 19.6308 10.2662V17.9126ZM17.22 12.0703V17.9126H18.7357V10.2662H18.5731L15.4107 11.399V12.6314L17.22 12.0703Z" fill="#E89B05"/>
</svg>
