<svg width="22" height="22" viewBox="0 0 22 22" fill="none" xmlns="http://www.w3.org/2000/svg">
<path d="M3.66667 14.4932H2.85C1.82827 14.4932 1 15.3214 1 16.3432V19.0948C1 20.1165 1.82827 20.9448 2.85 20.9448H19.15C20.1717 20.9448 21 20.1165 21 19.0948V16.3432C21 15.3214 20.1717 14.4932 19.15 14.4932H18.3333" stroke="#232833" stroke-width="1.33" stroke-linecap="round"/>
<path d="M19.0553 10.8751L12.1167 16.2062C11.4514 16.7174 10.5254 16.7168 9.86074 16.2049L2.93934 10.8745C2.30911 10.3891 2.65235 9.38093 3.44781 9.38093H5.05385C6.07557 9.38093 6.90385 8.55266 6.90385 7.53094V2.61088C6.90385 1.6904 7.65004 0.94421 8.57051 0.94421H13.2303C14.1507 0.94421 14.8969 1.6904 14.8969 2.61088V7.53093C14.8969 8.55266 15.7252 9.38093 16.7469 9.38093H18.5476C19.3436 9.38093 19.6865 10.3901 19.0553 10.8751Z" stroke="#232833" stroke-width="1.33" stroke-linecap="round"/>
<path d="M9.80039 9.33105L11.2004 10.4923M11.2004 10.4923L12.6004 9.33105M11.2004 10.4923V13.202M9.40039 10.4923H13.0004M9.80039 12.0407H12.6004" stroke="#232833" stroke-linecap="round"/>
</svg>
