<svg width="783" height="95" viewBox="0 0 783 95" fill="none" xmlns="http://www.w3.org/2000/svg">
<path d="M58.6426 16.1688C58.626 16.1792 58.6098 16.1887 58.5938 16.1973L58.5921 16.1983C55.6045 17.8318 54.0956 21.26 55.0268 24.4983C55.5773 26.4196 56.827 27.9223 58.8914 28.3935L58.8916 28.3936C61.1622 28.9111 63.4829 28.6197 65.2001 26.7035L58.6426 16.1688ZM58.6426 16.1688C57.7073 15.6794 56.7511 15.5443 55.8611 15.7213C54.7817 15.9358 53.7473 16.6197 52.9359 17.7949L52.9356 17.7953C51.2734 20.1973 50.7064 22.8238 51.4031 25.6779C52.7927 31.3305 59.3863 34.025 64.0503 30.9439L64.0513 30.9433C65.3956 30.0596 66.3492 28.8301 67.1064 27.3741L67.1068 27.3733C69.4149 22.9527 69.797 18.3767 68.3765 13.6058C68.2482 13.1757 68.1456 12.7332 68.0469 12.3073C68.0103 12.1497 67.9743 11.9944 67.9378 11.8429L67.6248 10.5462L68.713 11.3177C71.3729 13.2034 73.9918 14.5657 77.1039 14.8943L77.105 14.8944C80.0155 15.2081 82.5201 14.2664 85.3401 12.8291C82.9676 11.5309 80.6975 10.2926 78.4643 9.07445C77.3517 8.46759 76.2484 7.86573 75.1461 7.26395H73.167C73.8036 7.43538 74.4882 7.67667 75.2281 7.98629C77.2675 8.83965 79.7858 10.238 82.9613 12.2258L83.6886 12.681L82.934 13.0893C78.2599 15.6185 72.7353 14.0304 68.1245 8.9688L68.7057 8.17909C69.0449 8.33756 69.3809 8.49713 69.7149 8.6557C71.481 9.49442 73.1885 10.3053 74.9995 10.7779C74.5199 10.5023 74.0373 10.2251 73.5499 9.94521C72.4212 9.29701 71.2665 8.63387 70.0625 7.94048L68.8878 7.26395H61.9903C65.137 9.13819 67.9235 12.7928 68.2395 17.2741C68.4989 20.8238 67.6038 24.0267 65.2005 26.703L58.6426 16.1688ZM55.9009 16.7088L55.203 18.322C53.9894 21.1272 53.4378 23.5817 54.8714 25.9713L55.9009 16.7088ZM55.9009 16.7088L54.4584 17.7131M55.9009 16.7088L54.4584 17.7131M54.4584 17.7131C51.2212 19.967 51.1393 24.4906 53.4822 27.5657M54.4584 17.7131L53.4822 27.5657M63.2715 29.1557L61.749 30.2148C60.8654 30.8295 60.0023 31.0888 59.1741 31.0815C58.3522 31.0742 57.6056 30.805 56.9475 30.4297L63.2715 29.1557ZM63.2715 29.1557L61.4229 29.306M63.2715 29.1557L61.4229 29.306M61.4229 29.306C59.8342 29.4352 58.5524 29.1751 57.4999 28.6115M61.4229 29.306L57.4999 28.6115M53.4822 27.5657C54.3831 28.7559 55.6826 29.7099 56.9474 30.4297C56.9473 30.4296 56.9472 30.4296 56.9471 30.4295L53.4822 27.5657ZM57.4999 28.6115C56.4457 28.0471 55.5847 27.1585 54.8716 25.9715L57.4999 28.6115Z" fill="#86DAFF" stroke="#86DAFF"/>
<path d="M13.5714 84.5976C15.2181 81.5494 15.8599 78.7064 15.5434 75.9965C15.2002 73.0573 13.7218 70.2074 11.0413 67.3692L11.586 66.5599C11.9021 66.6828 12.1739 66.7897 12.4151 66.8846C13.0113 67.119 13.4201 67.2798 13.8475 67.4269L13.8512 67.4282C19.1089 69.285 24.1385 68.6934 28.9193 65.8916L13.5714 84.5976ZM13.5714 84.5976C12.5434 82.7174 11.5352 80.8772 10.5108 79.0073C9.64828 77.433 8.77425 75.8377 7.86719 74.1798V72.0859C8.30992 73.5524 8.93267 74.8976 9.60892 76.1826C10.0013 76.9283 10.4052 77.6433 10.8033 78.3481C11.5069 79.5936 12.1925 80.8075 12.7655 82.1029L13.1179 82.8998L13.6281 82.1935C15.1147 80.135 15.3257 77.3406 14.5682 74.6216C13.8088 71.896 12.0627 69.1827 9.53136 67.2231L8.77557 67.837C8.98365 68.2652 9.1885 68.6721 9.3868 69.0661C9.86365 70.0134 10.3026 70.8855 10.6576 71.7971L13.5714 84.5976ZM7.86719 68.6769L8.16418 68.9943C9.15776 70.0563 9.8399 71.2013 10.4607 72.3454C10.6006 72.6032 10.7368 72.8597 10.8724 73.1151C11.0986 73.541 11.3231 73.9638 11.5605 74.3847C11.4613 73.7074 11.207 73.1094 10.9406 72.4829C10.8457 72.2596 10.7492 72.0327 10.6576 71.7973L7.86719 68.6769ZM7.86719 68.6769V60.884C9.75049 64.4706 13.3975 67.0235 17.898 67.4334L17.8996 67.4336C20.8664 67.6938 23.5532 67.0774 26.0951 65.5463C28.2595 64.2517 29.209 62.2804 29.3896 59.9335C29.3896 59.9334 29.3896 59.9333 29.3896 59.9332L7.86719 68.6769ZM16.6218 54.6935L16.6218 54.6935C16.2376 55.8974 16.1521 57.0353 16.851 58.0083C17.7146 56.4569 18.8984 55.3163 20.3133 54.6615C21.7567 53.9935 23.408 53.8463 25.146 54.245L16.6218 54.6935ZM16.6218 54.6935L16.6236 54.6877M16.6218 54.6935L16.6236 54.6877M16.6236 54.6877C16.8558 53.9287 17.3915 53.13 18.0061 52.6307M16.6236 54.6877L18.0061 52.6307M18.0061 52.6307C20.7666 50.419 24.0126 49.8709 26.7976 50.7306C29.5793 51.5892 31.9476 53.8665 32.9289 57.4069C33.7701 60.4687 32.071 64.0426 28.9195 65.8914L18.0061 52.6307ZM30.0792 60.9317L31.0472 61.1334C31.6917 59.397 31.7106 57.7152 31.1678 56.2167C30.6261 54.7212 29.5387 53.446 28.0342 52.4923C26.428 51.4707 24.7399 51.001 23.1183 51.1484C21.4917 51.2963 19.9762 52.0616 18.72 53.43L19.2474 54.2421C22.0865 53.2891 24.4859 52.7863 26.7966 54.1672C27.9885 54.8795 28.844 55.7594 29.3849 56.848C29.9274 57.9399 30.1711 59.2777 30.0792 60.9317Z" fill="#86DAFF" stroke="#86DAFF"/>
<path d="M44.2283 43.467C44.0016 43.3942 43.8217 43.3311 43.6403 43.2491L43.6402 43.2491C40.5931 41.8713 37.5093 40.5615 34.2243 39.6766C34.2245 39.6767 34.2246 39.6767 34.2248 39.6767L44.2283 43.467ZM44.2283 43.467C44.1383 43.2582 44.0498 43.0531 43.9627 42.8511C43.3969 41.5394 42.8885 40.3608 42.3908 39.178L42.3907 39.1777C39.9953 33.4735 38.7865 27.5587 39.5835 21.2945C39.9023 18.7352 40.6562 16.336 42.1157 14.1777C43.6701 11.8718 45.633 9.95207 47.8845 8.34535C48.4609 7.933 49.0512 7.57317 49.6537 7.26367H47.691C47.5206 7.41376 47.3533 7.56041 47.189 7.70443C46.2365 8.53961 45.3848 9.2863 44.6107 10.1007C43.5225 11.2487 42.4864 12.4341 41.6803 13.7353C40.8404 15.1028 40.1712 16.6253 39.6161 18.1716C39.0634 19.7114 38.64 21.3173 38.3943 22.9195L38.3943 22.9198C38.16 24.4425 38.139 26.0243 38.169 27.6137C38.1956 28.7109 38.3017 29.7963 38.418 30.9859C38.4754 31.5726 38.5352 32.1848 38.5892 32.8362L37.6485 33.1103C37.5457 32.9151 37.4527 32.7497 37.3642 32.5923C37.3256 32.5236 37.2878 32.4564 37.2505 32.3889C37.1314 32.1738 37.0195 31.9607 36.9312 31.7312L36.9303 31.7287C35.3695 27.6045 35.4497 23.3832 36.3261 19.2253L36.3263 19.2246C36.8085 16.9532 37.4334 14.706 38.0534 12.4768C38.3193 11.5206 38.5843 10.5678 38.8367 9.61774C33.6824 13.6366 32.0899 19.2834 31.7907 25.7995L30.8287 25.9663C30.6936 25.637 30.5523 25.3037 30.4098 24.9672C30.0546 24.1288 29.691 23.2707 29.3928 22.4054M44.2283 43.467L29.865 22.2411M29.3928 22.4054C29.3926 22.4049 29.3925 22.4045 29.3923 22.404L29.865 22.2411M29.3928 22.4054C29.393 22.4059 29.3931 22.4064 29.3933 22.4069L29.865 22.2411M29.3928 22.4054C29.1702 21.7728 28.8557 21.401 28.2816 21.1538M29.865 22.2411C29.6039 21.4979 29.2021 21.0057 28.479 20.6944M28.2816 21.1538C28.2817 21.1538 28.2819 21.1539 28.282 21.1539L28.479 20.6944M28.2816 21.1538C26.0597 20.2015 23.8389 19.238 21.6188 18.2747C20.0922 17.6123 18.5659 16.9501 17.0397 16.2917M28.2816 21.1538C28.2815 21.1537 28.2814 21.1537 28.2813 21.1536L28.479 20.6944M28.479 20.6944L17.0397 16.2917M16.9676 16.0784C16.9319 15.9721 16.8933 15.8572 16.849 15.7302C16.7965 15.7285 16.7389 15.7287 16.6748 15.729C16.5732 15.7294 16.4554 15.7299 16.3159 15.7227C16.38 15.9006 16.4352 16.0646 16.487 16.2184C16.4881 16.2217 16.4892 16.2251 16.4903 16.2284C16.566 16.2295 16.6345 16.2292 16.6915 16.229C16.7279 16.2288 16.7596 16.2287 16.7855 16.229C16.8754 16.2299 16.9059 16.2353 16.9113 16.2363M16.9676 16.0784L16.9014 16.2321C16.9047 16.2335 16.908 16.2349 16.9113 16.2363M16.9676 16.0784C16.9685 16.081 16.9694 16.0837 16.9703 16.0863M16.9676 16.0784L17.0994 15.7729L16.9703 16.0863M16.9113 16.2363C16.9541 16.2548 16.9969 16.2733 17.0397 16.2917M16.9113 16.2363C16.9119 16.2365 16.9122 16.2365 16.9122 16.2365C16.9122 16.2365 16.911 16.2361 16.909 16.2353L16.9703 16.0863M26.7715 30.8185C26.4688 30.6444 26.169 30.4774 25.8701 30.3202C26.1707 30.316 26.4728 30.3155 26.7765 30.3185L26.7715 30.8185ZM26.7715 30.8185C26.4286 30.8151 26.0879 30.8162 25.7495 30.8222C26.004 30.958 26.2611 31.1017 26.5222 31.2519L26.7715 30.8185ZM17.0397 16.2917C17.0177 16.2274 16.9952 16.1605 16.9714 16.0897C16.9711 16.0886 16.9707 16.0875 16.9703 16.0863M9.59883 38.2172C9.45555 38.4081 9.31419 38.6035 9.17479 38.8033C9.32932 38.773 9.48477 38.7454 9.6403 38.7179C9.72084 38.7036 9.80142 38.6893 9.88189 38.6746C10.0338 38.468 10.188 38.2666 10.3444 38.0703C10.1015 38.1278 9.85715 38.1715 9.59883 38.2172ZM10.5755 38.0108C10.5751 38.0109 10.5747 38.011 10.5743 38.0111L10.7115 38.4919L10.5767 38.0104C10.5763 38.0106 10.5759 38.0107 10.5755 38.0108ZM7.87695 49.2459V47.1875L20.6301 39.0557C18.9818 39.375 17.2521 39.9549 15.8096 40.8603C12.4097 42.9883 9.51979 45.6471 7.87695 49.2459ZM20.2338 18.5139L19.2166 18.0386L19.5438 19.1126C20.4088 21.9518 21.5573 24.4605 22.7226 26.9317C22.8974 27.3106 23.2663 27.605 23.5965 27.7505C25.4988 28.5968 27.4015 29.424 29.5193 30.3446C30.0426 30.5721 30.5791 30.8053 31.1319 31.0459L32.2941 31.5518L31.7902 30.3887C31.5494 29.8327 31.3168 29.2949 31.0906 28.7718C30.1859 26.6796 29.3826 24.8218 28.5537 22.9708L28.5537 22.9708L28.5504 22.9637C28.3727 22.5829 28.0189 22.163 27.6016 21.9616L27.6011 21.9614C25.9238 21.1538 24.2301 20.3688 22.5422 19.5866C21.7708 19.2291 21.0006 18.8721 20.2338 18.5139ZM18.3754 35.2289C20.1778 34.9495 22.0058 34.6661 23.8376 34.4072C26.3847 34.0545 28.8624 34.5557 31.6567 35.121C32.0096 35.1924 32.3674 35.2647 32.7311 35.3366L33.1105 34.4335C30.8687 32.8983 27.4606 32.2483 24.1112 32.3324C20.7579 32.4167 17.3433 33.2396 15.072 34.7731L15.4263 35.6819C16.3991 35.5353 17.3834 35.3827 18.3754 35.2289ZM36.8323 13.718L35.9114 13.3615C34.1993 16.2958 33.2512 19.8203 33.0819 23.1814C32.913 26.5357 33.5176 29.7828 34.974 32.1362L35.8954 31.8114C35.8063 31.0954 35.7044 30.411 35.6055 29.7464C35.3959 28.3374 35.1994 27.0172 35.1658 25.6736C35.1165 23.7018 35.2939 21.6822 35.5729 19.6994C35.7527 18.428 36.0415 17.1838 36.3571 15.8241C36.5122 15.1556 36.6739 14.4593 36.8323 13.718Z" fill="#86DAFF" stroke="#86DAFF"/>
<path d="M83.418 30.2257C83.9262 28.5164 84.3154 26.7476 84.1242 24.849C84.0262 24.8718 83.9496 24.8871 83.8934 24.8978C83.873 24.9193 83.8528 24.9407 83.8326 24.9619C83.7706 25.0272 83.7094 25.0917 83.649 25.1557M83.418 30.2257L45.3766 25.6621M83.418 30.2257C82.8053 32.3048 82.1625 34.424 81.1381 36.3223L83.418 30.2257ZM83.649 25.1557C83.6333 24.9399 83.6099 24.7225 83.5782 24.5036C83.5426 24.5411 83.5071 24.5785 83.4716 24.6159C83.1697 24.9339 82.8709 25.2485 82.5944 25.5855C79.0188 29.8541 74.8607 33.4197 69.9894 36.1315C66.0723 38.311 61.8841 39.235 57.4347 38.8634M83.649 25.1557C83.7728 26.8608 83.4172 28.474 82.9387 30.0832L82.9384 30.0844C82.3241 32.169 81.6941 34.2392 80.6981 36.0848L80.6973 36.0863C76.9742 43.0399 71.2251 47.1142 63.3095 47.6046L63.3094 47.6046C58.943 47.8763 55.059 46.3002 51.8451 43.2133C47.12 38.6644 45.1811 33.0113 45.2894 26.5187C45.2951 26.2392 45.3284 25.9557 45.3766 25.6621M83.649 25.1557C83.4142 25.4045 83.191 25.6467 82.9809 25.9027L82.9777 25.9066C79.3669 30.2172 75.1625 33.8239 70.2326 36.5683L70.2325 36.5684C66.2306 38.7951 61.9436 39.7416 57.3936 39.3617M57.4347 38.8634C55.205 38.6826 53.2263 37.8791 51.6494 36.2018C48.8573 33.2288 47.0393 29.7336 45.9446 25.8366C45.8457 25.4872 45.7511 25.1377 45.6324 24.6945C45.62 24.7229 45.6083 24.7496 45.5974 24.7747C45.525 24.9421 45.4952 25.0258 45.4814 25.0974L45.4807 25.101L45.4807 25.101C45.4423 25.293 45.4066 25.4795 45.3766 25.6621M57.4347 38.8634L57.3943 39.3617C57.394 39.3617 57.3938 39.3617 57.3936 39.3617M57.4347 38.8634L57.3931 39.3616C57.3932 39.3617 57.3934 39.3617 57.3936 39.3617M45.3766 25.6621C45.4056 25.767 45.4343 25.8697 45.4633 25.9723M57.3936 39.3617C55.0618 39.1725 52.9603 38.3261 51.2852 36.5443L51.285 36.5441C48.4303 33.5045 46.5767 29.9351 45.4633 25.9723M45.4633 25.9723C45.4634 25.9724 45.4634 25.9726 45.4635 25.9728L45.9445 25.8366L45.4632 25.9718C45.4632 25.972 45.4633 25.9721 45.4633 25.9723ZM53.4127 42.4272L52.9481 43.279C52.9947 43.3219 53.0444 43.3691 53.097 43.4189C53.2921 43.604 53.5256 43.8256 53.7792 43.9977L53.7793 43.9978C58.5929 47.2619 63.8511 47.879 69.1547 45.7038L69.1548 45.7037C76.5484 42.6702 80.8233 36.9082 82.5106 29.1163L82.717 28.163L81.8226 28.5519C81.758 28.58 81.7098 28.5963 81.6517 28.6161C81.6234 28.6257 81.5927 28.6361 81.5565 28.6491L81.5498 28.6515C81.4765 28.6778 81.2928 28.7434 81.162 28.9058C78.1995 32.4694 74.5398 35.2023 70.4672 37.3777C65.1882 40.1851 59.7022 41.2747 53.9162 39.236C53.7617 39.1805 53.6076 39.1426 53.4721 39.1116C53.4323 39.1026 53.3948 39.0942 53.359 39.0862C53.2643 39.0651 53.181 39.0465 53.0952 39.0234L52.6276 39.875C55.9284 42.8968 59.7472 43.7527 63.7147 43.7542C63.2943 43.8256 62.8668 43.8865 62.4321 43.9483C62.1703 43.9856 61.906 44.0232 61.6392 44.0637C60.2449 44.2701 58.9177 44.0596 57.567 43.6927C56.9231 43.5179 56.2826 43.3102 55.6262 43.0972C55.5923 43.0862 55.5584 43.0752 55.5244 43.0642C54.8367 42.8412 54.1318 42.6147 53.4127 42.4272Z" fill="#86DAFF" stroke="#86DAFF"/>
<path d="M37.1672 68.6318C39.0354 65.1667 39.7183 61.4405 39.648 57.5234M37.1672 68.6318C34.8772 72.8803 32.0348 76.6969 28.4291 79.931C27.8862 80.4163 27.3456 80.9038 26.7623 81.4299C26.2676 81.876 25.7422 82.3498 25.1586 82.8735M37.1672 68.6318L37.6073 68.8691C37.6073 68.8691 37.6073 68.869 37.6073 68.869L37.1672 68.6318ZM39.648 57.5234L25.1586 82.8735M39.648 57.5234C39.5777 53.767 37.7698 51.0753 34.7768 49.0465L39.648 57.5234ZM25.1586 82.8735C24.9916 83.0234 24.8198 83.1773 24.6426 83.3359C24.9042 83.3526 25.1303 83.3723 25.3305 83.3909C25.5052 83.2343 25.6741 83.0827 25.8381 82.9353C25.8291 82.9346 25.82 82.9338 25.8108 82.9331C25.7257 82.9259 25.6315 82.917 25.5282 82.9073C25.4158 82.8967 25.2926 82.885 25.1586 82.8735ZM25.7317 44.8816C26.0206 44.8141 26.3403 44.7543 26.6801 44.7037C26.39 44.635 26.0969 44.5729 25.8006 44.5177M25.7317 44.8816L25.8016 44.5179C25.8013 44.5178 25.8009 44.5177 25.8006 44.5177M25.7317 44.8816C25.7314 44.8817 25.7311 44.8818 25.7309 44.8818M25.7317 44.8816L25.7072 45.0089L25.7309 44.8818M25.8006 44.5177C25.8 44.5175 25.7994 44.5174 25.7987 44.5173L25.7309 44.8818M25.8006 44.5177C25.7571 44.5091 25.697 44.4851 25.5816 44.4172C25.5763 44.4141 25.5708 44.4108 25.565 44.4073L25.4991 44.9394C25.5739 44.9197 25.6512 44.9005 25.7309 44.8818M30.7551 81.6C37.2868 79.8929 42.4568 76.3094 45.6358 70.1984L45.636 70.198C47.4554 66.6929 48.2532 62.8947 47.3264 58.9167C46.744 56.4132 45.797 53.9635 43.6437 52.0753L42.8759 52.6922C44.74 56.0821 45.1908 59.4935 44.4723 62.9478C44.4713 58.7621 43.5554 54.748 40.3672 51.2888L39.063 49.8738L39.5134 51.7447C39.6447 52.2901 39.8284 52.8181 40.0026 53.3187C40.0107 53.3421 40.0188 53.3655 40.027 53.3888C40.2112 53.9188 40.3824 54.4201 40.4958 54.9301L40.4962 54.932C41.6212 59.9018 40.7556 64.6527 38.4409 69.1346C36.3141 73.2292 33.6284 76.9317 30.1297 79.9757L30.1297 79.9756L30.1235 79.9812C29.992 80.0995 29.8836 80.2284 29.7854 80.3499C29.7584 80.3832 29.7323 80.416 29.7061 80.4487C29.6322 80.5412 29.5584 80.6336 29.4674 80.7385L28.8209 81.4846L29.8049 81.5643C29.9194 81.5736 30.0052 81.5855 30.0945 81.5978C30.1421 81.6044 30.1907 81.6111 30.2452 81.6177C30.3783 81.6336 30.5621 81.6506 30.7551 81.6ZM30.7551 81.6L30.6287 81.1162M30.7551 81.6C30.7554 81.5999 30.7557 81.5998 30.7559 81.5997L30.6287 81.1162M30.6287 81.1162C30.5696 81.1317 30.5077 81.1357 30.4393 81.133L46.8394 59.03C47.7333 62.8667 46.97 66.5427 45.1922 69.9676C42.0887 75.9336 37.0467 79.4389 30.6287 81.1162ZM31.202 44.6953C31.2319 44.7014 31.2618 44.7075 31.2917 44.7136C32.8968 45.0405 34.4812 45.3631 35.956 45.9185C42.1881 48.2753 46.6055 52.3009 48.0277 58.9735L48.0278 58.974C48.9327 63.197 48.1207 67.2121 46.0109 70.9999L31.202 44.6953ZM31.3016 44.2054L31.2018 44.6953L31.3016 44.2054Z" fill="#86DAFF" stroke="#86DAFF"/>
<path d="M48.8403 46.1733L48.8431 46.1734C49.8324 46.2209 50.523 46.9897 50.4769 47.9191L50.4769 47.9201C50.4291 48.9231 49.5312 49.7719 48.5598 49.764C47.6921 49.7564 46.9029 48.9408 46.9263 47.9869C46.9369 47.5924 47.177 47.1202 47.5799 46.739C47.9837 46.357 48.4591 46.1529 48.8403 46.1733Z" fill="#86DAFF" stroke="#86DAFF"/>
<path d="M53.4177 51.5872L53.4179 51.5872C54.1005 51.5575 54.6314 52.0526 54.6647 52.602C54.6982 53.2572 54.1259 53.8619 53.4263 53.8619C52.7774 53.8619 52.2962 53.3805 52.2891 52.7394C52.2822 52.1062 52.7422 51.6162 53.4177 51.5872Z" fill="#86DAFF" stroke="#86DAFF"/>
<path d="M58.6127 57.0644L58.6127 57.0644V57.072C58.6127 57.437 58.2716 57.8085 57.8356 57.8279C57.3723 57.8473 57.0439 57.5311 57.0206 57.1543C56.9977 56.7087 57.3677 56.3123 57.8665 56.3164C58.2804 56.3311 58.6184 56.6918 58.6127 57.0644Z" fill="#86DAFF" stroke="#86DAFF"/>
<path d="M23.7298 22.9804C24.073 23.0976 24.37 23.2097 24.628 23.322C25.1364 23.5432 25.4639 23.7525 25.6861 23.9752C26.036 24.3259 26.1961 24.7789 26.2628 25.6393C25.8551 25.5842 25.508 25.488 25.2173 25.3305C24.8218 25.1163 24.4923 24.768 24.2693 24.1503L24.2693 24.1503L24.2669 24.1438C24.1217 23.7586 23.933 23.3742 23.7298 22.9804Z" fill="#86DAFF" stroke="#86DAFF"/>
<path d="M7.37695 95.0004V6.75586H94.9991" stroke="#86DAFF" stroke-miterlimit="10"/>
<path d="M1 94.9996V1H95" stroke="#86DAFF" stroke-miterlimit="10"/>
<mask id="path-12-inside-1_2996_20422" fill="white">
<path d="M419.694 3.59928C415.818 3.95643 412.44 5.32552 409.909 8.40101C408.125 10.5538 407.298 13.0341 407.548 15.8219C407.687 17.439 408.404 18.7584 409.72 19.7605C411.852 21.3776 414.243 21.8637 416.854 21.4371C418.089 21.2387 419.036 20.5938 419.594 19.4529C420.032 18.5501 420.471 17.6572 420.959 16.6453C422.095 17.0024 422.822 17.7664 423.37 18.6692C423.878 19.5124 424.008 20.4748 423.659 21.4371C422.623 24.2745 420.61 26.0801 417.651 26.6059C414.672 27.1317 412.061 26.219 409.869 24.0959C408.743 23.0046 407.797 21.8042 407.059 20.4252C404.728 16.05 405.286 11.8832 408.135 7.97441C409.401 6.22832 411.065 4.87908 413.018 3.89691C413.257 3.77786 413.486 3.64889 413.755 3.50007C409.849 2.80561 402.864 4.96837 399.706 11.0995C399.816 11.2979 399.965 11.5162 400.065 11.7444C400.473 12.6968 400.294 13.3912 399.467 13.9567C399.118 14.1948 398.719 14.3536 398.321 14.5718C397.882 17.0024 398.191 19.2446 399.736 21.2486C400.782 22.5978 401.778 23.9769 402.765 25.3757C403.094 25.8519 403.343 26.3976 403.562 26.9333C403.761 27.4492 403.711 27.975 403.403 28.471C403.014 29.1159 402.466 29.4135 401.788 29.1159C401.111 28.8282 400.443 28.4313 399.915 27.9353C397.843 26.0106 396.757 23.5503 396.219 20.822C396.169 20.5641 396.129 20.2962 396.069 20.0382C396.059 19.9986 395.999 19.9787 395.959 19.949C395.89 20.0085 395.76 20.068 395.76 20.1275C395.591 23.4907 396.139 26.715 397.683 29.7211C398.719 31.735 400.134 33.4811 401.858 34.9395C404.289 36.9931 407.009 38.5705 410.128 39.3741C411.374 39.6916 412.609 40.0587 413.865 40.2571C416.296 40.644 418.528 39.9198 420.65 38.8186C422.703 37.7669 424.676 36.5764 426.369 35.0089C427.695 33.7787 429.02 32.5287 430.275 31.2191C431.69 29.7508 432.816 28.0643 433.773 26.2587C434.012 25.8023 434.151 25.2567 434.799 24.9987C434.928 25.207 435.178 25.4154 435.178 25.6237C435.188 26.3083 435.217 27.0325 435.048 27.6873C433.155 34.8799 428.761 39.771 421.597 42.0726C416.047 43.8584 410.816 42.9258 405.824 40.1976C403.323 38.8285 401.131 37.0625 399.178 34.9692C397.085 32.7172 395.81 30.0584 394.943 27.1714C393.618 22.7367 393.777 18.3418 395.491 14.0262C395.591 13.7781 395.67 13.5202 395.78 13.2127C395.611 12.8158 395.372 12.3991 395.242 11.9428C394.933 10.8118 395.461 10.0479 396.617 9.90899C396.986 9.8693 397.364 9.89907 397.773 9.89907C399.487 7.46844 401.639 5.51402 404.21 3.65881C400.483 3.85723 397.673 5.18663 395.611 8.04385C394.445 9.66096 393.488 11.3674 392.781 13.2226C392.592 13.7087 392.462 14.2345 392.034 14.6016C391.396 14.2643 391.336 13.6393 391.147 13.1333C390.35 11.0102 389.224 9.09547 387.789 7.34939C386.195 5.40489 384.152 4.25406 381.661 3.87707C381.093 3.78778 380.535 3.70841 379.599 3.56952C382.259 5.45449 384.411 7.34939 386.095 9.80978C386.563 9.83954 387.042 9.83954 387.5 9.91891C388.546 10.0876 389.035 10.8912 388.746 11.9031C388.686 12.1114 388.616 12.3198 388.506 12.4983C388.178 13.0043 388.297 13.4805 388.467 14.0162C388.895 15.3853 389.383 16.7544 389.612 18.1632C390.539 23.9272 389.244 29.2746 385.687 33.8382C381.781 38.8682 376.53 41.9932 370.133 42.8464C366.157 43.3722 362.341 42.529 358.824 40.6043C353.503 37.6975 350.225 33.2231 348.86 27.35C348.74 26.8341 348.71 26.2884 348.74 25.7725C348.75 25.5047 348.989 25.2467 349.219 24.8102C349.567 25.2765 349.856 25.5741 350.036 25.9313C352.297 30.3659 355.785 33.7192 359.711 36.6558C361.514 38.005 363.517 39.017 365.639 39.8106C367.243 40.4059 368.897 40.4952 370.541 40.1976C374.208 39.5428 377.656 38.2927 380.695 36.0605C386.245 31.993 388.616 26.5166 387.978 19.7009C387.869 20.2664 387.769 20.8319 387.64 21.3875C387.062 23.8776 386.005 26.1198 384.112 27.8956C383.614 28.3619 383.016 28.7587 382.389 29.0266C381.352 29.473 380.446 28.848 380.356 27.727C380.296 27.0027 380.545 26.348 380.924 25.7626C381.472 24.9094 382.08 24.0959 382.687 23.2824C383.285 22.4689 383.943 21.6851 384.511 20.8518C385.567 19.3041 385.986 17.5679 385.876 15.6929C385.836 14.9587 385.687 14.3139 384.83 14.1155C384.63 14.0659 384.451 13.917 384.292 13.7781C383.634 13.2027 383.524 12.6472 383.883 11.784C383.983 11.5459 384.122 11.3178 384.262 11.04C381.183 5.64299 376.43 3.33142 370.302 3.49015C370.701 3.71833 371.119 3.92667 371.508 4.16477C374.886 6.22832 377.307 8.98634 378.114 12.9746C378.592 15.3754 378.263 17.6473 377.217 19.82C376.38 21.5661 375.215 23.0939 373.77 24.3935C370.781 27.0821 366.536 27.2904 363.925 25.7229C362.57 24.9094 361.474 23.838 360.717 22.449C359.691 20.5641 359.91 18.1136 362.7 16.7247C362.779 16.685 362.899 16.7147 363.078 16.7147C363.457 17.5084 363.846 18.312 364.224 19.1255C364.912 20.6434 366.117 21.328 367.761 21.4768C369.794 21.6554 371.677 21.328 373.461 20.2664C375.862 18.8279 376.799 16.6751 376.46 14.0361C375.882 9.59152 373.351 6.55572 369.226 4.81955C367.692 4.17469 366.127 3.64889 364.443 3.5596C364.354 3.53976 364.264 3.50999 364.184 3.49015C364.274 3.50999 364.374 3.52983 364.463 3.53976C364.752 3.75802 365.031 3.99612 365.34 4.18462C369.535 6.77398 372.016 10.534 372.983 15.3159C373.062 15.7127 373.032 16.1393 373.062 16.7346C372.674 16.5659 372.435 16.5064 372.245 16.3774C371.329 15.7425 370.452 15.0282 369.495 14.4528C368.22 13.6889 367.253 12.6769 366.566 11.3674C365.799 9.89907 364.952 8.48037 363.806 7.27002C362.461 5.84141 360.936 4.68066 358.933 4.4128C358.096 4.30367 357.21 4.2739 356.393 4.43264C353.991 4.90884 351.919 6.08943 349.996 7.58749C347.883 9.22444 345.771 10.8515 343.549 12.3297C341.646 13.5996 339.623 14.7107 337.611 15.8119C335.249 17.1017 332.698 17.8656 330.058 18.3616C328.105 18.7287 326.162 19.0263 324.169 18.9172C317.404 18.5303 311.146 16.6651 305.586 12.7166C304.809 12.161 304.102 11.4963 303.414 10.8217C303.036 10.4546 302.727 9.99827 302.448 9.55183C302.029 8.89705 302.029 8.42085 302.408 8.1133C302.906 7.70654 303.424 7.85536 303.893 8.15298C304.381 8.47045 304.859 8.81768 305.297 9.2046C308.516 12.0122 312.163 14.0659 316.228 15.4052C316.318 15.425 316.407 15.4449 316.497 15.4647C316.407 15.4548 316.308 15.4349 316.218 15.425C315.829 15.0877 315.451 14.7306 315.032 14.4032C314.106 13.6789 313.129 13.0142 312.242 12.2602C311.844 11.9229 311.565 11.4467 311.286 11.0003C311.047 10.6035 311.077 10.157 311.405 9.80978C311.774 9.42286 312.212 9.56175 312.571 9.80978C313.219 10.2761 313.866 10.7523 314.454 11.2979C315.76 12.4983 317.184 13.5202 318.729 14.3932C320.333 15.296 322.037 15.8119 323.87 16.06C325.843 16.3179 327.816 16.3278 329.799 16.2881C330.686 16.2683 331.562 16.06 332.718 15.9012C332.081 15.3357 331.523 15.3457 331.064 15.1869C328.802 14.423 327.168 12.9249 326.212 10.8019C325.066 8.26211 325.076 5.73228 326.849 3.40086C326.949 3.27189 327.019 3.133 327.099 2.9941C327.119 2.95442 327.089 2.8949 327.069 2.756C326.571 2.73616 326.052 2.69648 325.534 2.69648C316.597 2.64687 307.649 2.60719 298.711 2.56751C296.3 2.55758 293.889 2.52782 291.487 2.58735C290.431 2.61711 289.335 2.73616 288.329 3.02387C285.609 3.78778 283.805 6.27793 283.865 8.98634C283.915 11.0003 285.29 12.6968 287.293 13.0638C288.937 13.3615 290.501 13.1134 291.896 12.1412C293.331 11.1392 293.321 10.157 292.573 9.16492C292.474 9.03594 292.384 8.90697 292.304 8.76808C292.135 8.47045 292.035 8.10338 292.344 7.91488C292.573 7.77599 292.982 7.7363 293.221 7.83551C294.815 8.54982 296.001 10.7721 295.682 12.4785C295.423 13.8377 294.756 14.9786 293.56 15.7425C290.87 17.4588 288.15 17.4786 285.479 15.5639C285.051 15.2564 284.662 14.8794 284.274 14.5024C281.902 12.1809 281.494 9.38318 282.55 6.39698C283.596 3.43063 285.838 1.70439 288.967 1.27779C290.601 1.0496 292.275 1.00992 293.929 1.01984C308.596 1.10913 323.262 1.2381 337.929 1.34723C348.69 1.4266 359.442 1.54565 370.203 1.57541C384.172 1.6151 398.152 1.58533 412.121 1.57541C418.916 1.57541 425.722 1.58533 432.517 1.53573C441.674 1.46628 450.821 1.33731 459.978 1.26786C466.833 1.20834 473.688 1.20834 480.533 1.15873C484.011 1.12897 487.488 1.00992 490.966 1C492.411 1 493.875 1.03968 495.28 1.29763C500.352 2.21035 502.544 6.65492 501.886 10.7126C501.398 13.7484 498.01 16.7544 494.951 16.9925C493.108 17.1314 491.434 16.5858 490.029 15.4151C487.797 13.5599 487.478 9.93875 490.577 7.94464C490.707 7.85536 490.866 7.7363 491.006 7.74623C491.255 7.76607 491.534 7.81567 491.713 7.96449C491.833 8.06369 491.862 8.37124 491.803 8.5399C491.693 8.82761 491.474 9.07563 491.324 9.36334C490.806 10.3356 490.916 11.0896 491.723 11.8039C493.467 13.3515 496.446 13.6492 498.299 12.3892C499.276 11.7245 499.883 10.8416 500.053 9.65104C500.422 7.16089 499.076 4.57153 496.755 3.43063C495.788 2.95442 494.762 2.64687 493.676 2.63695C490.836 2.60719 488.006 2.55758 485.167 2.56751C476.388 2.59727 467.6 2.64687 458.822 2.69648C458.234 2.69648 457.646 2.69648 456.899 2.69648C457.038 3.05363 457.078 3.31157 457.218 3.48023C459.171 5.80173 458.822 9.55183 457.238 11.8634C456.082 13.55 454.567 14.7504 452.575 15.3159C452.216 15.4151 451.867 15.5143 451.329 15.6532C451.897 16.1195 452.505 16.1691 453.013 16.1988C456.221 16.427 459.44 16.4568 462.568 15.5639C465.189 14.8099 467.351 13.2325 469.384 11.4666C469.902 11.0102 470.42 10.5439 470.968 10.1173C471.257 9.89907 471.606 9.73041 471.954 9.62128C472.333 9.49231 472.712 9.77009 472.791 10.157C472.891 10.663 472.791 11.1293 472.463 11.5063C472.074 11.9428 471.676 12.3892 471.217 12.7464C470.041 13.6591 468.826 14.5222 467.62 15.4151C467.54 15.4647 467.471 15.5242 467.391 15.5738C467.461 15.5143 467.531 15.4548 467.6 15.3853C468.706 14.9885 469.842 14.6809 470.898 14.1849C473.858 12.7861 476.687 11.1888 479.059 8.88713C479.427 8.52006 479.926 8.28196 480.394 8.02401C480.793 7.80575 481.251 7.79583 481.59 8.12322C481.948 8.46053 481.918 8.93674 481.679 9.30381C481.241 9.96851 480.773 10.6332 480.215 11.1888C478.531 12.8555 476.538 14.1055 474.426 15.1572C471.008 16.8735 467.391 18.0045 463.625 18.56C461.462 18.8775 459.25 19.1454 457.068 18.8775C453.72 18.4608 450.422 17.7961 447.354 16.308C442.67 14.0361 438.376 11.1491 434.351 7.8752C432.976 6.76405 431.491 5.86125 429.867 5.1271C426.22 3.47031 422.892 4.39295 420.281 7.18073C419.215 8.32164 418.348 9.60144 417.661 10.9904C416.874 12.5678 415.748 13.7682 414.203 14.6512C413.157 15.2464 412.221 16.0302 411.145 16.7941C410.836 16.0004 410.965 15.2762 411.145 14.5817C412.39 9.95859 414.881 6.25809 419.195 3.92667C419.385 3.82746 419.544 3.67865 419.714 3.54968C419.793 3.50007 419.863 3.44055 419.943 3.39094C419.833 3.47031 419.763 3.52983 419.694 3.59928ZM359.621 38.7789C359.551 38.7193 359.491 38.6499 359.422 38.5904C359.402 38.5804 359.352 38.6102 359.312 38.6201C359.422 38.6697 359.531 38.7094 359.641 38.759C359.721 38.7987 359.79 38.8483 359.87 38.888C359.79 38.8483 359.711 38.8186 359.621 38.7789ZM423.868 39.1063C423.799 39.1459 423.729 39.1757 423.629 39.2253C423.719 39.1658 423.779 39.1261 423.849 39.0765C423.918 39.017 423.988 38.9574 424.068 38.8979C423.998 38.9773 423.938 39.0368 423.868 39.1063ZM425.801 37.8066C426.001 37.7372 426.22 37.6975 426.379 37.5784C426.549 37.4495 426.907 37.3899 426.728 36.9137C426.399 37.251 426.11 37.5387 425.821 37.8265C425.592 37.9455 425.363 38.0646 425.134 38.1836C425.174 38.2431 425.224 38.2927 425.263 38.3523C425.443 38.1737 425.622 37.9852 425.801 37.8066ZM357.688 37.4891C357.877 37.6578 358.057 37.8265 358.246 37.9951C358.286 37.9257 358.326 37.8562 358.355 37.7868C358.126 37.6975 357.897 37.5983 357.668 37.509C357.11 36.7947 357.1 36.8046 356.273 36.6161C356.741 36.9038 357.22 37.1915 357.688 37.4891ZM497.133 14.7901C496.924 14.8 496.705 14.7901 496.496 14.8099C494.443 14.9984 492.58 14.5024 490.886 13.3317C490.627 13.1531 490.328 13.0341 490.049 12.8853C489.999 12.7861 489.949 12.6968 489.9 12.5976C489.89 12.6372 489.86 12.6968 489.87 12.7067C489.929 12.7662 489.999 12.8158 490.069 12.8654C490.129 13.0638 490.129 13.3019 490.238 13.4706C491.663 15.673 494.882 16.2881 497.113 14.7901C497.203 14.7802 497.283 14.7603 497.373 14.7504C497.343 14.7107 497.323 14.6611 497.293 14.6214C497.243 14.6611 497.193 14.7306 497.133 14.7901ZM334.562 3.01395C334.821 3.88699 335.09 4.63106 335.259 5.39497C335.389 5.9803 335.269 6.57556 334.841 7.03192C334.721 7.16089 334.442 7.25018 334.273 7.2105C334.103 7.17081 333.874 6.98232 333.834 6.81366C333.764 6.51603 333.814 6.18864 333.804 5.87117C333.755 4.78979 333.326 3.88699 332.32 3.40086C331.054 2.80561 329.829 2.88497 328.723 3.80762C327.278 5.01797 326.82 6.53587 327.168 8.38116C327.776 11.5459 329.998 13.5797 333.207 13.7781C334.821 13.8774 336.395 13.7087 337.939 13.163C340.59 12.2305 342.961 10.8118 345.233 9.2046C348.013 7.23034 350.673 5.0775 353.643 3.36118C353.702 3.33142 353.692 3.17268 353.732 2.9941C347.355 3.01395 340.998 3.01395 334.562 3.01395ZM429.986 3.10324C430.495 3.45047 430.863 3.70841 431.252 3.96636C432.447 4.76995 433.663 5.5537 434.839 6.37714C436.194 7.32955 437.519 8.32164 438.854 9.29389C440.678 10.6134 442.611 11.7344 444.673 12.6571C446.716 13.5698 448.838 14.0063 451.08 13.7682C455.434 13.3119 457.118 9.68081 456.909 6.81366C456.789 5.25607 455.952 4.12509 454.607 3.38102C452.943 2.45838 450.133 3.41078 450.243 5.89101C450.253 6.15888 450.303 6.44659 450.213 6.67477C450.133 6.89303 449.904 7.17081 449.705 7.2105C449.506 7.25018 449.157 7.08152 449.047 6.89303C448.729 6.39698 448.539 5.83149 448.719 5.22631C448.928 4.52193 449.157 3.82746 449.386 3.133C448.091 2.85521 434.839 2.82545 429.986 3.10324ZM391.914 10.4348C392.622 9.13515 393.16 7.91488 393.917 6.85334C394.704 5.75212 395.7 4.79971 396.776 3.57944C395.043 3.54968 393.518 3.54968 391.994 3.56952C390.429 3.58936 388.865 3.44055 386.972 3.68857C389.473 5.51402 390.898 7.77599 391.914 10.4348ZM373.072 22.3796C371.299 22.8856 369.555 23.1336 367.712 22.9054C365.46 22.6276 363.796 21.6355 362.789 19.6017C362.67 19.3537 362.481 19.1454 362.281 18.8477C361.624 19.7605 361.733 20.5839 362.142 21.3676C362.989 22.9848 364.284 24.1257 366.068 24.6614C368.907 25.5047 371.109 24.2745 373.072 22.3796ZM410.756 22.2903C412.041 23.8181 413.566 24.5225 415.26 24.8598C417.91 25.3856 421.178 23.4411 422.045 20.8815C422.294 20.1474 422.304 19.4529 421.607 18.8577C421.238 19.4827 420.929 20.0283 420.59 20.5541C420.022 21.4272 419.235 22.072 418.259 22.4193C416.784 22.9352 415.25 23.1733 413.695 22.9352C412.779 22.7963 411.872 22.5383 410.756 22.2903ZM364.184 5.42473C365.3 6.645 366.307 7.93472 367.104 9.38318C367.413 9.93875 367.761 10.4745 368.07 11.0301C368.708 12.1908 369.645 12.9944 371.01 13.5301C369.754 9.88914 367.602 7.14105 364.184 5.42473ZM419.454 5.72236C416.505 6.95255 413.426 10.8416 413.257 13.3813C414.472 12.9349 415.29 12.0817 415.917 10.9904C416.973 9.155 418.01 7.3097 419.454 5.72236ZM293.889 12.8952C291.707 14.4329 289.375 15.2663 286.665 14.7504C287.821 15.4052 289.006 15.8913 290.391 15.5441C291.916 15.1572 293.301 14.5718 293.889 12.8952ZM354.559 34.5823C354.48 34.6418 354.4 34.7014 354.32 34.7609C354.549 34.9692 354.778 35.1875 355.277 35.6439C354.898 35.0784 354.729 34.8303 354.559 34.5823ZM428.422 35.9117C428.382 35.8621 428.332 35.8026 428.292 35.753C428.083 35.9316 427.864 36.1101 427.655 36.2887C427.705 36.3482 427.744 36.3978 427.794 36.4574C428.004 36.2689 428.213 36.0903 428.422 35.9117Z"/>
</mask>
<path d="M419.694 3.59928C415.818 3.95643 412.44 5.32552 409.909 8.40101C408.125 10.5538 407.298 13.0341 407.548 15.8219C407.687 17.439 408.404 18.7584 409.72 19.7605C411.852 21.3776 414.243 21.8637 416.854 21.4371C418.089 21.2387 419.036 20.5938 419.594 19.4529C420.032 18.5501 420.471 17.6572 420.959 16.6453C422.095 17.0024 422.822 17.7664 423.37 18.6692C423.878 19.5124 424.008 20.4748 423.659 21.4371C422.623 24.2745 420.61 26.0801 417.651 26.6059C414.672 27.1317 412.061 26.219 409.869 24.0959C408.743 23.0046 407.797 21.8042 407.059 20.4252C404.728 16.05 405.286 11.8832 408.135 7.97441C409.401 6.22832 411.065 4.87908 413.018 3.89691C413.257 3.77786 413.486 3.64889 413.755 3.50007C409.849 2.80561 402.864 4.96837 399.706 11.0995C399.816 11.2979 399.965 11.5162 400.065 11.7444C400.473 12.6968 400.294 13.3912 399.467 13.9567C399.118 14.1948 398.719 14.3536 398.321 14.5718C397.882 17.0024 398.191 19.2446 399.736 21.2486C400.782 22.5978 401.778 23.9769 402.765 25.3757C403.094 25.8519 403.343 26.3976 403.562 26.9333C403.761 27.4492 403.711 27.975 403.403 28.471C403.014 29.1159 402.466 29.4135 401.788 29.1159C401.111 28.8282 400.443 28.4313 399.915 27.9353C397.843 26.0106 396.757 23.5503 396.219 20.822C396.169 20.5641 396.129 20.2962 396.069 20.0382C396.059 19.9986 395.999 19.9787 395.959 19.949C395.89 20.0085 395.76 20.068 395.76 20.1275C395.591 23.4907 396.139 26.715 397.683 29.7211C398.719 31.735 400.134 33.4811 401.858 34.9395C404.289 36.9931 407.009 38.5705 410.128 39.3741C411.374 39.6916 412.609 40.0587 413.865 40.2571C416.296 40.644 418.528 39.9198 420.65 38.8186C422.703 37.7669 424.676 36.5764 426.369 35.0089C427.695 33.7787 429.02 32.5287 430.275 31.2191C431.69 29.7508 432.816 28.0643 433.773 26.2587C434.012 25.8023 434.151 25.2567 434.799 24.9987C434.928 25.207 435.178 25.4154 435.178 25.6237C435.188 26.3083 435.217 27.0325 435.048 27.6873C433.155 34.8799 428.761 39.771 421.597 42.0726C416.047 43.8584 410.816 42.9258 405.824 40.1976C403.323 38.8285 401.131 37.0625 399.178 34.9692C397.085 32.7172 395.81 30.0584 394.943 27.1714C393.618 22.7367 393.777 18.3418 395.491 14.0262C395.591 13.7781 395.67 13.5202 395.78 13.2127C395.611 12.8158 395.372 12.3991 395.242 11.9428C394.933 10.8118 395.461 10.0479 396.617 9.90899C396.986 9.8693 397.364 9.89907 397.773 9.89907C399.487 7.46844 401.639 5.51402 404.21 3.65881C400.483 3.85723 397.673 5.18663 395.611 8.04385C394.445 9.66096 393.488 11.3674 392.781 13.2226C392.592 13.7087 392.462 14.2345 392.034 14.6016C391.396 14.2643 391.336 13.6393 391.147 13.1333C390.35 11.0102 389.224 9.09547 387.789 7.34939C386.195 5.40489 384.152 4.25406 381.661 3.87707C381.093 3.78778 380.535 3.70841 379.599 3.56952C382.259 5.45449 384.411 7.34939 386.095 9.80978C386.563 9.83954 387.042 9.83954 387.5 9.91891C388.546 10.0876 389.035 10.8912 388.746 11.9031C388.686 12.1114 388.616 12.3198 388.506 12.4983C388.178 13.0043 388.297 13.4805 388.467 14.0162C388.895 15.3853 389.383 16.7544 389.612 18.1632C390.539 23.9272 389.244 29.2746 385.687 33.8382C381.781 38.8682 376.53 41.9932 370.133 42.8464C366.157 43.3722 362.341 42.529 358.824 40.6043C353.503 37.6975 350.225 33.2231 348.86 27.35C348.74 26.8341 348.71 26.2884 348.74 25.7725C348.75 25.5047 348.989 25.2467 349.219 24.8102C349.567 25.2765 349.856 25.5741 350.036 25.9313C352.297 30.3659 355.785 33.7192 359.711 36.6558C361.514 38.005 363.517 39.017 365.639 39.8106C367.243 40.4059 368.897 40.4952 370.541 40.1976C374.208 39.5428 377.656 38.2927 380.695 36.0605C386.245 31.993 388.616 26.5166 387.978 19.7009C387.869 20.2664 387.769 20.8319 387.64 21.3875C387.062 23.8776 386.005 26.1198 384.112 27.8956C383.614 28.3619 383.016 28.7587 382.389 29.0266C381.352 29.473 380.446 28.848 380.356 27.727C380.296 27.0027 380.545 26.348 380.924 25.7626C381.472 24.9094 382.08 24.0959 382.687 23.2824C383.285 22.4689 383.943 21.6851 384.511 20.8518C385.567 19.3041 385.986 17.5679 385.876 15.6929C385.836 14.9587 385.687 14.3139 384.83 14.1155C384.63 14.0659 384.451 13.917 384.292 13.7781C383.634 13.2027 383.524 12.6472 383.883 11.784C383.983 11.5459 384.122 11.3178 384.262 11.04C381.183 5.64299 376.43 3.33142 370.302 3.49015C370.701 3.71833 371.119 3.92667 371.508 4.16477C374.886 6.22832 377.307 8.98634 378.114 12.9746C378.592 15.3754 378.263 17.6473 377.217 19.82C376.38 21.5661 375.215 23.0939 373.77 24.3935C370.781 27.0821 366.536 27.2904 363.925 25.7229C362.57 24.9094 361.474 23.838 360.717 22.449C359.691 20.5641 359.91 18.1136 362.7 16.7247C362.779 16.685 362.899 16.7147 363.078 16.7147C363.457 17.5084 363.846 18.312 364.224 19.1255C364.912 20.6434 366.117 21.328 367.761 21.4768C369.794 21.6554 371.677 21.328 373.461 20.2664C375.862 18.8279 376.799 16.6751 376.46 14.0361C375.882 9.59152 373.351 6.55572 369.226 4.81955C367.692 4.17469 366.127 3.64889 364.443 3.5596C364.354 3.53976 364.264 3.50999 364.184 3.49015C364.274 3.50999 364.374 3.52983 364.463 3.53976C364.752 3.75802 365.031 3.99612 365.34 4.18462C369.535 6.77398 372.016 10.534 372.983 15.3159C373.062 15.7127 373.032 16.1393 373.062 16.7346C372.674 16.5659 372.435 16.5064 372.245 16.3774C371.329 15.7425 370.452 15.0282 369.495 14.4528C368.22 13.6889 367.253 12.6769 366.566 11.3674C365.799 9.89907 364.952 8.48037 363.806 7.27002C362.461 5.84141 360.936 4.68066 358.933 4.4128C358.096 4.30367 357.21 4.2739 356.393 4.43264C353.991 4.90884 351.919 6.08943 349.996 7.58749C347.883 9.22444 345.771 10.8515 343.549 12.3297C341.646 13.5996 339.623 14.7107 337.611 15.8119C335.249 17.1017 332.698 17.8656 330.058 18.3616C328.105 18.7287 326.162 19.0263 324.169 18.9172C317.404 18.5303 311.146 16.6651 305.586 12.7166C304.809 12.161 304.102 11.4963 303.414 10.8217C303.036 10.4546 302.727 9.99827 302.448 9.55183C302.029 8.89705 302.029 8.42085 302.408 8.1133C302.906 7.70654 303.424 7.85536 303.893 8.15298C304.381 8.47045 304.859 8.81768 305.297 9.2046C308.516 12.0122 312.163 14.0659 316.228 15.4052C316.318 15.425 316.407 15.4449 316.497 15.4647C316.407 15.4548 316.308 15.4349 316.218 15.425C315.829 15.0877 315.451 14.7306 315.032 14.4032C314.106 13.6789 313.129 13.0142 312.242 12.2602C311.844 11.9229 311.565 11.4467 311.286 11.0003C311.047 10.6035 311.077 10.157 311.405 9.80978C311.774 9.42286 312.212 9.56175 312.571 9.80978C313.219 10.2761 313.866 10.7523 314.454 11.2979C315.76 12.4983 317.184 13.5202 318.729 14.3932C320.333 15.296 322.037 15.8119 323.87 16.06C325.843 16.3179 327.816 16.3278 329.799 16.2881C330.686 16.2683 331.562 16.06 332.718 15.9012C332.081 15.3357 331.523 15.3457 331.064 15.1869C328.802 14.423 327.168 12.9249 326.212 10.8019C325.066 8.26211 325.076 5.73228 326.849 3.40086C326.949 3.27189 327.019 3.133 327.099 2.9941C327.119 2.95442 327.089 2.8949 327.069 2.756C326.571 2.73616 326.052 2.69648 325.534 2.69648C316.597 2.64687 307.649 2.60719 298.711 2.56751C296.3 2.55758 293.889 2.52782 291.487 2.58735C290.431 2.61711 289.335 2.73616 288.329 3.02387C285.609 3.78778 283.805 6.27793 283.865 8.98634C283.915 11.0003 285.29 12.6968 287.293 13.0638C288.937 13.3615 290.501 13.1134 291.896 12.1412C293.331 11.1392 293.321 10.157 292.573 9.16492C292.474 9.03594 292.384 8.90697 292.304 8.76808C292.135 8.47045 292.035 8.10338 292.344 7.91488C292.573 7.77599 292.982 7.7363 293.221 7.83551C294.815 8.54982 296.001 10.7721 295.682 12.4785C295.423 13.8377 294.756 14.9786 293.56 15.7425C290.87 17.4588 288.15 17.4786 285.479 15.5639C285.051 15.2564 284.662 14.8794 284.274 14.5024C281.902 12.1809 281.494 9.38318 282.55 6.39698C283.596 3.43063 285.838 1.70439 288.967 1.27779C290.601 1.0496 292.275 1.00992 293.929 1.01984C308.596 1.10913 323.262 1.2381 337.929 1.34723C348.69 1.4266 359.442 1.54565 370.203 1.57541C384.172 1.6151 398.152 1.58533 412.121 1.57541C418.916 1.57541 425.722 1.58533 432.517 1.53573C441.674 1.46628 450.821 1.33731 459.978 1.26786C466.833 1.20834 473.688 1.20834 480.533 1.15873C484.011 1.12897 487.488 1.00992 490.966 1C492.411 1 493.875 1.03968 495.28 1.29763C500.352 2.21035 502.544 6.65492 501.886 10.7126C501.398 13.7484 498.01 16.7544 494.951 16.9925C493.108 17.1314 491.434 16.5858 490.029 15.4151C487.797 13.5599 487.478 9.93875 490.577 7.94464C490.707 7.85536 490.866 7.7363 491.006 7.74623C491.255 7.76607 491.534 7.81567 491.713 7.96449C491.833 8.06369 491.862 8.37124 491.803 8.5399C491.693 8.82761 491.474 9.07563 491.324 9.36334C490.806 10.3356 490.916 11.0896 491.723 11.8039C493.467 13.3515 496.446 13.6492 498.299 12.3892C499.276 11.7245 499.883 10.8416 500.053 9.65104C500.422 7.16089 499.076 4.57153 496.755 3.43063C495.788 2.95442 494.762 2.64687 493.676 2.63695C490.836 2.60719 488.006 2.55758 485.167 2.56751C476.388 2.59727 467.6 2.64687 458.822 2.69648C458.234 2.69648 457.646 2.69648 456.899 2.69648C457.038 3.05363 457.078 3.31157 457.218 3.48023C459.171 5.80173 458.822 9.55183 457.238 11.8634C456.082 13.55 454.567 14.7504 452.575 15.3159C452.216 15.4151 451.867 15.5143 451.329 15.6532C451.897 16.1195 452.505 16.1691 453.013 16.1988C456.221 16.427 459.44 16.4568 462.568 15.5639C465.189 14.8099 467.351 13.2325 469.384 11.4666C469.902 11.0102 470.42 10.5439 470.968 10.1173C471.257 9.89907 471.606 9.73041 471.954 9.62128C472.333 9.49231 472.712 9.77009 472.791 10.157C472.891 10.663 472.791 11.1293 472.463 11.5063C472.074 11.9428 471.676 12.3892 471.217 12.7464C470.041 13.6591 468.826 14.5222 467.62 15.4151C467.54 15.4647 467.471 15.5242 467.391 15.5738C467.461 15.5143 467.531 15.4548 467.6 15.3853C468.706 14.9885 469.842 14.6809 470.898 14.1849C473.858 12.7861 476.687 11.1888 479.059 8.88713C479.427 8.52006 479.926 8.28196 480.394 8.02401C480.793 7.80575 481.251 7.79583 481.59 8.12322C481.948 8.46053 481.918 8.93674 481.679 9.30381C481.241 9.96851 480.773 10.6332 480.215 11.1888C478.531 12.8555 476.538 14.1055 474.426 15.1572C471.008 16.8735 467.391 18.0045 463.625 18.56C461.462 18.8775 459.25 19.1454 457.068 18.8775C453.72 18.4608 450.422 17.7961 447.354 16.308C442.67 14.0361 438.376 11.1491 434.351 7.8752C432.976 6.76405 431.491 5.86125 429.867 5.1271C426.22 3.47031 422.892 4.39295 420.281 7.18073C419.215 8.32164 418.348 9.60144 417.661 10.9904C416.874 12.5678 415.748 13.7682 414.203 14.6512C413.157 15.2464 412.221 16.0302 411.145 16.7941C410.836 16.0004 410.965 15.2762 411.145 14.5817C412.39 9.95859 414.881 6.25809 419.195 3.92667C419.385 3.82746 419.544 3.67865 419.714 3.54968C419.793 3.50007 419.863 3.44055 419.943 3.39094C419.833 3.47031 419.763 3.52983 419.694 3.59928ZM359.621 38.7789C359.551 38.7193 359.491 38.6499 359.422 38.5904C359.402 38.5804 359.352 38.6102 359.312 38.6201C359.422 38.6697 359.531 38.7094 359.641 38.759C359.721 38.7987 359.79 38.8483 359.87 38.888C359.79 38.8483 359.711 38.8186 359.621 38.7789ZM423.868 39.1063C423.799 39.1459 423.729 39.1757 423.629 39.2253C423.719 39.1658 423.779 39.1261 423.849 39.0765C423.918 39.017 423.988 38.9574 424.068 38.8979C423.998 38.9773 423.938 39.0368 423.868 39.1063ZM425.801 37.8066C426.001 37.7372 426.22 37.6975 426.379 37.5784C426.549 37.4495 426.907 37.3899 426.728 36.9137C426.399 37.251 426.11 37.5387 425.821 37.8265C425.592 37.9455 425.363 38.0646 425.134 38.1836C425.174 38.2431 425.224 38.2927 425.263 38.3523C425.443 38.1737 425.622 37.9852 425.801 37.8066ZM357.688 37.4891C357.877 37.6578 358.057 37.8265 358.246 37.9951C358.286 37.9257 358.326 37.8562 358.355 37.7868C358.126 37.6975 357.897 37.5983 357.668 37.509C357.11 36.7947 357.1 36.8046 356.273 36.6161C356.741 36.9038 357.22 37.1915 357.688 37.4891ZM497.133 14.7901C496.924 14.8 496.705 14.7901 496.496 14.8099C494.443 14.9984 492.58 14.5024 490.886 13.3317C490.627 13.1531 490.328 13.0341 490.049 12.8853C489.999 12.7861 489.949 12.6968 489.9 12.5976C489.89 12.6372 489.86 12.6968 489.87 12.7067C489.929 12.7662 489.999 12.8158 490.069 12.8654C490.129 13.0638 490.129 13.3019 490.238 13.4706C491.663 15.673 494.882 16.2881 497.113 14.7901C497.203 14.7802 497.283 14.7603 497.373 14.7504C497.343 14.7107 497.323 14.6611 497.293 14.6214C497.243 14.6611 497.193 14.7306 497.133 14.7901ZM334.562 3.01395C334.821 3.88699 335.09 4.63106 335.259 5.39497C335.389 5.9803 335.269 6.57556 334.841 7.03192C334.721 7.16089 334.442 7.25018 334.273 7.2105C334.103 7.17081 333.874 6.98232 333.834 6.81366C333.764 6.51603 333.814 6.18864 333.804 5.87117C333.755 4.78979 333.326 3.88699 332.32 3.40086C331.054 2.80561 329.829 2.88497 328.723 3.80762C327.278 5.01797 326.82 6.53587 327.168 8.38116C327.776 11.5459 329.998 13.5797 333.207 13.7781C334.821 13.8774 336.395 13.7087 337.939 13.163C340.59 12.2305 342.961 10.8118 345.233 9.2046C348.013 7.23034 350.673 5.0775 353.643 3.36118C353.702 3.33142 353.692 3.17268 353.732 2.9941C347.355 3.01395 340.998 3.01395 334.562 3.01395ZM429.986 3.10324C430.495 3.45047 430.863 3.70841 431.252 3.96636C432.447 4.76995 433.663 5.5537 434.839 6.37714C436.194 7.32955 437.519 8.32164 438.854 9.29389C440.678 10.6134 442.611 11.7344 444.673 12.6571C446.716 13.5698 448.838 14.0063 451.08 13.7682C455.434 13.3119 457.118 9.68081 456.909 6.81366C456.789 5.25607 455.952 4.12509 454.607 3.38102C452.943 2.45838 450.133 3.41078 450.243 5.89101C450.253 6.15888 450.303 6.44659 450.213 6.67477C450.133 6.89303 449.904 7.17081 449.705 7.2105C449.506 7.25018 449.157 7.08152 449.047 6.89303C448.729 6.39698 448.539 5.83149 448.719 5.22631C448.928 4.52193 449.157 3.82746 449.386 3.133C448.091 2.85521 434.839 2.82545 429.986 3.10324ZM391.914 10.4348C392.622 9.13515 393.16 7.91488 393.917 6.85334C394.704 5.75212 395.7 4.79971 396.776 3.57944C395.043 3.54968 393.518 3.54968 391.994 3.56952C390.429 3.58936 388.865 3.44055 386.972 3.68857C389.473 5.51402 390.898 7.77599 391.914 10.4348ZM373.072 22.3796C371.299 22.8856 369.555 23.1336 367.712 22.9054C365.46 22.6276 363.796 21.6355 362.789 19.6017C362.67 19.3537 362.481 19.1454 362.281 18.8477C361.624 19.7605 361.733 20.5839 362.142 21.3676C362.989 22.9848 364.284 24.1257 366.068 24.6614C368.907 25.5047 371.109 24.2745 373.072 22.3796ZM410.756 22.2903C412.041 23.8181 413.566 24.5225 415.26 24.8598C417.91 25.3856 421.178 23.4411 422.045 20.8815C422.294 20.1474 422.304 19.4529 421.607 18.8577C421.238 19.4827 420.929 20.0283 420.59 20.5541C420.022 21.4272 419.235 22.072 418.259 22.4193C416.784 22.9352 415.25 23.1733 413.695 22.9352C412.779 22.7963 411.872 22.5383 410.756 22.2903ZM364.184 5.42473C365.3 6.645 366.307 7.93472 367.104 9.38318C367.413 9.93875 367.761 10.4745 368.07 11.0301C368.708 12.1908 369.645 12.9944 371.01 13.5301C369.754 9.88914 367.602 7.14105 364.184 5.42473ZM419.454 5.72236C416.505 6.95255 413.426 10.8416 413.257 13.3813C414.472 12.9349 415.29 12.0817 415.917 10.9904C416.973 9.155 418.01 7.3097 419.454 5.72236ZM293.889 12.8952C291.707 14.4329 289.375 15.2663 286.665 14.7504C287.821 15.4052 289.006 15.8913 290.391 15.5441C291.916 15.1572 293.301 14.5718 293.889 12.8952ZM354.559 34.5823C354.48 34.6418 354.4 34.7014 354.32 34.7609C354.549 34.9692 354.778 35.1875 355.277 35.6439C354.898 35.0784 354.729 34.8303 354.559 34.5823ZM428.422 35.9117C428.382 35.8621 428.332 35.8026 428.292 35.753C428.083 35.9316 427.864 36.1101 427.655 36.2887C427.705 36.3482 427.744 36.3978 427.794 36.4574C428.004 36.2689 428.213 36.0903 428.422 35.9117Z" fill="#86DAFF" stroke="#86DAFF" stroke-width="2" mask="url(#path-12-inside-1_2996_20422)"/>
<path d="M393.037 33.3897L393.036 33.3899C392.833 33.8863 392.38 34.1402 391.894 34.1123C391.456 34.086 391.023 33.7604 390.859 33.2263C390.605 32.3763 390.586 31.5516 390.896 30.7548L390.896 30.7543C391.101 30.2257 391.549 29.9403 391.978 29.9711C392.264 29.9921 392.49 30.059 392.654 30.1634C392.808 30.2613 392.93 30.4056 393 30.6385L393 30.6386L393.004 30.6504C393.126 31.021 393.195 31.3937 393.266 31.7731C393.286 31.8814 393.306 31.9902 393.327 32.0996C393.298 32.2469 393.271 32.3961 393.247 32.5326C393.23 32.6261 393.215 32.7137 393.2 32.7906C393.155 33.0258 393.107 33.2178 393.037 33.3897Z" fill="#86DAFF" stroke="#86DAFF"/>
<path d="M391.895 26.7635L391.895 26.7634C391.452 26.71 391.005 26.3052 390.909 25.8479C390.767 25.1622 390.884 24.5523 391.302 24.0165C391.69 23.5242 392.346 23.5508 392.666 24.0084C392.79 24.1964 392.889 24.4142 392.986 24.662C393.017 24.7424 393.051 24.8324 393.086 24.9263C393.128 25.0392 393.173 25.1576 393.218 25.2713C393.187 25.3769 393.16 25.479 393.135 25.5715C393.121 25.6254 393.107 25.676 393.094 25.7223C393.044 25.9037 393 26.038 392.943 26.1509C392.732 26.5632 392.239 26.8054 391.895 26.7635Z" fill="#86DAFF" stroke="#86DAFF"/>
<path d="M391.373 20.3211C391.205 20.087 391.099 19.7021 391.106 19.271C391.112 18.8405 391.229 18.4521 391.408 18.2133C391.593 17.9652 391.81 17.8667 391.98 17.8581C392.139 17.85 392.318 17.9153 392.471 18.1324L392.471 18.1325L392.477 18.1409C392.586 18.2887 392.671 18.4734 392.76 18.7072C392.786 18.776 392.815 18.855 392.845 18.9389C392.885 19.049 392.927 19.1677 392.972 19.2835C392.934 19.3935 392.898 19.5043 392.864 19.6066C392.837 19.6898 392.812 19.7674 392.789 19.8344C392.713 20.0545 392.642 20.2222 392.553 20.357L392.553 20.357L392.55 20.3609C392.398 20.5952 392.191 20.6848 391.993 20.6809C391.789 20.6768 391.552 20.5701 391.373 20.3211Z" fill="#86DAFF" stroke="#86DAFF"/>
<path d="M319.536 8.62575V8.62572L319.531 8.62578C319.222 8.62901 318.812 8.4557 318.448 8.13469C318.085 7.81372 317.863 7.42878 317.831 7.1193L317.831 7.1193L317.83 7.11266C317.809 6.92865 317.978 6.63818 318.344 6.573C318.697 6.5161 319.147 6.69825 319.51 7.08461C319.874 7.47142 320.032 7.93811 319.954 8.29487L319.954 8.29485L319.952 8.30306C319.912 8.50535 319.777 8.62575 319.536 8.62575Z" fill="#86DAFF" stroke="#86DAFF"/>
<path d="M464.571 9.14518C463.894 9.14518 463.436 8.68882 463.445 8.13325C463.455 7.38918 464.292 6.32764 465.04 6.1193C465.608 5.96056 466.166 6.12922 466.474 6.55582M464.571 9.14518C465.349 9.12534 465.897 8.54 466.365 7.88522M464.571 9.14518V8.64518C464.569 8.64518 464.567 8.64517 464.565 8.64516M464.571 9.14518L464.559 8.64534C464.561 8.64529 464.563 8.64523 464.565 8.64516M466.365 7.88522C466.644 7.48839 466.803 7.0221 466.474 6.55582M466.365 7.88522L465.958 7.59435C465.958 7.59492 465.957 7.5955 465.957 7.59607M466.365 7.88522L465.956 7.59766C465.956 7.59713 465.957 7.5966 465.957 7.59607M466.474 6.55582L466.066 6.84397C466.066 6.84483 466.067 6.8457 466.068 6.84656M466.474 6.55582L466.07 6.84905C466.069 6.84822 466.068 6.84739 466.068 6.84656M466.068 6.84656C466.155 6.97123 466.168 7.07343 466.153 7.17249C466.136 7.28961 466.073 7.43111 465.957 7.59607M466.068 6.84656C465.9 6.61718 465.572 6.48962 465.174 6.60084L465.174 6.60093C464.942 6.66553 464.628 6.89423 464.358 7.23544C464.087 7.57901 463.948 7.9248 463.945 8.13994L463.945 8.14221C463.941 8.37347 464.126 8.64257 464.565 8.64516M465.957 7.59607C465.491 8.24734 465.073 8.62912 464.565 8.64516" fill="#86DAFF" stroke="#86DAFF"/>
<mask id="path-18-inside-2_2996_20422" fill="white">
<path d="M782.815 95C782.889 93.4548 783.009 92.2241 782.999 90.9935C782.972 82.5456 782.916 74.107 782.879 65.6591C782.851 58.5066 782.833 51.3542 782.824 44.2017C782.805 30.9423 782.805 17.6644 782.787 4.39581C782.787 3.84989 782.796 3.29471 782.722 2.75805C782.593 1.76799 782.186 1.3331 781.168 1.29609C779.327 1.22207 777.496 1.20356 775.655 1.20356C766.016 1.18506 756.378 1.19431 746.739 1.1758C741.337 1.16655 735.944 1.09253 730.542 1.08328C725.14 1.07402 719.738 1.12029 714.327 1.10178C706.927 1.08328 699.517 1.01851 692.117 1C691.192 1 690.258 1.12029 689 1.20356C689.444 1.56443 689.592 1.74948 689.777 1.82351C692.719 3.01713 695.66 4.22 698.611 5.37661C700.452 6.10759 702.357 6.15385 704.327 5.92253C708.138 5.46914 711.792 4.31253 715.539 3.55379C718.48 2.96161 721.422 2.65627 724.419 2.7673C725.76 2.81356 727.101 2.77655 728.442 2.78581C728.822 2.78581 729.192 2.83207 729.839 2.86908C729.414 3.20219 729.21 3.3965 728.979 3.54454C724.844 6.20012 722.421 10.0031 721.681 14.8146C721.255 17.6089 721.681 20.3663 722.754 23.0033C724.974 28.4348 728.849 31.9786 734.621 33.2925C738.849 34.2548 743.011 33.8292 747.1 32.469C749.81 31.5715 752.28 30.2113 754.666 28.6569C755.073 28.3885 755.49 28.1387 756.091 27.7686C755.989 28.5736 755.564 28.9992 755.258 29.4526C753.556 32.0434 752.123 34.7638 751.253 37.7432C749.986 42.0735 749.745 46.4316 751.077 50.8083C753.556 58.96 761.752 63.1053 768.727 62.3744C773.518 61.8747 777.32 59.4875 780.113 55.5272C780.419 55.1016 780.705 54.6574 781.251 54.2873C781.251 56.3045 781.205 58.3216 781.26 60.3387C781.371 64.41 780.474 68.324 779.586 72.2472C779.031 74.7177 778.504 77.1882 778.069 79.6865C777.764 81.4075 777.782 83.1841 778.421 84.8403C779.642 88.0418 780.955 91.2063 782.241 94.3801C782.287 94.5189 782.426 94.6021 782.815 95ZM765.489 44.7754C767.765 43.2116 770.096 42.675 772.593 42.7675C775.192 42.86 777.005 44.2757 777.625 46.8295C778.689 51.1784 777.227 54.8518 774.064 57.7201C771.335 60.1907 767.959 61.227 764.231 60.3202C758.024 58.8027 753.834 55.1479 752.271 48.7911C751.558 45.8857 751.623 42.9618 752.234 40.0657C753.501 34.0698 756.59 29.027 760.624 24.5116C761.669 23.3457 763.029 22.5962 764.518 22.1243C767.58 21.1528 770.216 21.9763 772.399 24.2155C774.045 25.9088 774.295 28.7771 773.139 30.8868C771.946 33.052 770.123 33.894 767.496 33.4869C765.434 33.163 764.203 31.8769 764.009 29.8505C763.981 29.6007 764.028 29.3231 763.917 29.1195C763.787 28.8882 763.547 28.6384 763.306 28.5643C763.158 28.5181 762.853 28.7494 762.733 28.9252C762.566 29.1565 762.492 29.4619 762.418 29.7487C761.808 32.1359 762.474 34.1068 764.222 35.8371C766.534 38.1318 770.78 38.4371 772.945 37.0492C776.719 34.6435 777.69 30.563 776.626 27.3615C775.784 24.8169 774.397 22.7813 772.038 21.3656C769.67 19.9406 767.256 19.5613 764.62 20.283C764.268 20.3848 763.898 20.4218 763.454 20.5051C763.602 19.9314 763.722 19.5058 763.833 19.0801C764.194 17.6089 764.259 16.11 763.833 14.6573C762.788 11.1412 760.577 8.7169 757.053 7.49552C755.083 6.81081 753.131 6.75529 751.235 7.55104C746.795 9.40161 744.824 13.4636 746.98 17.9883C748.487 21.1435 751.198 22.4667 754.454 21.5784C754.907 21.4581 755.536 21.3286 755.471 20.6809C755.406 20.0239 754.805 20.0609 754.306 20.0424C753.39 19.9962 752.548 19.7833 751.854 19.1171C749.986 17.3036 749.967 13.6209 751.827 11.7981C754.074 9.59593 758.043 9.64219 760.161 11.9647C762.335 14.3427 762.862 17.0908 761.706 20.1164C761.105 21.6802 760.124 22.9756 758.848 24.0582C756.109 26.3899 753.103 28.3238 749.847 29.8505C745.86 31.7103 741.698 32.5431 737.258 32.0989C730.921 31.4605 725.788 27.3244 723.845 20.4958C722.365 15.3142 725.168 8.86495 730.422 7.06989C730.746 6.95885 731.051 6.78305 731.375 6.65351C733.558 5.82075 735.75 5.8115 737.924 6.635C739.922 7.38449 741.06 8.88345 741.235 11.0116C741.439 13.4451 740.967 15.7583 739.672 17.868C739.561 18.0438 739.496 18.2474 739.311 18.6545C741.929 17.5071 743.529 15.7491 744.288 13.3156C745.49 9.49414 744.908 5.9873 741.781 2.90609C754.972 2.99862 767.857 3.09115 780.835 3.18368C780.863 3.69259 780.909 4.08121 780.909 4.46058C780.927 10.8728 780.927 17.2851 780.964 23.6973C780.992 29.1565 781.066 34.625 781.122 40.0842C781.131 40.7041 781.159 41.3333 780.927 41.981C775.192 36.494 766.821 39.8991 765.489 44.7754ZM771.983 41.1853C772.001 41.139 772.01 41.0927 772.029 41.0557C772.316 40.9909 772.602 40.9077 772.889 40.8614C777.116 40.1674 780.9 43.0266 780.974 47.4402C781.02 50.0403 780.058 52.2795 778.689 54.3984C778.328 54.9535 777.875 55.4439 777.459 55.9714C777.57 55.2311 777.866 54.6204 778.171 54.019C779.253 51.8723 779.642 49.6239 779.253 47.2274C778.735 44.0351 776.802 41.9347 773.749 41.3611C773.167 41.2408 772.575 41.2408 771.983 41.1853ZM712.68 2.5915C712.699 2.64701 712.708 2.71178 712.726 2.7673C712.569 2.85058 712.421 2.97086 712.255 3.00787C711.339 3.22069 710.414 3.415 709.498 3.60931C706.973 4.13673 704.466 4.73816 701.858 4.60862C699.971 4.51609 697.445 3.68334 696.086 2.60075C701.636 2.5915 707.158 2.5915 712.68 2.5915ZM728.479 6.53322C730.45 4.45132 732.864 3.29471 735.657 3.05414C736.527 2.98012 737.452 3.07265 738.303 3.27621C742.188 4.18299 744.14 8.5596 742.891 11.8999C742.789 11.28 742.706 10.697 742.595 10.1141C742.16 7.71759 740.782 6.08908 738.516 5.23782C736 4.28477 733.484 4.34029 731.005 5.40437C730.163 5.76523 729.33 6.15385 728.479 6.53322ZM781.085 71.5532C781.501 74.2273 781.566 87.1258 781.279 88.2547C781.048 87.7458 780.853 87.3016 780.641 86.8575C779.494 84.4702 779.022 81.9719 779.503 79.3441C779.854 77.4473 780.215 75.5504 780.585 73.6536C780.733 72.9411 780.918 72.2472 781.085 71.5532ZM753.843 8.56886C751.688 9.60518 749.884 10.734 749.144 12.9362C748.413 15.1106 748.765 17.2018 749.967 19.3392C748.053 18.3769 747.183 15.2494 747.72 13.1305C748.293 10.8728 751.105 8.59661 753.843 8.56886ZM764.842 34.3381C769.975 36.1887 772.575 35.2171 775.229 30.9146C775.146 33.1723 773.231 35.5317 770.965 36.2627C769.134 36.8457 765.637 36.0036 764.842 34.3381Z"/>
</mask>
<path d="M782.815 95C782.889 93.4548 783.009 92.2241 782.999 90.9935C782.972 82.5456 782.916 74.107 782.879 65.6591C782.851 58.5066 782.833 51.3542 782.824 44.2017C782.805 30.9423 782.805 17.6644 782.787 4.39581C782.787 3.84989 782.796 3.29471 782.722 2.75805C782.593 1.76799 782.186 1.3331 781.168 1.29609C779.327 1.22207 777.496 1.20356 775.655 1.20356C766.016 1.18506 756.378 1.19431 746.739 1.1758C741.337 1.16655 735.944 1.09253 730.542 1.08328C725.14 1.07402 719.738 1.12029 714.327 1.10178C706.927 1.08328 699.517 1.01851 692.117 1C691.192 1 690.258 1.12029 689 1.20356C689.444 1.56443 689.592 1.74948 689.777 1.82351C692.719 3.01713 695.66 4.22 698.611 5.37661C700.452 6.10759 702.357 6.15385 704.327 5.92253C708.138 5.46914 711.792 4.31253 715.539 3.55379C718.48 2.96161 721.422 2.65627 724.419 2.7673C725.76 2.81356 727.101 2.77655 728.442 2.78581C728.822 2.78581 729.192 2.83207 729.839 2.86908C729.414 3.20219 729.21 3.3965 728.979 3.54454C724.844 6.20012 722.421 10.0031 721.681 14.8146C721.255 17.6089 721.681 20.3663 722.754 23.0033C724.974 28.4348 728.849 31.9786 734.621 33.2925C738.849 34.2548 743.011 33.8292 747.1 32.469C749.81 31.5715 752.28 30.2113 754.666 28.6569C755.073 28.3885 755.49 28.1387 756.091 27.7686C755.989 28.5736 755.564 28.9992 755.258 29.4526C753.556 32.0434 752.123 34.7638 751.253 37.7432C749.986 42.0735 749.745 46.4316 751.077 50.8083C753.556 58.96 761.752 63.1053 768.727 62.3744C773.518 61.8747 777.32 59.4875 780.113 55.5272C780.419 55.1016 780.705 54.6574 781.251 54.2873C781.251 56.3045 781.205 58.3216 781.26 60.3387C781.371 64.41 780.474 68.324 779.586 72.2472C779.031 74.7177 778.504 77.1882 778.069 79.6865C777.764 81.4075 777.782 83.1841 778.421 84.8403C779.642 88.0418 780.955 91.2063 782.241 94.3801C782.287 94.5189 782.426 94.6021 782.815 95ZM765.489 44.7754C767.765 43.2116 770.096 42.675 772.593 42.7675C775.192 42.86 777.005 44.2757 777.625 46.8295C778.689 51.1784 777.227 54.8518 774.064 57.7201C771.335 60.1907 767.959 61.227 764.231 60.3202C758.024 58.8027 753.834 55.1479 752.271 48.7911C751.558 45.8857 751.623 42.9618 752.234 40.0657C753.501 34.0698 756.59 29.027 760.624 24.5116C761.669 23.3457 763.029 22.5962 764.518 22.1243C767.58 21.1528 770.216 21.9763 772.399 24.2155C774.045 25.9088 774.295 28.7771 773.139 30.8868C771.946 33.052 770.123 33.894 767.496 33.4869C765.434 33.163 764.203 31.8769 764.009 29.8505C763.981 29.6007 764.028 29.3231 763.917 29.1195C763.787 28.8882 763.547 28.6384 763.306 28.5643C763.158 28.5181 762.853 28.7494 762.733 28.9252C762.566 29.1565 762.492 29.4619 762.418 29.7487C761.808 32.1359 762.474 34.1068 764.222 35.8371C766.534 38.1318 770.78 38.4371 772.945 37.0492C776.719 34.6435 777.69 30.563 776.626 27.3615C775.784 24.8169 774.397 22.7813 772.038 21.3656C769.67 19.9406 767.256 19.5613 764.62 20.283C764.268 20.3848 763.898 20.4218 763.454 20.5051C763.602 19.9314 763.722 19.5058 763.833 19.0801C764.194 17.6089 764.259 16.11 763.833 14.6573C762.788 11.1412 760.577 8.7169 757.053 7.49552C755.083 6.81081 753.131 6.75529 751.235 7.55104C746.795 9.40161 744.824 13.4636 746.98 17.9883C748.487 21.1435 751.198 22.4667 754.454 21.5784C754.907 21.4581 755.536 21.3286 755.471 20.6809C755.406 20.0239 754.805 20.0609 754.306 20.0424C753.39 19.9962 752.548 19.7833 751.854 19.1171C749.986 17.3036 749.967 13.6209 751.827 11.7981C754.074 9.59593 758.043 9.64219 760.161 11.9647C762.335 14.3427 762.862 17.0908 761.706 20.1164C761.105 21.6802 760.124 22.9756 758.848 24.0582C756.109 26.3899 753.103 28.3238 749.847 29.8505C745.86 31.7103 741.698 32.5431 737.258 32.0989C730.921 31.4605 725.788 27.3244 723.845 20.4958C722.365 15.3142 725.168 8.86495 730.422 7.06989C730.746 6.95885 731.051 6.78305 731.375 6.65351C733.558 5.82075 735.75 5.8115 737.924 6.635C739.922 7.38449 741.06 8.88345 741.235 11.0116C741.439 13.4451 740.967 15.7583 739.672 17.868C739.561 18.0438 739.496 18.2474 739.311 18.6545C741.929 17.5071 743.529 15.7491 744.288 13.3156C745.49 9.49414 744.908 5.9873 741.781 2.90609C754.972 2.99862 767.857 3.09115 780.835 3.18368C780.863 3.69259 780.909 4.08121 780.909 4.46058C780.927 10.8728 780.927 17.2851 780.964 23.6973C780.992 29.1565 781.066 34.625 781.122 40.0842C781.131 40.7041 781.159 41.3333 780.927 41.981C775.192 36.494 766.821 39.8991 765.489 44.7754ZM771.983 41.1853C772.001 41.139 772.01 41.0927 772.029 41.0557C772.316 40.9909 772.602 40.9077 772.889 40.8614C777.116 40.1674 780.9 43.0266 780.974 47.4402C781.02 50.0403 780.058 52.2795 778.689 54.3984C778.328 54.9535 777.875 55.4439 777.459 55.9714C777.57 55.2311 777.866 54.6204 778.171 54.019C779.253 51.8723 779.642 49.6239 779.253 47.2274C778.735 44.0351 776.802 41.9347 773.749 41.3611C773.167 41.2408 772.575 41.2408 771.983 41.1853ZM712.68 2.5915C712.699 2.64701 712.708 2.71178 712.726 2.7673C712.569 2.85058 712.421 2.97086 712.255 3.00787C711.339 3.22069 710.414 3.415 709.498 3.60931C706.973 4.13673 704.466 4.73816 701.858 4.60862C699.971 4.51609 697.445 3.68334 696.086 2.60075C701.636 2.5915 707.158 2.5915 712.68 2.5915ZM728.479 6.53322C730.45 4.45132 732.864 3.29471 735.657 3.05414C736.527 2.98012 737.452 3.07265 738.303 3.27621C742.188 4.18299 744.14 8.5596 742.891 11.8999C742.789 11.28 742.706 10.697 742.595 10.1141C742.16 7.71759 740.782 6.08908 738.516 5.23782C736 4.28477 733.484 4.34029 731.005 5.40437C730.163 5.76523 729.33 6.15385 728.479 6.53322ZM781.085 71.5532C781.501 74.2273 781.566 87.1258 781.279 88.2547C781.048 87.7458 780.853 87.3016 780.641 86.8575C779.494 84.4702 779.022 81.9719 779.503 79.3441C779.854 77.4473 780.215 75.5504 780.585 73.6536C780.733 72.9411 780.918 72.2472 781.085 71.5532ZM753.843 8.56886C751.688 9.60518 749.884 10.734 749.144 12.9362C748.413 15.1106 748.765 17.2018 749.967 19.3392C748.053 18.3769 747.183 15.2494 747.72 13.1305C748.293 10.8728 751.105 8.59661 753.843 8.56886ZM764.842 34.3381C769.975 36.1887 772.575 35.2171 775.229 30.9146C775.146 33.1723 773.231 35.5317 770.965 36.2627C769.134 36.8457 765.637 36.0036 764.842 34.3381Z" fill="#86DAFF" stroke="#86DAFF" stroke-width="2" mask="url(#path-18-inside-2_2996_20422)"/>
<path d="M737.368 43.3121L736.868 43.3236C736.881 43.8797 736.807 44.4472 736.696 45.0736C736.657 45.2928 736.613 45.5244 736.567 45.7651C736.486 46.1918 736.399 46.6472 736.328 47.1135L736.225 47.7837L736.896 47.6836C737.399 47.6084 737.885 47.5355 738.357 47.4646C739.804 47.2475 741.126 47.0491 742.448 46.8611C742.739 46.8241 743.006 46.7281 743.234 46.5524C743.463 46.3762 743.621 46.1438 743.731 45.8831L743.269 45.6901M737.368 43.3121L736.868 43.3244C736.843 42.2976 737.081 41.4975 737.612 40.8757C738.129 40.2697 738.873 39.8932 739.731 39.6006C741.294 39.0624 742.797 38.3977 744.338 37.7164C745.029 37.411 745.727 37.1024 746.442 36.8002L747.136 36.5064V37.2607C747.136 37.3112 747.139 37.3423 747.143 37.3849C747.145 37.4147 747.149 37.4502 747.152 37.502C747.156 37.5839 747.165 37.7592 747.084 37.9363C746.386 39.6063 745.68 41.274 744.974 42.9415C744.559 43.9224 744.144 44.9032 743.73 45.8843L743.269 45.6901M737.368 43.3121C737.321 41.4338 738.237 40.638 739.893 40.0736C741.477 39.5283 743.012 38.8496 744.563 38.1638C745.088 37.9317 745.615 37.6988 746.146 37.47C746.146 37.4618 746.145 37.4529 746.144 37.4431C746.14 37.3925 746.136 37.3301 746.136 37.2607H746.636L742.381 46.3656M737.368 43.3121C737.387 44.1408 737.228 44.9696 737.055 45.8752C737.006 46.1335 736.956 46.3981 736.908 46.6707C736.855 46.6786 736.801 46.6866 736.748 46.6945L736.822 47.1891L737.316 47.2646C737.324 47.2131 737.332 47.1621 737.34 47.1115C737.66 47.0636 737.974 47.0166 738.281 46.9704C739.73 46.7529 741.056 46.554 742.381 46.3656M743.269 45.6901C743.103 46.088 742.825 46.31 742.381 46.3656M743.269 45.6901C743.684 44.7074 744.099 43.7259 744.514 42.7447C745.208 41.1051 745.902 39.4664 746.589 37.8242C746.629 37.8072 746.669 37.7902 746.708 37.7733L742.381 46.3656M737.562 39.2335L737.562 39.2335L737.564 39.2329C740.519 38.4285 743.366 37.3355 746.14 36.0785C746.961 35.7072 747.791 35.3794 748.737 35.0063C748.88 34.9496 749.026 34.8919 749.175 34.8329C748.872 35.5644 748.567 36.2876 748.265 37.0052C746.86 40.3375 745.505 43.5496 744.608 46.9122L744.608 46.9121L744.606 46.9198C744.562 47.0989 744.489 47.1899 744.41 47.2479C744.321 47.3135 744.179 47.3691 743.951 47.3957L743.95 47.3958C743.01 47.5075 742.065 47.6384 741.127 47.8073C739.934 48.0209 738.742 48.2521 737.556 48.4822C736.992 48.5915 736.429 48.7007 735.868 48.8076L735.868 48.8077C735.612 48.8566 735.439 48.8656 735.327 48.8531C735.25 48.8446 735.222 48.8289 735.214 48.8238C735.21 48.8179 735.189 48.7837 735.18 48.6827C735.168 48.5559 735.18 48.3675 735.232 48.0971C735.267 47.9121 735.318 47.7268 735.375 47.5187L735.384 47.4878C735.442 47.2745 735.506 47.0369 735.548 46.7918L735.548 46.7918L735.549 46.7883C735.596 46.4955 735.644 46.2025 735.692 45.9093C735.988 44.1024 736.285 42.288 736.54 40.4669L736.54 40.4652C736.595 40.0678 736.689 39.8199 736.825 39.6491C736.955 39.4856 737.165 39.3395 737.562 39.2335ZM735.212 48.8221C735.212 48.8221 735.213 48.8226 735.214 48.8237C735.213 48.8228 735.212 48.8222 735.212 48.8221Z" fill="#86DAFF" stroke="#86DAFF"/>
<path d="M767.447 16.7584L767.464 16.7557C767.975 16.6752 768.487 16.5933 768.999 16.5113C770.541 16.2648 772.088 16.0173 773.633 15.8014L773.636 15.801L773.636 15.801C773.902 15.7656 774.052 15.6865 774.161 15.5884C774.281 15.4806 774.39 15.3148 774.513 15.0381C775.476 12.8782 776.463 10.7315 777.449 8.58855C777.828 7.76329 778.207 6.93857 778.585 6.11386L778.587 6.11059C778.654 5.96629 778.721 5.83219 778.785 5.70469L778.787 5.70056L778.789 5.69642L778.789 5.69643C778.803 5.6684 778.817 5.64236 778.829 5.61773C778.867 5.54397 778.899 5.48288 778.928 5.41886C778.965 5.33711 778.982 5.28068 778.989 5.23981C778.995 5.20407 778.991 5.18785 778.988 5.17809C778.985 5.16758 778.971 5.13304 778.911 5.07695C778.856 5.02565 778.824 5.01636 778.816 5.01417C778.806 5.01178 778.787 5.00868 778.744 5.01829C778.696 5.02903 778.635 5.05191 778.545 5.09371C778.505 5.11258 778.464 5.1327 778.417 5.15573L778.404 5.1621C778.354 5.1867 778.297 5.21435 778.239 5.24085C777.758 5.46123 777.278 5.68187 776.797 5.90258C774.17 7.10808 771.539 8.31544 768.902 9.48965C768.645 9.60485 768.493 9.72599 768.394 9.85543C768.296 9.98399 768.223 10.1577 768.185 10.4251C768.185 10.4254 768.185 10.4257 768.185 10.426L767.69 10.3562L767.447 16.7584ZM767.447 16.7584L767.43 16.7622M767.447 16.7584L767.43 16.7622M767.43 16.7622C767.304 16.7911 767.223 16.7931 767.179 16.788C767.174 16.7875 767.171 16.7869 767.167 16.7864C767.167 16.7852 767.166 16.7841 767.166 16.7828C767.157 16.7462 767.148 16.6751 767.16 16.5568L767.43 16.7622ZM777.133 7.56122L777.598 6.45273L776.484 6.90414C775.888 7.14534 775.3 7.38173 774.719 7.6156C773.12 8.25812 771.569 8.88174 770.04 9.53444C769.825 9.62394 769.625 9.77863 769.471 9.94462C769.32 10.1082 769.168 10.3315 769.108 10.585L769.108 10.5855C768.872 11.604 768.676 12.637 768.472 13.713C768.386 14.1637 768.299 14.6219 768.207 15.0899L768.083 15.7208L768.726 15.6855C770.134 15.608 771.415 15.3341 772.617 15.0771C773.031 14.9885 773.436 14.902 773.833 14.8261L774.096 14.7759L774.2 14.5288C774.628 13.5106 775.052 12.5059 775.476 11.4991C776.022 10.2014 776.57 8.90002 777.133 7.56122ZM768.797 14.6795C768.854 14.3802 768.91 14.0858 768.965 13.7953C769.168 12.724 769.361 11.7067 769.595 10.6986L768.797 14.6795Z" fill="#86DAFF" stroke="#86DAFF"/>
</svg>
