<svg width="425" height="139" viewBox="0 0 425 139" fill="none" xmlns="http://www.w3.org/2000/svg">
<path d="M61.3184 38.2383H1.28238C0.574508 38.2383 0 38.6975 0 39.2634C0 39.8293 0.574508 40.2886 1.28238 40.2886H61.3184C62.0263 40.2886 62.6008 39.8293 62.6008 39.2634C62.6008 38.6975 62.0263 38.2383 61.3184 38.2383Z" fill="#86DAFF"/>
<path d="M177.029 38.3035C176.958 38.2789 169.92 36.122 168.186 31.0373C168.063 30.6764 167.704 30.4058 167.263 30.3156C166.811 30.2254 166.339 30.3402 166.021 30.6026C165.929 30.6764 156.675 38.2379 132.279 38.2379H75.2902C74.5823 38.2379 74.0078 38.6972 74.0078 39.2631C74.0078 39.8289 74.5823 40.2882 75.2902 40.2882H176.588C177.214 40.2882 177.737 39.9356 177.85 39.4435C177.953 38.9596 177.614 38.4839 177.029 38.3035Z" fill="#86DAFF"/>
<path d="M93.7364 32.2087C97.6656 32.3317 99.8303 30.6997 100.487 29.2644C100.805 28.5755 100.743 28.0425 100.333 27.7882C100.046 27.616 99.4815 27.5258 98.4556 28.1327C97.8195 28.5017 97.009 28.5263 96.4448 28.1819C95.8293 27.8046 95.6754 27.0993 96.055 26.2956C96.414 25.5247 97.3579 24.8358 98.6402 24.4093C100.446 23.8107 104.58 23.2202 111.946 25.9184C119.846 28.8216 135.224 34.464 144.878 34.464C146.232 34.464 147.484 34.3492 148.571 34.1031C148.725 34.0703 148.817 33.9555 148.807 33.8243C148.787 33.7013 148.663 33.6029 148.499 33.5947C148.345 33.5865 133.049 32.8894 122.339 26.8451C109.484 19.5953 99.5943 17.5614 92.9259 20.8008C89.4379 22.4985 87.9195 25.2705 88.8736 28.2147C89.6123 30.47 91.6538 32.1431 93.7364 32.2087Z" fill="#86DAFF"/>
<path d="M121.14 23.4831C122.822 23.5077 124.146 23.1223 125.089 22.3186C126.782 20.8833 126.608 18.6772 126.597 18.587C126.587 18.4804 126.505 18.3984 126.382 18.3656C126.259 18.3328 126.126 18.3574 126.043 18.4394C125.695 18.751 124.576 19.5466 123.633 19.4891C123.181 19.4563 122.812 19.2349 122.494 18.8249C122.042 18.2262 122.207 17.5537 122.935 17.0124C124.197 16.0775 126.721 15.8396 129.09 17.201C130.003 17.7259 131.471 18.7674 133.327 20.0878C139.955 24.7953 151.045 32.6684 158.914 32.7341C159.067 32.7341 159.211 32.6438 159.232 32.5126C159.252 32.3896 159.16 32.2666 159.006 32.2256C158.934 32.2092 151.548 30.4049 140.098 20.9982C129.634 12.4033 123.161 10.2136 117.734 13.4449C115.077 15.0277 114.707 17.7833 115.518 19.809C116.42 22.0315 118.575 23.4421 121.14 23.4831Z" fill="#86DAFF"/>
<path d="M140.725 17.6535C143.094 18.3588 145.875 18.0635 147.085 17.3911C147.67 17.063 147.793 16.7104 147.793 16.4725C147.793 15.7426 146.818 15.6524 146.039 15.5786C144.9 15.472 144.367 15.3572 144.367 14.7585C144.367 14.209 144.992 13.6923 145.926 13.4791C147.177 13.192 148.952 13.4627 150.194 15.0619C150.553 15.5294 151.076 16.2429 151.712 17.1122C155.097 21.7623 161.397 30.4063 164.854 31.005C164.874 31.005 164.895 31.0132 164.926 31.0132C165.028 31.0132 165.131 30.9722 165.192 30.8984C165.264 30.8082 165.264 30.6934 165.182 30.6113C165.121 30.5457 159.458 24.2964 156.985 18.613C153.764 11.2074 148.819 8.0171 142.274 9.12426C139.822 9.53432 138.314 10.9859 138.119 13.1018C137.924 15.1275 139.104 17.1696 140.725 17.6535Z" fill="#86DAFF"/>
<path d="M189.209 10.181C188.47 9.98421 188.008 9.42653 187.926 8.66382C187.834 7.7781 187.075 7.21221 185.998 7.21221C185.987 7.21221 185.977 7.21221 185.967 7.21221C184.51 7.22862 182.92 8.28657 182.797 10.0416C182.684 11.5014 183.269 13.5025 185.218 14.7573C186.459 15.5528 188.727 16.3073 192.512 15.438C195.651 14.7163 197.785 12.7808 198.216 10.2713C198.75 7.15481 196.636 4.00555 192.697 2.05367C189.178 0.306823 184.254 0.438042 179.863 2.39812C173.082 5.41616 169.193 11.8213 169.193 19.965C169.193 29.8393 175.113 39.8283 186.429 39.8283C191.199 39.8283 194.81 38.3029 196.606 35.5391C198.616 32.439 197.878 28.7813 196.103 26.7638C194.379 24.8037 191.148 23.7048 187.875 23.9672C185.228 24.1805 183.135 25.2384 182.274 26.813C181.043 29.0602 181.525 31.9388 183.412 33.5134C184.859 34.7108 186.911 34.9732 189.209 34.2597C190.696 33.7922 191.579 33.1935 191.927 32.4226C192.44 31.2909 191.63 30.1017 190.973 29.1422C190.594 28.5845 190.163 27.9612 190.389 27.7808C190.696 27.5347 191.394 27.5921 192.092 27.9202C193.579 28.6091 194.759 30.2657 194.031 32.4144C193.405 34.2433 191.866 35.7031 189.814 36.4084C187.701 37.1383 185.259 36.9989 182.93 36.0148C178.129 33.9809 173.687 30.6266 173.687 19.965C173.687 12.0509 177.534 7.1056 185.126 5.25213C188.039 4.54683 190.861 5.736 192.04 7.22042C192.676 8.02413 192.728 8.79504 192.184 9.28711C191.281 10.0826 190.142 10.4271 189.209 10.181Z" fill="#86DAFF"/>
<path d="M67.9572 36.7031C66.1824 36.7031 64.7461 37.8513 64.7461 39.2701C64.7461 40.6889 66.1824 41.8371 67.9572 41.8371C69.732 41.8371 71.1683 40.6889 71.1683 39.2701C71.1683 37.8513 69.732 36.7031 67.9572 36.7031Z" fill="#86DAFF"/>
<path d="M423.247 38.2383H363.2C362.492 38.2383 361.918 38.6975 361.918 39.2634C361.918 39.8293 362.492 40.2886 363.2 40.2886H423.236C423.944 40.2886 424.519 39.8293 424.519 39.2634C424.529 38.6975 423.955 38.2383 423.247 38.2383Z" fill="#86DAFF"/>
<path d="M349.24 38.2382H292.251C267.855 38.2382 258.601 30.6767 258.509 30.6029C258.191 30.3323 257.709 30.2174 257.257 30.3077C256.806 30.3979 256.447 30.6767 256.324 31.0376C254.6 36.0977 247.552 38.2792 247.48 38.3038C246.896 38.476 246.557 38.9599 246.67 39.452C246.783 39.944 247.316 40.2967 247.932 40.2967H349.23C349.938 40.2967 350.512 39.8374 350.512 39.2715C350.523 38.6975 349.948 38.2382 349.24 38.2382Z" fill="#86DAFF"/>
<path d="M276.019 33.6131C275.865 33.6213 275.732 33.7197 275.721 33.8427C275.701 33.9657 275.803 34.0806 275.957 34.1216C277.055 34.3676 278.296 34.4824 279.651 34.4824C289.294 34.4824 304.683 28.84 312.582 25.9368C319.948 23.2304 324.083 23.8291 325.888 24.4278C327.171 24.8542 328.114 25.5349 328.473 26.314C328.853 27.1178 328.709 27.8231 328.084 28.2003C327.519 28.5448 326.709 28.5284 326.073 28.1511C325.047 27.5524 324.483 27.6344 324.185 27.8067C323.775 28.0527 323.713 28.594 324.031 29.2829C324.698 30.7181 326.853 32.3419 330.782 32.2271C332.864 32.1615 334.906 30.4884 335.624 28.2495C336.578 25.3053 335.07 22.5415 331.572 20.8356C324.903 17.5962 315.014 19.6219 302.159 26.8799C291.459 32.916 276.173 33.6049 276.019 33.6131Z" fill="#86DAFF"/>
<path d="M284.423 20.9902C272.974 30.3969 265.587 32.2012 265.516 32.2176C265.362 32.2504 265.269 32.3734 265.29 32.5046C265.31 32.6276 265.444 32.7261 265.608 32.7261C273.477 32.6605 284.567 24.7873 291.194 20.0798C293.051 18.7595 294.528 17.7179 295.431 17.193C297.801 15.8316 300.325 16.0695 301.587 17.0044C302.315 17.5457 302.479 18.2264 302.028 18.8169C301.71 19.2351 301.34 19.4484 300.889 19.4812C299.75 19.5714 298.488 18.4478 298.478 18.4314C298.396 18.3576 298.252 18.3248 298.14 18.3576C298.016 18.3904 297.934 18.4806 297.924 18.579C297.914 18.6692 297.739 20.8836 299.432 22.3106C300.376 23.1061 301.71 23.4997 303.382 23.4751C305.947 23.4341 308.101 22.0235 308.994 19.7928C309.804 17.7671 309.435 15.0115 306.778 13.4287C301.361 10.2138 294.877 12.4035 284.423 20.9902Z" fill="#86DAFF"/>
<path d="M259.606 31.0132C259.627 31.0132 259.647 31.0132 259.678 31.005C263.135 30.4063 269.434 21.7623 272.82 17.1122C273.456 16.2429 273.969 15.5294 274.338 15.0619C275.579 13.4627 277.354 13.192 278.606 13.4791C279.539 13.6923 280.165 14.2008 280.165 14.7585C280.165 15.3572 279.632 15.472 278.493 15.5786C277.713 15.6524 276.739 15.7426 276.739 16.4725C276.739 16.7104 276.862 17.063 277.447 17.3911C278.657 18.0635 281.437 18.3588 283.807 17.6535C285.438 17.1696 286.608 15.1275 286.423 13.1018C286.228 10.9859 284.71 9.53432 282.268 9.12426C275.723 8.0171 270.778 11.2074 267.557 18.613C265.084 24.2964 259.421 30.5457 259.36 30.6113C259.278 30.6934 259.278 30.8164 259.35 30.8984C259.401 30.9722 259.503 31.0132 259.606 31.0132Z" fill="#86DAFF"/>
<path d="M255.328 19.957C255.328 11.805 251.439 5.39988 244.658 2.39004C240.267 0.438164 235.343 0.306946 231.824 2.0456C227.885 3.99748 225.761 7.14673 226.305 10.2632C226.736 12.7727 228.87 14.7082 232.009 15.4299C235.805 16.2992 238.072 15.5447 239.303 14.7492C241.252 13.4944 241.837 11.4934 241.724 10.0335C241.591 8.27849 240.001 7.22054 238.544 7.20414C237.426 7.19593 236.677 7.76182 236.584 8.65574C236.502 9.41845 236.041 9.97613 235.302 10.173C234.368 10.4272 233.23 10.0827 232.327 9.27083C231.773 8.77876 231.824 8.00785 232.47 7.20414C233.65 5.71972 236.471 4.53055 239.385 5.23585C246.977 7.08112 250.824 12.0346 250.824 19.9488C250.824 30.6021 246.382 33.9564 241.581 35.9985C239.262 36.9826 236.82 37.122 234.697 36.3921C232.635 35.6786 231.106 34.227 230.48 32.3982C229.752 30.2576 230.921 28.601 232.419 27.9039C233.117 27.5759 233.814 27.5267 234.122 27.7645C234.348 27.9449 233.917 28.5682 233.537 29.1259C232.881 30.0854 232.07 31.2746 232.583 32.4064C232.932 33.1773 233.825 33.776 235.302 34.2434C237.6 34.9651 239.662 34.7027 241.098 33.4971C242.986 31.9307 243.478 29.0521 242.237 26.7967C241.375 25.2303 239.282 24.1642 236.636 23.9509C233.373 23.6885 230.142 24.7875 228.408 26.7475C226.633 28.7568 225.894 32.4228 227.905 35.5228C229.701 38.2866 233.322 39.812 238.082 39.812C249.408 39.8202 255.328 29.8312 255.328 19.957Z" fill="#86DAFF"/>
<path d="M356.574 36.7031C354.8 36.7031 353.363 37.8513 353.363 39.2701C353.363 40.6889 354.8 41.8371 356.574 41.8371C358.349 41.8371 359.785 40.6889 359.785 39.2701C359.785 37.8513 358.339 36.7031 356.574 36.7031Z" fill="#86DAFF"/>
<path d="M178.662 108.87C173.809 108.923 170.444 112.591 170.413 112.624C170.321 112.724 170.167 112.796 169.982 112.823C169.798 112.849 169.613 112.816 169.469 112.75C155.127 105.811 120.503 110.274 116.358 111.128C115.856 111.234 115.373 111.34 114.891 111.446C111.065 112.287 107.761 113.015 100.241 111.121C92.2084 109.095 86.8326 108.877 86.7813 108.877C86.4325 108.863 86.1658 108.678 86.1761 108.453C86.1863 108.228 86.4736 108.049 86.8224 108.049H178.651C179 108.049 179.287 108.234 179.298 108.459C179.298 108.678 179.021 108.863 178.662 108.87Z" fill="#86DAFF"/>
<path d="M113.927 114.089C115.784 113.115 118.318 112.923 120.852 113.559C121.077 113.612 121.231 113.745 121.262 113.897C121.293 114.049 121.19 114.201 120.995 114.287C120.564 114.48 119.415 115.128 119.241 115.81C119.169 116.095 119.261 116.353 119.549 116.605C120.739 117.678 125.109 117.744 133.809 114.718C140.888 112.261 147.146 110.348 155.948 110.348C156.994 110.348 158.082 110.374 159.2 110.434C159.528 110.447 159.775 110.619 159.795 110.831C159.805 111.043 159.58 111.222 159.251 111.255C159.118 111.268 145.525 112.712 138.979 115.83C137.974 116.307 136.948 116.824 135.963 117.327C130.136 120.273 124.104 123.326 116.543 121.478C113.763 120.803 112.008 119.558 111.608 117.969C111.249 116.519 112.131 115.029 113.927 114.089Z" fill="#86DAFF"/>
<path d="M138.066 118.922C138.322 118.928 138.558 119.034 138.651 119.193C138.743 119.352 138.671 119.531 138.476 119.644C138.179 119.816 137.368 120.425 137.532 120.941C137.686 121.438 138.712 121.756 139.543 121.941C141.79 122.444 143.524 121.193 146.16 119.114C147.853 117.776 149.771 116.267 152.295 115.154C158.43 112.446 164.945 111.598 165.222 111.565C165.263 111.559 165.304 111.559 165.345 111.559C165.632 111.559 165.899 111.684 165.971 111.87C166.053 112.082 165.858 112.3 165.54 112.366C165.468 112.38 157.794 113.936 153.167 117.617C151.875 118.65 150.818 119.849 149.792 121.001C147.073 124.073 144.273 127.258 136.917 127.093C133.921 127.027 131.685 126.285 130.618 125C129.674 123.848 129.818 122.378 131.008 121.153C132.413 119.69 135.08 118.849 138.066 118.922Z" fill="#86DAFF"/>
<path d="M154.759 121.101C155.005 121.068 155.251 121.127 155.405 121.253C155.559 121.379 155.58 121.551 155.456 121.697C155.446 121.703 154.923 122.398 155.344 122.842C155.692 123.206 156.636 123.385 158.083 123.365C159.919 123.339 160.453 122.332 161.304 120.392C162.217 118.306 163.469 115.459 168.003 113.393C168.116 113.34 168.249 113.32 168.373 113.32C168.526 113.32 168.68 113.353 168.803 113.426C169.029 113.559 169.08 113.771 168.927 113.936C168.886 113.989 164.341 119.18 164.033 122.769C163.674 126.888 159.468 128.239 155.662 128.133C153.292 128.066 150.819 126.226 150.573 124.352C150.368 122.69 151.886 121.498 154.759 121.101Z" fill="#86DAFF"/>
<path d="M197.867 118.412C196.102 119.955 193.179 120.835 190.039 120.782C186.151 120.716 183.299 118.584 182.591 116.617C181.976 114.916 182.889 113.472 185.012 112.75C188.08 111.711 189.875 112.3 190.665 112.744C191.937 113.459 192.409 114.796 191.783 115.922C191.219 116.935 189.814 117.412 187.916 117.24C187.803 117.227 187.721 117.28 187.711 117.299C187.649 117.352 187.69 117.392 187.7 117.405C188.326 118.14 190.091 118.65 191.742 118.557C192.676 118.505 194.358 118.207 195.077 116.823C195.918 115.194 195.497 113.393 193.938 111.996C192.44 110.651 190.152 109.91 187.495 109.91C181.463 109.91 176.21 114.585 175.287 120.782C174.302 127.397 178.293 132.913 182.55 134.747C185.279 135.919 189.414 136.052 192.163 135.052C193.548 134.549 195.169 133.535 195.036 131.589C194.902 129.622 193.712 128.278 191.783 127.9C190.388 127.636 188.839 127.96 188.018 128.702C187.187 129.45 187.403 130.304 188.654 131.238C189.044 131.536 189.137 131.953 188.87 132.304C188.603 132.655 188.049 132.86 187.464 132.847C185.792 132.794 184.284 132.284 183.422 131.476C182.745 130.847 182.14 129.721 183.043 127.914C183.966 126.073 185.967 124.848 188.654 124.451C191.455 124.04 194.605 124.616 196.472 125.888C198.503 127.265 199.95 131.529 197.775 134.595C196.533 136.35 193.651 138.396 186.982 138.197C182.776 138.071 179.278 136.998 176.6 135.012C171.347 131.112 170.711 124.768 171.122 121.961C171.409 119.941 172.014 115.737 178.149 110.387C180.334 108.48 183.504 107.447 187.054 107.453C187.69 107.453 188.336 107.486 188.993 107.552C193.61 108.029 197.734 110.095 199.016 112.578C200.124 114.724 199.714 116.796 197.867 118.412Z" fill="#86DAFF"/>
<path d="M244.464 108.87C249.317 108.923 252.682 112.591 252.712 112.624C252.805 112.724 252.959 112.796 253.143 112.823C253.328 112.849 253.513 112.816 253.656 112.75C267.999 105.811 302.623 110.274 306.768 111.128C307.27 111.234 307.752 111.34 308.235 111.446C312.061 112.287 315.365 113.015 322.884 111.121C330.917 109.095 336.293 108.877 336.344 108.877C336.693 108.863 336.96 108.678 336.95 108.453C336.939 108.228 336.652 108.049 336.303 108.049H244.474C244.126 108.049 243.838 108.234 243.828 108.459C243.828 108.678 244.115 108.863 244.464 108.87Z" fill="#86DAFF"/>
<path d="M309.197 114.089C307.34 113.115 304.806 112.923 302.272 113.559C302.046 113.612 301.892 113.745 301.862 113.897C301.831 114.049 301.933 114.201 302.128 114.287C302.559 114.48 303.708 115.128 303.883 115.81C303.954 116.095 303.862 116.353 303.575 116.605C302.385 117.678 298.014 117.744 289.315 114.718C282.236 112.261 275.978 110.348 267.176 110.348C266.129 110.348 265.042 110.374 263.923 110.434C263.595 110.447 263.349 110.619 263.328 110.831C263.318 111.043 263.544 111.222 263.872 111.255C264.006 111.268 277.599 112.712 284.144 115.83C285.15 116.307 286.175 116.824 287.16 117.327C292.987 120.273 299.02 123.326 306.581 121.478C309.361 120.803 311.115 119.558 311.515 117.969C311.885 116.519 310.992 115.029 309.197 114.089Z" fill="#86DAFF"/>
<path d="M285.068 118.922C284.812 118.928 284.576 119.034 284.483 119.193C284.391 119.352 284.463 119.531 284.658 119.644C284.955 119.816 285.766 120.425 285.601 120.941C285.448 121.438 284.422 121.756 283.591 121.941C281.344 122.444 279.61 121.193 276.974 119.114C275.281 117.776 273.362 116.267 270.839 115.154C264.704 112.446 258.189 111.598 257.912 111.565C257.871 111.559 257.83 111.559 257.789 111.559C257.502 111.559 257.235 111.684 257.163 111.87C257.081 112.082 257.276 112.3 257.594 112.366C257.666 112.38 265.34 113.936 269.967 117.617C271.259 118.65 272.316 119.849 273.342 121.001C276.061 124.073 278.861 127.258 286.217 127.093C289.213 127.027 291.449 126.285 292.516 125C293.46 123.848 293.316 122.378 292.126 121.153C290.71 119.69 288.053 118.849 285.068 118.922Z" fill="#86DAFF"/>
<path d="M268.365 121.101C268.119 121.068 267.873 121.127 267.719 121.253C267.565 121.379 267.545 121.551 267.668 121.697C267.678 121.703 268.201 122.398 267.781 122.842C267.432 123.206 266.488 123.385 265.041 123.365C263.205 123.339 262.672 122.332 261.82 120.392C260.907 118.306 259.655 115.459 255.121 113.393C255.008 113.34 254.875 113.32 254.752 113.32C254.598 113.32 254.444 113.353 254.321 113.426C254.095 113.559 254.044 113.771 254.198 113.936C254.239 113.989 258.783 119.18 259.091 122.769C259.45 126.888 263.656 128.239 267.463 128.133C269.832 128.066 272.305 126.226 272.551 124.352C272.767 122.69 271.238 121.498 268.365 121.101Z" fill="#86DAFF"/>
<path d="M225.269 118.412C227.033 119.955 229.957 120.835 233.096 120.782C236.984 120.716 239.836 118.584 240.544 116.617C241.16 114.916 240.247 113.472 238.123 112.75C235.056 111.711 233.26 112.3 232.47 112.744C231.198 113.459 230.726 114.796 231.352 115.922C231.916 116.935 233.322 117.412 235.22 117.24C235.333 117.227 235.415 117.28 235.425 117.299C235.487 117.352 235.446 117.392 235.435 117.405C234.81 118.14 233.045 118.65 231.393 118.557C230.46 118.505 228.777 118.207 228.059 116.823C227.218 115.194 227.638 113.393 229.198 111.996C230.696 110.651 232.983 109.91 235.641 109.91C241.673 109.91 246.925 114.585 247.849 120.782C248.834 127.397 244.843 132.913 240.585 134.747C237.856 135.919 233.722 136.052 230.973 135.052C229.588 134.549 227.967 133.535 228.1 131.589C228.233 129.622 229.423 128.278 231.352 127.9C232.747 127.636 234.297 127.96 235.117 128.702C235.948 129.45 235.733 130.304 234.481 131.238C234.091 131.536 233.999 131.953 234.266 132.304C234.532 132.655 235.087 132.86 235.671 132.847C237.344 132.794 238.852 132.284 239.713 131.476C240.39 130.847 240.996 129.721 240.093 127.914C239.17 126.073 237.169 124.848 234.481 124.451C231.68 124.04 228.531 124.616 226.664 125.888C224.633 127.265 223.186 131.529 225.361 134.595C226.602 136.35 229.485 138.396 236.153 138.197C240.36 138.071 243.858 136.998 246.536 135.012C251.788 131.112 252.424 124.768 252.014 121.961C251.727 119.941 251.121 115.737 244.986 110.387C242.801 108.48 239.631 107.447 236.082 107.453C235.446 107.453 234.799 107.486 234.143 107.552C229.526 108.029 225.402 110.095 224.12 112.578C223.001 114.724 223.412 116.796 225.269 118.412Z" fill="#86DAFF"/>
<path d="M143.303 68.773C145.043 70.093 146.663 71.413 148.143 72.713C149.143 71.373 150.023 69.853 150.763 68.153L152.663 69.153C151.823 71.053 150.863 72.733 149.763 74.173C151.163 75.473 152.463 76.753 153.643 78.033L152.023 79.673C150.983 78.393 149.763 77.113 148.383 75.813C146.703 77.553 144.783 78.893 142.623 79.813L141.403 77.933C143.443 77.093 145.243 75.873 146.763 74.313C145.263 72.973 143.603 71.613 141.783 70.233L143.303 68.773ZM138.403 65.613H154.523V67.613H140.423V80.593H155.143V82.593H138.403V65.613ZM170.743 76.673C169.783 79.693 168.023 81.953 165.483 83.433L164.223 81.713C166.623 80.413 168.223 78.333 169.003 75.493H165.263V73.513H169.403C169.523 72.673 169.583 71.793 169.583 70.893V69.673H166.103V67.693H169.583V64.873H171.603V67.693H175.903V73.513H177.423V75.493H172.143C173.303 78.053 175.143 80.133 177.643 81.733L176.203 83.413C173.763 81.593 171.943 79.353 170.743 76.673ZM171.603 69.673V70.413C171.603 71.513 171.543 72.553 171.423 73.513H173.863V69.673H171.603ZM159.243 69.953H161.223V64.953H163.283V69.953H165.403V71.993H163.283V77.853C164.123 77.533 164.943 77.193 165.743 76.833V78.913C163.783 79.793 161.703 80.553 159.483 81.153L158.943 79.033C159.703 78.873 160.463 78.713 161.223 78.513V71.993H159.243V69.953ZM191.543 75.873H195.023V74.033H191.963L191.563 72.313C192.123 71.373 192.663 70.193 193.143 68.753H191.423V66.933H193.703C193.883 66.273 194.063 65.593 194.223 64.893L196.063 65.333C195.923 65.893 195.783 66.413 195.643 66.933H199.143V68.753H195.083C194.643 70.053 194.183 71.213 193.683 72.213H195.023V69.733H196.943V72.213H198.943V74.033H196.943V75.873H199.523V77.713H196.943V80.593H195.023V77.713H191.543V75.873ZM188.963 65.173C189.803 66.413 190.463 67.473 190.943 68.393L189.383 69.473C188.903 68.473 188.243 67.353 187.443 66.133L188.963 65.173ZM196.523 81.173C197.643 81.173 198.723 81.153 199.723 81.113L199.183 83.073H196.363C195.763 83.073 195.163 83.053 194.563 83.033C193.683 83.013 192.863 82.893 192.143 82.673C191.463 82.433 190.883 82.053 190.423 81.533C190.163 81.253 189.943 81.133 189.763 81.133C189.503 81.133 188.983 81.873 188.183 83.393L186.983 81.813C187.723 80.653 188.363 79.853 188.903 79.453V73.233H187.583V71.393H190.803V79.633C191.163 80.093 191.643 80.453 192.203 80.733C192.803 80.933 193.483 81.073 194.243 81.133C195.003 81.153 195.763 81.173 196.523 81.173ZM183.003 64.933L184.983 65.353C184.863 65.913 184.743 66.433 184.623 66.933H187.243V68.913H184.063C183.823 69.653 183.563 70.353 183.283 70.993H186.983V72.853H185.583V74.733H187.543V76.653H185.583V80.393C186.023 80.113 186.483 79.793 186.923 79.413L187.283 81.213C186.283 81.913 185.123 82.493 183.803 82.953L183.023 81.233C183.383 81.073 183.583 80.813 183.583 80.453V76.653H181.583V74.733H183.583V72.853H182.863V71.913L182.583 72.473L180.943 71.433C181.923 69.393 182.603 67.233 183.003 64.933ZM206.223 72.253H218.583V79.913H206.223V72.253ZM216.543 78.073V76.993H208.263V78.073H216.543ZM208.263 75.233H216.543V74.093H208.263V75.233ZM204.103 66.453H211.383V64.833H213.423V66.453H220.703V68.373H215.243C216.723 69.493 218.823 70.393 221.583 71.073L220.683 72.953C217.343 71.813 214.923 70.333 213.423 68.513V71.673H211.383V68.513C209.803 70.293 207.423 71.773 204.243 72.953L203.103 71.113C205.943 70.353 208.103 69.453 209.603 68.373H204.103V66.453ZM203.703 80.953H221.043V82.853H203.703V80.953ZM237.343 67.633H231.923V65.593H243.323V67.633H239.463V72.573H243.043V74.513H239.463V80.673H243.743V82.713H231.323V80.673H233.143V70.533H235.183V80.673H237.343V67.633ZM227.983 65.013C229.223 65.993 230.263 66.953 231.143 67.913L229.723 69.373C228.963 68.433 227.903 67.433 226.523 66.393L227.983 65.013ZM225.123 70.773H229.823V78.833C230.343 78.353 230.883 77.853 231.443 77.293L231.983 79.493C230.763 80.653 229.463 81.713 228.103 82.653L227.303 80.753C227.663 80.473 227.843 80.113 227.843 79.673V72.773H225.123V70.773ZM249.123 73.093C248.643 73.733 248.143 74.333 247.623 74.933L246.923 72.693C248.723 70.413 250.083 67.733 250.963 64.653L252.923 65.573C252.483 67.073 251.903 68.493 251.183 69.853V83.413H249.123V73.093ZM252.463 67.193H258.203C257.943 66.553 257.663 65.953 257.363 65.353L259.363 64.813C259.763 65.673 260.063 66.473 260.263 67.193H265.643V69.153H252.463V67.193ZM254.263 70.213H263.963V72.073H254.263V70.213ZM254.263 73.033H263.963V74.913H254.263V73.033ZM264.403 76.013V83.373H262.383V82.373H255.843V83.373H253.803V76.013H264.403ZM255.843 80.393H262.383V77.953H255.843V80.393ZM271.983 66.173H276.403C276.643 65.693 276.823 65.193 276.943 64.673L279.143 64.973C279.023 65.393 278.863 65.793 278.663 66.173H284.903V76.393H271.983V66.173ZM282.883 74.633V73.473H274.003V74.633H282.883ZM274.003 71.833H282.883V70.713H274.003V71.833ZM274.003 69.073H282.883V67.953H274.003V69.073ZM270.883 77.493L272.843 77.893C272.383 79.753 271.743 81.373 270.923 82.733L269.163 81.593C269.983 80.313 270.563 78.933 270.883 77.493ZM280.983 83.073H275.903C274.503 83.073 273.803 82.393 273.803 81.073V77.473H275.923V80.613C275.923 81.013 276.103 81.233 276.503 81.233H280.583C280.903 81.233 281.143 81.113 281.303 80.913C281.503 80.693 281.623 80.013 281.683 78.893L283.683 79.553C283.503 81.273 283.203 82.293 282.783 82.613C282.383 82.913 281.783 83.073 280.983 83.073ZM278.603 76.653C279.523 77.653 280.263 78.513 280.783 79.253L279.203 80.333C278.683 79.533 277.963 78.613 277.063 77.613L278.603 76.653ZM284.963 77.053C286.123 78.613 287.003 79.973 287.643 81.133L285.963 82.293C285.323 81.033 284.443 79.633 283.323 78.073L284.963 77.053Z" fill="#232833"/>
</svg>
