<svg width="580" height="19" viewBox="0 0 580 19" fill="none" xmlns="http://www.w3.org/2000/svg">
<path fill-rule="evenodd" clip-rule="evenodd" d="M19.5922 10.5647H29.2324H422H423.5H549.8H559.44C559.44 10.5647 563.91 10.8247 564.77 13.4847C565.64 16.1447 561.57 16.0047 561.05 14.2647C560.6 12.7747 559.82 13.1747 559.52 13.7846C559.11 14.6147 559.06 18.2947 563.96 18.4847C568.85 18.6747 569.66 13.0047 566.19 10.5647H569.28C570.913 11.3623 572.009 12.7939 572.154 12.9838L572.165 12.9982L572.17 13.0047C572.31 13.1947 572.52 13.3146 572.75 13.3347H572.81C573.02 13.3347 573.22 13.2547 573.37 13.1047C576.42 10.0747 578.19 9.97465 578.22 9.97465H578.24C578.65 9.97465 578.99 9.66465 579.03 9.25465C579.06 8.83467 578.77 8.45466 578.36 8.39466C574.936 7.85447 573.521 6.06736 573.408 5.92369L573.4 5.91465C573.27 5.72465 573.05 5.60466 572.82 5.58467C572.58 5.56468 572.35 5.65468 572.19 5.82466C571.13 6.90468 570.02 7.54466 569.1 7.92466H566.19C569.66 5.49467 568.85 -0.185321 563.96 0.00465049C559.06 0.194653 559.11 3.87468 559.52 4.70466C559.82 5.31468 560.59 5.71467 561.05 4.22465C561.58 2.47465 565.64 2.33467 564.77 5.00465C563.91 7.67466 559.44 7.92466 559.44 7.92466H549.8L423.5 7.91465H422L29.2324 7.92466H19.5922C19.5922 7.92466 15.1222 7.67466 14.2621 5.00465C13.3921 2.33467 17.4521 2.47465 17.9822 4.22465C18.4422 5.71467 19.2121 5.31468 19.5121 4.70466C19.9222 3.87468 19.9722 0.194653 15.0721 0.00465049C10.1821 -0.185321 9.37212 5.49467 12.8422 7.92466H9.93218C9.01217 7.54466 7.90215 6.90468 6.84215 5.82466C6.68212 5.65468 6.45217 5.56468 6.21215 5.58467C5.98217 5.60466 5.76214 5.72465 5.63213 5.91465L5.62487 5.92369C5.51116 6.06736 4.09664 7.85447 0.67217 8.39466C0.262136 8.45466 -0.027842 8.83467 0.00212626 9.25465C0.0421348 9.66465 0.382131 9.97465 0.792165 9.97465H0.812124C0.842153 9.97465 2.61214 10.0747 5.66216 13.1047C5.81212 13.2547 6.01214 13.3347 6.22216 13.3347H6.28216C6.51214 13.3146 6.72216 13.1947 6.86217 13.0047C6.86217 13.0047 6.86883 12.9963 6.87838 12.9838C7.02373 12.7939 8.11938 11.3623 9.75213 10.5647H12.8422C9.37212 13.0047 10.1821 18.6747 15.0721 18.4847C19.9722 18.2947 19.9222 14.6147 19.5121 13.7846C19.2121 13.1747 18.4321 12.7747 17.9822 14.2647C17.4621 16.0047 13.3921 16.1447 14.2621 13.4847C15.1222 10.8247 19.5922 10.5647 19.5922 10.5647Z" fill="#86DAFF"/>
</svg>
