<svg width="25" height="25" viewBox="0 0 25 25" fill="none" xmlns="http://www.w3.org/2000/svg">
<path d="M10.6013 2.19247C11.7762 1.51412 13.2238 1.51412 14.3987 2.19247L20.4772 5.70188C21.6522 6.38024 22.3759 7.63388 22.3759 8.99059V16.0094C22.3759 17.3661 21.6522 18.6198 20.4772 19.2981L14.3987 22.8075C13.2238 23.4859 11.7762 23.4859 10.6013 22.8075L4.52278 19.2981C3.34784 18.6198 2.62405 17.3661 2.62405 16.0094V8.99059C2.62405 7.63388 3.34784 6.38024 4.52278 5.70188L10.6013 2.19247Z" stroke="currentColor" stroke-width="1.89873"/>
<path d="M12.3418 7.91113V12.658" stroke="currentColor" stroke-width="1.89873" stroke-linecap="round" stroke-linejoin="round"/>
<path d="M12.1025 12.9746L8.22747 15.7162" stroke="currentColor" stroke-width="1.89873" stroke-linecap="round" stroke-linejoin="round"/>
<path d="M16.6963 15.4707L12.6585 12.9749" stroke="currentColor" stroke-width="1.89873" stroke-linecap="round" stroke-linejoin="round"/>
</svg>
