<svg xmlns="http://www.w3.org/2000/svg" width="21" height="20" viewBox="0 0 21 20" fill="none">
  <path
    d="M15.956 14.962L18.4014 17.4027C18.5186 17.5331 18.5773 17.6795 18.5773 17.8419C18.5773 18.0044 18.5153 18.1477 18.3913 18.2718C18.2674 18.396 18.1238 18.4578 17.9606 18.4574C17.7974 18.457 17.6507 18.3985 17.5205 18.2818L15.0751 15.8412C13.3405 17.26 11.4167 17.9076 9.30351 17.7838C7.19036 17.6601 5.3579 16.7976 3.80611 15.1963C2.31902 13.5171 1.59509 11.623 1.63433 9.51392C1.67356 7.40483 2.46928 5.54319 4.02148 3.92899C5.63879 2.37978 7.50402 1.58559 9.61717 1.54643C11.7303 1.50727 13.6281 2.22981 15.3105 3.71404C16.9149 5.26326 17.7791 7.0922 17.903 9.20087C18.027 11.3095 17.3782 13.2297 15.9566 14.9614L15.956 14.962ZM9.77368 16.5435C11.7303 16.4914 13.3541 15.821 14.645 14.5321C15.936 13.2432 16.6077 11.6226 16.6603 9.67013C16.6081 7.71726 15.9364 6.0966 14.645 4.80816C13.3537 3.51971 11.7299 2.84925 9.77368 2.79676C7.81705 2.84883 6.19327 3.5193 4.90234 4.80816C3.61141 6.09702 2.93965 7.71768 2.88706 9.67013C2.93924 11.623 3.61099 13.2437 4.90234 14.5321C6.19368 15.8205 7.81746 16.491 9.77368 16.5435Z"
    fill="#606266" />
</svg>