<svg width="24" height="24" viewBox="0 0 24 24" fill="none" xmlns="http://www.w3.org/2000/svg">
<g id="&#230;&#148;&#182;&#232;&#151;&#143;12">
<path id="Star 1" d="M10.4936 5.46524C11.132 3.82175 11.4511 3 12 3C12.5489 3 12.868 3.82175 13.5064 5.46524L13.5361 5.54177C13.8968 6.47027 14.0771 6.93451 14.4446 7.21669C14.8121 7.49886 15.2945 7.54348 16.2594 7.63272L16.4338 7.64885C18.0129 7.7949 18.8025 7.86793 18.9714 8.38669C19.1404 8.90545 18.554 9.45637 17.3813 10.5582L16.9899 10.9259C16.3963 11.4837 16.0994 11.7626 15.9611 12.1281C15.9353 12.1963 15.9138 12.2661 15.8969 12.3372C15.8059 12.7183 15.8928 13.1228 16.0667 13.932L16.1208 14.1838C16.4403 15.6709 16.6 16.4144 16.3211 16.7351C16.2169 16.855 16.0814 16.9413 15.931 16.9837C15.5283 17.0971 14.9566 16.616 13.8131 15.6538C13.0623 15.022 12.6869 14.7061 12.2559 14.635C12.0864 14.6071 11.9136 14.6071 11.7441 14.635C11.3131 14.7061 10.9377 15.022 10.1869 15.6538C9.04343 16.616 8.47172 17.0971 8.06904 16.9837C7.91856 16.9413 7.78311 16.855 7.67889 16.7351C7.39998 16.4144 7.55972 15.6709 7.8792 14.1838L7.93331 13.932C8.10715 13.1228 8.19407 12.7183 8.10313 12.3372C8.08617 12.2661 8.06472 12.1963 8.03891 12.1281C7.90056 11.7626 7.60374 11.4837 7.01009 10.9259L6.6187 10.5582C5.44599 9.45637 4.85964 8.90545 5.02858 8.38669C5.19753 7.86793 5.98708 7.7949 7.56618 7.64885L7.74062 7.63272C8.70547 7.54348 9.18789 7.49886 9.5554 7.21669C9.92291 6.93451 10.1032 6.47027 10.4639 5.54177L10.4936 5.46524Z" stroke="#707070" stroke-width="1.2"/>
</g>
</svg>
