<svg width="20" height="20" viewBox="0 0 20 20" fill="none" xmlns="http://www.w3.org/2000/svg">
<path d="M9.17598 1.19845C9.57334 0.620541 10.4267 0.62054 10.824 1.19845L13.3321 4.84619C13.4618 5.03487 13.6524 5.17331 13.8719 5.23839L18.1161 6.49649C18.7885 6.69581 19.0522 7.50737 18.6254 8.06386L15.9312 11.5764C15.7919 11.7581 15.7191 11.9821 15.725 12.211L15.8401 16.6363C15.8583 17.3374 15.1679 17.8389 14.5068 17.6049L10.3336 16.1281C10.1178 16.0517 9.88223 16.0517 9.66638 16.1281L5.49322 17.6049C4.83207 17.8389 4.14171 17.3374 4.15994 16.6363L4.27495 12.211C4.2809 11.9821 4.20812 11.7581 4.06876 11.5764L1.3746 8.06386C0.947758 7.50737 1.21145 6.69581 1.88386 6.49649L6.1281 5.23839C6.34764 5.17331 6.53819 5.03487 6.66792 4.84619L9.17598 1.19845Z" fill="#D9D9D9"/>
<path d="M7 10.5L9.5 12.5L13.5 8" stroke="white" stroke-linecap="round" stroke-linejoin="round"/>
</svg>
