<svg width="20" height="20" viewBox="0 0 20 20" fill="none" xmlns="http://www.w3.org/2000/svg">
<g id="&#230;&#148;&#182;&#232;&#151;&#143;">
<path id="Star 1" d="M8.70879 6.11306C9.25596 4.70435 9.52954 4 10 4C10.4705 4 10.744 4.70436 11.2912 6.11307L11.3167 6.17866C11.6258 6.97451 11.7804 7.37244 12.0954 7.61431C12.4104 7.85617 12.8239 7.89441 13.6509 7.9709L13.8004 7.98473C15.1539 8.10992 15.8307 8.17251 15.9755 8.61716C16.1203 9.06182 15.6177 9.53403 14.6125 10.4785L14.2771 10.7937C13.7682 11.2717 13.5138 11.5108 13.3952 11.8241C13.3731 11.8825 13.3547 11.9424 13.3402 12.0033C13.2622 12.3299 13.3367 12.6767 13.4857 13.3703L13.5321 13.5861C13.806 14.8608 13.9429 15.4981 13.7038 15.773C13.6145 15.8757 13.4984 15.9496 13.3694 15.986C13.0242 16.0833 12.5342 15.6709 11.5541 14.8461C10.9106 14.3046 10.5888 14.0338 10.2194 13.9729C10.074 13.9489 9.92596 13.9489 9.78064 13.9729C9.41121 14.0338 9.08943 14.3046 8.44588 14.8461C7.4658 15.6709 6.97576 16.0833 6.6306 15.986C6.50163 15.9496 6.38552 15.8757 6.29619 15.773C6.05712 15.4981 6.19405 14.8608 6.46789 13.5861L6.51427 13.3703C6.66327 12.6767 6.73777 12.3299 6.65983 12.0033C6.64529 11.9424 6.6269 11.8825 6.60478 11.8241C6.4862 11.5108 6.23178 11.2717 5.72294 10.7937L5.38746 10.4785C4.38228 9.53403 3.87969 9.06182 4.0245 8.61716C4.16931 8.17251 4.84607 8.10992 6.19959 7.98473L6.3491 7.9709C7.17612 7.89441 7.58962 7.85617 7.90463 7.61431C8.21963 7.37244 8.37419 6.97451 8.68332 6.17866L8.70879 6.11306Z" fill="#115EE8" stroke="#115EE8" stroke-width="1.2"/>
</g>
</svg>
