<svg width="20" height="20" viewBox="0 0 20 20" fill="none" xmlns="http://www.w3.org/2000/svg">
<rect width="20" height="20" fill="white"/>
<path d="M8.60119 5.78915C9.19396 4.26305 9.49034 3.5 10 3.5C10.5097 3.5 10.806 4.26305 11.3988 5.78915L11.4264 5.86022C11.7613 6.72239 11.9287 7.15348 12.27 7.4155C12.6112 7.67752 13.0592 7.71895 13.9551 7.80181L14.1171 7.81679C15.5834 7.95241 16.3166 8.02022 16.4735 8.50193C16.6303 8.98364 16.0859 9.4952 14.9969 10.5183L14.6335 10.8598C14.0822 11.3777 13.8066 11.6367 13.6782 11.9761C13.6542 12.0394 13.6343 12.1043 13.6185 12.1703C13.5341 12.5241 13.6148 12.8998 13.7762 13.6511L13.8265 13.885C14.1231 15.2658 14.2714 15.9563 14.0125 16.2541C13.9157 16.3653 13.7899 16.4455 13.6502 16.4848C13.2763 16.5902 12.7454 16.1435 11.6836 15.25C10.9865 14.6633 10.6379 14.3699 10.2376 14.3039C10.0802 14.278 9.91979 14.278 9.76237 14.3039C9.36214 14.3699 9.01355 14.6633 8.31636 15.25C7.25462 16.1435 6.72374 16.5902 6.34982 16.4848C6.21009 16.4455 6.08432 16.3653 5.98754 16.2541C5.72855 15.9563 5.87688 15.2658 6.17354 13.885L6.22379 13.6511C6.38521 12.8998 6.46592 12.5241 6.38148 12.1703C6.36573 12.1043 6.34581 12.0394 6.32184 11.9761C6.19338 11.6367 5.91776 11.3777 5.36652 10.8598L5.00308 10.5183C3.91414 9.4952 3.36966 8.98364 3.52654 8.50193C3.68342 8.02022 4.41657 7.95241 5.88289 7.81679L6.04486 7.80181C6.94079 7.71895 7.38876 7.67752 7.73001 7.4155C8.07127 7.15348 8.23871 6.72239 8.57359 5.86022L8.60119 5.78915Z" stroke="#999999" stroke-width="1.2"/>
</svg>
