<svg width="40" height="40" viewBox="0 0 40 40" fill="none" xmlns="http://www.w3.org/2000/svg">
<path d="M20 0C8.95446 0 0 8.95446 0 20C0 31.0455 8.95446 40 20 40C31.0455 40 40 31.046 40 20C40 8.95402 31.0455 0 20 0ZM29.8491 15.4545L18.2321 27.071C18.0663 27.2368 17.8695 27.3684 17.6528 27.4581C17.4361 27.5478 17.2039 27.594 16.9694 27.594C16.7349 27.594 16.5027 27.5478 16.286 27.4581C16.0694 27.3684 15.8725 27.2368 15.7067 27.071L10.1509 21.5152C9.98506 21.3494 9.85352 21.1525 9.76377 20.9358C9.67403 20.7192 9.62784 20.487 9.62784 20.2525C9.62784 20.0179 9.67403 19.7857 9.76377 19.5691C9.85352 19.3524 9.98506 19.1556 10.1509 18.9897C10.3167 18.8239 10.5136 18.6924 10.7302 18.6026C10.9469 18.5129 11.1791 18.4667 11.4136 18.4667C11.6481 18.4667 11.8803 18.5129 12.097 18.6026C12.3137 18.6924 12.5105 18.8239 12.6763 18.9897L16.9696 23.283L27.3237 12.929C27.4895 12.7632 27.6863 12.6316 27.903 12.5419C28.1197 12.4522 28.3519 12.406 28.5864 12.406C28.8209 12.406 29.0531 12.4522 29.2698 12.5419C29.4864 12.6316 29.6833 12.7632 29.8491 12.929C30.0149 13.0948 30.1465 13.2917 30.2362 13.5084C30.326 13.725 30.3722 13.9572 30.3722 14.1917C30.3722 14.4263 30.326 14.6585 30.2362 14.8751C30.1465 15.0918 30.0149 15.2886 29.8491 15.4545Z" fill="#0CC399"/>
</svg>
