<svg width="17" height="16" viewBox="0 0 17 16" fill="none" xmlns="http://www.w3.org/2000/svg">
  <g id="CollectionTag">
    <path id="Vector"
      d="M4.5 2V12.92L7.563 10.469C7.82896 10.2562 8.15941 10.1403 8.5 10.1403C8.84059 10.1403 9.17104 10.2562 9.437 10.469L12.5 12.919V2H4.5ZM4 1H13C13.1326 1 13.2598 1.05268 13.3536 1.14645C13.4473 1.24021 13.5 1.36739 13.5 1.5V13.96C13.4999 14.0541 13.4732 14.1462 13.423 14.2258C13.3729 14.3054 13.3013 14.3693 13.2165 14.41C13.1317 14.4507 13.0371 14.4667 12.9436 14.4561C12.8501 14.4455 12.7615 14.4087 12.688 14.35L8.812 11.25C8.7234 11.1792 8.61338 11.1407 8.5 11.1407C8.38662 11.1407 8.2766 11.1792 8.188 11.25L4.312 14.35C4.23848 14.4087 4.14989 14.4455 4.0564 14.4561C3.96292 14.4667 3.86834 14.4507 3.78353 14.41C3.69872 14.3693 3.62712 14.3054 3.57697 14.2258C3.52681 14.1462 3.50013 14.0541 3.5 13.96V1.5C3.5 1.36739 3.55268 1.24021 3.64645 1.14645C3.74021 1.05268 3.86739 1 4 1Z"
      fill="currentColor" />
  </g>
</svg>
