<svg width="13" height="14" viewBox="0 0 13 14" fill="none" xmlns="http://www.w3.org/2000/svg">
<path d="M8.8916 5.9346L7.92863 6.29319V9.86125L8.88503 9.5025C9.32555 9.33895 9.67788 9.03676 9.955 8.59623C10.2321 8.15571 10.3703 7.66505 10.3703 7.11126C10.3766 5.95967 9.87965 5.56347 8.8916 5.9346ZM9.50837 8.32584C9.34481 8.60265 9.12455 8.79143 8.84131 8.89843L8.52032 9.01796V6.6897L8.84131 6.57001C9.11186 6.46943 9.32586 6.48823 9.49568 6.62045C9.66565 6.75878 9.74743 7.00427 9.74743 7.35659C9.74743 7.72787 9.67192 8.04887 9.50837 8.32584ZM4.43231 7.80965V7.79712C4.91059 7.85383 5.14965 7.65955 5.14965 7.22453C5.14965 6.96651 5.04265 6.7274 4.82866 6.50719C4.61467 6.28698 4.3378 6.11706 3.99806 5.99742C3.66468 5.87789 3.36876 5.84014 3.12343 5.87162V6.45048C3.34996 6.38139 3.58275 6.39392 3.82824 6.4757C4.19952 6.60777 4.38187 6.80923 4.38187 7.09858C4.38187 7.40062 4.14281 7.46986 3.65826 7.30004L3.36249 7.19931V7.73429L3.68348 7.84741C3.9415 7.9356 4.13654 8.04887 4.28129 8.18108C4.42604 8.3133 4.49529 8.4579 4.49529 8.61519C4.49529 8.76621 4.43858 8.86694 4.31905 8.91096C4.19952 8.95498 4.03581 8.93618 3.8345 8.86694C3.51351 8.75367 3.23669 8.57117 2.99121 8.31942V8.93618C3.21789 9.13122 3.51351 9.28851 3.88479 9.42072C4.30009 9.56548 4.63377 9.59681 4.88537 9.5025C5.13712 9.4143 5.26292 9.20673 5.26292 8.89216C5.26292 8.68448 5.18741 8.48307 5.03639 8.28793C4.88537 8.07393 4.68406 7.92307 4.43231 7.80965Z" fill="#A6A6A6"/>
<path d="M1.25416 3.66833L6.04012 1.27535C6.38583 1.1025 6.79363 1.10674 7.13567 1.28676L11.6497 3.66258C12.044 3.87008 12.2908 4.27894 12.2908 4.72448V9.5406C12.2908 10.0043 12.0236 10.4266 11.6045 10.6251L7.09162 12.7628C6.77388 12.9133 6.40611 12.9169 6.08548 12.7726L1.29838 10.6184C0.867762 10.4246 0.59082 9.99631 0.59082 9.5241V4.74164C0.59082 4.28711 0.847623 3.8716 1.25416 3.66833Z" stroke="#A6A6A6" stroke-width="0.9" stroke-linecap="round"/>
<path d="M3.59082 4.59961L6.02327 5.62103C6.39582 5.77747 6.81444 5.78377 7.19154 5.63862L9.89082 4.59961" stroke="#A6A6A6" stroke-width="0.9" stroke-linecap="round"/>
<path d="M6.59082 9.69961L6.59082 6.09961" stroke="#A6A6A6" stroke-width="0.9" stroke-linecap="round"/>
</svg>
