<svg width="271" height="130" viewBox="0 0 271 130" fill="none" xmlns="http://www.w3.org/2000/svg">
<path d="M161.5 54.0001H115.5C121.264 51.0716 124.739 33.5068 124 27.0001C123.815 24.9667 125.645 19.4904 129.5 16.5C136.145 9.99076 151.524 15.1795 151.524 27.9902C150.194 43.119 158.359 51.7633 161.5 54.0001Z" fill="#232833"/>
<path d="M103.979 40.6224L132.636 44.8432C133.24 44.9321 133.782 44.4642 133.782 43.8539V40.4277C133.782 39.3232 134.677 38.4277 135.782 38.4277H139.5C140.605 38.4277 141.5 39.3232 141.5 40.4277V42.7392C141.5 43.9447 142.559 44.8763 143.754 44.723L165 42L173.59 40.5684C173.86 40.5233 174.137 40.5343 174.404 40.6009L183.767 42.9416C183.922 42.9804 184.072 43.0376 184.213 43.1121L193.175 47.8289C193.39 47.942 193.582 48.0934 193.743 48.2755L201 56.5L206.381 65.3056C206.46 65.4348 206.524 65.5725 206.572 65.7161L218.397 101.192C218.465 101.396 218.5 101.61 218.5 101.825V127.5C218.5 128.605 217.605 129.5 216.5 129.5H151H70H47.9034C47.0611 129.5 46.3091 128.972 46.0227 128.18L38.3776 107.044C38.1428 106.395 38.2594 105.67 38.6863 105.127L67.3737 68.651C67.4927 68.4998 67.5907 68.3278 67.6626 68.1493C77.2326 44.3922 95.8417 39.8936 103.979 40.6224Z" fill="white"/>
<path d="M78.1321 82.6537L90.9897 117.877C91.0609 118.073 91.1013 118.278 91.1094 118.485L91.419 126.422C91.4632 127.556 90.5556 128.5 89.4205 128.5H70H52.4415C51.5807 128.5 50.8164 127.949 50.5442 127.132L42 101.5L36.9159 87.1722C36.6613 86.4545 36.0211 85.9437 35.2648 85.8547L19.9765 84.0561C19.6633 84.0192 19.3632 83.9088 19.1008 83.7339L15.5038 81.3359C15.1753 81.1169 14.7893 81 14.3944 81H13.9332C13.6477 81 13.3655 80.9389 13.1056 80.8207L8.55571 78.7526C8.19348 78.5879 7.8886 78.319 7.68005 77.9801L4.94583 73.5376C4.66096 73.0747 4.57672 72.5159 4.71252 71.9896L6 67L11.4704 62.9618C11.8144 62.7079 12.2307 62.5709 12.6582 62.5709H27.1911C27.3716 62.5709 27.5178 62.4246 27.5178 62.2442V62.048C27.5178 60.9461 27.7529 59.8569 28.2072 58.853C30.2395 54.3631 35.8919 52.8867 39.8604 55.8091L43.5 58.4895C45.1641 59.715 47.1766 60.3761 49.2433 60.3761H59.3975C62.6891 60.3761 65.802 61.8737 67.8563 64.4456L68.0022 64.6282C72.332 70.0489 75.7532 76.1366 78.1321 82.6537Z" fill="white"/>
<path d="M197.368 82.6537L184.51 117.877C184.439 118.073 184.399 118.278 184.391 118.485L184.081 126.422C184.037 127.556 184.944 128.5 186.08 128.5H205.5H223.058C223.919 128.5 224.684 127.949 224.956 127.132L233.5 101.5L238.584 87.1722C238.839 86.4545 239.479 85.9437 240.235 85.8547L255.523 84.0561C255.837 84.0192 256.137 83.9088 256.399 83.7339L259.996 81.3359C260.325 81.1169 260.711 81 261.106 81H261.567C261.852 81 262.134 80.9389 262.394 80.8207L266.944 78.7526C267.307 78.5879 267.611 78.319 267.82 77.9801L270.554 73.5376C270.839 73.0747 270.923 72.5159 270.787 71.9896L269.5 67L264.03 62.9618C263.686 62.7079 263.269 62.5709 262.842 62.5709H248.309C248.128 62.5709 247.982 62.4246 247.982 62.2442V62.048C247.982 60.9461 247.747 59.8569 247.293 58.853C245.261 54.3631 239.608 52.8867 235.64 55.8091L232 58.4895C230.336 59.715 228.323 60.3761 226.257 60.3761H216.103C212.811 60.3761 209.698 61.8737 207.644 64.4456L207.498 64.6282C203.168 70.0489 199.747 76.1366 197.368 82.6537Z" fill="white"/>
<path d="M153.71 32.2878L153.806 31.6182C154.069 29.7687 152.366 28.2466 150.557 28.7163L148.867 37.1124L152.407 34.4796C153.116 33.952 153.585 33.1629 153.71 32.2878Z" fill="white" stroke="#232833"/>
<path d="M123.149 32.2878L123.054 31.6182C122.79 29.7687 124.494 28.2466 126.302 28.7163L127.992 37.1124L124.453 34.4796C123.743 33.952 123.274 33.1629 123.149 32.2878Z" fill="white" stroke="#232833"/>
<path d="M149 30C149 36.3715 144.055 41.5 138 41.5C131.945 41.5 127 36.3715 127 30C127 23.6285 131.945 18.5 138 18.5C144.055 18.5 149 23.6285 149 30Z" fill="white" stroke="#232833"/>
<path d="M129.894 25.9704C129.455 28.7855 127.282 29.3045 126 29.5L126.599 21.8649L134.838 16L143.333 17.1496L151.317 27.7299C149.669 27.7299 149.669 35.3543 149.12 32.4219C148.366 28.3961 145.275 25.9704 140.331 27.7299C136.376 29.1375 133.556 27.1434 132.641 25.9704C131.908 24.7974 130.334 23.1552 129.894 25.9704Z" fill="#232833"/>
<ellipse cx="133.487" cy="33.5939" rx="1.09859" ry="1.17299" fill="#232833"/>
<ellipse cx="143.374" cy="33.5939" rx="1.09859" ry="1.17299" fill="#232833"/>
<path d="M138.541 28.9033L137.233 34.6717C136.986 35.7629 137.682 36.8447 138.777 37.0721L138.98 37.1142" stroke="#232833" stroke-linecap="round"/>
<path d="M87.4998 110L78.04 82.8566C75.7234 76.2092 72.2645 69.9647 67.8711 64.4644V64.4644C65.8168 61.8926 62.6889 60.3761 59.3973 60.3761H49.2431C47.1764 60.3761 45.1639 59.715 43.4998 58.4895L39.8601 55.8091C35.8917 52.8867 30.2392 54.3631 28.207 58.853V58.853C27.7526 59.8569 27.5176 60.9461 27.5176 62.048V62.5709" stroke="#232833" stroke-linecap="round"/>
<path d="M44.7371 62.5703H14.1449C9.09433 62.5703 5 66.6646 5 71.7152V71.7152C5 76.7658 9.09432 80.8602 14.1449 80.8602H14.9343" stroke="#232833" stroke-linecap="round"/>
<path d="M67.9171 65.4961H21.9903C16.6905 65.4961 12.4512 69.8983 12.651 75.1944V75.1944C12.8223 79.737 16.2374 83.4976 20.7426 84.1045L40.1011 86.7123" stroke="#232833" stroke-linecap="round"/>
<path d="M51.3593 129.144L36.7891 86.7119" stroke="#232833"/>
<path d="M68.5 66C74.603 45.8131 88.6403 41.1618 101.489 40.6689C103.146 40.6053 104.802 40.7437 106.443 40.9853L132.636 44.8432C133.24 44.9321 133.781 44.4642 133.781 43.8539V40.4277M87.4999 104.5C87.4999 104.5 86.5 104 85.5 104" stroke="#232833"/>
<path d="M86.0977 127.683L88.7468 92.5664" stroke="#232833" stroke-linecap="round"/>
<path d="M187.5 109.5L197.205 82.6915C199.573 76.1501 202.995 70.0404 207.337 64.6048L207.464 64.4456C209.519 61.8737 212.631 60.3761 215.923 60.3761H226.077C228.144 60.3761 230.156 59.715 231.821 58.4895L235.46 55.8091C239.429 52.8867 245.081 54.3631 247.113 58.853V58.853C247.568 59.8569 247.803 60.9461 247.803 62.048V62.5709" stroke="#232833" stroke-linecap="round"/>
<path d="M230.583 62.5703H261.175C266.226 62.5703 270.32 66.6646 270.32 71.7152V71.7152C270.32 76.7658 266.226 80.8602 261.175 80.8602H260.386" stroke="#232833" stroke-linecap="round"/>
<path d="M207.403 65.4961H253.33C258.63 65.4961 262.869 69.8983 262.669 75.1944V75.1944C262.498 79.737 259.083 83.4976 254.578 84.1045L235.219 86.7123" stroke="#232833" stroke-linecap="round"/>
<path d="M238.058 86.5495C238.148 86.2884 238.432 86.1493 238.694 86.239C238.955 86.3287 239.094 86.6131 239.004 86.8743L238.058 86.5495ZM223.488 128.982L238.058 86.5495L239.004 86.8743L224.434 129.307L223.488 128.982Z" fill="#232833"/>
<path d="M206.5 65.5C202.704 52.9437 196.35 46.5684 188.8 43.4372C177.854 38.8971 165.456 41.4892 153.733 43.216L142.685 44.8432C142.081 44.9321 141.539 44.4642 141.539 43.8539V40.4277M187.5 105L190 103" stroke="#232833"/>
<path d="M189.223 127.683L186.574 92.5664" stroke="#232833" stroke-linecap="round"/>
<path d="M145 45C145 48.0588 142.069 51 138 51C133.931 51 131 48.0588 131 45" stroke="#232833" stroke-linecap="round"/>
<mask id="mask0_1708_4523" style="mask-type:alpha" maskUnits="userSpaceOnUse" x="122" y="69" width="45" height="60">
<path d="M144.171 97.6235C134.356 95.3426 129.217 89.4786 126.645 84.3565C124.579 80.241 124.457 75.5073 124.457 70.9021C124.457 69.8516 125.309 69 126.359 69H162.087C163.017 69 163.771 69.754 163.771 70.684C163.771 75.4356 163.662 80.3284 161.463 84.5402C158.767 89.7012 153.558 95.404 144.5 97.5444C144.39 97.5705 144.28 97.5969 144.171 97.6236C160.467 101.411 164.664 111.815 166.064 120.19C166.182 120.896 166.229 121.61 166.229 122.325V126.036C166.229 127.14 165.333 128.036 164.229 128.036H124C122.895 128.036 122 127.14 122 126.036V122.722C122 121.742 122.065 120.769 122.262 119.81C123.278 114.849 127.231 101.782 144.171 97.6236C144.171 97.6236 144.171 97.6235 144.171 97.6235Z" fill="#D9D9D9"/>
</mask>
<g mask="url(#mask0_1708_4523)">
<rect x="122" y="103" width="47" height="26" fill="#115EE8"/>
<rect x="122" y="93" width="47" height="5" fill="#115EE8"/>
<path d="M145 98V104" stroke="#115EE8" stroke-width="2"/>
</g>
<path d="M144.671 97.4096C134.856 95.1287 129.717 89.2647 127.145 84.1426C125.079 80.0271 124.957 75.2934 124.957 70.6882V70.6882C124.957 69.6377 125.809 68.7861 126.859 68.7861H162.587C163.517 68.7861 164.271 69.5401 164.271 70.4702V70.4702C164.271 75.2218 164.162 80.1145 161.963 84.3263C159.267 89.4873 154.058 95.1901 145 97.3306C127.782 101.4 123.785 114.603 122.762 119.596C122.565 120.556 122.5 121.529 122.5 122.508V125.822C122.5 126.926 123.395 127.822 124.5 127.822H164.729C165.833 127.822 166.729 126.927 166.729 125.822C166.729 124.847 166.729 123.727 166.729 122.111C166.729 121.396 166.682 120.682 166.564 119.977C165.164 111.601 160.967 101.197 144.671 97.4096Z" stroke="#232833"/>
<path d="M119 68L170 67" stroke="#232833" stroke-width="3"/>
<path d="M89.0245 2.49746L84.2003 4.86274" stroke="#115EE8" stroke-linecap="round"/>
<path d="M87.8134 6.08341L85.4118 1.27711" stroke="#115EE8" stroke-linecap="round"/>
<circle opacity="0.27" cx="255" cy="47" r="1.5" stroke="black"/>
<circle opacity="0.27" cx="38" cy="34" r="3.5" stroke="#115EE8"/>
<path d="M226.407 16.3848L226.678 19.8229C226.799 21.3685 225.192 22.4587 223.801 21.7741L222.596 21.1812C221.284 20.5359 219.746 21.4693 219.713 22.9305L219.656 25.4607C219.624 26.8921 218.142 27.8268 216.836 27.2394L215.224 26.5143C213.841 25.8918 212.295 26.976 212.409 28.4888L212.725 32.6679" stroke="#4F8EFE" stroke-linecap="round"/>
<path d="M41 129H249" stroke="#232833" stroke-width="2"/>
</svg>
