<svg width="54" height="25" viewBox="0 0 54 25" fill="none" xmlns="http://www.w3.org/2000/svg">
<rect x="8.84961" y="3.41113" width="44.3369" height="17.0527" rx="2.13158" fill="url(#paint0_linear_3255_16562)"/>
<rect x="9.06277" y="3.62429" width="43.9106" height="16.6263" rx="1.91842" stroke="#B5B5B5" stroke-width="0.426317"/>
<path d="M26.6484 8.74192H27.2794V9.91003H30.2039V10.5069H27.2794V12.016H30.6558V12.6129H27.8421C28.4134 13.6872 29.4024 14.6421 30.8008 15.4862L30.3744 16.0319C28.925 15.0088 27.9103 13.8748 27.3476 12.6129H27.2794V16.5009H26.6484V12.6129H26.5717C25.9578 14.0112 24.9261 15.1537 23.4766 16.0575L23.1271 15.4862C24.4913 14.7359 25.4803 13.781 26.0942 12.6129H23.272V12.016H26.6484V10.5069H23.7836V9.91003H26.6484V8.74192ZM36.5731 8.75045H37.204C37.204 9.46666 37.1784 10.1402 37.1273 10.7541C37.5792 12.9369 38.3636 14.6762 39.4806 15.9552L39.0372 16.4668C38.1249 15.3072 37.4342 13.8748 36.9568 12.1866C36.9141 12.4253 36.8715 12.647 36.8289 12.8687C36.5049 14.3352 35.7801 15.5459 34.6461 16.4838L34.2283 15.9808C35.2174 15.1452 35.8824 14.0965 36.2064 12.826C36.4452 11.7602 36.5731 10.4046 36.5731 8.75045ZM32.6083 8.79308C33.1881 9.22792 33.6741 9.66276 34.0663 10.1061L33.6485 10.5325C33.2904 10.1147 32.7959 9.67129 32.182 9.21087L32.6083 8.79308ZM31.6108 11.3169H33.4524V15.0429C33.7594 14.7871 34.0919 14.4972 34.4415 14.1647L34.595 14.7956C34.0663 15.2987 33.5036 15.7506 32.9068 16.1428L32.668 15.5971C32.7959 15.4948 32.8641 15.3669 32.8641 15.2305V11.9052H31.6108V11.3169ZM45.4149 9.71392H43.019V9.10855H47.8023V9.71392H46.0373V12.1098H47.6829V12.6811H46.0373V15.6312H47.9728V16.2366H42.7547V15.6312H43.6244V11.1208H44.2212V15.6312H45.4149V9.71392ZM41.1688 8.79308C41.723 9.23645 42.1919 9.67129 42.5756 10.1061L42.1578 10.5325C41.8082 10.1061 41.3393 9.66276 40.7425 9.19382L41.1688 8.79308ZM40.1286 11.3169H41.9532V15.0002C42.226 14.7615 42.5159 14.4887 42.8314 14.1817L42.9934 14.8382C42.4989 15.3157 41.9788 15.7506 41.4246 16.1343L41.1858 15.58C41.3052 15.4777 41.3649 15.3584 41.3649 15.2219V11.9052H40.1286V11.3169Z" fill="#A6A6A6"/>
<path d="M0.531577 21.5536L2.90166 16.9382L7.59361 19.4417L5.06146 23.9535C4.85561 24.3203 4.31645 24.2845 4.16089 23.8937L3.65701 22.628C3.5157 22.273 3.15553 22.0554 2.77558 22.0954L1.0287 22.2793C0.633511 22.3209 0.350054 21.9071 0.531577 21.5536Z" fill="url(#paint1_linear_3255_16562)"/>
<path d="M0.531577 21.5536L2.90166 16.9382L7.59361 19.4417L5.06146 23.9535C4.85561 24.3203 4.31645 24.2845 4.16089 23.8937L3.65701 22.628C3.5157 22.273 3.15553 22.0554 2.77558 22.0954L1.0287 22.2793C0.633511 22.3209 0.350054 21.9071 0.531577 21.5536Z" stroke="url(#paint2_linear_3255_16562)" stroke-width="0.4" stroke-linecap="round" stroke-linejoin="round"/>
<path d="M17.1715 21.5536L14.8015 16.9382L10.1095 19.4417L12.6417 23.9535C12.8475 24.3203 13.3867 24.2845 13.5422 23.8937L14.0461 22.628C14.1874 22.273 14.5476 22.0554 14.9275 22.0954L16.6744 22.2793C17.0696 22.3209 17.3531 21.9071 17.1715 21.5536Z" fill="url(#paint3_linear_3255_16562)"/>
<path d="M17.1715 21.5536L14.8015 16.9382L10.1095 19.4417L12.6417 23.9535C12.8475 24.3203 13.3867 24.2845 13.5422 23.8937L14.0461 22.628C14.1874 22.273 14.5476 22.0554 14.9275 22.0954L16.6744 22.2793C17.0696 22.3209 17.3531 21.9071 17.1715 21.5536Z" stroke="url(#paint4_linear_3255_16562)" stroke-width="0.4" stroke-linecap="round" stroke-linejoin="round"/>
<g filter="url(#filter0_d_3255_16562)">
<path d="M9.22737 2.2047C9.52231 2.03879 9.88245 2.03879 10.1774 2.2047L16.9597 6.01974C17.2648 6.19135 17.4536 6.51418 17.4536 6.86421V14.451C17.4536 14.801 17.2648 15.1239 16.9597 15.2955L10.1774 19.1105C9.88245 19.2764 9.52231 19.2764 9.22737 19.1105L2.44506 15.2955C2.13997 15.1239 1.95117 14.801 1.95117 14.451V6.86421C1.95117 6.51418 2.13997 6.19135 2.44506 6.01974L9.22737 2.2047Z" fill="url(#paint5_linear_3255_16562)"/>
</g>
<path d="M9.4351 10.6582L1.95117 15.1504L9.96967 19.3783L17.4536 15.1504L9.4351 10.6582Z" fill="#C0C0C0"/>
<path d="M9.4351 10.6582L1.95117 6.43879L9.96967 1.93809L17.4536 6.43879L9.4351 10.6582Z" fill="#EFEFEF"/>
<g filter="url(#filter1_f_3255_16562)">
<path d="M9.28674 2.31025C9.54482 2.16509 9.85994 2.16509 10.118 2.31025L16.9003 6.1253C17.1673 6.27546 17.3325 6.55793 17.3325 6.86421V14.451C17.3325 14.7573 17.1673 15.0398 16.9003 15.1899L10.118 19.005C9.85994 19.1501 9.54482 19.1501 9.28674 19.005L2.50443 15.1899C2.23749 15.0398 2.07228 14.7573 2.07228 14.451V6.86421C2.07228 6.55793 2.23749 6.27546 2.50444 6.1253L9.28674 2.31025Z" stroke="#838383" stroke-width="0.242225"/>
</g>
<path d="M9.70269 1.10578L18.4228 5.90184L18.4228 15.414L9.70269 20.21L0.982573 15.414L0.982573 5.90184L9.70269 1.10578Z" stroke="url(#paint6_linear_3255_16562)" stroke-width="1.9378"/>
<g filter="url(#filter2_d_3255_16562)">
<path d="M10 12.5L10.0012 6" stroke="url(#paint7_linear_3255_16562)" stroke-width="1.9378" stroke-linecap="round" stroke-linejoin="round"/>
</g>
<g filter="url(#filter3_d_3255_16562)">
<circle cx="10" cy="15" r="0.5" stroke="url(#paint8_linear_3255_16562)" stroke-linecap="round" stroke-linejoin="round" shape-rendering="crispEdges"/>
</g>
<defs>
<filter id="filter0_d_3255_16562" x="1.95117" y="1.64407" width="18.8447" height="19.9651" filterUnits="userSpaceOnUse" color-interpolation-filters="sRGB">
<feFlood flood-opacity="0" result="BackgroundImageFix"/>
<feColorMatrix in="SourceAlpha" type="matrix" values="0 0 0 0 0 0 0 0 0 0 0 0 0 0 0 0 0 0 127 0" result="hardAlpha"/>
<feOffset dx="1.9378" dy="0.968901"/>
<feGaussianBlur stdDeviation="0.702453"/>
<feComposite in2="hardAlpha" operator="out"/>
<feColorMatrix type="matrix" values="0 0 0 0 0.440104 0 0 0 0 0.440104 0 0 0 0 0.440104 0 0 0 0.58 0"/>
<feBlend mode="multiply" in2="BackgroundImageFix" result="effect1_dropShadow_3255_16562"/>
<feBlend mode="normal" in="SourceGraphic" in2="effect1_dropShadow_3255_16562" result="shape"/>
</filter>
<filter id="filter1_f_3255_16562" x="1.56361" y="1.69252" width="16.2771" height="17.9304" filterUnits="userSpaceOnUse" color-interpolation-filters="sRGB">
<feFlood flood-opacity="0" result="BackgroundImageFix"/>
<feBlend mode="normal" in="SourceGraphic" in2="BackgroundImageFix" result="shape"/>
<feGaussianBlur stdDeviation="0.19378" result="effect1_foregroundBlur_3255_16562"/>
</filter>
<filter id="filter2_d_3255_16562" x="9.03125" y="5.03125" width="1.93945" height="8.5375" filterUnits="userSpaceOnUse" color-interpolation-filters="sRGB">
<feFlood flood-opacity="0" result="BackgroundImageFix"/>
<feColorMatrix in="SourceAlpha" type="matrix" values="0 0 0 0 0 0 0 0 0 0 0 0 0 0 0 0 0 0 127 0" result="hardAlpha"/>
<feOffset dy="0.1"/>
<feComposite in2="hardAlpha" operator="out"/>
<feColorMatrix type="matrix" values="0 0 0 0 0.402507 0 0 0 0 0.402507 0 0 0 0 0.402507 0 0 0 1 0"/>
<feBlend mode="multiply" in2="BackgroundImageFix" result="effect1_dropShadow_3255_16562"/>
<feBlend mode="normal" in="SourceGraphic" in2="effect1_dropShadow_3255_16562" result="shape"/>
</filter>
<filter id="filter3_d_3255_16562" x="9" y="14" width="2" height="2.1" filterUnits="userSpaceOnUse" color-interpolation-filters="sRGB">
<feFlood flood-opacity="0" result="BackgroundImageFix"/>
<feColorMatrix in="SourceAlpha" type="matrix" values="0 0 0 0 0 0 0 0 0 0 0 0 0 0 0 0 0 0 127 0" result="hardAlpha"/>
<feOffset dy="0.1"/>
<feComposite in2="hardAlpha" operator="out"/>
<feColorMatrix type="matrix" values="0 0 0 0 0.378662 0 0 0 0 0.378662 0 0 0 0 0.378662 0 0 0 1 0"/>
<feBlend mode="multiply" in2="BackgroundImageFix" result="effect1_dropShadow_3255_16562"/>
<feBlend mode="normal" in="SourceGraphic" in2="effect1_dropShadow_3255_16562" result="shape"/>
</filter>
<linearGradient id="paint0_linear_3255_16562" x1="51" y1="3" x2="13.3887" y2="19.1183" gradientUnits="userSpaceOnUse">
<stop stop-color="#F2F2F2"/>
<stop offset="0.5" stop-color="white"/>
<stop offset="1" stop-color="#C1C1C1"/>
</linearGradient>
<linearGradient id="paint1_linear_3255_16562" x1="5.65684" y1="17.5764" x2="2.90065" y2="22.2563" gradientUnits="userSpaceOnUse">
<stop stop-color="#6A6A6A"/>
<stop offset="0.54" stop-color="#E3E3E3"/>
<stop offset="1" stop-color="#AEAEAE"/>
</linearGradient>
<linearGradient id="paint2_linear_3255_16562" x1="4.8626" y1="18.2982" x2="2.61175" y2="23.0022" gradientUnits="userSpaceOnUse">
<stop stop-color="#797979"/>
<stop offset="0.485" stop-color="#E0E0E0"/>
<stop offset="1" stop-color="#7E7E7E"/>
</linearGradient>
<linearGradient id="paint3_linear_3255_16562" x1="12.0463" y1="17.5764" x2="14.8025" y2="22.2563" gradientUnits="userSpaceOnUse">
<stop stop-color="#6A6A6A"/>
<stop offset="0.54" stop-color="#E3E3E3"/>
<stop offset="1" stop-color="#AEAEAE"/>
</linearGradient>
<linearGradient id="paint4_linear_3255_16562" x1="12.8405" y1="18.2982" x2="15.0914" y2="23.0022" gradientUnits="userSpaceOnUse">
<stop stop-color="#797979"/>
<stop offset="0.485" stop-color="#E0E0E0"/>
<stop offset="1" stop-color="#7E7E7E"/>
</linearGradient>
<linearGradient id="paint5_linear_3255_16562" x1="9.70238" y1="1.9375" x2="9.70238" y2="19.3777" gradientUnits="userSpaceOnUse">
<stop stop-color="#D2D2D2"/>
<stop offset="1" stop-color="#D3D3D3"/>
</linearGradient>
<linearGradient id="paint6_linear_3255_16562" x1="9.70268" y1="7.33984" x2="9.70268" y2="21.3158" gradientUnits="userSpaceOnUse">
<stop stop-color="#F4F4F4"/>
<stop offset="1" stop-color="#BEBEBE"/>
</linearGradient>
<linearGradient id="paint7_linear_3255_16562" x1="14.4718" y1="6.75098" x2="9.79709" y2="13.7631" gradientUnits="userSpaceOnUse">
<stop stop-color="#BBBBBB"/>
<stop offset="1" stop-color="#8B8B8B"/>
</linearGradient>
<linearGradient id="paint8_linear_3255_16562" x1="7396.25" y1="14.2311" x2="7396.25" y2="17.3476" gradientUnits="userSpaceOnUse">
<stop stop-color="#AEAEAE"/>
<stop offset="1" stop-color="#747474"/>
</linearGradient>
</defs>
</svg>
