<svg width="21" height="20" viewBox="0 0 21 20" fill="none" xmlns="http://www.w3.org/2000/svg">
<path fill-rule="evenodd" clip-rule="evenodd" d="M10.6898 12.3337C11.9784 12.3337 13.0231 11.289 13.0231 10.0003C13.0231 8.71166 11.9784 7.66699 10.6898 7.66699C9.40111 7.66699 8.35645 8.71166 8.35645 10.0003C8.35645 11.289 9.40111 12.3337 10.6898 12.3337ZM10.6898 13.3337C12.5307 13.3337 14.0231 11.8413 14.0231 10.0003C14.0231 8.15938 12.5307 6.66699 10.6898 6.66699C8.84883 6.66699 7.35645 8.15938 7.35645 10.0003C7.35645 11.8413 8.84883 13.3337 10.6898 13.3337Z" fill="#707070"/>
<path d="M17.5138 9.11191C17.8373 9.50463 17.999 9.701 17.999 10C17.999 10.299 17.8373 10.4954 17.5138 10.8881C16.3304 12.3249 13.7202 15 10.6904 15C7.66065 15 5.05048 12.3249 3.86707 10.8881C3.5436 10.4954 3.38187 10.299 3.38187 10C3.38187 9.701 3.5436 9.50463 3.86707 9.11191C5.05048 7.67512 7.66065 5 10.6904 5C13.7202 5 16.3304 7.67512 17.5138 9.11191Z" stroke="#707070"/>
</svg>
