<svg width="208" height="135" viewBox="0 0 208 135" fill="none" xmlns="http://www.w3.org/2000/svg">
<path d="M123 46.8185H81.5C86.7 44.4182 89.6667 30.833 89 25.4999C88.8333 23.8333 90 20.1003 94 16.5C100.111 10.9993 114 15 114 25.5C112.8 37.9 120.167 44.9852 123 46.8185Z" fill="#232833"/>
<path d="M129.812 42.823C135.343 43.2478 148.063 47.3257 154.699 60.2389C160.92 71.2832 173.861 96.4301 175.852 108.664C176.005 109.603 176.156 110.522 176.304 111.42C178.2 122.932 169.626 133.434 157.963 133.752L157.119 133.775C155.299 133.825 153.492 133.669 151.729 133.316L152.5 134H111H57.5H42.5C41.1797 134 39.8725 133.739 38.6538 133.231L36.6096 132.379C35.2211 131.8 33.981 130.916 32.9817 129.792L30.5 127L29.3459 125.384C28.4604 124.145 27.8698 122.719 27.6193 121.216L27.1361 118.316C27.0455 117.773 27 117.223 27 116.672V113.623C27 112.548 27.1733 111.48 27.5132 110.461L28.5 107.5L33 93.5L39 80L45.5 64.5L53 54L61.7896 46.9683C62.5917 46.3266 63.488 45.8123 64.4468 45.4436L68.1352 44.0249C69.0402 43.6768 69.9911 43.4622 70.958 43.3878L76 43L94.9181 42.8406C96.1467 42.8302 97.2159 41.9975 97.5269 40.8088C97.8119 39.7192 98.7388 38.9179 99.8582 38.7935L104.436 38.2849C105.944 38.1173 107.373 38.9948 107.906 40.4152C108.279 41.4106 109.107 42.1665 110.132 42.4478L110.874 42.6512C111.289 42.7652 111.718 42.823 112.149 42.823H129.812Z" fill="white"/>
<path d="M27.6342 109.291L27.1518 109.16L27.1491 109.17L27.1469 109.18L27.6342 109.291ZM53.1191 106.661C52.843 106.661 52.6191 106.885 52.6191 107.161C52.6191 107.438 52.843 107.661 53.1191 107.661V106.661ZM85.8871 121.397L86.3566 121.225L85.8871 121.397ZM38.5767 133.237L38.7295 132.761L38.5767 133.237ZM40.9698 133.582L40.9732 133.082L40.9698 133.582ZM96.0156 133.959L96.0122 134.459L96.0156 133.959ZM93.9881 42.3341H79.6952V43.3341H93.9881V42.3341ZM63.581 45.1402C56.9452 48.5537 48.8727 55.5691 42.2187 70.3191L43.1302 70.7303C49.7027 56.1612 57.627 49.3275 64.0384 46.0294L63.581 45.1402ZM42.2187 70.3191C32.604 91.632 29.2503 101.457 27.1518 109.16L28.1166 109.423C30.196 101.79 33.5268 92.0182 43.1302 70.7303L42.2187 70.3191ZM27.1469 109.18C26.3897 112.478 26.0647 117.575 27.49 122.364C28.9215 127.174 32.1292 131.692 38.4238 133.713L38.7295 132.761C32.8131 130.862 29.8067 126.643 28.4484 122.079C27.0838 117.494 27.3929 112.578 28.1215 109.403L27.1469 109.18ZM40.9663 134.082L96.0122 134.459L96.019 133.459L40.9732 133.082L40.9663 134.082ZM96.0563 121.572H86.8429V122.572H96.0563V121.572ZM86.3566 121.225C85.4039 118.621 83.672 115.011 81.3164 112.041C78.9734 109.087 75.9274 106.661 72.3372 106.661V107.661C75.461 107.661 78.2496 109.784 80.5329 112.662C82.8036 115.525 84.4896 119.033 85.4175 121.569L86.3566 121.225ZM72.3372 106.661C72.3235 106.661 72.3098 106.661 72.2961 106.661C72.2824 106.661 72.2686 106.661 72.2549 106.661C72.2412 106.661 72.2274 106.661 72.2137 106.661C72.1999 106.661 72.1862 106.661 72.1724 106.661C72.1587 106.661 72.1449 106.661 72.1311 106.661C72.1174 106.661 72.1036 106.661 72.0898 106.661C72.076 106.661 72.0622 106.661 72.0484 106.661C72.0346 106.661 72.0208 106.661 72.007 106.661C71.9932 106.661 71.9794 106.661 71.9656 106.661C71.9517 106.661 71.9379 106.661 71.9241 106.661C71.9103 106.661 71.8964 106.661 71.8826 106.661C71.8687 106.661 71.8549 106.661 71.841 106.661C71.8272 106.661 71.8133 106.661 71.7994 106.661C71.7856 106.661 71.7717 106.661 71.7578 106.661C71.7439 106.661 71.73 106.661 71.7162 106.661C71.7023 106.661 71.6884 106.661 71.6745 106.661C71.6606 106.661 71.6466 106.661 71.6327 106.661C71.6188 106.661 71.6049 106.661 71.591 106.661C71.5771 106.661 71.5631 106.661 71.5492 106.661C71.5352 106.661 71.5213 106.661 71.5074 106.661C71.4934 106.661 71.4795 106.661 71.4655 106.661C71.4515 106.661 71.4376 106.661 71.4236 106.661C71.4096 106.661 71.3957 106.661 71.3817 106.661C71.3677 106.661 71.3537 106.661 71.3397 106.661C71.3257 106.661 71.3117 106.661 71.2977 106.661C71.2837 106.661 71.2697 106.661 71.2557 106.661C71.2417 106.661 71.2277 106.661 71.2137 106.661C71.1997 106.661 71.1856 106.661 71.1716 106.661C71.1576 106.661 71.1435 106.661 71.1295 106.661C71.1155 106.661 71.1014 106.661 71.0874 106.661C71.0733 106.661 71.0593 106.661 71.0452 106.661C71.0311 106.661 71.0171 106.661 71.003 106.661C70.9889 106.661 70.9749 106.661 70.9608 106.661C70.9467 106.661 70.9326 106.661 70.9185 106.661C70.9044 106.661 70.8903 106.661 70.8762 106.661C70.8621 106.661 70.848 106.661 70.8339 106.661C70.8198 106.661 70.8057 106.661 70.7916 106.661C70.7775 106.661 70.7633 106.661 70.7492 106.661C70.7351 106.661 70.721 106.661 70.7068 106.661C70.6927 106.661 70.6786 106.661 70.6644 106.661C70.6503 106.661 70.6361 106.661 70.622 106.661C70.6078 106.661 70.5937 106.661 70.5795 106.661C70.5653 106.661 70.5512 106.661 70.537 106.661C70.5228 106.661 70.5086 106.661 70.4945 106.661C70.4803 106.661 70.4661 106.661 70.4519 106.661C70.4377 106.661 70.4235 106.661 70.4093 106.661C70.3951 106.661 70.3809 106.661 70.3667 106.661C70.3525 106.661 70.3383 106.661 70.3241 106.661C70.3099 106.661 70.2957 106.661 70.2815 106.661C70.2673 106.661 70.253 106.661 70.2388 106.661C70.2246 106.661 70.2103 106.661 70.1961 106.661C70.1819 106.661 70.1676 106.661 70.1534 106.661C70.1391 106.661 70.1249 106.661 70.1106 106.661C70.0964 106.661 70.0821 106.661 70.0679 106.661C70.0536 106.661 70.0394 106.661 70.0251 106.661C70.0108 106.661 69.9966 106.661 69.9823 106.661C69.968 106.661 69.9537 106.661 69.9395 106.661C69.9252 106.661 69.9109 106.661 69.8966 106.661C69.8823 106.661 69.868 106.661 69.8537 106.661C69.8395 106.661 69.8252 106.661 69.8109 106.661C69.7966 106.661 69.7823 106.661 69.7679 106.661C69.7536 106.661 69.7393 106.661 69.725 106.661C69.7107 106.661 69.6964 106.661 69.6821 106.661C69.6677 106.661 69.6534 106.661 69.6391 106.661C69.6248 106.661 69.6104 106.661 69.5961 106.661C69.5818 106.661 69.5674 106.661 69.5531 106.661C69.5388 106.661 69.5244 106.661 69.5101 106.661C69.4957 106.661 69.4814 106.661 69.467 106.661C69.4527 106.661 69.4383 106.661 69.424 106.661C69.4096 106.661 69.3952 106.661 69.3809 106.661C69.3665 106.661 69.3522 106.661 69.3378 106.661C69.3234 106.661 69.3091 106.661 69.2947 106.661C69.2803 106.661 69.2659 106.661 69.2515 106.661C69.2372 106.661 69.2228 106.661 69.2084 106.661C69.194 106.661 69.1796 106.661 69.1652 106.661C69.1508 106.661 69.1365 106.661 69.1221 106.661C69.1077 106.661 69.0933 106.661 69.0789 106.661C69.0645 106.661 69.0501 106.661 69.0357 106.661C69.0213 106.661 69.0068 106.661 68.9924 106.661C68.978 106.661 68.9636 106.661 68.9492 106.661C68.9348 106.661 68.9204 106.661 68.9059 106.661C68.8915 106.661 68.8771 106.661 68.8627 106.661C68.8483 106.661 68.8338 106.661 68.8194 106.661C68.805 106.661 68.7905 106.661 68.7761 106.661C68.7617 106.661 68.7472 106.661 68.7328 106.661C68.7184 106.661 68.7039 106.661 68.6895 106.661C68.675 106.661 68.6606 106.661 68.6462 106.661C68.6317 106.661 68.6173 106.661 68.6028 106.661C68.5884 106.661 68.5739 106.661 68.5595 106.661C68.545 106.661 68.5306 106.661 68.5161 106.661C68.5016 106.661 68.4872 106.661 68.4727 106.661C68.4583 106.661 68.4438 106.661 68.4293 106.661C68.4149 106.661 68.4004 106.661 68.3859 106.661C68.3715 106.661 68.357 106.661 68.3425 106.661C68.3281 106.661 68.3136 106.661 68.2991 106.661C68.2846 106.661 68.2702 106.661 68.2557 106.661C68.2412 106.661 68.2267 106.661 68.2123 106.661C68.1978 106.661 68.1833 106.661 68.1688 106.661C68.1543 106.661 68.1398 106.661 68.1254 106.661C68.1109 106.661 68.0964 106.661 68.0819 106.661C68.0674 106.661 68.0529 106.661 68.0384 106.661C68.0239 106.661 68.0094 106.661 67.995 106.661C67.9805 106.661 67.966 106.661 67.9515 106.661C67.937 106.661 67.9225 106.661 67.908 106.661C67.8935 106.661 67.879 106.661 67.8645 106.661C67.85 106.661 67.8355 106.661 67.821 106.661C67.8065 106.661 67.792 106.661 67.7775 106.661C67.763 106.661 67.7485 106.661 67.734 106.661C67.7195 106.661 67.7049 106.661 67.6904 106.661C67.6759 106.661 67.6614 106.661 67.6469 106.661C67.6324 106.661 67.6179 106.661 67.6034 106.661C67.5889 106.661 67.5744 106.661 67.5599 106.661C67.5453 106.661 67.5308 106.661 67.5163 106.661C67.5018 106.661 67.4873 106.661 67.4728 106.661C67.4583 106.661 67.4437 106.661 67.4292 106.661C67.4147 106.661 67.4002 106.661 67.3857 106.661C67.3712 106.661 67.3566 106.661 67.3421 106.661C67.3276 106.661 67.3131 106.661 67.2986 106.661C67.284 106.661 67.2695 106.661 67.255 106.661C67.2405 106.661 67.226 106.661 67.2115 106.661C67.1969 106.661 67.1824 106.661 67.1679 106.661C67.1534 106.661 67.1389 106.661 67.1243 106.661C67.1098 106.661 67.0953 106.661 67.0808 106.661C67.0662 106.661 67.0517 106.661 67.0372 106.661C67.0227 106.661 67.0082 106.661 66.9936 106.661C66.9791 106.661 66.9646 106.661 66.9501 106.661C66.9356 106.661 66.921 106.661 66.9065 106.661C66.892 106.661 66.8775 106.661 66.8629 106.661C66.8484 106.661 66.8339 106.661 66.8194 106.661C66.8049 106.661 66.7903 106.661 66.7758 106.661C66.7613 106.661 66.7468 106.661 66.7323 106.661C66.7177 106.661 66.7032 106.661 66.6887 106.661C66.6742 106.661 66.6597 106.661 66.6451 106.661C66.6306 106.661 66.6161 106.661 66.6016 106.661C66.5871 106.661 66.5726 106.661 66.558 106.661C66.5435 106.661 66.529 106.661 66.5145 106.661C66.5 106.661 66.4855 106.661 66.4709 106.661C66.4564 106.661 66.4419 106.661 66.4274 106.661C66.4129 106.661 66.3984 106.661 66.3839 106.661C66.3694 106.661 66.3548 106.661 66.3403 106.661C66.3258 106.661 66.3113 106.661 66.2968 106.661C66.2823 106.661 66.2678 106.661 66.2533 106.661C66.2388 106.661 66.2243 106.661 66.2098 106.661C66.1953 106.661 66.1807 106.661 66.1662 106.661C66.1517 106.661 66.1372 106.661 66.1227 106.661C66.1082 106.661 66.0937 106.661 66.0792 106.661C66.0647 106.661 66.0502 106.661 66.0357 106.661C66.0212 106.661 66.0067 106.661 65.9922 106.661C65.9778 106.661 65.9633 106.661 65.9488 106.661C65.9343 106.661 65.9198 106.661 65.9053 106.661C65.8908 106.661 65.8763 106.661 65.8618 106.661C65.8473 106.661 65.8328 106.661 65.8184 106.661C65.8039 106.661 65.7894 106.661 65.7749 106.661C65.7604 106.661 65.7459 106.661 65.7315 106.661C65.717 106.661 65.7025 106.661 65.688 106.661C65.6736 106.661 65.6591 106.661 65.6446 106.661C65.6301 106.661 65.6157 106.661 65.6012 106.661C65.5867 106.661 65.5723 106.661 65.5578 106.661C65.5433 106.661 65.5289 106.661 65.5144 106.661C65.4999 106.661 65.4855 106.661 65.471 106.661C65.4566 106.661 65.4421 106.661 65.4276 106.661C65.4132 106.661 65.3987 106.661 65.3843 106.661C65.3698 106.661 65.3554 106.661 65.3409 106.661C65.3265 106.661 65.312 106.661 65.2976 106.661C65.2831 106.661 65.2687 106.661 65.2543 106.661C65.2398 106.661 65.2254 106.661 65.2109 106.661C65.1965 106.661 65.1821 106.661 65.1676 106.661C65.1532 106.661 65.1388 106.661 65.1243 106.661C65.1099 106.661 65.0955 106.661 65.0811 106.661C65.0667 106.661 65.0522 106.661 65.0378 106.661C65.0234 106.661 65.009 106.661 64.9946 106.661C64.9801 106.661 64.9657 106.661 64.9513 106.661C64.9369 106.661 64.9225 106.661 64.9081 106.661C64.8937 106.661 64.8793 106.661 64.8649 106.661C64.8505 106.661 64.8361 106.661 64.8217 106.661C64.8073 106.661 64.7929 106.661 64.7785 106.661C64.7641 106.661 64.7498 106.661 64.7354 106.661C64.721 106.661 64.7066 106.661 64.6922 106.661C64.6778 106.661 64.6635 106.661 64.6491 106.661C64.6347 106.661 64.6204 106.661 64.606 106.661C64.5916 106.661 64.5773 106.661 64.5629 106.661C64.5485 106.661 64.5342 106.661 64.5198 106.661C64.5055 106.661 64.4911 106.661 64.4768 106.661C64.4624 106.661 64.4481 106.661 64.4337 106.661C64.4194 106.661 64.405 106.661 64.3907 106.661C64.3764 106.661 64.362 106.661 64.3477 106.661C64.3334 106.661 64.319 106.661 64.3047 106.661C64.2904 106.661 64.2761 106.661 64.2617 106.661C64.2474 106.661 64.2331 106.661 64.2188 106.661C64.2045 106.661 64.1902 106.661 64.1759 106.661C64.1615 106.661 64.1472 106.661 64.1329 106.661C64.1186 106.661 64.1044 106.661 64.0901 106.661C64.0758 106.661 64.0615 106.661 64.0472 106.661C64.0329 106.661 64.0186 106.661 64.0043 106.661C63.9901 106.661 63.9758 106.661 63.9615 106.661C63.9472 106.661 63.933 106.661 63.9187 106.661C63.9045 106.661 63.8902 106.661 63.8759 106.661C63.8617 106.661 63.8474 106.661 63.8332 106.661C63.8189 106.661 63.8047 106.661 63.7904 106.661C63.7762 106.661 63.762 106.661 63.7477 106.661C63.7335 106.661 63.7193 106.661 63.705 106.661C63.6908 106.661 63.6766 106.661 63.6624 106.661C63.6481 106.661 63.6339 106.661 63.6197 106.661C63.6055 106.661 63.5913 106.661 63.5771 106.661C63.5629 106.661 63.5487 106.661 63.5345 106.661C63.5203 106.661 63.5061 106.661 63.4919 106.661C63.4777 106.661 63.4636 106.661 63.4494 106.661C63.4352 106.661 63.421 106.661 63.4069 106.661C63.3927 106.661 63.3785 106.661 63.3644 106.661C63.3502 106.661 63.3361 106.661 63.3219 106.661C63.3078 106.661 63.2936 106.661 63.2795 106.661C63.2653 106.661 63.2512 106.661 63.237 106.661C63.2229 106.661 63.2088 106.661 63.1947 106.661C63.1805 106.661 63.1664 106.661 63.1523 106.661C63.1382 106.661 63.1241 106.661 63.11 106.661C63.0959 106.661 63.0818 106.661 63.0677 106.661C63.0536 106.661 63.0395 106.661 63.0254 106.661C63.0113 106.661 62.9972 106.661 62.9831 106.661C62.969 106.661 62.955 106.661 62.9409 106.661C62.9268 106.661 62.9128 106.661 62.8987 106.661C62.8847 106.661 62.8706 106.661 62.8565 106.661C62.8425 106.661 62.8285 106.661 62.8144 106.661C62.8004 106.661 62.7863 106.661 62.7723 106.661C62.7583 106.661 62.7443 106.661 62.7302 106.661C62.7162 106.661 62.7022 106.661 62.6882 106.661C62.6742 106.661 62.6602 106.661 62.6462 106.661C62.6322 106.661 62.6182 106.661 62.6042 106.661C62.5902 106.661 62.5762 106.661 62.5622 106.661C62.5483 106.661 62.5343 106.661 62.5203 106.661C62.5064 106.661 62.4924 106.661 62.4784 106.661C62.4645 106.661 62.4505 106.661 62.4366 106.661C62.4226 106.661 62.4087 106.661 62.3948 106.661C62.3808 106.661 62.3669 106.661 62.353 106.661C62.3391 106.661 62.3251 106.661 62.3112 106.661C62.2973 106.661 62.2834 106.661 62.2695 106.661C62.2556 106.661 62.2417 106.661 62.2278 106.661C62.2139 106.661 62.2001 106.661 62.1862 106.661C62.1723 106.661 62.1584 106.661 62.1446 106.661C62.1307 106.661 62.1168 106.661 62.103 106.661C62.0891 106.661 62.0753 106.661 62.0614 106.661C62.0476 106.661 62.0337 106.661 62.0199 106.661C62.0061 106.661 61.9923 106.661 61.9784 106.661C61.9646 106.661 61.9508 106.661 61.937 106.661C61.9232 106.661 61.9094 106.661 61.8956 106.661C61.8818 106.661 61.868 106.661 61.8542 106.661C61.8404 106.661 61.8267 106.661 61.8129 106.661C61.7991 106.661 61.7854 106.661 61.7716 106.661C61.7578 106.661 61.7441 106.661 61.7304 106.661C61.7166 106.661 61.7029 106.661 61.6891 106.661C61.6754 106.661 61.6617 106.661 61.648 106.661C61.6342 106.661 61.6205 106.661 61.6068 106.661C61.5931 106.661 61.5794 106.661 61.5657 106.661C61.552 106.661 61.5383 106.661 61.5247 106.661C61.511 106.661 61.4973 106.661 61.4836 106.661C61.47 106.661 61.4563 106.661 61.4426 106.661C61.429 106.661 61.4153 106.661 61.4017 106.661C61.3881 106.661 61.3744 106.661 61.3608 106.661C61.3472 106.661 61.3336 106.661 61.3199 106.661C61.3063 106.661 61.2927 106.661 61.2791 106.661C61.2655 106.661 61.2519 106.661 61.2383 106.661C61.2248 106.661 61.2112 106.661 61.1976 106.661C61.184 106.661 61.1705 106.661 61.1569 106.661C61.1434 106.661 61.1298 106.661 61.1163 106.661C61.1027 106.661 61.0892 106.661 61.0757 106.661C61.0621 106.661 61.0486 106.661 61.0351 106.661C61.0216 106.661 61.0081 106.661 60.9946 106.661C60.9811 106.661 60.9676 106.661 60.9541 106.661C60.9406 106.661 60.9271 106.661 60.9137 106.661C60.9002 106.661 60.8867 106.661 60.8733 106.661C60.8598 106.661 60.8464 106.661 60.8329 106.661C60.8195 106.661 60.806 106.661 60.7926 106.661C60.7792 106.661 60.7658 106.661 60.7524 106.661C60.7389 106.661 60.7255 106.661 60.7121 106.661C60.6987 106.661 60.6854 106.661 60.672 106.661C60.6586 106.661 60.6452 106.661 60.6319 106.661C60.6185 106.661 60.6051 106.661 60.5918 106.661C60.5784 106.661 60.5651 106.661 60.5518 106.661C60.5384 106.661 60.5251 106.661 60.5118 106.661C60.4985 106.661 60.4851 106.661 60.4718 106.661C60.4585 106.661 60.4452 106.661 60.432 106.661C60.4187 106.661 60.4054 106.661 60.3921 106.661C60.3788 106.661 60.3656 106.661 60.3523 106.661C60.3391 106.661 60.3258 106.661 60.3126 106.661C60.2994 106.661 60.2861 106.661 60.2729 106.661C60.2597 106.661 60.2465 106.661 60.2333 106.661C60.2201 106.661 60.2069 106.661 60.1937 106.661C60.1805 106.661 60.1673 106.661 60.1541 106.661C60.1409 106.661 60.1278 106.661 60.1146 106.661C60.1015 106.661 60.0883 106.661 60.0752 106.661C60.062 106.661 60.0489 106.661 60.0358 106.661C60.0227 106.661 60.0096 106.661 59.9965 106.661C59.9833 106.661 59.9703 106.661 59.9572 106.661C59.9441 106.661 59.931 106.661 59.9179 106.661C59.9049 106.661 59.8918 106.661 59.8787 106.661C59.8657 106.661 59.8526 106.661 59.8396 106.661C59.8266 106.661 59.8135 106.661 59.8005 106.661C59.7875 106.661 59.7745 106.661 59.7615 106.661C59.7485 106.661 59.7355 106.661 59.7225 106.661C59.7095 106.661 59.6966 106.661 59.6836 106.661C59.6706 106.661 59.6577 106.661 59.6447 106.661C59.6318 106.661 59.6189 106.661 59.6059 106.661C59.593 106.661 59.5801 106.661 59.5672 106.661C59.5543 106.661 59.5414 106.661 59.5285 106.661C59.5156 106.661 59.5027 106.661 59.4898 106.661C59.4769 106.661 59.4641 106.661 59.4512 106.661C59.4384 106.661 59.4255 106.661 59.4127 106.661C59.3998 106.661 59.387 106.661 59.3742 106.661C59.3614 106.661 59.3486 106.661 59.3358 106.661C59.323 106.661 59.3102 106.661 59.2974 106.661C59.2846 106.661 59.2719 106.661 59.2591 106.661C59.2463 106.661 59.2336 106.661 59.2208 106.661C59.2081 106.661 59.1954 106.661 59.1826 106.661C59.1699 106.661 59.1572 106.661 59.1445 106.661C59.1318 106.661 59.1191 106.661 59.1064 106.661C59.0937 106.661 59.0811 106.661 59.0684 106.661C59.0557 106.661 59.0431 106.661 59.0304 106.661C59.0178 106.661 59.0051 106.661 58.9925 106.661C58.9799 106.661 58.9673 106.661 58.9547 106.661C58.9421 106.661 58.9295 106.661 58.9169 106.661C58.9043 106.661 58.8917 106.661 58.8792 106.661C58.8666 106.661 58.854 106.661 58.8415 106.661C58.829 106.661 58.8164 106.661 58.8039 106.661C58.7914 106.661 58.7789 106.661 58.7663 106.661C58.7538 106.661 58.7414 106.661 58.7289 106.661C58.7164 106.661 58.7039 106.661 58.6914 106.661C58.679 106.661 58.6665 106.661 58.6541 106.661C58.6416 106.661 58.6292 106.661 58.6168 106.661C58.6044 106.661 58.592 106.661 58.5796 106.661C58.5672 106.661 58.5548 106.661 58.5424 106.661C58.53 106.661 58.5176 106.661 58.5053 106.661C58.4929 106.661 58.4806 106.661 58.4682 106.661C58.4559 106.661 58.4436 106.661 58.4312 106.661C58.4189 106.661 58.4066 106.661 58.3943 106.661C58.382 106.661 58.3697 106.661 58.3575 106.661C58.3452 106.661 58.3329 106.661 58.3207 106.661C58.3084 106.661 58.2962 106.661 58.284 106.661C58.2717 106.661 58.2595 106.661 58.2473 106.661C58.2351 106.661 58.2229 106.661 58.2107 106.661C58.1985 106.661 58.1863 106.661 58.1742 106.661C58.162 106.661 58.1499 106.661 58.1377 106.661C58.1256 106.661 58.1134 106.661 58.1013 106.661C58.0892 106.661 58.0771 106.661 58.065 106.661C58.0529 106.661 58.0408 106.661 58.0287 106.661C58.0167 106.661 58.0046 106.661 57.9925 106.661C57.9805 106.661 57.9685 106.661 57.9564 106.661C57.9444 106.661 57.9324 106.661 57.9204 106.661C57.9084 106.661 57.8964 106.661 57.8844 106.661C57.8724 106.661 57.8604 106.661 57.8485 106.661C57.8365 106.661 57.8245 106.661 57.8126 106.661C57.8007 106.661 57.7887 106.661 57.7768 106.661C57.7649 106.661 57.753 106.661 57.7411 106.661C57.7292 106.661 57.7173 106.661 57.7055 106.661C57.6936 106.661 57.6817 106.661 57.6699 106.661C57.6581 106.661 57.6462 106.661 57.6344 106.661C57.6226 106.661 57.6108 106.661 57.599 106.661C57.5872 106.661 57.5754 106.661 57.5636 106.661C57.5518 106.661 57.5401 106.661 57.5283 106.661C57.5166 106.661 57.5048 106.661 57.4931 106.661C57.4814 106.661 57.4697 106.661 57.458 106.661C57.4463 106.661 57.4346 106.661 57.4229 106.661C57.4112 106.661 57.3995 106.661 57.3879 106.661C57.3762 106.661 57.3646 106.661 57.353 106.661C57.3413 106.661 57.3297 106.661 57.3181 106.661C57.3065 106.661 57.2949 106.661 57.2833 106.661C57.2718 106.661 57.2602 106.661 57.2486 106.661C57.2371 106.661 57.2255 106.661 57.214 106.661C57.2025 106.661 57.1909 106.661 57.1794 106.661C57.1679 106.661 57.1564 106.661 57.145 106.661C57.1335 106.661 57.122 106.661 57.1106 106.661C57.0991 106.661 57.0877 106.661 57.0762 106.661C57.0648 106.661 57.0534 106.661 57.042 106.661C57.0306 106.661 57.0192 106.661 57.0078 106.661C56.9964 106.661 56.985 106.661 56.9737 106.661C56.9623 106.661 56.951 106.661 56.9397 106.661C56.9283 106.661 56.917 106.661 56.9057 106.661C56.8944 106.661 56.8831 106.661 56.8718 106.661C56.8606 106.661 56.8493 106.661 56.8381 106.661C56.8268 106.661 56.8156 106.661 56.8043 106.661C56.7931 106.661 56.7819 106.661 56.7707 106.661C56.7595 106.661 56.7483 106.661 56.7371 106.661C56.726 106.661 56.7148 106.661 56.7037 106.661C56.6925 106.661 56.6814 106.661 56.6703 106.661C56.6591 106.661 56.648 106.661 56.6369 106.661C56.6259 106.661 56.6148 106.661 56.6037 106.661C56.5926 106.661 56.5816 106.661 56.5705 106.661C56.5595 106.661 56.5485 106.661 56.5375 106.661C56.5264 106.661 56.5154 106.661 56.5045 106.661C56.4935 106.661 56.4825 106.661 56.4715 106.661C56.4606 106.661 56.4496 106.661 56.4387 106.661C56.4278 106.661 56.4169 106.661 56.406 106.661C56.3951 106.661 56.3842 106.661 56.3733 106.661C56.3624 106.661 56.3515 106.661 56.3407 106.661C56.3298 106.661 56.319 106.661 56.3082 106.661C56.2974 106.661 56.2866 106.661 56.2758 106.661C56.265 106.661 56.2542 106.661 56.2434 106.661C56.2327 106.661 56.2219 106.661 56.2112 106.661C56.2004 106.661 56.1897 106.661 56.179 106.661C56.1683 106.661 56.1576 106.661 56.1469 106.661C56.1362 106.661 56.1255 106.661 56.1149 106.661C56.1042 106.661 56.0936 106.661 56.083 106.661C56.0723 106.661 56.0617 106.661 56.0511 106.661C56.0405 106.661 56.03 106.661 56.0194 106.661C56.0088 106.661 55.9983 106.661 55.9877 106.661C55.9772 106.661 55.9667 106.661 55.9561 106.661C55.9456 106.661 55.9351 106.661 55.9246 106.661C55.9142 106.661 55.9037 106.661 55.8932 106.661C55.8828 106.661 55.8723 106.661 55.8619 106.661C55.8515 106.661 55.8411 106.661 55.8307 106.661C55.8203 106.661 55.8099 106.661 55.7995 106.661C55.7892 106.661 55.7788 106.661 55.7685 106.661C55.7582 106.661 55.7478 106.661 55.7375 106.661C55.7272 106.661 55.7169 106.661 55.7066 106.661C55.6964 106.661 55.6861 106.661 55.6759 106.661C55.6656 106.661 55.6554 106.661 55.6452 106.661C55.6349 106.661 55.6247 106.661 55.6145 106.661C55.6044 106.661 55.5942 106.661 55.584 106.661C55.5739 106.661 55.5637 106.661 55.5536 106.661C55.5435 106.661 55.5334 106.661 55.5233 106.661C55.5132 106.661 55.5031 106.661 55.493 106.661C55.4829 106.661 55.4729 106.661 55.4628 106.661C55.4528 106.661 55.4428 106.661 55.4328 106.661C55.4228 106.661 55.4128 106.661 55.4028 106.661C55.3928 106.661 55.3829 106.661 55.3729 106.661C55.363 106.661 55.353 106.661 55.3431 106.661C55.3332 106.661 55.3233 106.661 55.3134 106.661C55.3035 106.661 55.2937 106.661 55.2838 106.661C55.274 106.661 55.2641 106.661 55.2543 106.661C55.2445 106.661 55.2347 106.661 55.2249 106.661C55.2151 106.661 55.2053 106.661 55.1956 106.661C55.1858 106.661 55.1761 106.661 55.1663 106.661C55.1566 106.661 55.1469 106.661 55.1372 106.661C55.1275 106.661 55.1178 106.661 55.1081 106.661C55.0985 106.661 55.0888 106.661 55.0792 106.661C55.0696 106.661 55.0599 106.661 55.0503 106.661C55.0407 106.661 55.0312 106.661 55.0216 106.661C55.012 106.661 55.0025 106.661 54.9929 106.661C54.9834 106.661 54.9739 106.661 54.9644 106.661C54.9549 106.661 54.9454 106.661 54.9359 106.661C54.9264 106.661 54.917 106.661 54.9075 106.661C54.8981 106.661 54.8887 106.661 54.8792 106.661C54.8698 106.661 54.8604 106.661 54.8511 106.661C54.8417 106.661 54.8323 106.661 54.823 106.661C54.8137 106.661 54.8043 106.661 54.795 106.661C54.7857 106.661 54.7764 106.661 54.7671 106.661C54.7579 106.661 54.7486 106.661 54.7393 106.661C54.7301 106.661 54.7209 106.661 54.7117 106.661C54.7025 106.661 54.6933 106.661 54.6841 106.661C54.6749 106.661 54.6657 106.661 54.6566 106.661C54.6474 106.661 54.6383 106.661 54.6292 106.661C54.6201 106.661 54.611 106.661 54.6019 106.661C54.5928 106.661 54.5838 106.661 54.5747 106.661C54.5657 106.661 54.5567 106.661 54.5477 106.661C54.5386 106.661 54.5297 106.661 54.5207 106.661C54.5117 106.661 54.5027 106.661 54.4938 106.661C54.4849 106.661 54.4759 106.661 54.467 106.661C54.4581 106.661 54.4492 106.661 54.4403 106.661C54.4315 106.661 54.4226 106.661 54.4138 106.661C54.4049 106.661 54.3961 106.661 54.3873 106.661C54.3785 106.661 54.3697 106.661 54.3609 106.661C54.3522 106.661 54.3434 106.661 54.3347 106.661C54.3259 106.661 54.3172 106.661 54.3085 106.661C54.2998 106.661 54.2911 106.661 54.2824 106.661C54.2738 106.661 54.2651 106.661 54.2565 106.661C54.2479 106.661 54.2392 106.661 54.2306 106.661C54.222 106.661 54.2135 106.661 54.2049 106.661C54.1963 106.661 54.1878 106.661 54.1793 106.661C54.1707 106.661 54.1622 106.661 54.1537 106.661C54.1452 106.661 54.1368 106.661 54.1283 106.661C54.1199 106.661 54.1114 106.661 54.103 106.661C54.0946 106.661 54.0862 106.661 54.0778 106.661C54.0694 106.661 54.061 106.661 54.0527 106.661C54.0443 106.661 54.036 106.661 54.0277 106.661C54.0194 106.661 54.0111 106.661 54.0028 106.661C53.9945 106.661 53.9862 106.661 53.978 106.661C53.9698 106.661 53.9615 106.661 53.9533 106.661C53.9451 106.661 53.9369 106.661 53.9288 106.661C53.9206 106.661 53.9124 106.661 53.9043 106.661C53.8962 106.661 53.888 106.661 53.8799 106.661C53.8718 106.661 53.8638 106.661 53.8557 106.661C53.8476 106.661 53.8396 106.661 53.8316 106.661C53.8235 106.661 53.8155 106.661 53.8076 106.661C53.7996 106.661 53.7916 106.661 53.7836 106.661C53.7757 106.661 53.7678 106.661 53.7598 106.661C53.7519 106.661 53.744 106.661 53.7361 106.661C53.7283 106.661 53.7204 106.661 53.7126 106.661C53.7047 106.661 53.6969 106.661 53.6891 106.661C53.6813 106.661 53.6735 106.661 53.6657 106.661C53.658 106.661 53.6502 106.661 53.6425 106.661C53.6348 106.661 53.6271 106.661 53.6194 106.661C53.6117 106.661 53.604 106.661 53.5964 106.661C53.5887 106.661 53.5811 106.661 53.5735 106.661C53.5658 106.661 53.5582 106.661 53.5507 106.661C53.5431 106.661 53.5355 106.661 53.528 106.661C53.5204 106.661 53.5129 106.661 53.5054 106.661C53.4979 106.661 53.4904 106.661 53.483 106.661C53.4755 106.661 53.4681 106.661 53.4606 106.661C53.4532 106.661 53.4458 106.661 53.4384 106.661C53.431 106.661 53.4237 106.661 53.4163 106.661C53.409 106.661 53.4016 106.661 53.3943 106.661C53.387 106.661 53.3797 106.661 53.3724 106.661C53.3652 106.661 53.3579 106.661 53.3507 106.661C53.3435 106.661 53.3362 106.661 53.3291 106.661C53.3219 106.661 53.3147 106.661 53.3075 106.661C53.3004 106.661 53.2932 106.661 53.2861 106.661C53.279 106.661 53.2719 106.661 53.2648 106.661C53.2578 106.661 53.2507 106.661 53.2437 106.661C53.2366 106.661 53.2296 106.661 53.2226 106.661C53.2156 106.661 53.2086 106.661 53.2017 106.661C53.1947 106.661 53.1878 106.661 53.1808 106.661C53.1739 106.661 53.167 106.661 53.1602 106.661C53.1533 106.661 53.1464 106.661 53.1396 106.661C53.1327 106.661 53.1259 106.661 53.1191 106.661V107.661C53.1259 107.661 53.1327 107.661 53.1396 107.661C53.1464 107.661 53.1533 107.661 53.1602 107.661C53.167 107.661 53.1739 107.661 53.1808 107.661C53.1878 107.661 53.1947 107.661 53.2017 107.661C53.2086 107.661 53.2156 107.661 53.2226 107.661C53.2296 107.661 53.2366 107.661 53.2437 107.661C53.2507 107.661 53.2578 107.661 53.2648 107.661C53.2719 107.661 53.279 107.661 53.2861 107.661C53.2932 107.661 53.3004 107.661 53.3075 107.661C53.3147 107.661 53.3219 107.661 53.3291 107.661C53.3362 107.661 53.3435 107.661 53.3507 107.661C53.3579 107.661 53.3652 107.661 53.3724 107.661C53.3797 107.661 53.387 107.661 53.3943 107.661C53.4016 107.661 53.409 107.661 53.4163 107.661C53.4237 107.661 53.431 107.661 53.4384 107.661C53.4458 107.661 53.4532 107.661 53.4606 107.661C53.4681 107.661 53.4755 107.661 53.483 107.661C53.4904 107.661 53.4979 107.661 53.5054 107.661C53.5129 107.661 53.5204 107.661 53.528 107.661C53.5355 107.661 53.5431 107.661 53.5507 107.661C53.5582 107.661 53.5658 107.661 53.5735 107.661C53.5811 107.661 53.5887 107.661 53.5964 107.661C53.604 107.661 53.6117 107.661 53.6194 107.661C53.6271 107.661 53.6348 107.661 53.6425 107.661C53.6502 107.661 53.658 107.661 53.6657 107.661C53.6735 107.661 53.6813 107.661 53.6891 107.661C53.6969 107.661 53.7047 107.661 53.7126 107.661C53.7204 107.661 53.7283 107.661 53.7361 107.661C53.744 107.661 53.7519 107.661 53.7598 107.661C53.7678 107.661 53.7757 107.661 53.7836 107.661C53.7916 107.661 53.7996 107.661 53.8076 107.661C53.8155 107.661 53.8235 107.661 53.8316 107.661C53.8396 107.661 53.8476 107.661 53.8557 107.661C53.8638 107.661 53.8718 107.661 53.8799 107.661C53.888 107.661 53.8962 107.661 53.9043 107.661C53.9124 107.661 53.9206 107.661 53.9288 107.661C53.9369 107.661 53.9451 107.661 53.9533 107.661C53.9615 107.661 53.9698 107.661 53.978 107.661C53.9862 107.661 53.9945 107.661 54.0028 107.661C54.0111 107.661 54.0194 107.661 54.0277 107.661C54.036 107.661 54.0443 107.661 54.0527 107.661C54.061 107.661 54.0694 107.661 54.0778 107.661C54.0862 107.661 54.0946 107.661 54.103 107.661C54.1114 107.661 54.1199 107.661 54.1283 107.661C54.1368 107.661 54.1452 107.661 54.1537 107.661C54.1622 107.661 54.1707 107.661 54.1793 107.661C54.1878 107.661 54.1963 107.661 54.2049 107.661C54.2135 107.661 54.222 107.661 54.2306 107.661C54.2392 107.661 54.2479 107.661 54.2565 107.661C54.2651 107.661 54.2738 107.661 54.2824 107.661C54.2911 107.661 54.2998 107.661 54.3085 107.661C54.3172 107.661 54.3259 107.661 54.3347 107.661C54.3434 107.661 54.3522 107.661 54.3609 107.661C54.3697 107.661 54.3785 107.661 54.3873 107.661C54.3961 107.661 54.4049 107.661 54.4138 107.661C54.4226 107.661 54.4315 107.661 54.4403 107.661C54.4492 107.661 54.4581 107.661 54.467 107.661C54.4759 107.661 54.4849 107.661 54.4938 107.661C54.5027 107.661 54.5117 107.661 54.5207 107.661C54.5297 107.661 54.5386 107.661 54.5477 107.661C54.5567 107.661 54.5657 107.661 54.5747 107.661C54.5838 107.661 54.5928 107.661 54.6019 107.661C54.611 107.661 54.6201 107.661 54.6292 107.661C54.6383 107.661 54.6474 107.661 54.6566 107.661C54.6657 107.661 54.6749 107.661 54.6841 107.661C54.6933 107.661 54.7025 107.661 54.7117 107.661C54.7209 107.661 54.7301 107.661 54.7393 107.661C54.7486 107.661 54.7579 107.661 54.7671 107.661C54.7764 107.661 54.7857 107.661 54.795 107.661C54.8043 107.661 54.8137 107.661 54.823 107.661C54.8323 107.661 54.8417 107.661 54.8511 107.661C54.8604 107.661 54.8698 107.661 54.8792 107.661C54.8887 107.661 54.8981 107.661 54.9075 107.661C54.917 107.661 54.9264 107.661 54.9359 107.661C54.9454 107.661 54.9549 107.661 54.9644 107.661C54.9739 107.661 54.9834 107.661 54.9929 107.661C55.0025 107.661 55.012 107.661 55.0216 107.661C55.0312 107.661 55.0407 107.661 55.0503 107.661C55.0599 107.661 55.0696 107.661 55.0792 107.661C55.0888 107.661 55.0985 107.661 55.1081 107.661C55.1178 107.661 55.1275 107.661 55.1372 107.661C55.1469 107.661 55.1566 107.661 55.1663 107.661C55.1761 107.661 55.1858 107.661 55.1956 107.661C55.2053 107.661 55.2151 107.661 55.2249 107.661C55.2347 107.661 55.2445 107.661 55.2543 107.661C55.2641 107.661 55.274 107.661 55.2838 107.661C55.2937 107.661 55.3035 107.661 55.3134 107.661C55.3233 107.661 55.3332 107.661 55.3431 107.661C55.353 107.661 55.363 107.661 55.3729 107.661C55.3829 107.661 55.3928 107.661 55.4028 107.661C55.4128 107.661 55.4228 107.661 55.4328 107.661C55.4428 107.661 55.4528 107.661 55.4628 107.661C55.4729 107.661 55.4829 107.661 55.493 107.661C55.5031 107.661 55.5132 107.661 55.5233 107.661C55.5334 107.661 55.5435 107.661 55.5536 107.661C55.5637 107.661 55.5739 107.661 55.584 107.661C55.5942 107.661 55.6044 107.661 55.6145 107.661C55.6247 107.661 55.6349 107.661 55.6452 107.661C55.6554 107.661 55.6656 107.661 55.6759 107.661C55.6861 107.661 55.6964 107.661 55.7066 107.661C55.7169 107.661 55.7272 107.661 55.7375 107.661C55.7478 107.661 55.7582 107.661 55.7685 107.661C55.7788 107.661 55.7892 107.661 55.7995 107.661C55.8099 107.661 55.8203 107.661 55.8307 107.661C55.8411 107.661 55.8515 107.661 55.8619 107.661C55.8723 107.661 55.8828 107.661 55.8932 107.661C55.9037 107.661 55.9142 107.661 55.9246 107.661C55.9351 107.661 55.9456 107.661 55.9561 107.661C55.9667 107.661 55.9772 107.661 55.9877 107.661C55.9983 107.661 56.0088 107.661 56.0194 107.661C56.03 107.661 56.0405 107.661 56.0511 107.661C56.0617 107.661 56.0723 107.661 56.083 107.661C56.0936 107.661 56.1042 107.661 56.1149 107.661C56.1255 107.661 56.1362 107.661 56.1469 107.661C56.1576 107.661 56.1683 107.661 56.179 107.661C56.1897 107.661 56.2004 107.661 56.2112 107.661C56.2219 107.661 56.2327 107.661 56.2434 107.661C56.2542 107.661 56.265 107.661 56.2758 107.661C56.2866 107.661 56.2974 107.661 56.3082 107.661C56.319 107.661 56.3298 107.661 56.3407 107.661C56.3515 107.661 56.3624 107.661 56.3733 107.661C56.3842 107.661 56.3951 107.661 56.406 107.661C56.4169 107.661 56.4278 107.661 56.4387 107.661C56.4496 107.661 56.4606 107.661 56.4715 107.661C56.4825 107.661 56.4935 107.661 56.5045 107.661C56.5154 107.661 56.5264 107.661 56.5375 107.661C56.5485 107.661 56.5595 107.661 56.5705 107.661C56.5816 107.661 56.5926 107.661 56.6037 107.661C56.6148 107.661 56.6259 107.661 56.6369 107.661C56.648 107.661 56.6591 107.661 56.6703 107.661C56.6814 107.661 56.6925 107.661 56.7037 107.661C56.7148 107.661 56.726 107.661 56.7371 107.661C56.7483 107.661 56.7595 107.661 56.7707 107.661C56.7819 107.661 56.7931 107.661 56.8043 107.661C56.8156 107.661 56.8268 107.661 56.8381 107.661C56.8493 107.661 56.8606 107.661 56.8718 107.661C56.8831 107.661 56.8944 107.661 56.9057 107.661C56.917 107.661 56.9283 107.661 56.9397 107.661C56.951 107.661 56.9623 107.661 56.9737 107.661C56.985 107.661 56.9964 107.661 57.0078 107.661C57.0192 107.661 57.0306 107.661 57.042 107.661C57.0534 107.661 57.0648 107.661 57.0762 107.661C57.0877 107.661 57.0991 107.661 57.1106 107.661C57.122 107.661 57.1335 107.661 57.145 107.661C57.1564 107.661 57.1679 107.661 57.1794 107.661C57.1909 107.661 57.2025 107.661 57.214 107.661C57.2255 107.661 57.2371 107.661 57.2486 107.661C57.2602 107.661 57.2718 107.661 57.2833 107.661C57.2949 107.661 57.3065 107.661 57.3181 107.661C57.3297 107.661 57.3413 107.661 57.353 107.661C57.3646 107.661 57.3762 107.661 57.3879 107.661C57.3995 107.661 57.4112 107.661 57.4229 107.661C57.4346 107.661 57.4463 107.661 57.458 107.661C57.4697 107.661 57.4814 107.661 57.4931 107.661C57.5048 107.661 57.5166 107.661 57.5283 107.661C57.5401 107.661 57.5518 107.661 57.5636 107.661C57.5754 107.661 57.5872 107.661 57.599 107.661C57.6108 107.661 57.6226 107.661 57.6344 107.661C57.6462 107.661 57.6581 107.661 57.6699 107.661C57.6817 107.661 57.6936 107.661 57.7055 107.661C57.7173 107.661 57.7292 107.661 57.7411 107.661C57.753 107.661 57.7649 107.661 57.7768 107.661C57.7887 107.661 57.8007 107.661 57.8126 107.661C57.8245 107.661 57.8365 107.661 57.8485 107.661C57.8604 107.661 57.8724 107.661 57.8844 107.661C57.8964 107.661 57.9084 107.661 57.9204 107.661C57.9324 107.661 57.9444 107.661 57.9564 107.661C57.9685 107.661 57.9805 107.661 57.9925 107.661C58.0046 107.661 58.0167 107.661 58.0287 107.661C58.0408 107.661 58.0529 107.661 58.065 107.661C58.0771 107.661 58.0892 107.661 58.1013 107.661C58.1134 107.661 58.1256 107.661 58.1377 107.661C58.1499 107.661 58.162 107.661 58.1742 107.661C58.1863 107.661 58.1985 107.661 58.2107 107.661C58.2229 107.661 58.2351 107.661 58.2473 107.661C58.2595 107.661 58.2717 107.661 58.284 107.661C58.2962 107.661 58.3084 107.661 58.3207 107.661C58.3329 107.661 58.3452 107.661 58.3575 107.661C58.3697 107.661 58.382 107.661 58.3943 107.661C58.4066 107.661 58.4189 107.661 58.4312 107.661C58.4436 107.661 58.4559 107.661 58.4682 107.661C58.4806 107.661 58.4929 107.661 58.5053 107.661C58.5176 107.661 58.53 107.661 58.5424 107.661C58.5548 107.661 58.5672 107.661 58.5796 107.661C58.592 107.661 58.6044 107.661 58.6168 107.661C58.6292 107.661 58.6416 107.661 58.6541 107.661C58.6665 107.661 58.679 107.661 58.6914 107.661C58.7039 107.661 58.7164 107.661 58.7289 107.661C58.7414 107.661 58.7538 107.661 58.7663 107.661C58.7789 107.661 58.7914 107.661 58.8039 107.661C58.8164 107.661 58.829 107.661 58.8415 107.661C58.854 107.661 58.8666 107.661 58.8792 107.661C58.8917 107.661 58.9043 107.661 58.9169 107.661C58.9295 107.661 58.9421 107.661 58.9547 107.661C58.9673 107.661 58.9799 107.661 58.9925 107.661C59.0051 107.661 59.0178 107.661 59.0304 107.661C59.0431 107.661 59.0557 107.661 59.0684 107.661C59.0811 107.661 59.0937 107.661 59.1064 107.661C59.1191 107.661 59.1318 107.661 59.1445 107.661C59.1572 107.661 59.1699 107.661 59.1826 107.661C59.1954 107.661 59.2081 107.661 59.2208 107.661C59.2336 107.661 59.2463 107.661 59.2591 107.661C59.2719 107.661 59.2846 107.661 59.2974 107.661C59.3102 107.661 59.323 107.661 59.3358 107.661C59.3486 107.661 59.3614 107.661 59.3742 107.661C59.387 107.661 59.3998 107.661 59.4127 107.661C59.4255 107.661 59.4384 107.661 59.4512 107.661C59.4641 107.661 59.4769 107.661 59.4898 107.661C59.5027 107.661 59.5156 107.661 59.5285 107.661C59.5414 107.661 59.5543 107.661 59.5672 107.661C59.5801 107.661 59.593 107.661 59.6059 107.661C59.6189 107.661 59.6318 107.661 59.6447 107.661C59.6577 107.661 59.6706 107.661 59.6836 107.661C59.6966 107.661 59.7095 107.661 59.7225 107.661C59.7355 107.661 59.7485 107.661 59.7615 107.661C59.7745 107.661 59.7875 107.661 59.8005 107.661C59.8135 107.661 59.8266 107.661 59.8396 107.661C59.8526 107.661 59.8657 107.661 59.8787 107.661C59.8918 107.661 59.9049 107.661 59.9179 107.661C59.931 107.661 59.9441 107.661 59.9572 107.661C59.9703 107.661 59.9833 107.661 59.9965 107.661C60.0096 107.661 60.0227 107.661 60.0358 107.661C60.0489 107.661 60.062 107.661 60.0752 107.661C60.0883 107.661 60.1015 107.661 60.1146 107.661C60.1278 107.661 60.1409 107.661 60.1541 107.661C60.1673 107.661 60.1805 107.661 60.1937 107.661C60.2069 107.661 60.2201 107.661 60.2333 107.661C60.2465 107.661 60.2597 107.661 60.2729 107.661C60.2861 107.661 60.2994 107.661 60.3126 107.661C60.3258 107.661 60.3391 107.661 60.3523 107.661C60.3656 107.661 60.3788 107.661 60.3921 107.661C60.4054 107.661 60.4187 107.661 60.432 107.661C60.4452 107.661 60.4585 107.661 60.4718 107.661C60.4851 107.661 60.4985 107.661 60.5118 107.661C60.5251 107.661 60.5384 107.661 60.5518 107.661C60.5651 107.661 60.5784 107.661 60.5918 107.661C60.6051 107.661 60.6185 107.661 60.6319 107.661C60.6452 107.661 60.6586 107.661 60.672 107.661C60.6854 107.661 60.6987 107.661 60.7121 107.661C60.7255 107.661 60.7389 107.661 60.7524 107.661C60.7658 107.661 60.7792 107.661 60.7926 107.661C60.806 107.661 60.8195 107.661 60.8329 107.661C60.8464 107.661 60.8598 107.661 60.8733 107.661C60.8867 107.661 60.9002 107.661 60.9137 107.661C60.9271 107.661 60.9406 107.661 60.9541 107.661C60.9676 107.661 60.9811 107.661 60.9946 107.661C61.0081 107.661 61.0216 107.661 61.0351 107.661C61.0486 107.661 61.0621 107.661 61.0757 107.661C61.0892 107.661 61.1027 107.661 61.1163 107.661C61.1298 107.661 61.1434 107.661 61.1569 107.661C61.1705 107.661 61.184 107.661 61.1976 107.661C61.2112 107.661 61.2248 107.661 61.2383 107.661C61.2519 107.661 61.2655 107.661 61.2791 107.661C61.2927 107.661 61.3063 107.661 61.3199 107.661C61.3336 107.661 61.3472 107.661 61.3608 107.661C61.3744 107.661 61.3881 107.661 61.4017 107.661C61.4153 107.661 61.429 107.661 61.4426 107.661C61.4563 107.661 61.47 107.661 61.4836 107.661C61.4973 107.661 61.511 107.661 61.5247 107.661C61.5383 107.661 61.552 107.661 61.5657 107.661C61.5794 107.661 61.5931 107.661 61.6068 107.661C61.6205 107.661 61.6342 107.661 61.648 107.661C61.6617 107.661 61.6754 107.661 61.6891 107.661C61.7029 107.661 61.7166 107.661 61.7304 107.661C61.7441 107.661 61.7578 107.661 61.7716 107.661C61.7854 107.661 61.7991 107.661 61.8129 107.661C61.8267 107.661 61.8404 107.661 61.8542 107.661C61.868 107.661 61.8818 107.661 61.8956 107.661C61.9094 107.661 61.9232 107.661 61.937 107.661C61.9508 107.661 61.9646 107.661 61.9784 107.661C61.9923 107.661 62.0061 107.661 62.0199 107.661C62.0337 107.661 62.0476 107.661 62.0614 107.661C62.0753 107.661 62.0891 107.661 62.103 107.661C62.1168 107.661 62.1307 107.661 62.1446 107.661C62.1584 107.661 62.1723 107.661 62.1862 107.661C62.2001 107.661 62.2139 107.661 62.2278 107.661C62.2417 107.661 62.2556 107.661 62.2695 107.661C62.2834 107.661 62.2973 107.661 62.3112 107.661C62.3251 107.661 62.3391 107.661 62.353 107.661C62.3669 107.661 62.3808 107.661 62.3948 107.661C62.4087 107.661 62.4226 107.661 62.4366 107.661C62.4505 107.661 62.4645 107.661 62.4784 107.661C62.4924 107.661 62.5064 107.661 62.5203 107.661C62.5343 107.661 62.5483 107.661 62.5622 107.661C62.5762 107.661 62.5902 107.661 62.6042 107.661C62.6182 107.661 62.6322 107.661 62.6462 107.661C62.6602 107.661 62.6742 107.661 62.6882 107.661C62.7022 107.661 62.7162 107.661 62.7302 107.661C62.7443 107.661 62.7583 107.661 62.7723 107.661C62.7863 107.661 62.8004 107.661 62.8144 107.661C62.8285 107.661 62.8425 107.661 62.8565 107.661C62.8706 107.661 62.8847 107.661 62.8987 107.661C62.9128 107.661 62.9268 107.661 62.9409 107.661C62.955 107.661 62.969 107.661 62.9831 107.661C62.9972 107.661 63.0113 107.661 63.0254 107.661C63.0395 107.661 63.0536 107.661 63.0677 107.661C63.0818 107.661 63.0959 107.661 63.11 107.661C63.1241 107.661 63.1382 107.661 63.1523 107.661C63.1664 107.661 63.1805 107.661 63.1947 107.661C63.2088 107.661 63.2229 107.661 63.237 107.661C63.2512 107.661 63.2653 107.661 63.2795 107.661C63.2936 107.661 63.3078 107.661 63.3219 107.661C63.3361 107.661 63.3502 107.661 63.3644 107.661C63.3785 107.661 63.3927 107.661 63.4069 107.661C63.421 107.661 63.4352 107.661 63.4494 107.661C63.4636 107.661 63.4777 107.661 63.4919 107.661C63.5061 107.661 63.5203 107.661 63.5345 107.661C63.5487 107.661 63.5629 107.661 63.5771 107.661C63.5913 107.661 63.6055 107.661 63.6197 107.661C63.6339 107.661 63.6481 107.661 63.6624 107.661C63.6766 107.661 63.6908 107.661 63.705 107.661C63.7193 107.661 63.7335 107.661 63.7477 107.661C63.762 107.661 63.7762 107.661 63.7904 107.661C63.8047 107.661 63.8189 107.661 63.8332 107.661C63.8474 107.661 63.8617 107.661 63.8759 107.661C63.8902 107.661 63.9045 107.661 63.9187 107.661C63.933 107.661 63.9472 107.661 63.9615 107.661C63.9758 107.661 63.9901 107.661 64.0043 107.661C64.0186 107.661 64.0329 107.661 64.0472 107.661C64.0615 107.661 64.0758 107.661 64.0901 107.661C64.1044 107.661 64.1186 107.661 64.1329 107.661C64.1472 107.661 64.1615 107.661 64.1759 107.661C64.1902 107.661 64.2045 107.661 64.2188 107.661C64.2331 107.661 64.2474 107.661 64.2617 107.661C64.2761 107.661 64.2904 107.661 64.3047 107.661C64.319 107.661 64.3334 107.661 64.3477 107.661C64.362 107.661 64.3764 107.661 64.3907 107.661C64.405 107.661 64.4194 107.661 64.4337 107.661C64.4481 107.661 64.4624 107.661 64.4768 107.661C64.4911 107.661 64.5055 107.661 64.5198 107.661C64.5342 107.661 64.5485 107.661 64.5629 107.661C64.5773 107.661 64.5916 107.661 64.606 107.661C64.6204 107.661 64.6347 107.661 64.6491 107.661C64.6635 107.661 64.6778 107.661 64.6922 107.661C64.7066 107.661 64.721 107.661 64.7354 107.661C64.7498 107.661 64.7641 107.661 64.7785 107.661C64.7929 107.661 64.8073 107.661 64.8217 107.661C64.8361 107.661 64.8505 107.661 64.8649 107.661C64.8793 107.661 64.8937 107.661 64.9081 107.661C64.9225 107.661 64.9369 107.661 64.9513 107.661C64.9657 107.661 64.9801 107.661 64.9946 107.661C65.009 107.661 65.0234 107.661 65.0378 107.661C65.0522 107.661 65.0667 107.661 65.0811 107.661C65.0955 107.661 65.1099 107.661 65.1243 107.661C65.1388 107.661 65.1532 107.661 65.1676 107.661C65.1821 107.661 65.1965 107.661 65.2109 107.661C65.2254 107.661 65.2398 107.661 65.2543 107.661C65.2687 107.661 65.2831 107.661 65.2976 107.661C65.312 107.661 65.3265 107.661 65.3409 107.661C65.3554 107.661 65.3698 107.661 65.3843 107.661C65.3987 107.661 65.4132 107.661 65.4276 107.661C65.4421 107.661 65.4566 107.661 65.471 107.661C65.4855 107.661 65.4999 107.661 65.5144 107.661C65.5289 107.661 65.5433 107.661 65.5578 107.661C65.5723 107.661 65.5867 107.661 65.6012 107.661C65.6157 107.661 65.6301 107.661 65.6446 107.661C65.6591 107.661 65.6736 107.661 65.688 107.661C65.7025 107.661 65.717 107.661 65.7315 107.661C65.7459 107.661 65.7604 107.661 65.7749 107.661C65.7894 107.661 65.8039 107.661 65.8184 107.661C65.8328 107.661 65.8473 107.661 65.8618 107.661C65.8763 107.661 65.8908 107.661 65.9053 107.661C65.9198 107.661 65.9343 107.661 65.9488 107.661C65.9633 107.661 65.9778 107.661 65.9922 107.661C66.0067 107.661 66.0212 107.661 66.0357 107.661C66.0502 107.661 66.0647 107.661 66.0792 107.661C66.0937 107.661 66.1082 107.661 66.1227 107.661C66.1372 107.661 66.1517 107.661 66.1662 107.661C66.1807 107.661 66.1953 107.661 66.2098 107.661C66.2243 107.661 66.2388 107.661 66.2533 107.661C66.2678 107.661 66.2823 107.661 66.2968 107.661C66.3113 107.661 66.3258 107.661 66.3403 107.661C66.3548 107.661 66.3694 107.661 66.3839 107.661C66.3984 107.661 66.4129 107.661 66.4274 107.661C66.4419 107.661 66.4564 107.661 66.4709 107.661C66.4855 107.661 66.5 107.661 66.5145 107.661C66.529 107.661 66.5435 107.661 66.558 107.661C66.5726 107.661 66.5871 107.661 66.6016 107.661C66.6161 107.661 66.6306 107.661 66.6451 107.661C66.6597 107.661 66.6742 107.661 66.6887 107.661C66.7032 107.661 66.7177 107.661 66.7323 107.661C66.7468 107.661 66.7613 107.661 66.7758 107.661C66.7903 107.661 66.8049 107.661 66.8194 107.661C66.8339 107.661 66.8484 107.661 66.8629 107.661C66.8775 107.661 66.892 107.661 66.9065 107.661C66.921 107.661 66.9356 107.661 66.9501 107.661C66.9646 107.661 66.9791 107.661 66.9936 107.661C67.0082 107.661 67.0227 107.661 67.0372 107.661C67.0517 107.661 67.0662 107.661 67.0808 107.661C67.0953 107.661 67.1098 107.661 67.1243 107.661C67.1389 107.661 67.1534 107.661 67.1679 107.661C67.1824 107.661 67.1969 107.661 67.2115 107.661C67.226 107.661 67.2405 107.661 67.255 107.661C67.2695 107.661 67.284 107.661 67.2986 107.661C67.3131 107.661 67.3276 107.661 67.3421 107.661C67.3566 107.661 67.3712 107.661 67.3857 107.661C67.4002 107.661 67.4147 107.661 67.4292 107.661C67.4437 107.661 67.4583 107.661 67.4728 107.661C67.4873 107.661 67.5018 107.661 67.5163 107.661C67.5308 107.661 67.5453 107.661 67.5599 107.661C67.5744 107.661 67.5889 107.661 67.6034 107.661C67.6179 107.661 67.6324 107.661 67.6469 107.661C67.6614 107.661 67.6759 107.661 67.6904 107.661C67.7049 107.661 67.7195 107.661 67.734 107.661C67.7485 107.661 67.763 107.661 67.7775 107.661C67.792 107.661 67.8065 107.661 67.821 107.661C67.8355 107.661 67.85 107.661 67.8645 107.661C67.879 107.661 67.8935 107.661 67.908 107.661C67.9225 107.661 67.937 107.661 67.9515 107.661C67.966 107.661 67.9805 107.661 67.995 107.661C68.0094 107.661 68.0239 107.661 68.0384 107.661C68.0529 107.661 68.0674 107.661 68.0819 107.661C68.0964 107.661 68.1109 107.661 68.1254 107.661C68.1398 107.661 68.1543 107.661 68.1688 107.661C68.1833 107.661 68.1978 107.661 68.2123 107.661C68.2267 107.661 68.2412 107.661 68.2557 107.661C68.2702 107.661 68.2846 107.661 68.2991 107.661C68.3136 107.661 68.3281 107.661 68.3425 107.661C68.357 107.661 68.3715 107.661 68.3859 107.661C68.4004 107.661 68.4149 107.661 68.4293 107.661C68.4438 107.661 68.4583 107.661 68.4727 107.661C68.4872 107.661 68.5016 107.661 68.5161 107.661C68.5306 107.661 68.545 107.661 68.5595 107.661C68.5739 107.661 68.5884 107.661 68.6028 107.661C68.6173 107.661 68.6317 107.661 68.6462 107.661C68.6606 107.661 68.675 107.661 68.6895 107.661C68.7039 107.661 68.7184 107.661 68.7328 107.661C68.7472 107.661 68.7617 107.661 68.7761 107.661C68.7905 107.661 68.805 107.661 68.8194 107.661C68.8338 107.661 68.8483 107.661 68.8627 107.661C68.8771 107.661 68.8915 107.661 68.9059 107.661C68.9204 107.661 68.9348 107.661 68.9492 107.661C68.9636 107.661 68.978 107.661 68.9924 107.661C69.0068 107.661 69.0213 107.661 69.0357 107.661C69.0501 107.661 69.0645 107.661 69.0789 107.661C69.0933 107.661 69.1077 107.661 69.1221 107.661C69.1365 107.661 69.1508 107.661 69.1652 107.661C69.1796 107.661 69.194 107.661 69.2084 107.661C69.2228 107.661 69.2372 107.661 69.2515 107.661C69.2659 107.661 69.2803 107.661 69.2947 107.661C69.3091 107.661 69.3234 107.661 69.3378 107.661C69.3522 107.661 69.3665 107.661 69.3809 107.661C69.3952 107.661 69.4096 107.661 69.424 107.661C69.4383 107.661 69.4527 107.661 69.467 107.661C69.4814 107.661 69.4957 107.661 69.5101 107.661C69.5244 107.661 69.5388 107.661 69.5531 107.661C69.5674 107.661 69.5818 107.661 69.5961 107.661C69.6104 107.661 69.6248 107.661 69.6391 107.661C69.6534 107.661 69.6677 107.661 69.6821 107.661C69.6964 107.661 69.7107 107.661 69.725 107.661C69.7393 107.661 69.7536 107.661 69.7679 107.661C69.7823 107.661 69.7966 107.661 69.8109 107.661C69.8252 107.661 69.8395 107.661 69.8537 107.661C69.868 107.661 69.8823 107.661 69.8966 107.661C69.9109 107.661 69.9252 107.661 69.9395 107.661C69.9537 107.661 69.968 107.661 69.9823 107.661C69.9966 107.661 70.0108 107.661 70.0251 107.661C70.0394 107.661 70.0536 107.661 70.0679 107.661C70.0821 107.661 70.0964 107.661 70.1106 107.661C70.1249 107.661 70.1391 107.661 70.1534 107.661C70.1676 107.661 70.1819 107.661 70.1961 107.661C70.2103 107.661 70.2246 107.661 70.2388 107.661C70.253 107.661 70.2673 107.661 70.2815 107.661C70.2957 107.661 70.3099 107.661 70.3241 107.661C70.3383 107.661 70.3525 107.661 70.3667 107.661C70.3809 107.661 70.3951 107.661 70.4093 107.661C70.4235 107.661 70.4377 107.661 70.4519 107.661C70.4661 107.661 70.4803 107.661 70.4945 107.661C70.5086 107.661 70.5228 107.661 70.537 107.661C70.5512 107.661 70.5653 107.661 70.5795 107.661C70.5937 107.661 70.6078 107.661 70.622 107.661C70.6361 107.661 70.6503 107.661 70.6644 107.661C70.6786 107.661 70.6927 107.661 70.7068 107.661C70.721 107.661 70.7351 107.661 70.7492 107.661C70.7633 107.661 70.7775 107.661 70.7916 107.661C70.8057 107.661 70.8198 107.661 70.8339 107.661C70.848 107.661 70.8621 107.661 70.8762 107.661C70.8903 107.661 70.9044 107.661 70.9185 107.661C70.9326 107.661 70.9467 107.661 70.9608 107.661C70.9749 107.661 70.9889 107.661 71.003 107.661C71.0171 107.661 71.0311 107.661 71.0452 107.661C71.0593 107.661 71.0733 107.661 71.0874 107.661C71.1014 107.661 71.1155 107.661 71.1295 107.661C71.1435 107.661 71.1576 107.661 71.1716 107.661C71.1856 107.661 71.1997 107.661 71.2137 107.661C71.2277 107.661 71.2417 107.661 71.2557 107.661C71.2697 107.661 71.2837 107.661 71.2977 107.661C71.3117 107.661 71.3257 107.661 71.3397 107.661C71.3537 107.661 71.3677 107.661 71.3817 107.661C71.3957 107.661 71.4096 107.661 71.4236 107.661C71.4376 107.661 71.4515 107.661 71.4655 107.661C71.4795 107.661 71.4934 107.661 71.5074 107.661C71.5213 107.661 71.5352 107.661 71.5492 107.661C71.5631 107.661 71.5771 107.661 71.591 107.661C71.6049 107.661 71.6188 107.661 71.6327 107.661C71.6466 107.661 71.6606 107.661 71.6745 107.661C71.6884 107.661 71.7023 107.661 71.7162 107.661C71.73 107.661 71.7439 107.661 71.7578 107.661C71.7717 107.661 71.7856 107.661 71.7994 107.661C71.8133 107.661 71.8272 107.661 71.841 107.661C71.8549 107.661 71.8687 107.661 71.8826 107.661C71.8964 107.661 71.9103 107.661 71.9241 107.661C71.9379 107.661 71.9517 107.661 71.9656 107.661C71.9794 107.661 71.9932 107.661 72.007 107.661C72.0208 107.661 72.0346 107.661 72.0484 107.661C72.0622 107.661 72.076 107.661 72.0898 107.661C72.1036 107.661 72.1174 107.661 72.1311 107.661C72.1449 107.661 72.1587 107.661 72.1724 107.661C72.1862 107.661 72.1999 107.661 72.2137 107.661C72.2274 107.661 72.2412 107.661 72.2549 107.661C72.2686 107.661 72.2824 107.661 72.2961 107.661C72.3098 107.661 72.3235 107.661 72.3372 107.661V106.661ZM86.8429 121.572C86.6287 121.572 86.4339 121.437 86.3566 121.225L85.4175 121.569C85.6353 122.164 86.1982 122.572 86.8429 122.572V121.572ZM38.4238 133.713C39.2572 133.981 40.1221 134.077 40.9663 134.082L40.9732 133.082C40.197 133.077 39.4389 132.989 38.7295 132.761L38.4238 133.713ZM102.5 128.015C102.5 124.457 99.615 121.572 96.0563 121.572V122.572C99.0628 122.572 101.5 125.009 101.5 128.015H102.5ZM79.6952 42.3341C74.2493 42.3341 68.5435 42.5875 63.581 45.1402L64.0384 46.0294C68.764 43.5986 74.2463 43.3341 79.6952 43.3341V42.3341ZM96.0122 134.459C99.5881 134.484 102.5 131.591 102.5 128.015H101.5C101.5 131.037 99.04 133.48 96.019 133.459L96.0122 134.459ZM97.3221 39C97.3221 40.8414 95.8294 42.3341 93.9881 42.3341V43.3341C96.3817 43.3341 98.3221 41.3936 98.3221 39H97.3221Z" fill="#232833"/>
<path d="M91.5 112.5C89.7857 110.188 83.5 106 75.5 107.501" stroke="#232833" stroke-linecap="round"/>
<path d="M97.4098 134H114C117.314 134 120 131.314 120 128V128C120 124.686 117.314 122 114 122H94" stroke="#232833"/>
<path d="M115.3 134H121C124.314 134 127 131.314 127 128V128C127 124.686 124.314 122 121 122H109" stroke="#232833"/>
<path d="M107 38V38C107 40.6637 109.159 42.823 111.823 42.823H129.812C136 43 148.063 47.3257 154.699 60.2389C160.92 71.2832 173.861 96.4301 175.852 108.664C176.005 109.603 176.156 110.522 176.304 111.42C178.2 122.932 169.626 133.434 157.963 133.752L157.135 133.775C151.791 133.921 146.549 132.292 142.228 129.143V129.143C133.46 122.751 125.709 115.07 119.238 106.359L116 102" stroke="#232833" stroke-linecap="round"/>
<path d="M166.5 83C161.639 83.2857 151.333 84.8857 147 89" stroke="#232833"/>
<path d="M153 94.8871C146.987 88.5479 133.757 75.6101 128.946 74.5728C124.845 73.6883 106.92 73.9979 94.7152 74.3762C91.5211 74.4752 89 77.1004 89 80.2961V80.2961C89 83.5801 91.6622 86.2423 94.9462 86.2423H112.86C114.306 86.2423 115.62 87.0367 116.481 88.1985C118.965 91.5516 123.556 95.7438 128.946 94.8871" stroke="#232833" stroke-linecap="round"/>
<path d="M93.9375 75C94.2136 75 94.4375 74.7761 94.4375 74.5C94.4375 74.2239 94.2136 74 93.9375 74V75ZM93.9375 74H88.75V75H93.9375V74ZM88.75 86.5H97V85.5H88.75V86.5ZM82.5 80.25C82.5 83.7018 85.2982 86.5 88.75 86.5V85.5C85.8505 85.5 83.5 83.1495 83.5 80.25H82.5ZM88.75 74C85.2982 74 82.5 76.7982 82.5 80.25H83.5C83.5 77.3505 85.8505 75 88.75 75V74Z" fill="#232833"/>
<path d="M67 78C65.162 82 61.5963 92.4 62.0374 102" stroke="#232833" stroke-linecap="round"/>
<path d="M37 83C43.3934 84.098 57.5443 87.0353 63 90" stroke="#232833"/>
<path d="M115.413 29.8537L115.464 29.5219C115.72 27.8424 114.189 26.4405 112.538 26.8421L111 34L114.236 31.7459C114.871 31.3033 115.297 30.6192 115.413 29.8537Z" fill="white" stroke="#232833"/>
<path d="M87.5867 29.8537L87.5362 29.5219C87.2805 27.8424 88.8108 26.4405 90.4615 26.8421L92 34L88.7643 31.7459C88.129 31.3033 87.7032 30.6192 87.5867 29.8537Z" fill="white" stroke="#232833"/>
<path d="M112.5 28C112.5 34.3715 107.555 39.5 101.5 39.5C95.4447 39.5 90.5 34.3715 90.5 28C90.5 21.6285 95.4447 16.5 101.5 16.5C107.555 16.5 112.5 21.6285 112.5 28Z" fill="white" stroke="#232833"/>
<path d="M94.5 24.5C94.1 26.9 91.6667 27.8333 90.5 28L91.5 21L99 16L107 18L114 26C112.5 26 112.5 32.5 112 30C111.314 26.568 108.5 24.5 104 26C100.4 27.2 97.8333 25.5 97 24.5C96.3333 23.5 94.9 22.1 94.5 24.5Z" fill="#232833"/>
<circle cx="97" cy="31" r="1" fill="#232833"/>
<circle cx="106" cy="31" r="1" fill="#232833"/>
<path d="M101.6 27L100.479 31.6308C100.218 32.7097 100.91 33.7881 102 34V34" stroke="#232833" stroke-linecap="round"/>
<path d="M90 43.4277C90.431 46.2789 92.7712 52.708 99.0517 53.6919C107.241 54.9749 112.414 52.4089 115 43" stroke="#232833"/>
<mask id="mask0_1708_4743" style="mask-type:alpha" maskUnits="userSpaceOnUse" x="89" y="86" width="26" height="36">
<path d="M89 86H114.961C115.102 87.6941 114.961 90.9882 112.833 94.0471C109.86 98.3199 105.927 101.062 102.151 103.536C112.918 108.953 114.066 115.707 114.535 117.341C115.021 119.035 114.535 122 114.535 122H89.8512C89.8512 121.435 89.676 119.873 89.8512 118.188C90.6325 110.672 96.1954 107.438 102.151 103.536C101.752 103.336 101.341 103.137 100.916 102.941C93.1003 99.3298 89.8512 91.5059 89 86Z" fill="#D9D9D9"/>
</mask>
<g mask="url(#mask0_1708_4743)">
<path d="M113 93H91L91.8462 103H112.577L113 93Z" fill="#115EE8"/>
<path d="M102 103V120.278" stroke="#115EE8" stroke-width="2"/>
<path d="M115.378 117.306H89.25L90.2549 121.52H114.876L115.378 117.306Z" fill="#115EE8"/>
</g>
<path d="M120 101.904C117.917 102.267 113 101.904 110 97.5" stroke="#232833" stroke-linecap="round"/>
<path d="M89 86H113.121C114.161 86 115.041 86.7996 114.971 87.8371C114.852 89.5887 114.342 91.8771 112.833 94.0471C105.172 105.059 91.1279 105.906 89.8512 118.188C89.676 119.873 89.8512 121.435 89.8512 122H114.535C114.535 122 115 119.5 114.535 117.341C114.07 115.182 112.833 108.447 100.916 102.941C93.1003 99.3298 89.8512 91.5059 89 86Z" stroke="#232833"/>
<path d="M0 134H208" stroke="#232833" stroke-width="2"/>
<circle cx="140" cy="25" r="1.5" stroke="#232833"/>
<circle cx="146" cy="25" r="1.5" stroke="#232833"/>
<path d="M5.40649 39C4.70357 40.9235 4.62615 44.1244 7.55483 46.0578C11.5109 48.6695 19.3511 43.0738 14.6155 42.8621V42.8621C9.21716 42.6207 9.23668 49.7759 14 50.5" stroke="#115EE8" stroke-linecap="round"/>
<circle cx="152" cy="25" r="1.5" stroke="#232833"/>
<path opacity="0.56" d="M194.276 57.3644L189.08 55.9953" stroke="#115EE8" stroke-linecap="round"/>
<path opacity="0.56" d="M191.013 59.2834L192.343 54.0777" stroke="#115EE8" stroke-linecap="round"/>
<path opacity="0.29" d="M44.0918 2.79508C44.3777 1.91531 45.6223 1.91531 45.9082 2.79508C46.036 3.18853 46.4027 3.45492 46.8164 3.45492C47.7414 3.45492 48.126 4.63864 47.3776 5.18237C47.043 5.42554 46.9029 5.85655 47.0307 6.25C47.3166 7.12977 46.3097 7.86136 45.5613 7.31763C45.2266 7.07446 44.7734 7.07446 44.4387 7.31763C43.6903 7.86136 42.6834 7.12977 42.9693 6.25C43.0971 5.85655 42.957 5.42554 42.6224 5.18237C41.874 4.63864 42.2586 3.45492 43.1836 3.45492C43.5973 3.45492 43.964 3.18853 44.0918 2.79508Z" fill="#115EE8"/>
</svg>
