<svg width="30" height="30" viewBox="0 0 30 30" fill="none" xmlns="http://www.w3.org/2000/svg">
<g id="&#229;&#190;&#174;&#228;&#191;&#161;">
<g id="Vector">
<path d="M19.2187 10.89C19.6448 10.89 20.061 10.9255 20.4716 10.9761C19.7293 7.71596 16.3051 5.25 12.1876 5.25C7.52718 5.25 3.75 8.40691 3.75 12.3001C3.75 14.5446 5.01289 16.536 6.97172 17.8246L5.85934 20.0553L8.88966 18.7538C9.53947 18.9852 10.2147 19.1757 10.9359 19.2644C10.8374 18.8342 10.7814 18.3931 10.7814 17.9404C10.7814 14.0528 14.5654 10.89 19.2187 10.89ZM15.0001 8.42232C15.5825 8.42232 16.0547 8.89604 16.0547 9.47997C16.0547 10.0641 15.5825 10.5375 15.0001 10.5375C14.4175 10.5375 13.9454 10.0641 13.9454 9.47997C13.9454 8.89599 14.4175 8.42232 15.0001 8.42232ZM9.37502 10.5375C8.79261 10.5375 8.32036 10.0641 8.32036 9.47997C8.32036 8.89604 8.79266 8.42232 9.37502 8.42232C9.95739 8.42232 10.4297 8.89604 10.4297 9.47997C10.4297 10.0641 9.95734 10.5375 9.37502 10.5375Z" fill="#6CD550"/>
<path d="M26.25 17.9403C26.25 14.8254 23.1012 12.3001 19.2187 12.3001C15.336 12.3001 12.1876 14.8254 12.1876 17.9403C12.1876 21.0551 15.336 23.5804 19.2187 23.5804C19.8572 23.5804 20.4645 23.4902 21.0538 23.362L24.8438 24.9904L23.533 22.3637C25.1757 21.3314 26.25 19.7438 26.25 17.9403ZM17.1094 17.5878C16.527 17.5878 16.0547 17.1143 16.0547 16.53C16.0547 15.9461 16.527 15.4727 17.1094 15.4727C17.6919 15.4727 18.164 15.9463 18.164 16.53C18.164 17.1143 17.6918 17.5878 17.1094 17.5878ZM21.3281 17.5878C20.7454 17.5878 20.2734 17.1143 20.2734 16.53C20.2734 15.9461 20.7454 15.4727 21.3281 15.4727C21.9107 15.4727 22.3828 15.9463 22.3828 16.53C22.3828 17.1143 21.9107 17.5878 21.3281 17.5878Z" fill="#6CD550"/>
</g>
</g>
</svg>
